<svg width="48" height="48" viewBox="0 0 48 48" fill="none" xmlns="http://www.w3.org/2000/svg">
<g id="fi-rr-bulb" clip-path="url(#clip0_10_46)">
<path id="Vector" d="M35.9883 4.57226C33.5472 2.39135 30.5575 0.917432 27.341 0.309127C24.1245 -0.299177 20.8031 -0.0188352 17.7341 1.11998C14.6651 2.2588 11.9647 4.21298 9.9236 6.77221C7.88251 9.33144 6.57796 12.3988 6.15035 15.6443C5.7663 18.49 6.07345 21.3863 7.04578 24.0882C8.01812 26.79 9.62703 29.2179 11.7363 31.1663C13.0407 32.3101 14.0933 33.7125 14.8273 35.2845C15.5613 36.8565 15.9608 38.5638 16.0003 40.2983V40.6203C16.0025 42.5769 16.7807 44.4528 18.1642 45.8364C19.5478 47.2199 21.4237 47.9981 23.3803 48.0003H24.6203C26.577 47.9981 28.4529 47.2199 29.8365 45.8364C31.22 44.4528 31.9982 42.5769 32.0003 40.6203V39.5223C32.0303 37.9892 32.391 36.4807 33.0579 35.0999C33.7248 33.7192 34.6821 32.4988 35.8643 31.5223C37.7815 29.8431 39.32 27.7758 40.3779 25.4572C41.4358 23.1386 41.9889 20.6217 42.0006 18.0732C42.0124 15.5247 41.4824 13.0028 40.4459 10.6746C39.4094 8.34635 37.89 6.26495 35.9883 4.56826V4.57226ZM24.6203 44.0003H23.3803C22.4842 43.9992 21.6251 43.6428 20.9915 43.0091C20.3578 42.3755 20.0014 41.5164 20.0003 40.6203C20.0003 40.6203 19.9863 40.1003 19.9843 40.0003H28.0003V40.6203C27.9993 41.5164 27.6428 42.3755 27.0092 43.0091C26.3756 43.6428 25.5165 43.9992 24.6203 44.0003ZM33.2203 28.5183C30.9432 30.4933 29.2987 33.0958 28.4923 36.0003H26.0003V21.6323C27.1662 21.2201 28.1762 20.4578 28.8922 19.4497C29.6082 18.4415 29.9952 17.2368 30.0003 16.0003C30.0003 15.4698 29.7896 14.9611 29.4146 14.5861C29.0395 14.211 28.5308 14.0003 28.0003 14.0003C27.4699 14.0003 26.9612 14.211 26.5861 14.5861C26.2111 14.9611 26.0003 15.4698 26.0003 16.0003C26.0003 16.5307 25.7896 17.0394 25.4146 17.4145C25.0395 17.7896 24.5308 18.0003 24.0003 18.0003C23.4699 18.0003 22.9612 17.7896 22.5861 17.4145C22.2111 17.0394 22.0003 16.5307 22.0003 16.0003C22.0003 15.4698 21.7896 14.9611 21.4146 14.5861C21.0395 14.211 20.5308 14.0003 20.0003 14.0003C19.4699 14.0003 18.9612 14.211 18.5861 14.5861C18.2111 14.9611 18.0003 15.4698 18.0003 16.0003C18.0055 17.2368 18.3925 18.4415 19.1085 19.4497C19.8245 20.4578 20.8345 21.2201 22.0003 21.6323V36.0003H19.3563C18.4543 33.0187 16.7626 30.3366 14.4603 28.2383C12.5063 26.4175 11.1138 24.0757 10.4473 21.4892C9.78078 18.9028 9.86803 16.1797 10.6988 13.6413C11.5295 11.1028 13.069 8.85496 15.1357 7.16299C17.2023 5.47102 19.7099 4.40553 22.3623 4.09226C22.9122 4.03088 23.4651 4.00017 24.0183 4.00026C27.4535 3.99005 30.7697 5.25751 33.3223 7.55626C34.8017 8.87546 35.9838 10.494 36.7902 12.3047C37.5967 14.1154 38.009 16.0768 37.9999 18.0589C37.9908 20.041 37.5606 21.9986 36.7376 23.8018C35.9146 25.605 34.7178 27.2127 33.2263 28.5183H33.2203Z" fill="white"/>
</g>
<defs>
<clipPath id="clip0_10_46">
<rect width="48" height="48" fill="white"/>
</clipPath>
</defs>
</svg>
