<svg width="58" height="58" viewBox="0 0 58 58" fill="none" xmlns="http://www.w3.org/2000/svg">
<g id="ep:circle-close-filled">
<path id="Vector" d="M29 3.625C35.7299 3.625 42.1841 6.29843 46.9428 11.0572C51.7016 15.8159 54.375 22.2701 54.375 29C54.375 35.7299 51.7016 42.1841 46.9428 46.9428C42.1841 51.7016 35.7299 54.375 29 54.375C22.2701 54.375 15.8159 51.7016 11.0572 46.9428C6.29843 42.1841 3.625 35.7299 3.625 29C3.625 22.2701 6.29843 15.8159 11.0572 11.0572C15.8159 6.29843 22.2701 3.625 29 3.625ZM29 25.9224L23.1058 20.0281C22.6976 19.62 22.1441 19.3907 21.5669 19.3907C20.9898 19.3907 20.4362 19.62 20.0281 20.0281C19.62 20.4362 19.3907 20.9898 19.3907 21.5669C19.3907 22.1441 19.62 22.6976 20.0281 23.1058L25.9224 29L20.0281 34.8943C19.826 35.0963 19.6657 35.3362 19.5564 35.6003C19.447 35.8643 19.3907 36.1473 19.3907 36.4331C19.3907 36.7188 19.447 37.0018 19.5564 37.2659C19.6657 37.5299 19.826 37.7698 20.0281 37.9719C20.2302 38.174 20.4701 38.3343 20.7341 38.4436C20.9982 38.553 21.2812 38.6093 21.5669 38.6093C21.8527 38.6093 22.1357 38.553 22.3997 38.4436C22.6638 38.3343 22.9037 38.174 23.1058 37.9719L29 32.0776L34.8943 37.9719C35.0963 38.174 35.3362 38.3343 35.6003 38.4436C35.8643 38.553 36.1473 38.6093 36.4331 38.6093C36.7188 38.6093 37.0018 38.553 37.2659 38.4436C37.5299 38.3343 37.7698 38.174 37.9719 37.9719C38.174 37.7698 38.3343 37.5299 38.4436 37.2659C38.553 37.0018 38.6093 36.7188 38.6093 36.4331C38.6093 36.1473 38.553 35.8643 38.4436 35.6003C38.3343 35.3362 38.174 35.0963 37.9719 34.8943L32.0776 29L37.9719 23.1058C38.174 22.9037 38.3343 22.6638 38.4436 22.3997C38.553 22.1357 38.6093 21.8527 38.6093 21.5669C38.6093 21.2812 38.553 20.9982 38.4436 20.7341C38.3343 20.4701 38.174 20.2302 37.9719 20.0281C37.7698 19.826 37.5299 19.6657 37.2659 19.5564C37.0018 19.447 36.7188 19.3907 36.4331 19.3907C36.1473 19.3907 35.8643 19.447 35.6003 19.5564C35.3362 19.6657 35.0963 19.826 34.8943 20.0281L29 25.9224Z" fill="#ECECEC"/>
</g>
</svg>
