<svg width="46" height="46" viewBox="0 0 46 46" fill="none" xmlns="http://www.w3.org/2000/svg">
<g id="fi-rr-signal-alt-2" clip-path="url(#clip0_10_50)">
<path id="Vector" d="M23 11.5C21.475 11.5 20.0125 12.1058 18.9341 13.1841C17.8558 14.2625 17.25 15.725 17.25 17.25V40.25C17.25 41.775 17.8558 43.2375 18.9341 44.3159C20.0125 45.3942 21.475 46 23 46C24.525 46 25.9875 45.3942 27.0659 44.3159C28.1442 43.2375 28.75 41.775 28.75 40.25V17.25C28.75 15.725 28.1442 14.2625 27.0659 13.1841C25.9875 12.1058 24.525 11.5 23 11.5Z" fill="white"/>
<path id="Vector_2" d="M40.25 0C38.725 0 37.2625 0.605802 36.1841 1.68414C35.1058 2.76247 34.5 4.22501 34.5 5.75V40.25C34.5 41.775 35.1058 43.2375 36.1841 44.3159C37.2625 45.3942 38.725 46 40.25 46C41.775 46 43.2375 45.3942 44.3159 44.3159C45.3942 43.2375 46 41.775 46 40.25V5.75C46 4.22501 45.3942 2.76247 44.3159 1.68414C43.2375 0.605802 41.775 0 40.25 0V0Z" fill="white"/>
<path id="Vector_3" d="M5.75 23C4.22501 23 2.76247 23.6058 1.68414 24.6841C0.605802 25.7625 0 27.225 0 28.75L0 40.25C0 41.775 0.605802 43.2375 1.68414 44.3159C2.76247 45.3942 4.22501 46 5.75 46C7.27499 46 8.73753 45.3942 9.81586 44.3159C10.8942 43.2375 11.5 41.775 11.5 40.25V28.75C11.5 27.225 10.8942 25.7625 9.81586 24.6841C8.73753 23.6058 7.27499 23 5.75 23Z" fill="white"/>
</g>
<defs>
<clipPath id="clip0_10_50">
<rect width="46" height="46" fill="white"/>
</clipPath>
</defs>
</svg>
