<svg width="70" height="76" viewBox="0 0 70 76" fill="none" xmlns="http://www.w3.org/2000/svg">
<path id="Star 1" d="M26.9991 9.19217C30.9971 3.85323 39.0029 3.85323 43.0009 9.19217C46.1134 13.3488 50.7919 16.0499 55.9479 16.6671C62.5705 17.46 66.5734 24.3933 63.9487 30.525C61.9053 35.2989 61.9053 40.7011 63.9487 45.475C66.5734 51.6067 62.5705 58.54 55.9479 59.3329C50.7919 59.9501 46.1134 62.6512 43.0009 66.8078C39.0029 72.1468 30.9971 72.1468 26.9991 66.8078C23.8866 62.6512 19.2081 59.9501 14.0521 59.3329C7.4295 58.54 3.42656 51.6067 6.05126 45.475C8.09471 40.7011 8.09471 35.2989 6.05126 30.525C3.42656 24.3933 7.4295 17.46 14.0521 16.6671C19.2081 16.0499 23.8866 13.3488 26.9991 9.19217Z" fill="#FFDCC7" stroke="url(#paint0_linear_16_314)" stroke-width="9"/>
<defs>
<linearGradient id="paint0_linear_16_314" x1="35" y1="-9" x2="68.6373" y2="77.1667" gradientUnits="userSpaceOnUse">
<stop stop-color="#CC1102"/>
<stop offset="1" stop-color="#FF8534"/>
</linearGradient>
</defs>
</svg>
