<svg width="46" height="46" viewBox="0 0 46 46" fill="none" xmlns="http://www.w3.org/2000/svg">
<g id="fi-rr-thumbtack" clip-path="url(#clip0_10_68)">
<path id="Vector" d="M1.91626 46.0009C2.42455 46.0008 2.91198 45.7988 3.27134 45.4393L15.9578 32.7529L18.3498 35.2292C20.1526 37.1344 22.6374 38.2469 25.2593 38.3227C26.1334 38.3254 27.0014 38.1782 27.8258 37.8876C29.0995 37.4491 30.2185 36.6502 31.0469 35.588C31.8754 34.5258 32.3777 33.2459 32.4928 31.9038C32.7008 29.96 32.5567 27.9947 32.0673 26.102L31.6572 24.1049C31.5795 23.7855 31.5852 23.4515 31.6738 23.135C31.7624 22.8185 31.9309 22.53 32.1632 22.2974L35.2049 19.2538C35.3249 19.1333 35.4872 19.0645 35.6573 19.0621C35.7169 19.051 35.7785 19.0568 35.835 19.0788C35.8916 19.1008 35.9409 19.1382 35.9773 19.1867C36.9401 20.2076 38.2352 20.8518 39.6303 21.0036C41.0253 21.1553 42.4287 20.8047 43.5884 20.0147C44.2689 19.5296 44.8355 18.9019 45.2487 18.1755C45.6619 17.449 45.9118 16.6413 45.9809 15.8084C46.0501 14.9755 45.9368 14.1376 45.6491 13.3529C45.3614 12.5683 44.906 11.8558 44.3148 11.2651L34.8829 1.82937C33.9145 0.836725 32.6279 0.216077 31.2482 0.0759333C29.8685 -0.0642108 28.4834 0.285067 27.3351 1.0627C26.6544 1.54768 26.0877 2.1752 25.6743 2.90157C25.261 3.62794 25.0109 4.43569 24.9416 5.26856C24.8722 6.10144 24.9853 6.93941 25.2729 7.72413C25.5605 8.50885 26.0157 9.22144 26.6068 9.81228L26.7524 9.95795C26.8622 10.0685 26.9238 10.218 26.9238 10.3739C26.9238 10.5297 26.8622 10.6792 26.7524 10.7898L23.6858 13.8564C23.4505 14.0912 23.1583 14.2608 22.8377 14.3485C22.5171 14.4362 22.1793 14.439 21.8573 14.3567L20.2913 13.9561C18.3652 13.4531 16.3641 13.3018 14.3842 13.5095C12.9799 13.655 11.6466 14.1988 10.5412 15.077C9.43585 15.9552 8.60459 17.1311 8.14542 18.466C7.64434 19.8379 7.54553 21.3243 7.86064 22.7505C8.17574 24.1766 8.89164 25.483 9.92409 26.516L13.2936 30.0044L0.561175 42.7291C0.293207 42.9972 0.110728 43.3386 0.0368067 43.7104C-0.0371144 44.0821 0.000841237 44.4674 0.145875 44.8176C0.29091 45.1678 0.53651 45.4671 0.851629 45.6777C1.16675 45.8883 1.53724 46.0008 1.91626 46.0009ZM11.7583 19.7425C11.9743 19.0896 12.375 18.5132 12.9118 18.0832C13.4485 17.6532 14.0985 17.3881 14.7828 17.3199C15.2241 17.2739 15.6674 17.2509 16.1111 17.2509C17.1984 17.2509 18.2813 17.3907 19.333 17.6668L20.9104 18.0693C21.8768 18.3138 22.8901 18.3037 23.8515 18.04C24.8129 17.7763 25.6895 17.268 26.3959 16.5647L29.4626 13.498C30.2901 12.6681 30.7547 11.5439 30.7547 10.3719C30.7547 9.19997 30.2901 8.0758 29.4626 7.24587L29.3169 7.1002C29.1185 6.90221 28.9659 6.6631 28.8699 6.39973C28.7739 6.13636 28.7368 5.85513 28.7613 5.57588C28.7858 5.29662 28.8712 5.02614 29.0116 4.7835C29.152 4.54085 29.3439 4.33196 29.5738 4.17153C29.9827 3.92395 30.4646 3.82498 30.938 3.89132C31.4115 3.95766 31.8476 4.18524 32.1728 4.5357L41.6104 13.9734C41.8089 14.1714 41.9615 14.4105 42.0575 14.6738C42.1535 14.9372 42.1906 15.2184 42.1661 15.4977C42.1416 15.7769 42.0561 16.0474 41.9158 16.2901C41.7754 16.5327 41.5835 16.7416 41.3536 16.902C40.9402 17.153 40.4522 17.252 39.9736 17.1821C39.4951 17.1121 39.0559 16.8775 38.7316 16.5187C38.3372 16.1121 37.8654 15.7886 37.344 15.5674C36.8225 15.3462 36.262 15.2317 35.6956 15.2307C34.5007 15.2361 33.3548 15.7063 32.5005 16.5417L29.4607 19.5834C28.7704 20.2742 28.2674 21.1293 27.9992 22.0683C27.7309 23.0072 27.7062 23.999 27.9273 24.9501L28.3471 26.9779C28.7338 28.4565 28.8513 29.9926 28.694 31.5128C28.6482 32.1328 28.4212 32.7256 28.0413 33.2177C27.6613 33.7097 27.1452 34.0793 26.5569 34.2804C25.5764 34.5382 24.543 34.513 23.5763 34.2077C22.6095 33.9024 21.749 33.3296 21.0944 32.5554L12.6611 23.8346C12.1352 23.3102 11.7707 22.646 11.6107 21.9207C11.4507 21.1955 11.5019 20.4396 11.7583 19.7425Z" fill="white"/>
</g>
<defs>
<clipPath id="clip0_10_68">
<rect width="46" height="46" fill="white"/>
</clipPath>
</defs>
</svg>
