<svg width="826" height="680" viewBox="0 0 826 680" fill="none" xmlns="http://www.w3.org/2000/svg">
<path d="M681.389 236.713C681.718 233.61 682.086 230.752 682.395 227.6L681.389 236.713ZM991.345 -51.5815C991.85 -51.4221 992.346 -51.3014 992.848 -51.1359C992.355 -51.3953 991.857 -51.6409 991.36 -51.8942C990.918 -52.0763 990.489 -52.2179 990.05 -52.3981C990.476 -52.1511 990.919 -51.8363 991.345 -51.5815ZM1014.25 -39.2541C1012.03 -40.0012 1009.83 -40.6251 1007.62 -41.3323C1009.79 -39.9876 1011.96 -38.6786 1014.17 -37.2032M1014.91 -40.707C1015.33 -40.568 1015.73 -40.4666 1016.15 -40.3217C1015.62 -40.5917 1015.11 -40.7989 1014.59 -41.064C1014.21 -41.2181 1013.84 -41.3528 1013.47 -41.5068C1013.94 -41.2157 1014.43 -40.9921 1014.91 -40.707ZM1002.48 -44.5824C1004.14 -44.0847 1005.81 -43.5434 1007.48 -43.0293C1005.71 -44.026 1003.97 -44.956 1002.2 -45.9557C1000.52 -46.5815 998.794 -47.3707 997.111 -47.9604C998.895 -46.7965 1000.68 -45.6941 1002.48 -44.5824ZM681.474 257.354C681.035 258.487 680.595 259.608 680.156 260.746C680.007 262.046 679.869 263.394 679.72 264.686C680.107 263.463 680.486 262.267 680.885 261.019C681.073 259.845 681.257 258.529 681.457 257.356L681.474 257.354ZM684.257 250.173L683.895 251.107L683.765 251.907C683.886 251.51 684.012 251.146 684.132 250.749C684.173 250.576 684.206 250.369 684.248 250.181L684.257 250.173ZM1037.3 -28.6452C1035.13 -29.3771 1032.95 -30.085 1030.78 -30.769C1032.85 -29.4871 1034.91 -28.2164 1036.99 -26.844M1037.96 -30.048C1038.3 -29.9289 1038.61 -29.848 1038.95 -29.7295C1038.56 -29.9289 1038.17 -30.0915 1037.78 -30.291C1037.46 -30.4311 1037.16 -30.5352 1036.85 -30.6661C1037.2 -30.4508 1037.57 -30.268 1037.93 -30.0539L1037.96 -30.048ZM1025.57 -34.0628C1027.18 -33.576 1028.81 -33.0028 1030.42 -32.4888C1028.78 -33.4145 1027.13 -34.3293 1025.48 -35.252C1023.83 -35.8859 1022.16 -36.6526 1020.52 -37.2581C1022.19 -36.1813 1023.88 -35.1037 1025.55 -34.0462L1025.57 -34.0628ZM1014.18 -37.2047C1016.08 -36.7491 1017.95 -36.4204 1019.85 -35.8946L1014.18 -37.2047ZM683.516 244.658C682.824 246.14 682.133 247.605 681.438 249.085C681.214 251.169 680.986 253.231 680.752 255.296C681.349 253.769 681.946 252.253 682.541 250.7C682.86 248.745 683.177 246.68 683.503 244.679L683.516 244.658ZM687.127 236.973C686.644 238.009 686.163 239.022 685.686 240.041C685.449 241.523 685.209 242.99 684.971 244.459C685.369 243.44 685.77 242.436 686.166 241.387C686.476 239.968 686.787 238.453 687.112 236.997L687.127 236.973ZM690.054 230.729C689.966 230.919 689.881 231.097 689.793 231.287L689.418 233.018C689.614 232.292 689.824 231.504 690.039 230.753L690.054 230.729ZM1060.84 -19.4812L1061.53 -19.2518C1061.28 -19.3751 1061.03 -19.4858 1060.79 -19.6121L1060.11 -19.8915C1060.36 -19.7507 1060.6 -19.6232 1060.84 -19.4812ZM1048.55 -23.6171C1050.1 -23.142 1051.66 -22.5491 1053.22 -22.0487C1051.69 -22.8888 1050.16 -23.7937 1048.65 -24.6186C1047.16 -25.1894 1045.65 -25.8563 1044.16 -26.4029C1045.62 -25.5118 1047.09 -24.5179 1048.55 -23.6171ZM1036.97 -26.8424C1039.03 -26.3074 1041.07 -25.8997 1043.13 -25.3092L1036.97 -26.8424ZM1024.55 -29.9289C1027.1 -29.3637 1029.68 -28.6503 1032.24 -28.0173C1029.79 -29.6034 1027.35 -31.1254 1024.89 -32.6814C1022.49 -33.393 1020.08 -34.1385 1017.69 -34.7655C1019.99 -33.1556 1022.28 -31.5173 1024.55 -29.9289ZM685.527 232.225C684.61 233.862 683.689 235.509 682.764 237.166C682.497 239.76 682.203 242.19 681.923 244.765C682.729 243.06 683.531 241.367 684.326 239.639C684.719 237.155 685.126 234.716 685.506 232.233L685.527 232.225ZM689.82 224.548C689.053 225.937 688.286 227.298 687.516 228.665C687.184 230.836 686.827 232.88 686.482 235.025C687.141 233.644 687.795 232.271 688.434 230.861C688.903 228.729 689.36 226.652 689.815 224.529L689.82 224.548ZM693.707 217.588C693.193 218.534 692.68 219.432 692.164 220.353C691.818 221.99 691.464 223.535 691.119 225.157C691.515 224.323 691.914 223.516 692.305 222.629C692.772 220.935 693.239 219.269 693.706 217.57L693.707 217.588ZM696.706 212.226L696.588 212.418L696.413 213.041L696.706 212.226ZM1083.62 -8.97798L1083.93 -8.86571L1083.68 -8.98793L1083.33 -9.13802L1083.62 -8.97798ZM1071.42 -13.2313C1072.9 -12.7633 1074.38 -12.1727 1075.85 -11.6878C1074.47 -12.4489 1073.07 -13.306 1071.7 -14.0417C1070.42 -14.5342 1069.16 -15.0043 1067.89 -15.4792C1069.05 -14.8271 1070.26 -13.9744 1071.43 -13.2638L1071.42 -13.2313ZM1059.65 -16.537C1061.73 -15.9674 1063.8 -15.5069 1065.87 -14.8896C1063.97 -16.0154 1062.09 -17.0208 1060.2 -18.0788C1058.07 -18.8162 1055.94 -19.544 1053.82 -20.2397C1055.77 -19.0386 1057.71 -17.8418 1059.66 -16.5695L1059.65 -16.537ZM1047.26 -19.8234C1049.79 -19.2253 1052.33 -18.4696 1054.86 -17.8093C1052.53 -19.2875 1050.21 -20.7561 1047.89 -22.2451C1045.6 -22.9479 1043.33 -23.5703 1041.04 -24.2135C1043.11 -22.8485 1045.21 -21.2757 1047.27 -19.8558L1047.26 -19.8234ZM1035.46 -22.2098C1038.07 -21.7373 1040.68 -21.3979 1043.29 -20.8252C1040.96 -22.4066 1038.62 -23.9254 1036.3 -25.4048C1033.51 -26.1361 1030.73 -26.8338 1027.95 -27.4978C1030.47 -25.7849 1032.95 -24.0741 1035.47 -22.2423L1035.46 -22.2098ZM682.405 227.585C681.197 229.372 679.984 231.047 678.789 232.767L682.405 227.585ZM687.517 219.874C686.382 221.589 685.25 223.315 684.114 225.026C684.076 225.342 684.034 225.638 684.003 225.962C683.748 228.605 683.416 230.97 683.159 233.567C684.168 231.774 685.175 229.991 686.18 228.17C686.607 225.343 687.084 222.737 687.508 219.868L687.517 219.874ZM692.456 212.41C691.437 213.966 690.418 215.493 689.399 217.029C689.382 217.138 689.363 217.234 689.349 217.345C688.977 219.867 688.55 222.111 688.174 224.601C689.066 223.024 689.957 221.455 690.846 219.828C691.365 217.301 691.925 214.962 692.453 212.408L692.456 212.41ZM697.109 205.369C696.268 206.675 695.426 207.924 694.587 209.182C694.135 211.427 693.644 213.425 693.185 215.641C693.882 214.419 694.603 213.179 695.305 211.856C695.893 209.646 696.51 207.589 697.102 205.36L697.109 205.369ZM701.26 199.071C700.719 199.947 700.165 200.758 699.615 201.579C699.205 203.14 698.776 204.531 698.367 206.076C698.863 205.114 699.361 204.087 699.856 203.125C700.315 201.739 700.789 200.45 701.253 199.063L701.26 199.071ZM704.912 192.994L704.74 193.272C704.673 193.482 704.599 193.668 704.533 193.875L704.568 193.819C704.674 193.533 704.793 193.267 704.905 192.986L704.912 192.994ZM1094.22 -2.98533C1095.6 -2.54447 1096.98 -1.9504 1098.36 -1.48904C1097.16 -2.14279 1095.94 -2.92396 1094.74 -3.55538C1093.46 -4.05337 1092.18 -4.41497 1090.9 -4.9003C1092.01 -4.26844 1093.11 -3.65109 1094.22 -2.98533ZM1082.23 -6.38617C1084.24 -5.81924 1086.25 -5.30109 1088.26 -4.69316C1086.51 -5.72456 1084.77 -6.66843 1083.01 -7.66368C1080.95 -8.39061 1078.88 -9.14957 1076.82 -9.83965C1078.63 -8.6844 1080.43 -7.5474 1082.23 -6.38617ZM1069.91 -9.87005C1072.39 -9.25685 1074.89 -8.44322 1077.37 -7.77038C1075.18 -9.1225 1073 -10.5831 1070.82 -11.952C1068.5 -12.6782 1066.19 -13.2456 1063.88 -13.9144C1065.87 -12.6035 1067.89 -11.2278 1069.9 -9.85808L1069.91 -9.87005ZM1057.84 -12.4219C1060.53 -11.8841 1063.23 -11.4411 1065.92 -10.8196C1063.61 -12.3713 1061.32 -13.7767 1059.03 -15.211C1056.26 -15.9631 1053.5 -16.7386 1050.75 -17.4314C1053.11 -15.7465 1055.47 -14.0978 1057.84 -12.4025L1057.84 -12.4219ZM1045.41 -14.8837C1048.35 -14.3903 1051.3 -13.7003 1054.26 -13.1355L1046.64 -18.525C1043.89 -19.1605 1041.15 -19.673 1038.41 -20.1967C1040.73 -18.4684 1043.08 -16.631 1045.42 -14.8643L1045.41 -14.8837ZM689.582 207.481L685.558 212.655C685.182 215.687 684.823 218.812 684.479 221.905C685.677 220.1 686.876 218.3 688.072 216.473C688.541 213.383 689.044 210.454 689.582 207.481ZM695.126 200.35C693.88 201.965 692.638 203.553 691.393 205.146C690.903 207.914 690.442 210.756 689.974 213.595C691.078 211.942 692.176 210.299 693.27 208.608L693.309 208.438C693.876 205.619 694.5 203.009 695.118 200.362L695.126 200.35ZM700.456 193.492C699.351 194.958 698.247 196.35 697.143 197.755C696.564 200.231 696.004 202.777 695.446 205.321C696.407 203.894 697.369 202.484 698.332 200.96C698.441 200.535 698.559 200.162 698.671 199.74C699.231 197.569 699.847 195.554 700.448 193.504L700.456 193.492ZM705.527 186.825C704.602 188.08 703.678 189.335 702.757 190.53C702.146 192.603 701.546 194.74 700.949 196.85C701.797 195.478 702.631 194.022 703.468 192.66C703.653 192.1 703.845 191.608 704.03 191.048C704.494 189.575 705.017 188.233 705.519 186.837L705.527 186.825ZM710.455 179.88C709.801 180.785 709.146 181.711 708.488 182.647C708.006 183.977 707.537 185.365 707.047 186.715L708.727 183.915C708.944 183.375 709.167 182.901 709.384 182.362C709.725 181.503 710.092 180.721 710.451 179.886L710.455 179.88ZM714.469 174.22L714.351 174.412L714.131 174.921C714.229 174.696 714.345 174.474 714.462 174.232L714.469 174.22ZM1116.04 8.58862C1113.73 7.83371 1111.43 7.23981 1109.12 6.52889C1110.87 7.64113 1112.62 8.73105 1114.38 9.89286M1116.61 7.239C1117.99 7.69482 1119.35 8.16558 1120.72 8.63338C1119.6 8.03141 1118.48 7.49467 1117.36 6.91988C1116.16 6.44467 1114.96 6.07079 1113.75 5.61122C1114.7 6.16737 1115.66 6.6676 1116.61 7.239ZM1104.69 3.70632C1106.62 4.274 1108.55 4.82003 1110.47 5.42017C1108.88 4.49761 1107.3 3.61679 1105.7 2.69726C1103.71 1.98337 1101.72 1.20618 1099.72 0.531462C1101.38 1.60687 1103.03 2.65328 1104.69 3.70334L1104.69 3.70632ZM1092.33 0.0410942C1094.8 0.683065 1097.27 1.53898 1099.73 2.23089C1097.7 0.978653 1095.67 -0.424507 1093.65 -1.63618C1091.28 -2.40047 1088.91 -2.9445 1086.54 -3.6473C1088.47 -2.44156 1090.4 -1.26001 1092.33 0.0410942ZM1080.11 -2.64604C1082.77 -2.05753 1085.44 -1.56066 1088.1 -0.904674C1085.93 -2.33185 1083.78 -3.67259 1081.63 -5.03457C1078.91 -5.80656 1076.18 -6.64077 1073.45 -7.34528C1075.67 -5.77948 1077.89 -4.2131 1080.11 -2.64604ZM1067.69 -5.36169C1070.61 -4.79932 1073.54 -4.07453 1076.46 -3.44993C1074.07 -5.12016 1071.67 -6.86602 1069.27 -8.54366C1066.45 -9.23248 1063.64 -9.71449 1060.84 -10.3013C1063.11 -8.68264 1065.39 -7.06028 1067.68 -5.35272L1067.69 -5.36169ZM1055.34 -7.2093C1058.34 -6.78746 1061.35 -6.50425 1064.35 -5.98104C1061.96 -7.74182 1059.59 -9.36892 1057.22 -11.0232C1054.16 -11.6449 1051.09 -12.3125 1048.02 -12.8637C1050.46 -10.9873 1052.9 -9.09959 1055.33 -7.20033L1055.34 -7.2093ZM691.644 195.174C690.095 196.87 688.549 198.576 687.003 200.269C686.602 203.434 686.26 206.78 685.865 209.969C687.266 208.179 688.666 206.38 690.065 204.57C690.6 201.475 691.098 198.246 691.644 195.174ZM697.793 188.43C696.321 190.061 694.857 191.661 693.388 193.261C692.866 196.194 692.395 199.287 691.876 202.243C693.196 200.555 694.512 198.88 695.846 197.156C696.498 194.274 697.125 191.277 697.793 188.43ZM703.78 181.866C702.409 183.415 701.056 184.868 699.698 186.343C699.067 189.019 698.481 191.854 697.857 194.551C699.064 193.02 700.272 191.519 701.486 189.89C702.257 187.242 703 184.487 703.78 181.866ZM709.634 175.224C708.387 176.672 707.142 178.146 705.905 179.531C705.2 181.904 704.536 184.424 703.822 186.805C704.959 185.247 706.1 183.56 707.236 181.997C708.04 179.771 708.822 177.441 709.637 175.226L709.634 175.224ZM715.472 168.225C714.389 169.51 713.3 170.817 712.228 172.137C711.54 173.993 710.886 175.969 710.206 177.833C711.174 176.461 712.138 175.102 713.106 173.742C713.896 171.928 714.674 170.025 715.472 168.225ZM720.95 161.657C720.179 162.589 719.396 163.502 718.631 164.438C718.079 165.687 717.54 167.015 716.982 168.266C717.662 167.306 718.342 166.366 719.021 165.394C719.67 164.163 720.307 162.879 720.95 161.657ZM725.477 156.232L725.091 156.695C724.986 156.866 724.904 157.059 724.81 157.237C724.927 157.048 725.061 156.892 725.183 156.707L725.477 156.232ZM1138.81 17.3677C1139.82 17.7004 1140.82 17.957 1141.82 18.3016C1141.13 17.9359 1140.44 17.613 1139.75 17.2539C1138.66 16.8254 1137.58 16.4573 1136.5 16.0404C1137.27 16.4875 1138.04 16.911 1138.81 17.3677ZM1127.02 13.6921C1128.85 14.2504 1130.68 14.821 1132.52 15.4039C1131.1 14.5905 1129.68 13.7927 1128.26 12.9618C1126.36 12.2714 1124.45 11.4912 1122.55 10.8309C1124.05 11.7685 1125.54 12.7675 1127.03 13.6995L1127.02 13.6921ZM1114.37 9.88545C1116.9 10.5626 1119.42 11.3843 1121.94 12.1133L1114.37 9.88545ZM1102.26 7.01406C1104.87 7.62964 1107.49 8.20607 1110.1 8.87349C1108.1 7.57154 1106.1 6.31243 1104.1 5.03285C1101.42 4.24687 1098.74 3.37108 1096.07 2.64135C1098.14 4.10768 1100.21 5.58787 1102.27 7.02147L1102.26 7.01406ZM1089.53 4.00357C1092.53 4.61775 1095.54 5.46482 1098.55 6.14005C1096.26 4.56772 1093.97 2.89813 1091.68 1.38246C1088.85 0.652342 1086.01 0.166408 1083.18 -0.481704C1085.3 0.998559 1087.41 2.44609 1089.54 4.01091L1089.53 4.00357ZM1077.2 2.00378C1080.19 2.47971 1083.19 2.88034 1086.17 3.43644C1083.94 1.82136 1081.73 0.275924 1079.51 -1.2829C1076.46 -1.95202 1073.41 -2.69231 1070.36 -3.28727C1072.64 -1.52561 1074.93 0.253622 1077.2 2.00378ZM1064.64 -0.00535275C1067.83 0.404057 1071.02 1.04605 1074.21 1.5248C1071.84 -0.28455 1069.44 -2.21598 1067.07 -4.00779C1063.94 -4.58036 1060.81 -4.93643 1057.68 -5.38713C1059.99 -3.61962 1062.3 -1.88418 1064.64 -0.00535275ZM693.711 182.925C691.963 184.563 690.212 186.212 688.466 187.839C688.036 191.078 687.702 194.598 687.299 197.861C688.896 196.115 690.494 194.365 692.092 192.608C692.636 189.445 693.133 186.063 693.711 182.925ZM700.45 176.618C698.763 178.217 697.083 179.777 695.401 181.349C694.844 184.364 694.368 187.652 693.829 190.707C695.358 189.036 696.887 187.378 698.424 185.667C699.105 182.704 699.74 179.547 700.441 176.613L700.45 176.618ZM707.061 170.432C705.455 171.985 703.873 173.42 702.274 174.911C701.6 177.709 701 180.735 700.329 183.576C701.77 182.02 703.207 180.491 704.666 178.819C705.463 176.076 706.231 173.146 707.052 170.426L707.061 170.432ZM713.61 164.05C712.086 165.559 710.551 167.118 709.052 168.568C708.274 171.119 707.556 173.887 706.79 176.466C708.177 174.844 709.597 173.061 710.993 171.424C711.865 169.009 712.71 166.436 713.592 164.059L713.61 164.05ZM720.18 157.334C718.766 158.758 717.353 160.215 715.938 161.667C715.134 163.818 714.375 166.159 713.577 168.327C714.862 166.782 716.15 165.237 717.439 163.689C718.343 161.624 719.243 159.391 720.171 157.328L720.18 157.334ZM726.574 150.794C725.349 152.054 724.129 153.292 722.907 154.54C722.124 156.275 721.375 158.171 720.592 159.919C721.704 158.59 722.813 157.275 723.925 155.917C724.809 154.24 725.675 152.45 726.565 150.789L726.574 150.794ZM732.6 144.63C731.7 145.578 730.806 146.468 729.913 147.379C729.291 148.532 728.687 149.798 728.066 150.956C728.892 149.975 729.716 149.017 730.548 147.978C731.227 146.885 731.903 145.712 732.591 144.625L732.6 144.63ZM737.281 139.859C737.181 139.962 737.087 140.053 736.991 140.155C736.817 140.436 736.633 140.735 736.455 141.022L736.996 140.381C737.205 140.097 737.429 139.781 737.643 139.487C737.52 139.593 737.398 139.704 737.281 139.859ZM750.548 124.414L750.075 124.817C749.777 125.198 749.471 125.534 749.175 125.913C749.398 125.691 749.623 125.462 749.846 125.241C750.07 125.02 750.32 124.662 750.557 124.399L750.548 124.414ZM1160.86 27.3794C1161.71 27.6658 1162.56 27.9101 1163.4 28.2025C1162.93 27.9562 1162.45 27.7254 1161.98 27.4753C1161.03 27.0976 1160.08 26.7531 1159.14 26.3833C1159.72 26.7216 1160.29 27.0436 1160.86 27.3794ZM1149.23 23.593C1150.96 24.1381 1152.67 24.7132 1154.39 25.2732C1153.17 24.5812 1151.93 23.8378 1150.7 23.1439C1148.88 22.4691 1147.05 21.6833 1145.24 21.0442C1146.57 21.8383 1147.9 22.7755 1149.23 23.5949L1149.23 23.593ZM1136.35 19.6675C1138.77 20.3383 1141.18 21.038 1143.59 21.76C1141.82 20.6885 1140.05 19.7152 1138.28 18.7101C1136.05 17.9622 1133.82 17.3277 1131.58 16.6389C1133.18 17.643 1134.77 18.6372 1136.35 19.6712L1136.35 19.6675ZM1124.31 16.5993C1126.86 17.2376 1129.42 17.8638 1131.97 18.5509C1130.14 17.3827 1128.31 16.2145 1126.47 15.024C1123.83 14.2181 1121.19 13.2941 1118.55 12.5478C1120.46 13.8576 1122.39 15.2847 1124.31 16.603L1124.31 16.5993ZM1111.23 13.3616C1114.33 14.0387 1117.42 14.8879 1120.51 15.6355C1118.27 14.1095 1116.04 12.673 1113.81 11.251C1111.02 10.5039 1108.22 9.93464 1105.42 9.25506C1107.36 10.6165 1109.3 11.9647 1111.24 13.3653L1111.23 13.3616ZM1098.97 11.1208C1101.94 11.6676 1104.9 12.1287 1107.86 12.7442C1105.8 11.2737 1103.74 9.81963 1101.68 8.36254C1098.66 7.65754 1095.64 6.83626 1092.61 6.20359C1094.73 7.80088 1096.86 9.52559 1098.98 11.1282L1098.97 11.1208ZM1085.93 8.74521C1089.27 9.25977 1092.61 9.9816 1095.93 10.5701C1093.58 8.80314 1091.22 7.0526 1088.88 5.35646C1085.8 4.74715 1082.7 4.36743 1079.61 3.86361C1081.71 5.47329 1083.81 7.07632 1085.93 8.74521ZM1073.47 7.30139C1076.64 7.65683 1079.83 7.88887 1083.01 8.33714C1080.87 6.66128 1078.74 5.0174 1076.61 3.37841C1073.37 2.86294 1070.13 2.27148 1066.9 1.81638C1069.08 3.61766 1071.28 5.5031 1073.47 7.30139ZM38.7392 -84.9548C38.3368 -85.8232 37.9465 -86.6843 37.5496 -87.5616C37.9472 -86.6921 38.3368 -85.8232 38.7392 -84.9548ZM695.756 170.719C693.847 172.241 691.934 173.778 690.032 175.296C689.547 178.625 689.167 182.265 688.713 185.678C690.501 184.007 692.293 182.329 694.089 180.646C694.67 177.431 695.142 173.847 695.756 170.719ZM703.084 164.884C701.221 166.386 699.367 167.86 697.514 169.334C696.895 172.443 696.368 175.873 695.788 179.068C697.524 177.451 699.259 175.841 700.999 174.19C701.704 171.175 702.331 167.811 703.072 164.877L703.084 164.884ZM710.3 159.125C708.489 160.622 706.708 162.004 704.92 163.419C704.179 166.305 703.537 169.527 702.818 172.484C704.479 170.948 706.138 169.448 707.812 167.81C708.652 164.99 709.419 161.861 710.284 159.123L710.3 159.125ZM717.486 153.124C715.738 154.614 713.972 156.134 712.246 157.588C711.398 160.233 710.643 163.241 709.814 165.956C711.446 164.332 713.101 162.558 714.735 160.923C715.648 158.389 716.519 155.58 717.474 153.117L717.486 153.124ZM724.685 146.83C723.013 148.276 721.335 149.747 719.667 151.208C718.751 153.534 717.924 156.163 717.032 158.538C718.587 156.945 720.144 155.349 721.698 153.765C722.718 151.519 723.677 149.009 724.704 146.825L724.685 146.83ZM731.828 140.625C730.291 141.981 728.757 143.305 727.225 144.64C726.274 146.647 725.383 148.926 724.444 150.982C725.881 149.519 727.315 148.075 728.756 146.573C729.781 144.633 730.781 142.486 731.818 140.614L731.828 140.625ZM738.767 134.583C737.434 135.776 736.121 136.903 734.805 138.035C733.885 139.665 733 141.506 732.088 143.17C733.356 141.887 734.602 140.653 735.868 139.308C736.849 137.753 737.794 136.044 738.77 134.552L738.767 134.583ZM742.581 131.255L742.49 131.335C741.709 132.505 740.931 133.725 740.155 134.995C741.059 134.099 741.966 133.168 742.871 132.265C743.671 131.205 744.459 130.01 745.261 128.96C744.384 129.704 743.478 130.413 742.584 131.224L742.581 131.255ZM753.351 118.652C752.015 119.623 750.673 120.596 749.335 121.583C748.128 123.316 746.934 125.02 745.749 126.717C746.858 125.779 747.979 124.789 749.084 123.857C750.496 122.015 751.928 120.4 753.354 118.62L753.351 118.652ZM760.369 113.534C759.547 114.121 758.719 114.738 757.898 115.337C757 116.435 756.119 117.473 755.237 118.573C755.771 118.11 756.309 117.641 756.849 117.189C758.015 115.897 759.201 114.754 760.371 113.503L760.369 113.534ZM1182.77 37.3082C1183.45 37.5465 1184.11 37.7496 1184.77 37.9866L1184.07 37.6231C1183.28 37.3054 1182.49 37.0017 1181.7 36.687L1182.77 37.3082ZM1171.31 33.426C1172.91 33.9415 1174.5 34.5149 1176.1 35.0498C1175.08 34.4787 1174.05 33.8237 1173.02 33.2653C1170.99 32.5013 1168.96 31.6315 1166.92 30.8988C1168.38 31.6942 1169.85 32.501 1171.31 33.3947L1171.31 33.426ZM1158.18 29.3763C1160.25 29.9773 1162.34 30.4574 1164.41 31.0879C1163.06 30.2923 1161.72 29.5378 1160.38 28.7591C1158.24 28.0325 1156.11 27.3606 1153.96 26.6695C1155.38 27.5552 1156.78 28.4492 1158.18 29.345L1158.18 29.3763ZM1146.25 26.1348C1148.74 26.7897 1151.21 27.4686 1153.68 28.1563C1152.03 27.1149 1150.38 26.0166 1148.73 24.9673C1145.89 24.0791 1143.08 23.0254 1140.24 22.1981C1142.25 23.4441 1144.24 24.7412 1146.25 26.1005L1146.25 26.1348ZM1132.88 22.7049C1135.88 23.3951 1138.87 24.1913 1141.86 24.9482C1139.84 23.6001 1137.83 22.3463 1135.82 21.0701C1133.08 20.3027 1130.33 19.6732 1127.58 18.9636C1129.35 20.1786 1131.12 21.4153 1132.88 22.6707L1132.88 22.7049ZM1120.65 20.1703C1123.59 20.753 1126.51 21.3154 1129.43 21.9605C1127.54 20.6353 1125.66 19.2915 1123.76 17.941C1120.6 17.1527 1117.45 16.2314 1114.28 15.5148C1116.41 17.0367 1118.53 18.5942 1120.65 20.1703ZM1107.13 17.4313C1110.57 18.0081 1113.98 18.8485 1117.41 19.5095C1115.15 17.8435 1112.91 16.3138 1110.67 14.7349C1107.61 14.0801 1104.53 13.6246 1101.46 13.0451C1103.36 14.5085 1105.25 15.9634 1107.14 17.4387L1107.13 17.4313ZM1094.79 15.7629C1097.96 16.1907 1101.15 16.5421 1104.31 17.0463C1102.35 15.5332 1100.38 13.9989 1098.42 12.481C1095.07 11.8718 1091.75 11.1779 1088.39 10.6354C1090.52 12.3281 1092.66 14.0323 1094.79 15.7629ZM1081.45 13.9792C1085.03 14.3678 1088.58 14.9545 1092.14 15.4177C1089.83 13.5507 1087.54 11.836 1085.25 10.0766C1082 9.59594 1078.73 9.3501 1075.47 8.9887C1077.46 10.6343 1079.46 12.2978 1081.45 13.9792ZM698.492 158.084C696.359 159.527 694.223 160.975 692.102 162.4C691.517 166.025 690.9 169.507 690.354 173.215C692.305 171.665 694.259 170.105 696.217 168.533C696.964 164.941 697.746 161.607 698.492 158.084ZM706.409 152.709C704.328 154.142 702.265 155.519 700.187 156.934C699.456 160.366 698.676 163.644 697.98 167.139C699.877 165.629 701.772 164.135 703.684 162.594C704.546 159.185 705.508 156.048 706.409 152.709ZM714.238 147.403C712.212 148.833 710.22 150.143 708.218 151.488C707.337 154.72 706.41 157.808 705.552 161.112C707.372 159.671 709.185 158.271 711.027 156.736C712.06 153.498 713.172 150.553 714.232 147.399L714.238 147.403ZM722.114 141.738C720.144 143.165 718.156 144.663 716.179 146.082C715.155 149.118 714.088 151.996 713.086 155.103C714.887 153.576 716.715 151.908 718.516 150.373C719.676 147.371 720.916 144.654 722.108 141.734L722.114 141.738ZM730.051 135.849C728.144 137.254 726.231 138.683 724.324 140.096C723.19 142.849 722.022 145.461 720.903 148.278C722.628 146.771 724.355 145.265 726.084 143.761C727.378 141.011 728.732 138.526 730.045 135.846L730.051 135.849ZM737.953 129.99C736.144 131.351 734.351 132.665 732.557 133.989C731.334 136.457 730.091 138.804 728.876 141.325C730.487 139.929 732.095 138.546 733.713 137.112C735.106 134.631 736.552 132.384 737.948 129.983L737.953 129.99ZM745.793 124.17C744.139 125.441 742.513 126.618 740.88 127.816C739.632 129.936 738.357 131.979 737.105 134.16C738.543 132.924 739.977 131.707 741.437 130.382C742.875 128.209 744.344 126.266 745.789 124.163L745.793 124.17ZM761.291 108.989C759.449 110.115 757.609 111.259 755.762 112.407C754.444 114.232 753.139 116.157 751.826 118.015C753.524 116.779 755.222 115.523 756.921 114.3C758.372 112.515 759.832 110.728 761.287 108.982L761.291 108.989ZM769.797 103.738C768.199 104.705 766.596 105.706 764.995 106.704C763.813 108.093 762.641 109.575 761.467 110.986C762.977 109.882 764.487 108.778 765.985 107.692C767.251 106.366 768.517 105.033 769.793 103.731L769.797 103.738ZM778.193 98.5511C777.009 99.2569 775.815 100.011 774.623 100.754C773.929 101.449 773.244 102.203 772.551 102.903C773.922 101.895 775.295 100.838 776.659 99.9088C777.168 99.4544 777.679 98.9891 778.189 98.5444L778.193 98.5511ZM786.157 93.622C785.82 93.8266 785.488 94.035 785.157 94.2434C785.049 94.3378 784.94 94.4401 784.832 94.5344C785.109 94.3543 785.385 94.1819 785.662 94.0018L786.157 93.622ZM1204.52 47.0473C1204.94 47.1959 1205.36 47.3386 1205.78 47.495C1205.23 47.2717 1204.69 47.0453 1204.13 46.8214L1204.52 47.0473ZM1192.11 42.6898C1193.95 43.2918 1195.77 43.9931 1197.61 44.6204C1196.42 43.9651 1195.23 43.3634 1194.04 42.7413C1192.38 42.1247 1190.72 41.5155 1189.07 40.9044C1190.08 41.5091 1191.08 42.0691 1192.11 42.6898ZM1179.87 38.9085C1181.8 39.4907 1183.76 39.9774 1185.69 40.5861C1184.57 39.9304 1183.44 39.2934 1182.32 38.6329C1180.29 37.9271 1178.26 37.2459 1176.23 36.5646C1177.43 37.3544 1178.65 38.1357 1179.87 38.9085ZM1167.52 35.3453C1170.1 36.0569 1172.67 36.8214 1175.24 37.5788C1173.73 36.641 1172.21 35.5977 1170.7 34.69C1167.87 33.7713 1165.05 32.7929 1162.22 31.9301C1163.98 33.054 1165.77 34.1727 1167.52 35.3453ZM1154.4 31.8778C1157.2 32.5634 1160 33.243 1162.78 33.9796C1161.08 32.8645 1159.38 31.7904 1157.69 30.6976C1155.01 29.925 1152.33 29.2319 1149.64 28.5075C1151.23 29.6428 1152.82 30.7715 1154.41 31.8797L1154.4 31.8778ZM1141.95 29.0844C1144.93 29.7315 1147.9 30.3785 1150.87 31.0846C1149.16 29.9054 1147.44 28.6078 1145.74 27.439C1142.43 26.5721 1139.14 25.5355 1135.82 24.7476C1137.86 26.1694 1139.9 27.5792 1141.95 29.0863L1141.95 29.0844ZM1128.38 26.15C1131.72 26.7802 1135.01 27.5708 1138.33 28.2737C1136.33 26.8204 1134.34 25.4331 1132.35 24.0342C1129.33 23.34 1126.27 22.795 1123.23 22.1695C1124.95 23.5014 1126.67 24.8363 1128.39 26.1518L1128.38 26.15ZM1115.83 24.1483C1119.05 24.6653 1122.27 25.1011 1125.49 25.6904C1123.7 24.3304 1121.91 22.9005 1120.11 21.5428C1116.63 20.8455 1113.16 20.0218 1109.67 19.4069C1111.73 20.9605 1113.77 22.503 1115.83 24.1502L1115.83 24.1483ZM1102.2 21.9976C1105.77 22.4717 1109.29 23.1412 1112.84 23.6928C1110.74 22.0302 1108.65 20.4339 1106.58 18.8397C1103.35 18.2996 1100.08 17.9647 1096.85 17.5253C1098.65 18.9981 1100.44 20.4944 1102.2 21.9976ZM1089.45 20.6867C1092.82 21.0055 1096.2 21.2154 1099.54 21.6305C1097.77 20.1706 1096 18.6637 1094.21 17.1681C1090.65 16.6855 1087.09 16.1313 1083.52 15.7295C1085.49 17.3447 1087.47 18.9605 1089.46 20.6718L1089.45 20.6867ZM701.173 145.651C698.834 147 696.497 148.341 694.16 149.677C693.555 153.228 693.004 156.904 692.418 160.529C694.581 159.064 696.748 157.593 698.918 156.116C699.669 152.585 700.411 149.073 701.18 145.647L701.173 145.651ZM709.709 140.754C707.404 142.094 705.116 143.394 702.827 144.702C702.066 148.062 701.34 151.527 700.619 154.969C702.746 153.536 704.861 152.12 706.987 150.641C707.886 147.312 708.795 143.986 709.721 140.74L709.709 140.754ZM718.179 135.889C715.908 137.254 713.682 138.482 711.455 139.75C710.549 142.909 709.667 146.177 708.789 149.419C710.853 148.034 712.898 146.699 714.992 145.212C716.062 142.068 717.117 138.939 718.191 135.876L718.179 135.889ZM726.749 130.616C724.523 131.988 722.259 133.464 720.036 134.826C718.991 137.775 717.968 140.816 716.949 143.839C719.009 142.339 721.099 140.73 723.159 139.231C724.357 136.314 725.551 133.437 726.761 130.602L726.749 130.616ZM735.372 125.201C733.19 126.572 730.998 127.957 728.815 129.327C727.649 132.031 726.507 134.829 725.361 137.596C727.383 136.107 729.403 134.61 731.42 133.105C732.749 130.418 734.065 127.773 735.392 125.176L735.372 125.201ZM744.025 119.76C741.897 121.122 739.789 122.431 737.679 123.751C736.416 126.197 735.172 128.739 733.923 131.235C735.873 129.8 737.819 128.378 739.78 126.892C741.213 124.472 742.621 122.086 744.045 119.735L744.025 119.76ZM752.72 114.278C750.674 115.621 748.658 116.834 746.646 118.082C745.318 120.232 744.029 122.485 742.715 124.685C744.14 123.645 745.562 122.615 747.013 121.499C747.44 121.163 747.867 120.886 748.294 120.563C749.778 118.456 751.247 116.347 752.72 114.278ZM768.585 100.117C766.379 101.25 764.17 102.399 761.959 103.563C760.552 105.425 759.189 107.591 757.787 109.505C759.87 108.21 761.952 106.914 764.034 105.647C765.558 103.85 767.06 101.861 768.585 100.117ZM777.983 95.2357C775.916 96.2847 773.842 97.3788 771.771 98.4621C770.411 99.9935 769.09 101.797 767.735 103.36C769.741 102.121 771.721 100.865 773.701 99.6757C775.135 98.2395 776.552 96.6359 777.985 95.2327L777.983 95.2357ZM787.513 90.2826C785.692 91.1818 783.87 92.1629 782.029 93.1329C780.856 94.255 779.707 95.5528 778.53 96.6935C780.458 95.4756 782.384 94.2323 784.298 93.13C785.37 92.2183 786.441 91.1738 787.515 90.2796L787.513 90.2826ZM796.53 85.7851C795.483 86.2823 794.444 86.6981 793.392 87.2296C792.272 88.1371 791.148 88.9998 790.03 89.9248C791.232 89.2711 792.43 88.6391 793.634 87.9746C794.597 87.2677 795.565 86.4697 796.532 85.7821L796.53 85.7851ZM1212.68 51.8171C1214.26 52.3432 1215.8 52.9816 1217.37 53.5215C1216.53 53.0681 1215.68 52.649 1214.84 52.2015C1213.59 51.7269 1212.32 51.3388 1211.06 50.8701C1211.61 51.1754 1212.14 51.5028 1212.69 51.8141L1212.68 51.8171ZM1201.4 48.3564C1203.2 48.9158 1205.01 49.421 1206.81 50.0001C1205.89 49.4721 1205 48.954 1204.1 48.4178C1202.19 47.74 1200.29 47.0593 1198.38 46.4032C1199.39 47.0188 1200.41 47.7345 1201.4 48.3535L1201.4 48.3564ZM1188.38 44.3957C1191.09 45.1689 1193.78 46.0435 1196.48 46.8599C1194.85 45.8481 1193.19 44.9393 1191.55 43.9998C1189.06 43.179 1186.56 42.3938 1184.06 41.6133C1185.5 42.5361 1186.93 43.4419 1188.38 44.3927L1188.38 44.3957ZM1175.79 40.9861C1178.35 41.6492 1180.95 42.209 1183.5 42.9106C1182.13 42.034 1180.77 41.1573 1179.4 40.2681C1176.81 39.4899 1174.2 38.749 1171.59 38.0093C1173 38.9618 1174.39 40.0197 1175.79 40.9831L1175.79 40.9861ZM1162.78 37.8162C1165.92 38.5468 1169.04 39.3177 1172.17 40.1024C1170.42 38.9148 1168.69 37.7872 1166.95 36.6685C1163.77 35.7931 1160.64 34.834 1157.45 34.04C1159.23 35.2889 1161 36.5293 1162.79 37.8132L1162.78 37.8162ZM1149.52 34.7809C1152.72 35.44 1155.89 36.1946 1159.08 36.9138L1153.9 33.2404C1150.92 32.5077 1147.9 31.8891 1144.91 31.2153C1146.45 32.3699 1147.99 33.621 1149.52 34.7779L1149.52 34.7809ZM1136.46 32.3943C1139.83 33.0008 1143.2 33.5682 1146.55 34.2377C1144.82 32.9406 1143.07 31.6729 1141.35 30.4181C1137.84 29.6572 1134.37 28.741 1130.85 28.0607C1132.72 29.4888 1134.59 30.9192 1136.46 32.3913L1136.46 32.3943ZM1122.89 29.9187C1126.44 30.454 1129.91 31.2314 1133.43 31.8406C1131.58 30.3953 1129.72 28.9644 1127.87 27.5288C1124.65 26.9316 1121.41 26.5113 1118.18 25.9827C1119.74 27.2558 1121.32 28.6334 1122.89 29.9187ZM1109.76 28.2879C1113.27 28.716 1116.8 29.0527 1120.29 29.5625C1118.59 28.1875 1116.9 26.8313 1115.22 25.5089C1111.6 24.9274 1107.99 24.2724 1104.37 23.7625C1106.15 25.2629 1107.95 26.7551 1109.76 28.2842L1109.76 28.2879ZM1096.3 26.6489C1099.92 27.0243 1103.52 27.5314 1107.13 27.9687C1105.28 26.4143 1103.43 24.8674 1101.59 23.328C1098.21 22.8944 1094.8 22.634 1091.39 22.3008C1093.03 23.7167 1094.68 25.2248 1096.3 26.6526L1096.3 26.6489ZM703.842 133.339C701.292 134.574 698.745 135.795 696.2 137.005C695.555 140.457 695.051 144.327 694.447 147.875C696.818 146.522 699.192 145.159 701.569 143.785C702.357 140.375 703.047 136.674 703.848 133.343L703.842 133.339ZM712.982 128.943C710.46 130.173 707.965 131.359 705.458 132.557C704.677 135.83 703.989 139.5 703.24 142.842C705.577 141.51 707.908 140.194 710.272 138.825C711.185 135.588 712.026 132.104 712.997 128.952L712.982 128.943ZM722.074 124.566C719.572 125.83 717.135 126.948 714.676 128.122C713.737 131.203 712.906 134.656 711.996 137.816C714.284 136.515 716.559 135.264 718.88 133.864C719.97 130.815 720.98 127.534 722.08 124.57L722.074 124.566ZM731.294 119.752C728.831 121.027 726.338 122.417 723.87 123.68C722.796 126.549 721.814 129.773 720.766 132.72C723.069 131.296 725.391 129.793 727.698 128.363C728.912 125.548 730.069 122.499 731.3 119.756L731.294 119.752ZM740.566 114.842C738.118 116.126 735.688 117.434 733.256 118.712C732.062 121.354 730.944 124.341 729.759 127.05C732.03 125.628 734.306 124.197 736.585 122.757C737.935 120.178 739.223 117.363 740.572 114.846L740.566 114.842ZM749.881 109.909C747.475 111.211 745.101 112.45 742.717 113.704C741.418 116.108 740.187 118.843 738.901 121.312C741.13 119.921 743.355 118.549 745.607 117.093C747.05 114.758 748.444 112.194 749.887 109.912L749.881 109.909ZM758.486 105.355C756.377 106.531 754.334 107.562 752.272 108.643C750.902 110.787 749.585 113.246 748.22 115.448C749.613 114.586 750.997 113.739 752.413 112.812C753.194 112.299 753.969 111.861 754.751 111.365C756.247 109.198 757.735 106.986 759.25 104.955C759.001 105.103 758.747 105.219 758.495 105.36L758.486 105.355ZM776.689 91.1387C774.228 92.1884 771.764 93.2645 769.295 94.3418C767.519 96.5791 765.72 98.628 763.958 100.931C766.258 99.7328 768.555 98.5247 770.854 97.3419C772.794 95.1732 774.759 93.2641 776.698 91.1442L776.689 91.1387ZM787.115 86.6566C784.749 87.6533 782.38 88.6891 780.007 89.7309C778.214 91.6556 776.41 93.4373 774.625 95.4163C776.821 94.2654 779.016 93.1096 781.206 91.9959C783.151 90.1119 785.132 88.4726 787.115 86.6566ZM797.9 81.9877C795.666 82.8921 793.405 83.9077 791.136 84.9021C789.471 86.4184 787.8 87.8569 786.138 89.4161C788.297 88.2713 790.474 87.0839 792.616 86.048C794.372 84.6251 796.129 83.3681 797.885 81.9785L797.9 81.9877ZM807.8 78.0973C806.148 78.7292 804.499 79.3014 802.839 79.9531C801.325 81.1247 799.808 82.2614 798.298 83.4602C799.739 82.814 801.188 82.1637 802.636 81.4929C804.344 80.2961 806.06 79.2454 807.785 78.088L807.8 78.0973ZM816.558 74.8077C815.616 75.1624 814.673 75.5148 813.729 75.865C812.762 76.5068 811.816 77.1128 810.861 77.7493C811.596 77.4227 812.33 77.0787 813.062 76.7503C814.232 76.0685 815.394 75.4728 816.558 74.8077ZM1233.73 61.1789C1234.67 61.4973 1235.62 61.7695 1236.55 62.0959L1236.14 61.8756C1235.08 61.4679 1234 61.1084 1232.92 60.7127L1233.73 61.1789ZM1222.7 57.6704C1224.38 58.2069 1226.06 58.7224 1227.73 59.2726C1227.05 58.8908 1226.38 58.4638 1225.7 58.0838C1223.67 57.3507 1221.63 56.571 1219.59 55.854C1220.63 56.4489 1221.67 57.0215 1222.71 57.6585L1222.7 57.6704ZM1209.05 53.3098C1211.57 54.0435 1214.05 54.9274 1216.56 55.7055C1215.1 54.8319 1213.64 54.0005 1212.19 53.1504C1210.06 52.4401 1207.9 51.8716 1205.77 51.1897C1206.87 51.895 1207.96 52.5955 1209.05 53.3098ZM1197.04 49.9899C1199.45 50.6553 1201.91 51.2048 1204.32 51.8966C1203.19 51.2012 1202.08 50.4516 1200.96 49.7218C1198.23 48.8622 1195.49 48.0266 1192.75 47.2193C1194.19 48.1235 1195.62 49.0155 1197.05 49.9865L1197.04 49.9899ZM1183.45 46.4299C1186.53 47.1953 1189.6 48.0317 1192.67 48.8446C1191.06 47.7675 1189.45 46.7548 1187.84 45.7235C1184.88 44.8826 1181.92 44.0277 1178.95 43.236L1183.45 46.4299ZM1170.53 43.3233C1173.58 44.0042 1176.62 44.7078 1179.65 45.434C1178.21 44.4224 1176.77 43.3959 1175.32 42.3419C1172.2 41.5374 1169.07 40.8039 1165.94 40.0517C1167.48 41.1224 1169.01 42.1816 1170.55 43.3199L1170.53 43.3233ZM1156.95 40.537C1160.33 41.2094 1163.72 41.8777 1167.08 42.6083C1165.45 41.4139 1163.83 40.2835 1162.19 39.1409C1158.78 38.3456 1155.4 37.4205 1151.97 36.6853L1156.95 40.537ZM1143.45 37.8072C1146.95 38.4173 1150.38 39.2266 1153.84 39.8991C1152.23 38.662 1150.61 37.4026 1149 36.1433C1145.65 35.4521 1142.27 34.9201 1138.91 34.292C1140.45 35.4544 1141.96 36.5905 1143.48 37.8112L1143.45 37.8072ZM1129.94 35.8148C1133.47 36.3464 1137.04 36.785 1140.55 37.376C1138.98 36.119 1137.41 34.9321 1135.85 33.7325C1132.25 33.0868 1128.69 32.3328 1125.07 31.7561C1126.71 33.1139 1128.34 34.4681 1129.96 35.8188L1129.94 35.8148ZM1116.35 33.813C1120.01 34.2788 1123.62 34.8958 1127.26 35.4198C1125.6 34.0477 1123.94 32.6435 1122.28 31.2521C1118.8 30.7225 1115.26 30.4127 1111.75 29.9708C1113.31 31.2438 1114.84 32.4887 1116.38 33.817L1116.35 33.813ZM1102.65 32.3451C1106.31 32.6812 1109.99 32.9699 1113.61 33.4104C1112.11 32.1237 1110.62 30.8914 1109.13 29.6493C1105.47 29.1981 1101.81 28.7125 1098.14 28.3135C1099.67 29.6616 1101.17 31.0116 1102.68 32.3491L1102.65 32.3451ZM706.938 120.965C704.205 122.067 701.478 123.153 698.757 124.223C698.003 127.955 697.17 131.477 696.454 135.315C699.03 134.086 701.608 132.847 704.186 131.598C705.106 127.96 706.05 124.511 706.964 120.969L706.938 120.965ZM716.689 117.074C713.977 118.183 711.298 119.23 708.602 120.299C707.682 123.837 706.704 127.187 705.818 130.83C708.364 129.609 710.899 128.412 713.468 127.152C714.537 123.702 715.64 120.425 716.717 117.075L716.689 117.074ZM726.444 113.214C723.742 114.354 721.126 115.341 718.477 116.389C717.387 119.732 716.251 122.897 715.19 126.341C717.702 125.141 720.179 124.011 722.733 122.709C723.936 119.457 725.19 116.356 726.444 113.214ZM736.356 108.848C733.691 110.003 730.988 111.229 728.322 112.391C727.072 115.54 725.78 118.514 724.551 121.754C727.084 120.427 729.639 119.043 732.159 117.729C733.524 114.676 734.94 111.796 736.344 108.841L736.356 108.848ZM746.324 104.451C743.669 105.625 741.018 106.79 738.374 107.947C736.964 110.897 735.502 113.638 734.114 116.681C736.623 115.361 739.135 114.031 741.651 112.69C743.19 109.852 744.761 107.196 746.312 104.444L746.324 104.451ZM756.368 100.006C753.734 101.196 751.142 102.317 748.54 103.457C746.976 106.209 745.355 108.711 743.809 111.549C746.275 110.234 748.757 108.962 751.266 107.6C752.947 104.974 754.667 102.558 756.368 100.006ZM763.77 96.7291C762.096 97.5042 760.466 98.1996 758.823 98.9113C757.135 101.422 755.405 103.699 753.73 106.284C755.077 105.583 756.418 104.891 757.793 104.133C758.856 103.551 759.911 103.042 760.977 102.481C762.798 100.07 764.641 97.8908 766.494 95.5611C765.599 95.9584 764.703 96.3099 763.785 96.7383L763.77 96.7291ZM784.867 82.4954C782.072 83.4705 779.269 84.4733 776.465 85.4761C774.697 87.6068 772.938 89.8123 771.186 92.0108C773.837 90.86 776.486 89.6995 779.126 88.5793C781.05 86.5149 782.969 84.49 784.882 82.5046L784.867 82.4954ZM796.071 78.5147C793.323 79.461 790.553 80.4763 787.799 81.452C785.998 83.3018 784.215 85.2448 782.411 87.1464C785.046 85.9942 787.685 84.8233 790.31 83.7348C792.249 81.9701 794.169 80.2148 796.095 78.509L796.071 78.5147ZM807.691 74.3902C805.005 75.2631 802.268 76.291 799.543 77.2804C797.81 78.8 796.079 80.424 794.347 81.9817C796.937 80.8554 799.523 79.7302 802.087 78.7199C803.979 77.2651 805.845 75.7907 807.715 74.3845L807.691 74.3902ZM818.376 71.1093C816.106 71.8178 813.845 72.4782 811.578 73.168C809.903 74.4057 808.229 75.776 806.552 77.0498C808.703 76.2467 810.858 75.4368 813.018 74.6198C814.833 73.4486 816.62 72.2433 818.4 71.1035L818.376 71.1093ZM828.92 67.9151C826.994 68.489 825.064 69.0815 823.14 69.6651C821.754 70.5358 820.35 71.5027 818.974 72.3916C820.886 71.6728 822.806 70.942 824.712 70.2478C826.146 69.4731 827.547 68.6653 828.945 67.9094L828.92 67.9151ZM839.309 64.7652C837.969 65.1474 836.614 65.579 835.252 65.9766C834.676 66.2781 834.098 66.6315 833.522 66.9409C835.143 66.3267 836.762 65.7155 838.391 65.1731C838.727 65.0456 839.029 64.8977 839.333 64.7595L839.309 64.7652ZM1254.7 70.4576L1254.94 70.5381L1254.65 70.4298L1254.7 70.4576ZM1242.77 66.4773C1244.66 67.096 1246.55 67.7252 1248.43 68.365C1247.84 68.035 1247.23 67.7325 1246.64 67.4084C1244.51 66.6269 1242.41 65.7724 1240.26 65.0062C1241.11 65.5044 1241.94 65.9776 1242.77 66.4773ZM1229.55 62.0629C1231.85 62.7719 1234.09 63.6297 1236.4 64.3569C1235.38 63.7545 1234.36 63.1636 1233.35 62.5601C1231.37 61.8819 1229.35 61.3027 1227.36 60.6474C1228.08 61.1185 1228.81 61.6019 1229.55 62.0629ZM1217.32 58.6419C1219.91 59.3813 1222.53 60.0465 1225.1 60.8176C1224.14 60.222 1223.18 59.5765 1222.22 58.9965C1219.35 58.0791 1216.51 57.1221 1213.63 56.2501C1214.86 57.0484 1216.09 57.828 1217.32 58.6449L1217.32 58.6419ZM1204 54.9148C1206.96 55.6954 1209.87 56.5622 1212.82 57.3831C1211.41 56.4612 1209.99 55.5599 1208.58 54.6428C1205.86 53.8339 1203.11 53.1001 1200.36 52.3357C1201.57 53.2108 1202.78 54.0751 1204 54.9178L1204 54.9148ZM1190.79 51.6143C1193.89 52.3618 1197.02 53.035 1200.09 53.8233C1198.91 53.0107 1197.72 52.122 1196.54 51.328C1193.29 50.4421 1190.03 49.5929 1186.77 48.7622C1188.1 49.7102 1189.45 50.6432 1190.79 51.6173L1190.79 51.6143ZM1177.36 48.5797C1180.66 49.3017 1183.96 50.0375 1187.24 50.8099C1185.81 49.7804 1184.37 48.7659 1182.95 47.7474C1179.66 46.9539 1176.42 46.0463 1173.12 45.293C1174.54 46.4109 1175.95 47.5162 1177.36 48.6032L1177.36 48.5797ZM1163.5 45.5785C1167.08 46.2772 1170.62 47.085 1174.17 47.855C1172.77 46.8067 1171.37 45.6824 1169.98 44.6534C1166.52 43.8785 1163 43.232 1159.53 42.5071C1160.87 43.5378 1162.19 44.5495 1163.52 45.5944L1163.5 45.5785ZM1150.04 43.2582C1153.54 43.8623 1157.06 44.4039 1160.54 45.0626C1159.16 43.9844 1157.77 42.9434 1156.41 41.8659C1152.85 41.1604 1149.33 40.3209 1145.76 39.6832C1147.21 40.8927 1148.64 42.1115 1150.06 43.2778L1150.04 43.2582ZM1135.99 40.8545C1139.8 41.4363 1143.56 42.1692 1147.34 42.8074C1145.86 41.6059 1144.38 40.3556 1142.9 39.1735C1139.31 38.5568 1135.67 38.1196 1132.06 37.572C1133.37 38.6613 1134.68 39.7458 1135.99 40.8545ZM1122.38 39.0917C1125.98 39.5392 1129.63 39.854 1133.2 40.3747C1131.93 39.3121 1130.66 38.2496 1129.38 37.187C1125.73 36.6527 1122.09 36.0473 1118.42 35.5682C1119.74 36.7137 1121.07 37.942 1122.38 39.0917ZM1108.34 37.442C1112.22 37.8654 1116.09 38.3407 1119.95 38.8271C1118.53 37.5989 1117.12 36.3755 1115.72 35.1841C1111.98 34.7209 1108.21 34.3376 1104.44 33.9711C1105.75 35.1033 1107.05 36.2564 1108.35 37.43L1108.34 37.442ZM710.331 108.666C707.379 109.64 704.449 110.581 701.52 111.544C700.724 115.183 699.921 118.819 699.152 122.587C701.901 121.484 704.671 120.403 707.442 119.285C708.384 115.665 709.355 112.179 710.331 108.666ZM720.719 105.289C717.775 106.279 714.885 107.187 711.962 108.141C710.997 111.598 710.029 115.058 709.093 118.615C711.833 117.528 714.551 116.476 717.317 115.347C718.428 111.909 719.578 108.616 720.719 105.289ZM731.107 101.866C728.169 102.893 725.313 103.793 722.421 104.737C721.291 108.005 720.161 111.274 719.057 114.641C721.762 113.556 724.44 112.522 727.196 111.349C728.48 108.113 729.799 105.007 731.107 101.866ZM741.687 98.0323C738.777 99.0729 735.822 100.16 732.927 101.21C731.638 104.28 730.365 107.365 729.084 110.516C731.82 109.314 734.579 108.077 737.309 106.884C738.752 103.867 740.221 100.961 741.687 98.0323ZM752.341 94.1787C749.432 95.2457 746.529 96.2974 743.632 97.3339C742.206 100.171 740.766 103.058 739.348 105.995C742.071 104.802 744.8 103.596 747.536 102.378C749.116 99.5859 750.724 96.8819 752.332 94.1732L752.341 94.1787ZM763.092 90.2819C760.179 91.3743 757.32 92.3799 754.444 93.4203C752.878 96.034 751.316 98.6936 749.757 101.399C752.462 100.216 755.151 99.0635 757.891 97.8149C759.606 95.247 761.349 92.7542 763.083 90.2763L763.092 90.2819ZM769.102 88.0996C767.854 88.5675 766.624 89.0103 765.396 89.4453C763.713 91.8268 762.042 94.2645 760.372 96.7197C761.313 96.314 762.253 95.9112 763.215 95.4648C764.954 94.6592 766.677 93.9722 768.408 93.2196C770.252 90.9048 772.076 88.6229 773.938 86.3856C772.315 86.957 770.721 87.4757 769.093 88.094L769.102 88.0996ZM792.706 74.2412C789.631 75.101 786.541 75.9974 783.456 76.88C781.679 78.9183 779.954 81.2896 778.188 83.3967C781.131 82.3434 784.08 81.2858 787.017 80.2619C788.906 78.3017 790.785 76.1243 792.697 74.2356L792.706 74.2412ZM804.57 70.8587C801.523 71.6942 798.448 72.5998 795.382 73.4779C793.565 75.2472 791.766 77.3751 789.952 79.2126C792.91 78.148 795.871 77.0647 798.807 76.0691C800.724 74.3861 802.634 72.4799 804.561 70.8531L804.57 70.8587ZM816.746 67.4207C813.833 68.1657 810.873 69.047 807.919 69.9037C806.032 71.4647 804.164 73.2231 802.282 74.8366C805.178 73.8248 808.071 72.8317 810.928 71.9158C812.869 70.4623 814.795 68.8053 816.737 67.4152L816.746 67.4207ZM828.165 64.6925C825.652 65.3048 823.152 65.8963 820.65 66.4859C818.674 67.8762 816.7 69.3299 814.723 70.7612C817.327 69.976 819.928 69.1886 822.529 68.3989C824.398 67.2151 826.28 65.8289 828.156 64.6869L828.165 64.6925ZM839.681 61.9414C837.491 62.452 835.292 62.9855 833.097 63.5129C831.151 64.6534 829.224 65.7639 827.297 66.9535C829.773 66.1941 832.253 65.4209 834.718 64.7048C836.374 63.8396 838.021 62.7795 839.672 61.9359L839.681 61.9414ZM851.477 59.1242C849.764 59.4996 848.026 59.9374 846.296 60.3602C844.656 61.1731 843.027 61.8481 841.379 62.6935C843.571 62.0189 845.762 61.3522 847.93 60.7622C849.105 60.2324 850.296 59.6172 851.468 59.1187L851.477 59.1242ZM861.793 56.8961C861.25 57.0112 860.72 57.0926 860.175 57.2058C859.07 57.6551 857.977 58.0504 856.886 58.5119C857.605 58.3323 858.338 58.1698 859.054 57.9679C859.962 57.6238 860.888 57.2089 861.793 56.8961ZM1262.58 75.1084C1264.14 75.6349 1265.68 76.1991 1267.24 76.7256C1266.83 76.4968 1266.4 76.2849 1266 76.0635C1264.25 75.3951 1262.52 74.6722 1260.76 74.0307C1261.35 74.388 1261.97 74.7437 1262.58 75.1084ZM1250.28 70.9688C1252.17 71.5642 1254.05 72.1776 1255.92 72.7989C1255.37 72.4838 1254.83 72.155 1254.28 71.8311C1252.44 71.1844 1250.57 70.603 1248.72 69.9742C1249.24 70.2931 1249.76 70.6421 1250.28 70.9688ZM1237.38 67.128C1239.92 67.871 1242.46 68.6122 1244.98 69.3821C1244.08 68.8271 1243.2 68.3351 1242.31 67.8111C1239.64 66.93 1237 65.9915 1234.32 65.1421L1237.38 67.128ZM1224.37 63.276C1227.18 64.0491 1229.92 64.9384 1232.71 65.7451C1231.51 64.9799 1230.32 64.2028 1229.12 63.414C1226.57 62.6316 1223.94 62.0007 1221.37 61.2434C1222.37 61.9149 1223.37 62.6038 1224.37 63.2879L1224.37 63.276ZM1210.84 59.7902C1213.87 60.5615 1216.95 61.2227 1219.97 62.0306C1218.92 61.3295 1217.87 60.6695 1216.82 59.9986C1213.7 59.1066 1210.58 58.2067 1207.43 57.3692C1208.57 58.1735 1209.71 58.971 1210.84 59.7902ZM1197.62 56.5419C1200.83 57.2874 1204.01 58.0994 1207.19 58.8947C1205.96 58.0277 1204.74 57.1529 1203.51 56.2703C1200.28 55.4179 1197.06 54.5782 1193.81 53.7743C1195.08 54.6724 1196.35 55.5919 1197.62 56.533L1197.62 56.5419ZM1183.41 53.2702C1186.98 54.0301 1190.51 54.8535 1194.05 55.6631C1192.78 54.7342 1191.52 53.856 1190.26 52.973C1186.87 52.1563 1183.45 51.423 1180.03 50.6609L1183.41 53.2702ZM1170.06 50.6516C1173.5 51.3123 1176.96 51.9519 1180.38 52.664C1179.2 51.764 1178.02 50.8521 1176.84 49.9283C1173.2 49.1311 1169.61 48.1984 1165.95 47.471C1167.32 48.5134 1168.68 49.5384 1170.06 50.6516ZM1155.48 47.8005C1159.35 48.4633 1163.13 49.3214 1166.97 50.0447C1165.63 48.9778 1164.29 47.9773 1162.96 46.9432C1159.42 46.2529 1155.81 45.7287 1152.24 45.0948C1153.33 46.0057 1154.41 46.9088 1155.49 47.8043L1155.48 47.8005ZM1141.86 45.7523C1145.49 46.2954 1149.16 46.7403 1152.76 47.3427C1151.68 46.4525 1150.6 45.5399 1149.52 44.6321C1145.74 43.9742 1141.98 43.2748 1138.17 42.6763C1139.4 43.6855 1140.62 44.6899 1141.86 45.7505L1141.86 45.7523ZM1127.5 43.6628C1131.41 44.1796 1135.27 44.7946 1139.16 45.36C1137.9 44.2809 1136.64 43.2387 1135.38 42.1946C1131.69 41.6368 1127.95 41.2314 1124.24 40.7469C1125.32 41.7229 1126.41 42.6988 1127.49 43.6609L1127.5 43.6628ZM1113.37 41.9184C1117.26 42.3269 1121.13 42.8081 1124.97 43.3017C1123.92 42.3745 1122.87 41.42 1121.81 40.4655C1117.95 39.9712 1114.07 39.5333 1110.2 39.0785C1111.27 40.0277 1112.31 40.9476 1113.37 41.9166L1113.37 41.9184ZM713.653 96.5474C710.483 97.3812 707.348 98.1757 704.208 98.9743C703.373 102.474 702.657 106.337 701.857 109.942C704.828 108.976 707.792 108.027 710.786 107.039C711.745 103.586 712.648 99.9011 713.652 96.5425L713.653 96.5474ZM724.656 93.7025C721.488 94.5587 718.39 95.3217 715.259 96.1307C714.264 99.4411 713.375 103.11 712.412 106.523C715.366 105.564 718.296 104.651 721.282 103.641C722.415 100.362 723.492 96.8714 724.655 93.6977L724.656 93.7025ZM735.693 90.7629C732.53 91.651 729.44 92.448 726.32 93.2722C725.17 96.3996 724.112 99.8654 722.984 103.09C725.923 102.116 728.844 101.17 731.844 100.131C733.131 97.0383 734.372 93.7439 735.692 90.7581L735.693 90.7629ZM746.894 87.483C743.755 88.3859 740.586 89.3368 737.45 90.2416C736.153 93.1584 734.927 96.4337 733.642 99.4574C736.609 98.3983 739.608 97.2805 742.573 96.2166C744.031 93.349 745.433 90.2697 746.894 87.483ZM758.184 84.1874C755.029 85.1299 751.899 86.0306 748.766 86.9373C747.317 89.6572 745.949 92.7081 744.522 95.5122C747.486 94.4512 750.45 93.3903 753.44 92.2796C755.028 89.6291 756.577 86.7604 758.184 84.1874ZM769.581 80.8588C766.409 81.8282 763.312 82.6957 760.187 83.603C758.609 86.1029 757.101 88.939 755.544 91.5182C758.505 90.4554 761.447 89.4225 764.452 88.2879C766.17 85.8623 767.848 83.2137 769.594 80.871L769.581 80.8588ZM774.4 79.4528C773.503 79.7252 772.626 79.9805 771.749 80.2279C770.065 82.4923 768.434 85.1043 766.75 87.4683C767.36 87.2504 767.962 87.0396 768.585 86.8009C770.949 85.9018 773.261 85.145 775.606 84.3091C777.422 82.126 779.225 79.6907 781.063 77.5664C778.846 78.1882 776.642 78.7637 774.398 79.4557L774.4 79.4528ZM801.518 65.9647C798.204 66.6813 794.867 67.4369 791.54 68.1824C789.42 70.4753 787.275 72.5466 785.171 74.9278C788.318 74.0255 791.477 73.1101 794.617 72.2325C796.899 70.0063 799.22 68.1104 801.516 65.9676L801.518 65.9647ZM814.305 63.1235C810.991 63.8022 807.656 64.5928 804.325 65.3442C802.118 67.3767 799.897 69.2437 797.711 71.3632C800.89 70.4355 804.063 69.504 807.214 68.6494C809.565 66.6853 811.94 65.0043 814.305 63.1235ZM827.238 60.4092C824.034 61.0285 820.798 61.7064 817.556 62.4012C815.327 64.1475 813.089 65.7887 810.865 67.6002C813.941 66.7462 816.996 65.943 820.031 65.1906C822.433 63.5057 824.836 62.0277 827.238 60.4092ZM839.722 58.1531C836.733 58.6987 833.749 59.2306 830.762 59.7732C828.511 61.2743 826.275 62.6901 824.029 64.236L832.519 62.2055C834.921 60.7812 837.309 59.5339 839.722 58.1531ZM852.532 55.8382C849.695 56.3249 846.832 56.8614 843.977 57.3859C841.828 58.587 839.683 59.7615 837.531 61.0095C840.286 60.3402 843.04 59.6581 845.777 59.044C848.028 57.9185 850.277 56.916 852.532 55.8382ZM865.952 53.4126C863.289 53.833 860.575 54.3625 857.867 54.8751C856.053 55.7165 854.241 56.5802 852.425 57.4498C854.881 56.8765 857.329 56.3483 859.75 55.8571C861.822 55.009 863.883 54.2294 865.952 53.4126ZM877.405 51.8132C875.57 52.0786 873.744 52.3274 871.927 52.5596C870.377 53.1519 868.825 53.7833 867.272 54.3894C869 54.0691 870.732 53.7302 872.466 53.3931C874.106 52.8611 875.74 52.346 877.402 51.8192L877.405 51.8132ZM888.106 50.3271L885.479 50.6956C884.94 50.8583 884.397 51.0475 883.86 51.2151C884.914 51.0153 885.983 50.7916 887.035 50.6075L888.106 50.3271ZM1282.13 83.5423C1283.31 83.9502 1284.46 84.391 1285.64 84.8049L1285.01 84.4709C1283.89 84.0534 1282.75 83.6531 1281.63 83.2461L1282.13 83.5423ZM1269.94 79.4518C1271.74 80.0406 1273.59 80.5475 1275.37 81.1524C1275.26 81.0839 1275.14 81.0118 1275.03 80.9416C1272.97 80.2038 1270.88 79.5001 1268.81 78.7772C1269.19 79.0091 1269.57 79.2217 1269.94 79.4518ZM1257.22 75.4752C1259.52 76.1854 1261.81 76.8938 1264.1 77.6249L1262.11 76.4522C1259.67 75.6279 1257.28 74.7041 1254.82 73.9127C1255.61 74.4428 1256.42 74.9638 1257.22 75.4752ZM1243.72 71.2699C1246.64 72.1145 1249.47 73.0906 1252.36 73.968C1251.52 73.452 1250.7 72.8594 1249.86 72.3434C1247.13 71.482 1244.34 70.7241 1241.59 69.8914C1242.31 70.3384 1243.02 70.7894 1243.73 71.261L1243.72 71.2699ZM1230.72 67.8142C1233.59 68.5955 1236.52 69.2932 1239.37 70.1026C1238.55 69.5608 1237.73 69.0346 1236.9 68.4987C1233.91 67.6127 1230.95 66.6891 1227.94 65.8528C1228.87 66.5087 1229.8 67.1595 1230.72 67.8052L1230.72 67.8142ZM1217.05 64.1975C1220.37 65.0368 1223.66 65.9389 1226.96 66.817C1225.94 66.114 1224.92 65.3416 1223.9 64.6415C1220.62 63.7383 1217.31 62.8967 1214 62.0324C1215.03 62.7421 1216.04 63.4512 1217.05 64.1885L1217.05 64.1975ZM1203.16 60.83C1206.52 61.6166 1209.89 62.3643 1213.22 63.1869C1212.26 62.4985 1211.3 61.8227 1210.35 61.1428C1207.05 60.3028 1203.73 59.4919 1200.4 58.7102C1201.33 59.4055 1202.26 60.1279 1203.16 60.83ZM1189.28 57.8098C1192.88 58.5834 1196.49 59.3368 1200.05 60.1552C1199.08 59.4244 1198.11 58.6212 1197.13 57.8885C1193.39 57.0146 1189.69 56.0395 1185.92 55.2183C1187.05 56.067 1188.16 56.9317 1189.29 57.7979L1189.28 57.8098ZM1174.88 54.6933C1178.66 55.434 1182.36 56.335 1186.11 57.1294C1185.04 56.2887 1183.96 55.4618 1182.88 54.6289C1179.39 53.888 1175.85 53.2544 1172.33 52.5681C1173.19 53.2648 1174.04 53.9873 1174.89 54.6754L1174.88 54.6933ZM1160.83 52.2915C1164.6 52.9674 1168.45 53.5128 1172.18 54.2317C1171.28 53.4994 1170.37 52.7225 1169.47 52.0058C1165.56 51.2448 1161.69 50.4066 1157.74 49.7192C1158.79 50.5512 1159.82 51.3991 1160.84 52.2736L1160.83 52.2915ZM1146.58 49.8296C1150.45 50.4513 1154.28 51.1317 1158.12 51.8013L1154.93 49.1336C1151.31 48.5152 1147.62 48.0447 1143.96 47.4862C1144.81 48.2467 1145.69 49.0715 1146.58 49.8296ZM1132.02 47.6861C1136.02 48.2499 1140.04 48.7629 1144 49.3894C1143.09 48.5931 1142.17 47.8474 1141.28 47.1031C1137.34 46.5208 1133.41 45.9139 1129.45 45.3802L1132.02 47.6861ZM1117.85 45.9181C1121.74 46.4201 1125.67 46.8395 1129.54 47.3823L1126.87 45.0003C1122.97 44.4891 1119.08 43.9431 1115.15 43.5062C1116.07 44.314 1116.95 45.0882 1117.85 45.9181ZM717.39 84.4692C714.032 85.1503 710.706 85.7933 707.367 86.4571C706.416 90.1125 705.434 93.6752 704.525 97.4559C707.711 96.6314 710.877 95.8319 714.076 94.9864C715.156 91.3979 716.274 87.9408 717.39 84.4692ZM729.03 82.1589C725.661 82.8657 722.379 83.4779 719.056 84.1354C717.93 87.6045 716.771 90.9868 715.689 94.5656C718.856 93.7505 721.988 92.9795 725.199 92.1082C726.449 88.7198 727.739 85.4472 729.026 82.1649L729.03 82.1589ZM740.745 79.7006C737.392 80.4421 734.071 81.1297 730.751 81.8173C729.45 85.1001 728.125 88.2764 726.86 91.6761C730.019 90.8349 733.171 89.9978 736.376 89.0945C737.812 85.8871 739.282 82.8123 740.742 79.7066L740.745 79.7006ZM752.643 76.9873C749.284 77.7377 745.918 78.5333 742.576 79.2822C741.101 82.3913 739.592 85.3631 738.144 88.5836C741.332 87.6614 744.55 86.704 747.739 85.7739C749.354 82.7596 751.002 79.9109 752.64 76.9933L752.643 76.9873ZM764.644 74.2471C761.256 75.0454 757.927 75.786 754.585 76.5427C752.928 79.4648 751.236 82.2038 749.622 85.2435C752.814 84.3231 756.002 83.4009 759.22 82.4309C761.004 79.6039 762.834 76.9832 764.641 74.253L764.644 74.2471ZM776.784 71.4768C773.384 72.293 770.077 73.0134 766.73 73.7712C764.901 76.5089 763.027 79.0072 761.22 81.8447C764.414 80.9262 767.589 80.0327 770.841 79.0342C772.796 76.4044 774.804 74.0255 776.781 71.4828L776.784 71.4768ZM779.71 70.8055C779.49 70.8598 779.276 70.9052 779.055 70.9546C777.071 73.4966 775.02 75.7579 773.04 78.3935C773.356 78.3036 773.669 78.212 773.989 78.1163C776.89 77.2233 779.736 76.4737 782.6 75.6611C784.733 73.2194 786.906 71.0828 789.048 68.7335C785.936 69.4258 782.851 70.0527 779.704 70.8145L779.71 70.8055ZM797.133 60.1606C793.546 60.7452 789.967 61.3021 786.346 61.9404C784.376 64.3053 782.424 66.7477 780.471 69.2057C783.925 68.3896 787.341 67.6665 790.76 66.9199C792.878 64.6309 795 62.3808 797.128 60.1696L797.133 60.1606ZM810.292 57.9909C806.698 58.5591 803.082 59.1758 799.474 59.7727C797.394 61.9081 795.323 64.1487 793.254 66.3657C796.699 65.6026 800.165 64.8066 803.606 64.0651C805.828 62.0214 808.051 59.9699 810.286 57.9999L810.292 57.9909ZM823.764 55.7627C820.18 56.3003 816.522 56.9526 812.896 57.5589C810.73 59.4436 808.577 61.4761 806.419 63.4356C809.917 62.6473 813.434 61.8164 816.89 61.1095C819.176 59.3242 821.465 57.4948 823.758 55.7717L823.764 55.7627ZM837.208 53.7862C833.715 54.2641 830.227 54.7487 826.706 55.2792C824.507 56.9035 822.32 58.7011 820.126 60.3906C823.496 59.7042 826.83 59.0872 830.173 58.4505C832.528 56.9019 834.872 55.2845 837.208 53.7862ZM850.474 52.0919C847.111 52.5215 843.746 52.9384 840.39 53.3765C838.158 54.7736 835.931 56.3559 833.699 57.8115C836.948 57.2216 840.191 56.6364 843.429 56.056C845.788 54.7492 848.137 53.358 850.483 52.0975L850.474 52.0919ZM864.098 50.3542C860.828 50.7387 857.524 51.1799 854.222 51.6103C852.05 52.7477 849.867 54.0924 847.69 55.2798C850.924 54.6839 854.172 54.067 857.375 53.5297C859.627 52.4959 861.872 51.3588 864.107 50.3598L864.098 50.3542ZM877.96 48.6728C874.867 48.9927 871.737 49.3724 868.622 49.774C866.659 50.6272 864.679 51.6762 862.718 52.5674C865.667 52.0719 868.585 51.6477 871.505 51.2128C873.667 50.3996 875.836 49.4594 877.972 48.6803L877.96 48.6728ZM890.663 47.5275C888.08 47.7715 885.505 48.0025 882.938 48.2206C881.112 48.873 879.265 49.7067 877.44 50.3845C879.989 50.0311 882.537 49.6777 885.086 49.3244C886.964 48.7619 888.832 48.0943 890.699 47.5498L890.663 47.5275ZM903.359 46.3942C901.29 46.5699 899.205 46.7648 897.123 46.9536C895.815 47.3309 894.494 47.808 893.176 48.2081C895.445 47.8831 897.727 47.5371 899.99 47.2621C901.127 47.0019 902.259 46.6687 903.374 46.4034L903.359 46.3942ZM916.005 45.2626C915.087 45.3279 914.14 45.4284 913.212 45.5117C912.728 45.6257 912.24 45.6921 911.755 45.8013C912.747 45.6875 913.72 45.6272 914.713 45.5182C915.16 45.4513 915.593 45.3468 916.02 45.2718L916.005 45.2626ZM1289.04 87.6389C1289.96 87.9462 1290.89 88.2356 1291.79 88.5386L1288.63 87.4109L1289.04 87.6389ZM1276.85 83.6334C1278.89 84.2821 1280.9 84.9638 1282.94 85.6295L1281.67 84.8772C1279.52 84.1347 1277.42 83.3203 1275.25 82.5909C1275.78 82.9291 1276.31 83.3004 1276.85 83.6334ZM1263.02 79.2247C1265.73 80.0399 1268.41 80.8994 1271.1 81.7349C1270.56 81.4019 1270.01 81.0936 1269.47 80.7696C1266.88 79.921 1264.24 79.1441 1261.64 78.3224L1263.02 79.2247ZM1250.42 75.6653C1253.13 76.4358 1255.86 77.1694 1258.55 77.9621L1256.78 76.8074C1253.91 75.9205 1251.07 74.9787 1248.18 74.1218C1248.92 74.6402 1249.67 75.1738 1250.42 75.6869L1250.42 75.6653ZM1236.14 71.6284C1239.5 72.5201 1242.78 73.5198 1246.12 74.4485C1245.16 73.8029 1244.19 73.1928 1243.23 72.5737C1240.21 71.695 1237.08 70.9699 1234.03 70.1302L1236.14 71.6284ZM1222.78 68.2391C1225.91 69.0178 1229.1 69.7045 1232.2 70.5172L1230.26 69.1305C1226.97 68.2391 1223.67 67.3659 1220.36 66.5105C1221.16 67.0979 1221.97 67.6618 1222.78 68.2608L1222.78 68.2391ZM1208.36 64.8051C1211.98 65.6382 1215.59 66.4962 1219.18 67.3791C1218.3 66.7339 1217.42 66.1208 1216.53 65.501C1212.96 64.5961 1209.39 63.6734 1205.8 62.8294L1208.36 64.8051ZM1194.09 61.483C1197.81 62.2788 1201.43 63.1927 1205.11 64.0266C1204.3 63.4102 1203.5 62.7829 1202.68 62.149C1199.13 61.3186 1195.5 60.6037 1191.92 59.8073C1192.63 60.3754 1193.35 60.9207 1194.08 61.501L1194.09 61.483ZM1179.73 58.6813C1183.49 59.4198 1187.3 60.1022 1191.03 60.8837C1190.27 60.2812 1189.51 59.6992 1188.74 59.1172C1184.9 58.2926 1181.12 57.3916 1177.24 56.6142L1179.73 58.6813ZM1165.15 55.8399C1169.11 56.5521 1172.99 57.3803 1176.92 58.1337C1176.07 57.4395 1175.22 56.7248 1174.38 56.0072C1170.64 55.2775 1166.79 54.7429 1163.03 54.0671C1163.73 54.6736 1164.43 55.2536 1165.14 55.8578L1165.15 55.8399ZM1150.55 53.3683C1154.46 53.9973 1158.4 54.5942 1162.28 55.2769C1161.61 54.7046 1160.94 54.1479 1160.26 53.5882C1156.37 52.9039 1152.47 52.2257 1148.55 51.5864C1149.21 52.2105 1149.88 52.8093 1150.55 53.3937L1150.55 53.3683ZM1135.89 51.1367C1139.96 51.723 1144.01 52.3395 1148.04 52.9863C1147.35 52.3891 1146.66 51.7665 1145.98 51.1439C1141.96 50.502 1137.91 49.9086 1133.86 49.3273C1134.53 49.9514 1135.21 50.5498 1135.89 51.162L1135.89 51.1367ZM1121.07 48.9408C1125.21 49.4752 1129.23 50.1864 1133.33 50.7709L1131.39 49.0375C1127.5 48.4908 1123.54 48.0703 1119.63 47.5505C1120.1 48.0243 1120.59 48.4995 1121.07 48.9408ZM721.486 72.5105C717.912 73.0331 714.372 73.5272 710.813 74.0385C709.793 77.6435 708.764 81.2176 707.793 84.9517C711.168 84.2817 714.528 83.6308 717.921 82.9465C719.076 79.3633 720.291 75.9653 721.486 72.5105ZM733.766 70.7522C730.162 71.3099 726.666 71.7732 723.123 72.2782C721.937 75.6771 720.739 79.0686 719.573 82.6162C722.937 81.9514 726.258 81.3301 729.668 80.6111C731.009 77.2293 732.386 74.0308 733.766 70.7522ZM746.148 68.7884C742.568 69.3736 738.984 69.9521 735.442 70.5029C734.081 73.7234 732.712 76.9304 731.383 80.2659C734.742 79.5596 738.125 78.8335 741.531 78.0873C743.06 74.9041 744.618 71.8672 746.162 68.7928L746.148 68.7884ZM758.707 66.6322C755.122 67.2391 751.509 67.8703 747.938 68.4689C746.405 71.4923 744.873 74.5204 743.371 77.654C746.771 76.8914 750.2 76.0888 753.612 75.3053C755.293 72.3648 757.006 69.5188 758.711 66.6516L758.707 66.6322ZM771.373 64.4763C767.751 65.1098 764.171 65.7077 760.583 66.3127C758.897 69.1217 757.213 71.9609 755.55 74.8745C758.965 74.0929 762.369 73.337 765.809 72.537C767.656 69.7947 769.516 67.1467 771.377 64.4957L771.373 64.4763ZM784.19 62.2899C780.523 62.962 776.976 63.5217 773.375 64.135C771.537 66.7208 769.711 69.3609 767.897 72.0551C771.325 71.2809 774.707 70.5483 778.197 69.7056C780.187 67.2082 782.194 64.7298 784.195 62.3093L784.19 62.2899ZM804.951 51.8525C801.15 52.2677 797.347 52.6859 793.519 53.143C791.54 55.3823 789.616 57.9662 787.654 60.2986C791.357 59.6614 795.03 59.072 798.707 58.4766C800.801 56.3534 802.847 53.9401 804.956 51.8719L804.951 51.8525ZM818.875 50.2793C815.069 50.6878 811.231 51.1423 807.411 51.5747C805.277 53.6359 803.172 55.9381 801.048 58.0887C804.737 57.4754 808.485 56.8375 812.182 56.2503C814.424 54.322 816.635 52.1636 818.879 50.2987L818.875 50.2793ZM833.191 48.6596C829.389 49.0289 825.498 49.5213 821.633 49.9591C819.338 51.8463 817.065 53.8507 814.78 55.8146C818.546 55.183 822.342 54.4958 826.057 53.9528C828.444 52.2177 830.814 50.3641 833.195 48.6789L833.191 48.6596ZM847.367 47.3871C843.691 47.7063 840.046 47.9747 836.352 48.3238C833.909 50.0208 831.466 51.7129 829.026 53.4859C832.655 52.9682 836.232 52.5344 839.843 52.0466C842.351 50.4772 844.857 48.8854 847.367 47.3871ZM861.545 46.2648C857.961 46.5455 854.37 46.8309 850.774 47.121C848.189 48.6267 845.608 50.0522 843.021 51.6351C846.59 51.1709 850.154 50.7163 853.713 50.2713C856.33 48.9011 858.94 47.5761 861.545 46.2648ZM876.213 45.1064C872.697 45.3421 869.127 45.6567 865.56 45.9605C862.858 47.2867 860.165 48.4116 857.463 49.812C861.041 49.3371 864.635 48.8431 868.171 48.4418C870.863 47.2584 873.533 46.2182 876.213 45.1064ZM890.843 44.1512C887.594 44.3339 884.357 44.4986 881.076 44.7273C878.47 45.778 875.875 46.6781 873.264 47.7836C876.395 47.4371 879.47 47.1803 882.583 46.8686C885.347 45.8749 888.084 45.0871 890.843 44.1512ZM904.825 43.5273C901.951 43.6608 899.08 43.7897 896.209 43.914C893.715 44.7316 891.232 45.4493 888.731 46.317L896.821 45.5891C899.508 44.8157 902.148 44.2575 904.825 43.5273ZM919.232 42.8773C916.724 42.9802 914.197 43.1003 911.675 43.2192C909.616 43.7527 907.571 44.2448 905.508 44.8048C907.983 44.5742 910.474 44.3198 912.918 44.1401C915.046 43.6744 917.132 43.3312 919.232 42.8773ZM933.585 42.3501C931.903 42.3937 930.242 42.4043 928.546 42.4717C927.107 42.7519 925.671 43.034 924.231 43.3299C925.631 43.2403 926.999 43.2016 928.395 43.118C930.139 42.8323 931.854 42.6276 933.594 42.3557L933.585 42.3501ZM944.431 42.2633L943.98 42.2698L943.325 42.3653L943.502 42.3544C943.83 42.3052 944.135 42.287 944.431 42.2633ZM1295.13 91.2529C1297.25 91.9535 1299.32 92.7016 1301.44 93.4123C1301.27 93.3087 1301.1 93.2051 1300.94 93.1053C1298.87 92.3716 1296.76 91.6881 1294.68 90.9724L1295.13 91.2529ZM1282.11 87.0746C1284.27 87.7533 1286.51 88.3505 1288.65 89.0514L1288.54 88.9847C1286.19 88.1954 1283.81 87.4323 1281.44 86.6639L1282.11 87.0746ZM1269.02 83.1491C1271.82 83.9801 1274.64 84.8186 1277.43 85.6772C1277.08 85.4571 1276.73 85.2063 1276.38 84.9833C1273.31 84.0052 1270.32 82.9352 1267.23 81.9875C1267.82 82.3731 1268.42 82.7539 1269.02 83.1473L1269.02 83.1491ZM1255 78.95C1258.15 79.8297 1261.19 80.8279 1264.31 81.7356C1263.71 81.3657 1263.12 80.9718 1262.54 80.5839C1259.67 79.725 1256.73 78.9645 1253.86 78.1156C1254.25 78.4176 1254.62 78.6831 1255 78.9482L1255 78.95ZM1241.34 75.3515C1244.6 76.2147 1247.93 76.9913 1251.16 77.8866C1250.76 77.6122 1250.36 77.3095 1249.96 77.0364C1246.51 76.0542 1243.07 75.0451 1239.58 74.1011C1240.16 74.5155 1240.75 74.9238 1241.34 75.3497L1241.34 75.3515ZM1227.25 71.7104C1230.72 72.5758 1234.15 73.4974 1237.59 74.3834L1235.62 72.983C1232.26 72.0902 1228.88 71.2254 1225.5 70.3696C1226.09 70.8227 1226.66 71.2725 1227.24 71.7085L1227.25 71.7104ZM1212.6 68.1045C1216.39 68.9863 1220.16 69.9288 1223.91 70.8492C1223.35 70.4377 1222.8 69.9948 1222.25 69.5959C1218.55 68.6738 1214.81 67.8096 1211.08 66.9267C1211.59 67.3183 1212.09 67.7032 1212.59 68.1026L1212.6 68.1045ZM1198.46 65.0267C1202.13 65.8259 1205.83 66.5823 1209.46 67.418L1207.83 66.1523C1204.07 65.2848 1200.39 64.3033 1196.61 63.4788C1197.22 63.9751 1197.84 64.5238 1198.46 65.0249L1198.46 65.0267ZM1183.37 61.7434C1187.46 62.5702 1191.46 63.5134 1195.52 64.3843C1194.85 63.8469 1194.18 63.3428 1193.51 62.8308C1189.71 62.0242 1185.81 61.346 1181.98 60.5836L1183.37 61.7434ZM1168.92 59.0147C1172.74 59.7257 1176.64 60.3503 1180.45 61.1128L1179.15 60.0406C1175.23 59.2722 1171.34 58.468 1167.39 57.7337C1167.9 58.1603 1168.41 58.5743 1168.92 59.0136L1168.92 59.0147ZM1153.83 56.3322C1157.95 57.0393 1162.04 57.7692 1166.13 58.5222C1165.59 58.0596 1165.06 57.6285 1164.53 57.1871C1160.53 56.4695 1156.52 55.778 1152.48 55.1126L1153.83 56.3322ZM1138.75 53.7276C1142.95 54.3888 1147.06 55.1633 1151.23 55.8705C1150.8 55.4975 1150.38 55.1167 1149.96 54.7359C1145.93 54.0873 1141.87 53.4859 1137.81 52.8862L1138.75 53.7276ZM1123.93 51.6662C1128.03 52.2373 1132.17 52.7482 1136.23 53.3695L1135.24 52.4896C1131.07 51.8782 1127 51.15 1122.81 50.592L1123.93 51.6662ZM725.521 60.7325C721.735 61.0954 717.982 61.4455 714.214 61.7864C713.162 65.21 712.227 69.02 711.221 72.5678C714.815 72.0534 718.387 71.5542 721.999 71.0255C723.177 67.6259 724.3 64.0067 725.521 60.7325ZM738.426 59.5296C734.6 59.93 730.89 60.2445 727.136 60.5819C725.916 63.8151 724.814 67.4395 723.623 70.8063C727.206 70.2971 730.737 69.8306 734.38 69.2638C735.736 66.0444 737.031 62.6097 738.426 59.5296ZM751.473 58.0886C747.682 58.5142 743.853 58.9664 740.091 59.3646C738.709 62.4111 737.435 65.8384 736.088 68.9969C739.673 68.4359 743.312 67.8291 746.933 67.2366C748.454 64.239 749.917 60.9946 751.467 58.0976L751.473 58.0886ZM764.655 56.5367C760.841 56.9855 757.01 57.4485 753.211 57.8861C751.672 60.732 750.229 63.9718 748.714 66.9321C752.34 66.3258 756.006 65.6868 759.643 65.0704C761.319 62.2842 762.944 59.2392 764.65 56.5456L764.655 56.5367ZM777.952 54.9731C774.095 55.4448 770.293 55.8805 766.475 56.3226C764.785 58.9638 763.184 62.0031 761.52 64.7509C765.178 64.1191 768.805 63.5303 772.49 62.8819C774.316 60.3082 776.096 57.4619 777.947 54.9821L777.952 54.9731ZM790.321 53.5259C786.773 53.9862 783.352 54.3474 779.874 54.7555C778.044 57.1869 776.293 60.0215 774.487 62.5496C777.905 61.9719 781.27 61.4398 784.758 60.802C785.012 60.7524 785.258 60.7226 785.515 60.6748C787.472 58.2567 789.403 55.6735 791.388 53.4047C791.031 53.4481 790.682 53.4765 790.323 53.5229L790.321 53.5259ZM678.778 232.765C678.734 233.366 678.682 233.945 678.648 234.581L678.778 232.765ZM679.674 219.928C679.417 223.269 679.186 226.695 678.958 230.124C680.221 228.314 681.484 226.417 682.749 224.517C683.095 221.186 683.477 217.984 683.885 214.807C682.486 216.562 681.083 218.216 679.682 219.916L679.674 219.928ZM680.58 207.034C680.31 210.47 680.103 214.098 679.84 217.564C681.292 215.796 682.747 213.964 684.202 212.111C684.599 208.791 684.965 205.34 685.38 202.051C683.78 203.756 682.178 205.386 680.587 207.022L680.58 207.034ZM681.491 194.099C681.194 197.572 681.011 201.363 680.731 204.888C682.371 203.185 684.011 201.444 685.651 199.665C686.081 196.29 686.423 192.684 686.861 189.339C685.07 190.964 683.286 192.506 681.499 194.087L681.491 194.099ZM682.529 181.039C682.181 184.609 681.939 188.467 681.625 192.128C683.456 190.505 685.286 188.851 687.115 187.166C687.581 183.735 687.901 179.95 688.379 176.605C686.428 178.131 684.49 179.565 682.542 181.031L682.529 181.039ZM684.013 167.718C683.597 171.552 683.129 175.229 682.743 179.147C684.724 177.65 686.716 176.116 688.717 174.546C689.265 170.753 689.927 167.232 690.497 163.511C688.336 164.948 686.179 166.329 684.027 167.71L684.013 167.718ZM685.491 154.496C685.038 158.241 684.632 162.118 684.209 165.943C686.392 164.544 688.592 163.086 690.799 161.603C691.385 157.903 691.971 154.191 692.581 150.573C690.208 151.922 687.85 153.227 685.504 154.488L685.491 154.496ZM686.956 141.354C686.467 144.997 686.129 149.078 685.667 152.812C688.049 151.52 690.454 150.159 692.864 148.789C693.479 145.182 693.999 141.276 694.644 137.762C692.087 138.988 689.509 140.188 686.969 141.346L686.956 141.354ZM688.932 128.114C688.349 132.03 687.69 135.734 687.142 139.767C689.715 138.596 692.322 137.348 694.933 136.102C695.652 132.262 696.43 128.632 697.177 124.899C694.423 125.962 691.661 127.065 688.938 128.084L688.932 128.114ZM691.065 114.909C690.431 118.739 689.8 122.572 689.204 126.509C691.952 125.476 694.762 124.336 697.55 123.225C698.32 119.421 699.136 115.751 699.944 112.053C696.961 113.011 693.968 114.013 691.065 114.909ZM693.141 101.842C692.474 105.52 691.93 109.58 691.294 113.373C694.24 112.474 697.272 111.443 700.27 110.461C701.067 106.822 701.804 102.931 702.642 99.3866C699.472 100.213 696.257 101.09 693.141 101.842ZM695.698 88.7665C694.921 92.6081 694.119 96.3638 693.385 100.336C696.527 99.5751 699.777 98.6947 702.97 97.8582C703.874 94.0786 704.817 90.4303 705.761 86.7742C702.396 87.4468 698.995 88.1635 695.698 88.7665ZM698.527 75.801C697.685 79.5941 696.823 83.3508 696.023 87.2771C699.354 86.6662 702.786 85.9445 706.178 85.2681C707.161 81.4956 708.201 77.9114 709.224 74.2672C705.652 74.7868 702.039 75.339 698.527 75.801ZM701.326 62.9907C700.448 66.5801 699.686 70.6046 698.858 74.3485C702.4 73.8846 706.045 73.3274 709.644 72.8039C710.659 69.2206 711.6 65.4017 712.639 61.9326C708.865 62.2903 705.04 62.6829 701.326 62.9907ZM924.434 -82.9598C821.752 -127.654 740.584 -95.4164 701.63 61.5674C705.375 61.2576 709.225 60.8642 713.04 60.5071C755.78 -78.189 831.305 -113.913 924.434 -82.9598ZM945.204 -73.1134C944.386 -73.5364 943.549 -74.0494 942.732 -74.4676C841.974 -116.117 759.932 -85.4981 714.611 60.3415C718.411 59.9878 722.191 59.6543 726.019 59.2841C774.879 -70.2714 852.42 -103.266 945.204 -73.1134ZM961.194 -64.3611C959.249 -65.4844 957.346 -66.454 955.411 -67.5211C858.903 -103.128 778.021 -73.2548 727.631 59.1395C731.426 58.787 735.159 58.4824 739.039 58.0822C792.846 -60.3881 870.699 -91.3027 961.194 -64.3611ZM973.587 -56.8565C971.449 -58.1772 969.284 -59.614 967.156 -60.9087C874.85 -90.7705 795.374 -61.5201 740.687 57.9109C744.49 57.5006 748.375 57.0299 752.204 56.5981C809.776 -49.8032 886.61 -79.3433 973.587 -56.8565ZM986.635 -48.6326C983.939 -50.4144 981.288 -52.0278 978.619 -53.6808C890.339 -78.39 812.244 -50.4101 753.948 56.3993C757.794 55.9582 761.675 55.4886 765.543 55.04C826.47 -40.1284 902.615 -67.6233 986.635 -48.6326ZM997.736 -41.005C995.31 -42.6896 992.846 -44.5056 990.429 -46.1642C905.665 -66.6684 828.829 -40.2242 767.424 54.814C771.276 54.3639 775.109 53.9311 779.019 53.4546C842.301 -30.6311 917.094 -56.3589 997.736 -41.005ZM1009.5 -32.7003C1006.68 -34.7539 1003.88 -36.6865 1001.09 -38.6415C919.982 -55.1817 844.747 -30.405 781.118 53.2027C784.122 52.8479 787.078 52.5346 790.14 52.1377C791.035 52.0292 791.887 51.9485 792.769 51.8405C858.037 -21.9366 931.72 -45.3335 1009.5 -32.7003ZM1019.88 -25.0034C1017.37 -26.8978 1014.85 -28.8485 1012.35 -30.6878C934.373 -44.2314 860.48 -21.5591 795.033 51.5908C798.943 51.1312 802.84 50.69 806.725 50.2671C873.086 -13.7368 945.194 -35.1072 1019.88 -25.0034ZM1030.48 -16.8043C1027.78 -18.9077 1025.1 -20.9871 1022.43 -23.0428C947.729 -33.8469 875.597 -13.2222 809.217 49.9765C813.16 49.5204 817.105 49.0662 821.028 48.643C888.008 -6.2353 958.583 -25.0165 1030.47 -16.7954L1030.48 -16.8043ZM1040.2 -9.26841C1037.69 -11.2937 1035.23 -13.141 1032.75 -15.0404C961.042 -23.8151 890.635 -5.6533 823.8 48.3272C827.807 47.8659 831.85 47.3479 835.799 46.9823C902.598 0.577913 971.287 -15.9271 1040.19 -9.25944L1040.2 -9.26841ZM1049.53 -1.43624C1047.12 -3.43176 1044.7 -5.49321 1042.29 -7.49841C973.72 -14.6175 905.388 1.25193 838.891 46.6576C842.717 46.3236 846.479 46.0785 850.295 45.7546C916.559 6.95683 983.338 -6.99313 1049.53 -1.43624ZM1057.94 5.61821C1055.77 3.77962 1053.62 1.98602 1051.47 0.191694C985.759 -5.70357 919.483 7.68095 853.704 45.4855C857.518 45.1772 861.334 44.8659 865.129 44.5827C930.137 12.6775 994.65 0.934615 1057.94 5.61821ZM1066.52 12.8251C1064.31 10.8973 1062.12 9.11277 1059.93 7.28661C997.299 2.29844 933.467 13.4336 869.143 44.2579C873.003 43.9363 876.885 43.5837 880.685 43.3452C944.004 17.8039 1006.09 8.58859 1066.52 12.8251ZM1073.63 19.1942C1071.84 17.6166 1070.05 15.9828 1068.26 14.3828C1008.81 9.9491 947.743 18.5939 885.495 42.9914C888.994 42.7982 892.41 42.7192 895.904 42.5271C956.905 22.4829 1016.24 15.3265 1073.62 19.2092L1073.63 19.1942ZM1080.55 25.4029L1075.4 20.785C1019.15 16.7655 961.004 23.3339 901.261 42.2795C904.638 42.1227 908.025 41.9636 911.391 41.8248C969.781 26.675 1026.21 21.653 1080.56 25.4121L1080.55 25.4029ZM1086.67 30.8951C1085.19 29.549 1083.72 28.2476 1082.25 26.9276C1029.51 23.0884 974.79 27.5263 918.248 41.5047C921.604 41.335 924.976 41.1461 928.273 41.0593C983.11 30.3081 1035.94 27.1882 1086.7 30.9173L1086.67 30.8951ZM1092.26 35.9068C1090.98 34.7237 1089.72 33.6134 1088.45 32.4865C1039.6 28.7479 988.85 31.2682 936.252 40.9119C938.773 40.8828 941.279 40.8776 943.805 40.8395C995.281 33.606 1044.78 32.1041 1092.29 35.929L1092.26 35.9068ZM1096.95 40.3237C1095.94 39.3862 1094.92 38.399 1093.91 37.441C1049.11 33.7192 1002.54 34.6168 954.217 40.7449C956.24 40.7307 958.276 40.6957 960.296 40.6875C1007.66 36.4433 1053.22 36.327 1096.97 40.3384L1096.95 40.3237ZM1100.68 43.8695C1099.99 43.2234 1099.3 42.5658 1098.62 41.9052C1058.17 38.2114 1017.49 37.7766 976.979 40.605C977.563 40.6105 978.123 40.6422 978.703 40.6537C1020.89 38.9047 1061.56 39.9825 1100.7 43.8873L1100.68 43.8695ZM1104.03 47.0507L1102.31 45.4191C1073.74 42.5784 1045.05 41.199 1016.34 41.2861C1046.42 41.9396 1075.65 43.8671 1104.05 47.0685L1104.03 47.0507ZM1106.3 49.209L1105.71 48.6571C1093.06 47.2159 1080.24 46.0237 1067.25 45.0804C1080.46 46.2366 1093.49 47.6187 1106.32 49.2268L1106.3 49.209ZM1108.06 48.9157L1108.73 49.5459C1113.04 50.0922 1117.29 50.7047 1121.54 51.3232C1121.17 50.9853 1120.8 50.6329 1120.44 50.2794C1116.36 49.8014 1112.19 49.4114 1108.08 48.9336L1108.06 48.9157ZM1104.66 45.6789L1106.37 47.3105C1110.49 47.7854 1114.64 48.1903 1118.76 48.6816C1118.24 48.192 1117.7 47.7234 1117.16 47.2518C1113.03 46.7163 1108.89 46.1379 1104.68 45.6967L1104.66 45.6789ZM1100.91 42.1257C1101.59 42.7711 1102.26 43.4146 1102.94 44.0473C1107.11 44.4754 1111.2 45.0446 1115.31 45.587C1114.44 44.79 1113.58 44.027 1112.71 43.2621C1108.81 42.8805 1104.87 42.5189 1100.93 42.1434L1100.91 42.1257ZM1096.12 37.5844C1097.16 38.5754 1098.2 39.5725 1099.25 40.5516C1103.17 40.9142 1107.06 41.289 1110.94 41.6762C1109.86 40.6894 1108.79 39.7365 1107.71 38.7721C1103.88 38.3462 1100.02 37.9376 1096.14 37.6022L1096.12 37.5844ZM1090.9 32.7019C1092.09 33.794 1093.31 34.9266 1094.51 36.0429C1098.31 36.3615 1102.09 36.7071 1105.85 37.1072L1102.05 33.7041C1098.36 33.3748 1094.65 33.0271 1090.91 32.7256L1090.9 32.7019ZM1084.6 27.0673C1086.1 28.4077 1087.6 29.7216 1089.13 31.1088C1092.87 31.3965 1096.59 31.7648 1100.3 32.1099C1098.77 30.7529 1097.23 29.3649 1095.7 27.9934C1092.03 27.6517 1088.32 27.377 1084.62 27.0911L1084.6 27.0673ZM1077.82 20.9993C1079.51 22.5032 1081.19 24.0023 1082.88 25.5304C1086.53 25.7964 1090.2 25.9987 1093.83 26.3308C1092.15 24.8757 1090.48 23.4355 1088.81 22.0336C1085.17 21.6911 1081.51 21.3069 1077.84 21.0231L1077.82 20.9993ZM1070.56 14.5075C1072.38 16.1308 1074.21 17.7802 1076.03 19.3956C1079.65 19.6607 1083.26 20.0484 1086.86 20.4097C1084.83 18.6659 1082.81 16.9989 1080.78 15.3142C1077.41 14.9959 1073.99 14.8037 1070.58 14.5313L1070.56 14.5075ZM1062.58 7.55354C1064.65 9.31842 1066.74 11.1268 1068.82 12.9461C1072.12 13.1977 1075.43 13.3126 1078.73 13.5926C1076.77 11.9673 1074.82 10.3066 1072.86 8.67718C1069.46 8.3023 1066.03 7.87717 1062.6 7.57734L1062.58 7.55354ZM1054 0.376862C1056.19 2.19449 1058.38 4.00016 1060.59 5.88445C1064.02 6.16494 1067.44 6.5979 1070.86 6.99771C1068.54 5.10165 1066.2 3.15647 1063.9 1.31254C1060.62 0.940038 1057.32 0.719707 1054.02 0.40059L1054 0.376862ZM1045 -7.15049C1047.35 -5.1998 1049.71 -3.21521 1052.05 -1.25186C1055.22 -0.947789 1058.41 -0.818922 1061.58 -0.482118C1059.28 -2.32193 1056.99 -4.06015 1054.7 -5.81769C1051.49 -6.26651 1048.25 -6.76148 1045.03 -7.13573L1045 -7.15049ZM1035.63 -14.7372C1038.04 -12.8351 1040.45 -10.8959 1042.88 -8.91963C1046.04 -8.58792 1049.2 -8.09043 1052.35 -7.61408C1049.82 -9.58893 1047.28 -11.5712 1044.74 -13.5095C1041.74 -13.982 1038.7 -14.3012 1035.66 -14.7061L1035.63 -14.7372ZM1025.59 -22.4939C1028.17 -20.5177 1030.74 -18.5513 1033.34 -16.5056C1036.29 -16.1376 1039.23 -15.9427 1042.18 -15.524C1039.7 -17.3727 1037.25 -19.1131 1034.8 -20.8439C1031.75 -21.3967 1028.69 -21.9815 1025.62 -22.4627L1025.59 -22.4939ZM1015.66 -30.163C1018.12 -28.2855 1020.61 -26.316 1023.07 -24.4356C1026.01 -24.003 1028.97 -23.4196 1031.93 -22.8644C1029.24 -24.7968 1026.57 -26.6662 1023.9 -28.5405C1021.14 -29.1611 1018.4 -29.6542 1015.66 -30.163ZM1005.12 -37.6967C1007.73 -35.8914 1010.35 -34.107 1013 -32.1577C1015.5 -31.7112 1018 -31.432 1020.51 -30.9341C1018.19 -32.5305 1015.84 -34.2039 1013.53 -35.7314C1010.72 -36.4038 1007.93 -37.079 1005.12 -37.6985L1005.12 -37.6967ZM994.273 -45.3348L1001.75 -40.0768C1004.31 -39.5475 1006.91 -38.899 1009.5 -38.2856C1006.92 -39.9717 1004.36 -41.5416 1001.8 -43.1485C999.279 -43.9311 996.763 -44.6925 994.27 -45.3366L994.273 -45.3348ZM984.397 -51.9532C986.544 -50.5937 988.699 -49.1878 990.882 -47.7193C992.837 -47.2423 994.775 -46.8838 996.741 -46.3505C994.846 -47.5214 992.91 -48.8538 991.018 -49.9692C988.798 -50.6596 986.603 -51.2846 984.394 -51.9549L984.397 -51.9532ZM973.669 -58.6898C975.548 -57.4999 977.416 -56.3535 979.3 -55.1568C980.999 -54.6731 982.71 -54.1361 984.418 -53.6468C982.557 -54.7183 980.726 -55.664 978.863 -56.7072C977.126 -57.3555 975.373 -58.0999 973.654 -58.6991L973.669 -58.6898ZM965.794 -63.6384C966.339 -63.3018 966.916 -62.9164 967.476 -62.5989C967.969 -62.439 968.449 -62.3451 968.938 -62.1871C968.394 -62.47 967.837 -62.8141 967.293 -63.0922C966.766 -63.2978 966.283 -63.4394 965.779 -63.6477L965.794 -63.6384ZM687.667 127.055C688.265 123.074 688.909 119.221 689.529 115.339C327.668 225.044 135.825 78.3952 34.1214 -108.409C137.516 95.314 330.013 260.746 687.652 127.046L687.667 127.055ZM685.67 140.39C686.211 136.353 686.837 132.562 687.418 128.637C336.776 259.454 144.611 103.305 39.5445 -94.7866C147.233 120.316 341.082 296.066 685.664 140.386L685.67 140.39ZM684.197 153.598C684.653 149.806 684.998 145.693 685.489 142.001C348.009 294.14 154.938 129.114 45.6786 -79.7373C158.483 146.299 354.206 331.701 684.182 153.589L684.197 153.598ZM682.717 166.884C683.131 163.008 683.558 159.083 684.006 155.285C358.427 330.574 163.316 152.963 49.5617 -68.777C167.692 170.094 366.403 368.924 682.704 166.872L682.717 166.884ZM681.226 180.263C681.621 176.276 682.098 172.559 682.515 168.664C366.166 370.158 167.265 171.851 48.9074 -66.8881C172.514 188.733 376.16 409.379 681.211 180.254L681.226 180.263ZM680.146 193.391C680.458 189.713 680.664 185.737 681.006 182.152C368.7 415.95 162.531 179.9 39.6307 -83.0571C168.789 196.207 381.448 456.518 680.141 193.385L680.146 193.391ZM675.586 282.167C675.487 283.345 675.436 284.611 675.347 285.767C675.555 284.982 675.753 284.146 675.957 283.347C676.146 282.038 676.33 280.734 676.512 279.409C676.202 280.353 675.894 281.246 675.58 282.163L675.586 282.167ZM676.35 270.219C676.203 272.285 676.093 274.477 675.944 276.521C676.487 274.911 677.005 273.169 677.54 271.5C677.769 269.683 677.947 267.648 678.166 265.8C677.557 267.308 676.961 268.762 676.35 270.219ZM677.145 257.935C676.976 260.59 676.809 263.251 676.629 265.879C677.348 264.126 678.062 262.22 678.783 260.385C679.06 257.982 679.33 255.483 679.599 253.039C678.774 254.715 677.957 256.313 677.145 257.935ZM677.951 245.43C677.772 248.505 677.574 251.395 677.357 254.425C678.266 252.599 679.164 250.584 680.066 248.662C680.375 245.866 680.693 243.108 680.996 240.275C679.986 242.064 678.968 243.724 677.951 245.43ZM678.65 234.578C678.509 237.305 678.299 239.732 678.147 242.436L678.65 234.578ZM1.70329 -78.8594C225.709 356.245 597.292 960.281 668.577 340.478C568.063 909.277 217.38 339.265 3.84835 -82.3309L4.68899 -83.6914C220.143 341.91 575.525 919.292 670.784 319.728C670.854 319.019 670.917 318.261 670.988 317.544C547.612 869.474 211.953 325.288 6.68813 -86.9267L7.53988 -88.3052C213.465 325.479 550.977 872.797 671.956 307.061C672.122 305.251 672.294 303.473 672.457 301.644C524.957 825.19 205.528 309.551 9.36072 -91.2788L10.2143 -92.6602C206.682 309.049 527.149 826.577 673.142 294.275C673.345 291.798 673.608 289.551 673.811 287.041C502.508 780.272 198.867 293.453 11.8891 -95.3439L12.752 -96.7403C199.81 292.47 503.924 780.391 674.195 281.807C674.386 279.289 674.515 276.522 674.696 273.973C480.227 734.566 191.951 276.912 14.2328 -99.11L15.0993 -100.512C192.796 275.678 481.28 734.068 674.974 269.823C675.177 266.924 675.352 263.921 675.543 260.982C458.821 689.058 184.997 260.278 16.3641 -102.586L17.2361 -103.997C185.778 258.947 459.673 688.275 675.764 257.491C675.958 254.305 676.189 251.187 676.376 247.952C438.409 643.969 178.05 243.591 18.317 -105.746L19.2001 -107.176C178.816 242.171 439.137 642.965 676.588 244.939C676.782 241.497 677.054 238.36 677.236 234.865C419.113 599.257 171.168 226.881 20.0389 -108.533L20.9184 -109.957C171.902 225.425 419.765 598.155 677.412 232.231C677.629 228.646 677.887 225.149 678.153 221.694C401.094 555.056 164.382 210.148 21.5263 -110.94L22.4131 -112.376C165.098 208.648 401.662 553.862 678.319 219.33C678.584 215.775 678.802 212.055 679.077 208.523C384.399 511.355 157.827 193.31 22.8215 -113.036L23.6972 -114.454C158.486 191.795 384.895 510.117 679.222 206.373C679.503 202.766 679.697 198.911 679.997 195.353C369.19 468.201 151.472 176.396 23.8617 -114.72L28.4807 -122.195C128.163 70.3306 320.117 226.085 689.778 113.799C690.41 109.963 690.963 105.896 691.638 102.173C319.695 191.382 127.619 53.4178 28.6229 -122.425L29.5079 -123.858C128.245 51.9289 320.043 190.022 691.867 100.691C692.593 96.7308 693.365 92.9109 694.126 89.0756C322.224 156.944 129.419 34.6522 30.1786 -124.943L31.0507 -126.354C130.04 33.2055 322.603 155.587 694.448 87.5893C695.247 83.6201 696.122 79.86 696.972 76.0217C327.241 124.176 133.043 15.526 32.429 -128.585L33.2882 -129.975C133.655 14.0864 327.611 122.814 697.294 74.5559C698.135 70.7784 698.897 66.7665 699.785 63.1211C334.274 93.1869 138.532 -4.06753 35.6439 -133.788L36.4457 -135.086C139.109 -5.4376 334.673 91.8102 700.091 61.6949C741.477 -106.756 830.774 -133.557 943.078 -76.1459C951.019 -72.8506 959.058 -69.1643 967.24 -64.9346C975.298 -61.6413 983.499 -57.7351 991.759 -53.5032C999.524 -50.2226 1007.37 -46.5542 1015.29 -42.4977C1022.92 -39.2661 1030.64 -35.6071 1038.4 -31.6974C1046.01 -28.4535 1053.69 -24.8602 1061.39 -20.9861C1069 -17.7463 1076.64 -14.2014 1084.32 -10.3512C1091.87 -7.12739 1099.45 -3.62306 1107.06 0.16184C1114.6 3.38702 1122.15 6.86195 1129.7 10.5867C1137.2 13.7916 1144.7 17.2314 1152.21 20.906C1159.66 24.1078 1167.1 27.4494 1174.53 31.0949C1181.94 34.2812 1189.35 37.5868 1196.73 41.1852C1203.37 44.0468 1209.97 47.1496 1216.56 50.3241C1223.73 53.3968 1230.85 56.7425 1237.96 60.1405C1245.05 63.1953 1252.1 66.4459 1259.12 69.7902C1266.15 72.8276 1273.14 75.9931 1280.08 79.2866C1287.05 82.2968 1294 85.3802 1300.87 88.6358C1307.72 91.6052 1314.59 94.5798 1321.35 97.7691C1325.91 99.7608 1330.42 101.827 1334.91 103.886C1341.35 106.622 1347.66 109.522 1353.98 112.42C1360.26 115.11 1366.49 117.857 1372.67 120.662C1538.88 192.244 1664.66 304.103 1759.08 424.219L1758.29 425.496C1674.56 318.871 1566.15 218.717 1426.6 147.526C1561.88 221.069 1668.64 325.209 1752.02 435.647L1751.16 437.038C1663.5 320.845 1549.97 211.604 1404.55 137.658C1545.26 214.28 1657.19 327.647 1744.65 447.566L1743.82 448.921C1651.99 322.931 1533.18 204.137 1382.3 127.654C1528.12 207.139 1645.36 330.141 1737.15 459.715L1736.32 461.051C1640.09 325.078 1515.84 196.315 1359.92 117.528C1510.43 199.729 1633.19 332.741 1729.49 472.106L1728.69 473.401C1628.82 328.805 1500.55 190.975 1342.26 109.746L1340.76 109.166C1494.13 194.116 1621.41 336.498 1721.76 484.611L1720.97 485.887C1618.65 334.743 1488.26 189.531 1330.74 105.299C1329.66 104.896 1328.62 104.463 1327.53 104.063C1480.85 192.278 1610.82 342.346 1714.02 497.139L1713.2 498.464C1608.29 341.02 1475.67 188.434 1318.98 100.919C1317.25 100.3 1315.47 99.7342 1313.73 99.124C1467.04 190.786 1599.96 348.526 1706.2 509.796L1705.4 511.085C1597.89 347.757 1463.02 188.008 1307.33 96.9362C1305.24 96.2132 1303.15 95.4919 1301.05 94.7857C1453.87 190.22 1589.41 355.219 1698.47 522.335L1697.64 523.675C1587.25 354.452 1449.7 187.374 1294.6 92.5724C1291.83 91.6598 1289.1 90.7037 1286.31 89.815C1439.36 189.054 1578.3 361.726 1690.65 534.961L1689.86 536.244C1576.57 361.44 1436.21 187.157 1281.62 88.4103C1278.86 87.5285 1276.03 86.7425 1273.24 85.8996C1425.94 189.308 1567.71 368.924 1682.96 547.409L1682.14 548.731C1565.91 368.656 1422.68 187.371 1268.51 84.4906C1265.2 83.5055 1261.93 82.471 1258.59 81.5152C1411.54 189.111 1556.75 375.97 1675.26 559.866L1674.47 561.146C1555.12 375.814 1408.65 187.424 1254.52 80.2828C1251.24 79.3658 1247.88 78.5356 1244.57 77.6452C1397.64 189.675 1546.07 383.354 1667.66 572.173L1666.85 573.483C1544.49 383.375 1394.89 188.276 1240.85 76.6769C1237.29 75.7362 1233.71 74.8122 1230.11 73.905C1383.52 190.454 1535.39 390.891 1660.1 584.403L1659.32 585.665C1533.93 390.95 1380.99 189.205 1226.74 73.041C1222.88 72.0823 1219.1 71.0342 1215.2 70.1148C1369.25 191.276 1524.72 398.375 1652.62 596.513L1651.81 597.819C1523.26 398.568 1366.82 190.225 1212.06 69.4324C1208.35 68.5662 1204.55 67.8103 1200.81 66.9822C1355.46 192.928 1514.32 406.247 1645.21 608.494L1644.43 609.762C1512.93 406.476 1353.17 191.946 1197.93 66.3582C1193.85 65.4732 1189.82 64.541 1185.71 63.6971C1341.28 194.417 1503.85 414.026 1637.86 620.398L1637.06 621.689C1502.42 414.274 1338.93 193.44 1182.78 63.061C1178.89 62.2791 1174.94 61.5567 1171.01 60.8171C1327.56 196.439 1493.65 421.991 1630.61 632.128L1629.81 633.426C1492.27 422.323 1325.35 195.641 1168.3 60.3373C1164.17 59.5703 1160.01 58.8456 1155.84 58.1208C1313.63 198.65 1483.4 430.048 1623.38 643.837L1622.58 645.12C1482.05 430.395 1311.45 197.865 1153.23 57.6573C1149.02 56.9351 1144.9 56.0983 1140.65 55.4231C1299.83 200.883 1473.32 438.025 1616.27 655.352L1615.47 656.658C1471.96 438.468 1297.7 200.226 1138.11 55.0606C1134.02 54.4299 1129.84 53.9106 1125.7 53.3371C1286.35 203.789 1463.42 446.305 1609.19 666.798L1608.4 668.081C1462.12 446.722 1284.3 203.171 1123.31 53.0056C1119.05 52.405 1114.81 51.7854 1110.51 51.232C1272.82 206.643 1453.56 454.508 1602.18 678.143L1601.37 679.443C1452.23 454.947 1270.7 206.01 1108.07 50.8944C1069.87 46.1118 1031.45 43.2943 992.962 42.453C983.928 42.4608 974.848 42.5354 965.666 42.7745C953.117 43.4686 940.427 44.442 927.597 45.6948C919.586 46.7361 911.533 47.8872 903.409 49.2056C892.568 51.3531 881.609 53.853 870.609 56.4928C863.624 58.5189 856.571 60.8089 849.51 63.1518C842.839 65.6737 836.184 68.1023 829.465 70.9166C820.828 75.0412 812.14 79.6017 803.445 84.2405C797.815 87.689 792.173 91.3107 786.519 95.1055C780.264 99.7852 774.01 104.531 767.755 109.661C762.129 114.816 756.523 120.521 750.914 126.137C746.625 130.997 742.36 136.138 738.085 141.243C734.264 146.423 730.428 151.499 726.657 157.06C726.563 157.212 726.451 157.346 726.358 157.483C724.696 160.174 722.988 162.796 721.339 165.665C719.303 169.208 717.269 172.414 715.236 175.818C712.118 182.262 708.983 188.221 705.843 194.366C703.079 201.055 700.316 207.689 697.534 214.085C695.26 220.638 693.005 227.367 690.696 233.601C688.977 239.616 687.232 245.426 685.47 251.155C683.758 258.612 681.935 265.398 680.167 272.457C678.689 280.552 677.139 288.262 675.596 296.002C674.486 304.158 673.407 312.416 672.176 320.072C606.537 977.719 228.001 363.582 0.851512 -77.4809L1.70329 -78.8594Z" fill="white" fill-opacity="0.04"/>
</svg>
