<svg width="1440" height="816" viewBox="0 0 1440 816" fill="none" xmlns="http://www.w3.org/2000/svg">
<path d="M615.377 372.705C615.706 369.602 616.074 366.744 616.384 363.592L615.377 372.705ZM925.333 84.4104C925.838 84.5699 926.335 84.6906 926.836 84.856C926.343 84.5966 925.845 84.3511 925.348 84.0977C924.906 83.9156 924.477 83.7741 924.038 83.5938C924.465 83.8408 924.907 84.1556 925.333 84.4104ZM948.239 96.7378C946.02 95.9907 943.82 95.3669 941.606 94.6596C943.782 96.0044 945.947 97.3134 948.154 98.7888M948.896 95.285C949.315 95.4239 949.72 95.5253 950.135 95.6703C949.611 95.4002 949.102 95.1931 948.579 94.9279C948.203 94.7738 947.831 94.6392 947.455 94.4851C947.933 94.7762 948.415 94.9998 948.896 95.285ZM936.466 91.4095C938.127 91.9073 939.799 92.4485 941.467 92.9626C939.7 91.966 937.954 91.0359 936.189 90.0363C934.508 89.4104 932.783 88.6212 931.099 88.0315C932.883 89.1955 934.667 90.2979 936.466 91.4095ZM615.463 393.346C615.023 394.479 614.583 395.6 614.145 396.738C613.995 398.038 613.857 399.386 613.708 400.678C614.095 399.455 614.474 398.259 614.874 397.01C615.061 395.837 615.245 394.521 615.445 393.348L615.463 393.346ZM618.245 386.165L617.883 387.099L617.753 387.898C617.874 387.502 618 387.138 618.121 386.741C618.162 386.568 618.194 386.361 618.237 386.173L618.245 386.165ZM971.292 107.347C969.114 106.615 966.938 105.907 964.766 105.223C966.84 106.505 968.897 107.776 970.977 109.148M971.944 105.944C972.284 106.063 972.602 106.144 972.934 106.262C972.545 106.063 972.161 105.9 971.771 105.701C971.444 105.561 971.149 105.457 970.837 105.326C971.192 105.541 971.554 105.724 971.914 105.938L971.944 105.944ZM959.562 101.929C961.172 102.416 962.796 102.989 964.41 103.503C962.765 102.577 961.117 101.663 959.47 100.74C957.822 100.106 956.153 99.3393 954.505 98.7338C956.181 99.8107 957.864 100.888 959.536 101.946L959.562 101.929ZM948.172 98.7872C950.066 99.2429 951.935 99.5716 953.836 100.097L948.172 98.7872ZM617.504 380.65C616.812 382.132 616.122 383.597 615.427 385.077C615.202 387.161 614.975 389.222 614.74 391.288C615.337 389.76 615.934 388.245 616.53 386.692C616.849 384.737 617.165 382.672 617.491 380.671L617.504 380.65ZM621.115 372.965C620.632 374.001 620.151 375.014 619.674 376.033C619.437 377.515 619.197 378.982 618.959 380.45C619.357 379.432 619.758 378.428 620.154 377.379C620.464 375.96 620.776 374.445 621.1 372.989L621.115 372.965ZM624.043 366.721C623.955 366.911 623.869 367.089 623.781 367.279L623.406 369.01C623.602 368.284 623.812 367.496 624.028 366.745L624.043 366.721ZM994.829 116.511L995.514 116.74C995.268 116.617 995.022 116.506 994.778 116.38L994.098 116.1C994.346 116.241 994.586 116.369 994.829 116.511ZM982.539 112.375C984.09 112.85 985.651 113.443 987.203 113.943C985.683 113.103 984.145 112.198 982.636 111.373C981.144 110.803 979.637 110.136 978.151 109.589C979.606 110.48 981.081 111.474 982.539 112.375ZM970.96 109.15C973.016 109.685 975.06 110.092 977.119 110.683L970.96 109.15ZM958.543 106.063C961.089 106.628 963.668 107.342 966.23 107.975C963.777 106.389 961.334 104.866 958.882 103.311C956.48 102.599 954.07 101.853 951.678 101.226C953.976 102.836 956.273 104.475 958.543 106.063ZM619.516 368.217C618.598 369.854 617.677 371.501 616.752 373.158C616.485 375.752 616.191 378.182 615.912 380.757C616.717 379.052 617.519 377.358 618.314 375.631C618.707 373.147 619.114 370.708 619.494 368.225L619.516 368.217ZM623.808 360.54C623.041 361.929 622.274 363.29 621.504 364.657C621.172 366.828 620.815 368.871 620.47 371.017C621.129 369.636 621.783 368.263 622.423 366.853C622.892 364.721 623.348 362.644 623.804 360.521L623.808 360.54ZM627.696 353.58C627.181 354.526 626.668 355.424 626.152 356.345C625.807 357.982 625.452 359.527 625.108 361.149C625.503 360.315 625.902 359.508 626.293 358.621C626.761 356.927 627.227 355.261 627.694 353.562L627.696 353.58ZM630.694 348.218L630.576 348.41L630.401 349.033L630.694 348.218ZM1017.6 127.014L1017.92 127.126L1017.67 127.004L1017.32 126.854L1017.6 127.014ZM1005.41 122.761C1006.88 123.229 1008.37 123.819 1009.84 124.304C1008.46 123.543 1007.06 122.686 1005.68 121.95C1004.41 121.458 1003.14 120.988 1001.87 120.513C1003.04 121.165 1004.25 122.018 1005.42 122.728L1005.41 122.761ZM993.643 119.455C995.715 120.025 997.784 120.485 999.859 121.102C997.957 119.977 996.076 118.971 994.19 117.913C992.06 117.176 989.933 116.448 987.811 115.752C989.761 116.953 991.698 118.15 993.65 119.422L993.643 119.455ZM981.249 116.169C983.775 116.767 986.316 117.522 988.849 118.183C986.523 116.704 984.2 115.236 981.877 113.747C979.59 113.044 977.319 112.422 975.027 111.778C977.096 113.143 979.193 114.716 981.257 116.136L981.249 116.169ZM969.45 113.782C972.054 114.255 974.669 114.594 977.281 115.167C974.949 113.585 972.612 112.067 970.291 110.587C967.503 109.856 964.72 109.158 961.942 108.494C964.453 110.207 966.941 111.918 969.458 113.75L969.45 113.782ZM616.393 363.577C615.186 365.364 613.972 367.039 612.777 368.759L616.393 363.577ZM621.505 355.865C620.371 357.581 619.238 359.307 618.102 361.018C618.065 361.334 618.022 361.63 617.992 361.954C617.736 364.597 617.404 366.962 617.147 369.559C618.156 367.766 619.163 365.983 620.168 364.162C620.595 361.335 621.072 358.729 621.496 355.86L621.505 355.865ZM626.444 348.402C625.425 349.958 624.406 351.485 623.387 353.021C623.37 353.129 623.352 353.226 623.337 353.336C622.966 355.859 622.539 358.103 622.162 360.593C623.054 359.016 623.945 357.447 624.835 355.82C625.353 353.293 625.914 350.954 626.441 348.4L626.444 348.402ZM631.097 341.361C630.256 342.667 629.415 343.916 628.575 345.174C628.123 347.419 627.633 349.417 627.173 351.633C627.871 350.411 628.591 349.171 629.293 347.848C629.881 345.638 630.498 343.581 631.09 341.352L631.097 341.361ZM635.249 335.063C634.707 335.939 634.153 336.75 633.604 337.571C633.194 339.132 632.764 340.523 632.356 342.068C632.851 341.106 633.349 340.079 633.844 339.117C634.303 337.731 634.778 336.441 635.242 335.055L635.249 335.063ZM638.9 328.986L638.729 329.264C638.661 329.474 638.587 329.66 638.521 329.867L638.556 329.81C638.663 329.525 638.781 329.259 638.893 328.977L638.9 328.986ZM1028.21 133.007C1029.59 133.447 1030.97 134.042 1032.35 134.503C1031.15 133.849 1029.93 133.068 1028.73 132.437C1027.45 131.939 1026.17 131.577 1024.89 131.092C1026 131.724 1027.09 132.341 1028.21 133.007ZM1016.22 129.606C1018.23 130.173 1020.24 130.691 1022.25 131.299C1020.5 130.267 1018.75 129.324 1017 128.328C1014.94 127.601 1012.87 126.842 1010.81 126.152C1012.62 127.308 1014.42 128.445 1016.22 129.606ZM1003.9 126.122C1006.38 126.735 1008.88 127.549 1011.36 128.222C1009.17 126.869 1006.99 125.409 1004.81 124.04C1002.49 123.314 1000.18 122.746 997.867 122.078C999.861 123.388 1001.87 124.764 1003.89 126.134L1003.9 126.122ZM991.824 123.57C994.519 124.108 997.216 124.551 999.913 125.172C997.596 123.621 995.308 122.215 993.014 120.781C990.252 120.029 987.492 119.253 984.739 118.561C987.098 120.245 989.459 121.894 991.828 123.589L991.824 123.57ZM979.401 121.108C982.339 121.602 985.288 122.292 988.248 122.856L980.629 117.467C977.882 116.831 975.134 116.319 972.401 115.795C974.716 117.524 977.068 119.361 979.405 121.128L979.401 121.108ZM623.57 343.473L619.546 348.647C619.17 351.679 618.811 354.804 618.467 357.897C619.665 356.092 620.865 354.292 622.06 352.465C622.529 349.375 623.032 346.446 623.57 343.473ZM629.114 336.342C627.868 337.957 626.627 339.544 625.381 341.138C624.891 343.906 624.43 346.748 623.962 349.587C625.066 347.934 626.164 346.291 627.259 344.6L627.298 344.43C627.865 341.611 628.489 339.001 629.107 336.354L629.114 336.342ZM634.444 329.484C633.339 330.95 632.235 332.342 631.132 333.746C630.553 336.223 629.993 338.769 629.435 341.313C630.395 339.886 631.357 338.476 632.32 336.951C632.429 336.527 632.548 336.154 632.66 335.732C633.219 333.561 633.836 331.546 634.436 329.496L634.444 329.484ZM639.515 322.817C638.59 324.072 637.666 325.327 636.745 326.522C636.135 328.595 635.534 330.732 634.937 332.842C635.785 331.47 636.619 330.014 637.457 328.652C637.641 328.092 637.834 327.6 638.018 327.04C638.482 325.567 639.005 324.225 639.507 322.829L639.515 322.817ZM644.443 315.872C643.789 316.777 643.134 317.703 642.477 318.639C641.994 319.969 641.525 321.357 641.035 322.707L642.715 319.907C642.933 319.367 643.155 318.893 643.373 318.354C643.714 317.495 644.08 316.713 644.44 315.878L644.443 315.872ZM648.457 310.212L648.339 310.404L648.12 310.913C648.217 310.688 648.334 310.466 648.45 310.224L648.457 310.212ZM1050.03 144.581C1047.72 143.826 1045.42 143.232 1043.11 142.521C1044.86 143.633 1046.61 144.723 1048.37 145.885M1050.6 143.231C1051.98 143.687 1053.34 144.158 1054.71 144.625C1053.58 144.023 1052.47 143.487 1051.35 142.912C1050.15 142.437 1048.95 142.063 1047.74 141.603C1048.69 142.159 1049.64 142.66 1050.6 143.231ZM1038.68 139.698C1040.61 140.266 1042.54 140.812 1044.46 141.412C1042.87 140.49 1041.28 139.609 1039.69 138.689C1037.7 137.975 1035.7 137.198 1033.71 136.523C1035.37 137.599 1037.02 138.645 1038.68 139.695L1038.68 139.698ZM1026.32 136.033C1028.79 136.675 1031.25 137.531 1033.72 138.223C1031.69 136.971 1029.66 135.567 1027.64 134.356C1025.27 133.591 1022.9 133.047 1020.53 132.345C1022.46 133.55 1024.38 134.732 1026.32 136.033ZM1014.1 133.346C1016.76 133.934 1019.42 134.431 1022.08 135.087C1019.92 133.66 1017.77 132.319 1015.61 130.957C1012.89 130.185 1010.17 129.351 1007.44 128.647C1009.66 130.212 1011.88 131.779 1014.1 133.346ZM1001.68 130.63C1004.59 131.193 1007.53 131.917 1010.45 132.542C1008.06 130.872 1005.66 129.126 1003.26 127.448C1000.44 126.759 997.629 126.277 994.828 125.691C997.099 127.309 999.377 128.932 1001.67 130.639L1001.68 130.63ZM989.327 128.783C992.33 129.204 995.336 129.488 998.342 130.011C995.947 128.25 993.582 126.623 991.212 124.969C988.146 124.347 985.08 123.679 982.008 123.128C984.447 125.005 986.885 126.892 989.321 128.792L989.327 128.783ZM625.632 331.166C624.084 332.862 622.537 334.568 620.991 336.26C620.59 339.426 620.248 342.772 619.853 345.961C621.254 344.171 622.654 342.372 624.054 340.562C624.589 337.467 625.086 334.238 625.632 331.166ZM631.781 324.422C630.309 326.053 628.845 327.653 627.377 329.253C626.855 332.186 626.383 335.279 625.864 338.235C627.184 336.546 628.5 334.872 629.835 333.148C630.486 330.265 631.113 327.269 631.781 324.422ZM637.768 317.858C636.397 319.407 635.045 320.86 633.687 322.335C633.055 325.01 632.469 327.846 631.845 330.543C633.052 329.012 634.26 327.511 635.474 325.881C636.246 323.234 636.988 320.479 637.768 317.858ZM643.622 311.216C642.376 312.664 641.13 314.138 639.894 315.523C639.188 317.896 638.525 320.416 637.811 322.797C638.947 321.239 640.089 319.552 641.224 317.989C642.028 315.763 642.811 313.433 643.625 311.218L643.622 311.216ZM649.461 304.217C648.377 305.502 647.289 306.809 646.216 308.129C645.529 309.985 644.874 311.961 644.194 313.825C645.162 312.452 646.126 311.094 647.094 309.734C647.884 307.92 648.663 306.017 649.461 304.217ZM654.938 297.649C654.168 298.581 653.384 299.494 652.62 300.43C652.067 301.679 651.528 303.007 650.97 304.258C651.65 303.298 652.33 302.358 653.009 301.386C653.659 300.155 654.295 298.871 654.938 297.649ZM659.465 292.223L659.079 292.687C658.974 292.858 658.892 293.051 658.799 293.229C658.915 293.04 659.049 292.884 659.171 292.699L659.465 292.223ZM1072.8 153.36C1073.81 153.692 1074.81 153.949 1075.81 154.294C1075.12 153.928 1074.43 153.605 1073.74 153.246C1072.65 152.817 1071.57 152.449 1070.48 152.032C1071.25 152.479 1072.03 152.903 1072.8 153.36ZM1061.01 149.684C1062.84 150.242 1064.67 150.813 1066.5 151.396C1065.09 150.582 1063.67 149.785 1062.25 148.954C1060.35 148.263 1058.44 147.483 1056.54 146.823C1058.03 147.76 1059.53 148.759 1061.02 149.691L1061.01 149.684ZM1048.36 145.877C1050.89 146.554 1053.41 147.376 1055.93 148.105L1048.36 145.877ZM1036.24 143.006C1038.86 143.622 1041.48 144.198 1044.09 144.865C1042.09 143.563 1040.09 142.304 1038.09 141.025C1035.41 140.239 1032.73 139.363 1030.06 138.633C1032.13 140.1 1034.2 141.58 1036.26 143.013L1036.24 143.006ZM1023.51 139.996C1026.51 140.61 1029.52 141.457 1032.54 142.132C1030.25 140.56 1027.96 138.89 1025.67 137.374C1022.84 136.644 1020 136.158 1017.17 135.51C1019.29 136.991 1021.4 138.438 1023.53 140.003L1023.51 139.996ZM1011.19 137.996C1014.18 138.472 1017.18 138.872 1020.16 139.428C1017.93 137.813 1015.72 136.268 1013.49 134.709C1010.45 134.04 1007.4 133.3 1004.35 132.705C1006.63 134.466 1008.91 136.246 1011.19 137.996ZM998.625 135.987C1001.82 136.396 1005.01 137.038 1008.2 137.517C1005.83 135.707 1003.43 133.776 1001.06 131.984C997.928 131.412 994.797 131.056 991.667 130.605C993.979 132.372 996.286 134.108 998.625 135.987ZM627.7 318.917C625.951 320.555 624.2 322.204 622.454 323.831C622.025 327.07 621.69 330.59 621.287 333.853C622.884 332.107 624.482 330.356 626.08 328.6C626.624 325.437 627.121 322.055 627.7 318.917ZM634.438 312.61C632.752 314.208 631.071 315.769 629.389 317.341C628.833 320.356 628.356 323.644 627.817 326.699C629.346 325.028 630.875 323.37 632.412 321.659C633.093 318.696 633.728 315.539 634.429 312.605L634.438 312.61ZM641.049 306.424C639.444 307.977 637.862 309.412 636.262 310.903C635.588 313.701 634.988 316.727 634.317 319.568C635.758 318.012 637.195 316.483 638.654 314.811C639.451 312.068 640.219 309.138 641.04 306.418L641.049 306.424ZM647.598 300.042C646.074 301.55 644.54 303.11 643.04 304.559C642.262 307.111 641.545 309.878 640.778 312.458C642.165 310.836 643.585 309.053 644.982 307.416C645.854 305 646.699 302.428 647.58 300.051L647.598 300.042ZM654.168 293.326C652.754 294.75 651.341 296.207 649.927 297.659C649.123 299.81 648.363 302.151 647.565 304.319C648.851 302.774 650.138 301.229 651.428 299.681C652.332 297.616 653.231 295.383 654.159 293.32L654.168 293.326ZM660.562 286.786C659.337 288.046 658.117 289.284 656.895 290.532C656.112 292.267 655.363 294.163 654.581 295.911C655.692 294.581 656.802 293.267 657.914 291.909C658.797 290.232 659.664 288.441 660.553 286.781L660.562 286.786ZM666.588 280.622C665.688 281.57 664.795 282.46 663.901 283.371C663.28 284.524 662.675 285.79 662.055 286.948C662.88 285.967 663.704 285.009 664.536 283.97C665.215 282.877 665.891 281.704 666.579 280.617L666.588 280.622ZM671.27 275.851C671.169 275.954 671.075 276.045 670.979 276.147C670.806 276.428 670.621 276.727 670.444 277.014L670.984 276.373C671.193 276.089 671.417 275.773 671.632 275.479C671.508 275.585 671.386 275.696 671.27 275.851ZM684.536 260.406L684.064 260.809C683.766 261.19 683.459 261.526 683.163 261.905C683.387 261.683 683.611 261.454 683.835 261.233C684.058 261.012 684.308 260.654 684.545 260.391L684.536 260.406ZM1094.85 163.371C1095.7 163.658 1096.55 163.902 1097.39 164.194C1096.92 163.948 1096.44 163.717 1095.96 163.467C1095.02 163.09 1094.07 162.745 1093.13 162.375C1093.71 162.714 1094.28 163.036 1094.85 163.371ZM1083.22 159.585C1084.95 160.13 1086.66 160.705 1088.38 161.265C1087.15 160.573 1085.92 159.83 1084.69 159.136C1082.87 158.461 1081.04 157.675 1079.23 157.036C1080.56 157.83 1081.89 158.767 1083.22 159.587L1083.22 159.585ZM1070.34 155.659C1072.76 156.33 1075.17 157.03 1077.58 157.752C1075.81 156.68 1074.04 155.707 1072.26 154.702C1070.04 153.954 1067.81 153.32 1065.57 152.631C1067.17 153.635 1068.76 154.629 1070.34 155.663L1070.34 155.659ZM1058.3 152.591C1060.85 153.23 1063.4 153.856 1065.95 154.543C1064.12 153.375 1062.29 152.206 1060.46 151.016C1057.82 150.21 1055.18 149.286 1052.53 148.54C1054.45 149.85 1056.38 151.277 1058.3 152.595L1058.3 152.591ZM1045.22 149.354C1048.32 150.031 1051.41 150.88 1054.5 151.627C1052.26 150.101 1050.03 148.665 1047.8 147.243C1045.01 146.496 1042.21 145.927 1039.41 145.247C1041.35 146.608 1043.29 147.957 1045.23 149.357L1045.22 149.354ZM1032.95 147.113C1035.92 147.66 1038.89 148.121 1041.85 148.736C1039.79 147.266 1037.73 145.812 1035.67 144.354C1032.64 143.649 1029.62 142.828 1026.59 142.196C1028.72 143.793 1030.85 145.518 1032.97 147.12L1032.95 147.113ZM1019.91 144.737C1023.26 145.252 1026.6 145.974 1029.92 146.562C1027.56 144.795 1025.21 143.045 1022.87 141.348C1019.78 140.739 1016.69 140.359 1013.6 139.856C1015.7 141.465 1017.8 143.068 1019.91 144.737ZM1007.45 143.293C1010.63 143.649 1013.82 143.881 1016.99 144.329C1014.86 142.653 1012.72 141.009 1010.59 139.37C1007.36 138.855 1004.12 138.263 1000.89 137.808C1003.07 139.61 1005.27 141.495 1007.45 143.293ZM-27.2725 51.0371C-27.6749 50.1687 -28.0653 49.3077 -28.4621 48.4303C-28.0646 49.2999 -27.6749 50.1687 -27.2725 51.0371ZM629.744 306.71C627.836 308.233 625.922 309.77 624.02 311.288C623.536 314.617 623.156 318.257 622.701 321.67C624.49 319.999 626.282 318.321 628.078 316.638C628.658 313.423 629.131 309.839 629.744 306.71ZM637.072 300.876C635.21 302.378 633.356 303.852 631.502 305.326C630.884 308.435 630.357 311.865 629.777 315.06C631.512 313.443 633.247 311.833 634.987 310.182C635.692 307.167 636.319 303.803 637.06 300.869L637.072 300.876ZM644.288 295.117C642.478 296.613 640.697 297.996 638.908 299.411C638.168 302.297 637.525 305.519 636.807 308.475C638.467 306.94 640.126 305.44 641.8 303.802C642.641 300.982 643.408 297.853 644.272 295.115L644.288 295.117ZM651.474 289.116C649.726 290.606 647.96 292.126 646.234 293.58C645.386 296.225 644.631 299.233 643.802 301.948C645.434 300.324 647.089 298.55 648.723 296.915C649.636 294.38 650.507 291.572 651.462 289.109L651.474 289.116ZM658.673 282.822C657.001 284.268 655.323 285.739 653.655 287.2C652.739 289.526 651.913 292.155 651.021 294.53C652.576 292.937 654.132 291.341 655.687 289.756C656.706 287.511 657.666 285.001 658.692 282.817L658.673 282.822ZM665.816 276.617C664.279 277.973 662.745 279.297 661.213 280.632C660.263 282.639 659.371 284.918 658.432 286.974C659.869 285.511 661.303 284.067 662.744 282.565C663.77 280.625 664.769 278.478 665.806 276.606L665.816 276.617ZM672.755 270.575C671.422 271.768 670.11 272.895 668.794 274.027C667.873 275.657 666.988 277.498 666.076 279.162C667.344 277.879 668.59 276.645 669.856 275.3C670.838 273.745 671.782 272.036 672.758 270.544L672.755 270.575ZM676.57 267.247L676.479 267.327C675.698 268.497 674.919 269.717 674.143 270.986C675.048 270.091 675.954 269.16 676.86 268.257C677.659 267.197 678.447 266.002 679.249 264.952C678.372 265.696 677.466 266.404 676.572 267.215L676.57 267.247ZM687.34 254.644C686.003 255.615 684.662 256.588 683.324 257.575C682.116 259.308 680.923 261.012 679.737 262.709C680.847 261.771 681.967 260.781 683.072 259.849C684.484 258.006 685.916 256.392 687.342 254.612L687.34 254.644ZM694.357 249.526C693.535 250.113 692.707 250.73 691.886 251.329C690.988 252.427 690.107 253.465 689.225 254.565C689.759 254.102 690.297 253.633 690.837 253.181C692.003 251.889 693.189 250.746 694.36 249.495L694.357 249.526ZM1116.76 173.3C1117.44 173.538 1118.09 173.742 1118.76 173.979L1118.06 173.615C1117.27 173.297 1116.48 172.994 1115.69 172.679L1116.76 173.3ZM1105.3 169.418C1106.9 169.933 1108.49 170.507 1110.09 171.042C1109.06 170.471 1108.04 169.816 1107.01 169.257C1104.97 168.493 1102.95 167.623 1100.91 166.891C1102.37 167.686 1103.84 168.493 1105.3 169.387L1105.3 169.418ZM1092.17 165.368C1094.24 165.969 1096.33 166.449 1098.39 167.08C1097.05 166.284 1095.71 165.53 1094.36 164.751C1092.23 164.024 1090.09 163.353 1087.95 162.661C1089.37 163.547 1090.77 164.441 1092.17 165.337L1092.17 165.368ZM1080.23 162.127C1082.72 162.782 1085.2 163.461 1087.67 164.148C1086.02 163.107 1084.37 162.009 1082.72 160.959C1079.88 160.071 1077.07 159.017 1074.22 158.19C1076.23 159.436 1078.23 160.733 1080.24 162.092L1080.23 162.127ZM1066.87 158.697C1069.87 159.387 1072.86 160.183 1075.85 160.94C1073.82 159.592 1071.82 158.338 1069.8 157.062C1067.06 156.295 1064.31 155.665 1061.57 154.956C1063.34 156.171 1065.11 157.407 1066.87 158.663L1066.87 158.697ZM1054.63 156.162C1057.58 156.745 1060.5 157.307 1063.42 157.952C1061.53 156.627 1059.64 155.283 1057.75 153.933C1054.59 153.145 1051.44 152.223 1048.27 151.507C1050.4 153.029 1052.52 154.586 1054.63 156.162ZM1041.12 153.423C1044.56 154 1047.97 154.84 1051.4 155.501C1049.14 153.835 1046.89 152.306 1044.66 150.727C1041.59 150.072 1038.52 149.617 1035.45 149.037C1037.35 150.5 1039.24 151.955 1041.13 153.431L1041.12 153.423ZM1028.78 151.755C1031.95 152.183 1035.13 152.534 1038.3 153.038C1036.34 151.525 1034.37 149.991 1032.41 148.473C1029.06 147.864 1025.74 147.17 1022.38 146.627C1024.51 148.32 1026.65 150.024 1028.78 151.755ZM1015.44 149.971C1019.02 150.36 1022.57 150.946 1026.13 151.41C1023.82 149.543 1021.53 147.828 1019.24 146.069C1015.99 145.588 1012.72 145.342 1009.46 144.981C1011.45 146.626 1013.45 148.29 1015.44 149.971ZM632.48 294.076C630.348 295.518 628.212 296.967 626.091 298.391C625.505 302.017 624.888 305.499 624.343 309.207C626.293 307.657 628.247 306.097 630.206 304.525C630.953 300.933 631.735 297.598 632.48 294.076ZM640.397 288.701C638.316 290.134 636.253 291.511 634.175 292.926C633.444 296.358 632.664 299.636 631.969 303.131C633.865 301.621 635.76 300.127 637.673 298.586C638.534 295.177 639.496 292.04 640.397 288.701ZM648.226 283.395C646.201 284.825 644.208 286.135 642.206 287.48C641.326 290.712 640.398 293.8 639.54 297.104C641.361 295.663 643.173 294.263 645.015 292.728C646.048 289.49 647.16 286.545 648.22 283.391L648.226 283.395ZM656.103 277.73C654.133 279.157 652.144 280.655 650.167 282.074C649.143 285.11 648.076 287.988 647.075 291.095C648.875 289.568 650.703 287.9 652.504 286.365C653.664 283.363 654.905 280.646 656.097 277.726L656.103 277.73ZM664.039 271.841C662.133 273.246 660.22 274.675 658.313 276.088C657.178 278.841 656.011 281.453 654.891 284.27C656.616 282.763 658.343 281.257 660.073 279.753C661.366 277.003 662.72 274.518 664.033 271.838L664.039 271.841ZM671.941 265.982C670.132 267.343 668.34 268.657 666.545 269.981C665.322 272.449 664.079 274.796 662.864 277.317C664.476 275.921 666.083 274.538 667.701 273.104C669.094 270.623 670.54 268.376 671.937 265.975L671.941 265.982ZM679.781 260.162C678.127 261.433 676.502 262.61 674.868 263.808C673.62 265.928 672.346 267.971 671.093 270.152C672.531 268.916 673.965 267.699 675.425 266.374C676.863 264.201 678.332 262.258 679.777 260.155L679.781 260.162ZM695.279 244.981C693.437 246.107 691.597 247.251 689.751 248.399C688.432 250.224 687.127 252.149 685.814 254.007C687.512 252.771 689.211 251.515 690.909 250.292C692.36 248.507 693.82 246.719 695.275 244.974L695.279 244.981ZM703.785 239.73C702.187 240.696 700.584 241.697 698.983 242.696C697.802 244.085 696.629 245.567 695.456 246.978C696.965 245.874 698.475 244.77 699.973 243.683C701.239 242.358 702.505 241.025 703.781 239.723L703.785 239.73ZM712.182 234.543C710.997 235.249 709.803 236.003 708.612 236.746C707.918 237.441 707.232 238.195 706.539 238.895C707.911 237.887 709.283 236.83 710.648 235.901C711.156 235.446 711.667 234.981 712.177 234.536L712.182 234.543ZM720.146 229.614C719.808 229.819 719.477 230.027 719.145 230.235C719.037 230.33 718.929 230.432 718.821 230.526C719.097 230.346 719.374 230.174 719.65 229.994L720.146 229.614ZM1138.5 183.039C1138.93 183.188 1139.35 183.331 1139.77 183.487C1139.22 183.264 1138.68 183.037 1138.12 182.813L1138.5 183.039ZM1126.1 178.682C1127.94 179.284 1129.76 179.985 1131.59 180.612C1130.41 179.957 1129.22 179.355 1128.03 178.733C1126.37 178.117 1124.71 177.507 1123.05 176.896C1124.07 177.501 1125.07 178.061 1126.1 178.682ZM1113.86 174.9C1115.79 175.483 1117.75 175.969 1119.68 176.578C1118.55 175.922 1117.43 175.285 1116.31 174.625C1114.28 173.919 1112.25 173.238 1110.22 172.557C1111.42 173.346 1112.63 174.128 1113.86 174.9ZM1101.51 171.337C1104.09 172.049 1106.66 172.813 1109.23 173.571C1107.71 172.633 1106.2 171.59 1104.68 170.682C1101.86 169.763 1099.04 168.785 1096.21 167.922C1097.96 169.046 1099.76 170.165 1101.51 171.337ZM1088.39 167.87C1091.19 168.555 1093.98 169.235 1096.77 169.972C1095.07 168.856 1093.37 167.782 1091.68 166.69C1089 165.917 1086.32 165.224 1083.63 164.499C1085.22 165.635 1086.81 166.763 1088.39 167.872L1088.39 167.87ZM1075.93 165.076C1078.91 165.723 1081.89 166.37 1084.86 167.077C1083.15 165.897 1081.43 164.6 1079.73 163.431C1076.41 162.564 1073.13 161.527 1069.81 160.74C1071.84 162.161 1073.89 163.571 1075.94 165.078L1075.93 165.076ZM1062.37 162.142C1065.7 162.772 1069 163.563 1072.31 164.266C1070.32 162.812 1068.33 161.425 1066.34 160.026C1063.31 159.332 1060.26 158.787 1057.22 158.161C1058.94 159.493 1060.66 160.828 1062.37 162.144L1062.37 162.142ZM1049.82 160.14C1053.03 160.657 1056.26 161.093 1059.47 161.682C1057.69 160.322 1055.9 158.892 1054.1 157.535C1050.62 156.837 1047.15 156.014 1043.66 155.399C1045.71 156.952 1047.76 158.495 1049.82 160.142L1049.82 160.14ZM1036.19 157.99C1039.76 158.464 1043.28 159.133 1046.83 159.685C1044.73 158.022 1042.64 156.426 1040.56 154.832C1037.34 154.292 1034.07 153.957 1030.84 153.517C1032.64 154.99 1034.43 156.486 1036.19 157.99ZM1023.44 156.679C1026.8 156.997 1030.19 157.207 1033.53 157.622C1031.76 156.162 1029.99 154.656 1028.2 153.16C1024.63 152.677 1021.08 152.123 1017.51 151.721C1019.48 153.337 1021.46 154.952 1023.45 156.664L1023.44 156.679ZM635.161 281.643C632.823 282.991 630.485 284.333 628.149 285.669C627.543 289.22 626.992 292.896 626.407 296.521C628.569 295.056 630.736 293.585 632.906 292.108C633.657 288.577 634.4 285.065 635.168 281.639L635.161 281.643ZM643.697 276.746C641.393 278.086 639.104 279.386 636.815 280.694C636.054 284.054 635.328 287.519 634.607 290.961C636.734 289.528 638.85 288.112 640.976 286.633C641.874 283.304 642.784 279.978 643.71 276.732L643.697 276.746ZM652.167 271.881C649.897 273.246 647.67 274.474 645.443 275.742C644.537 278.901 643.655 282.169 642.777 285.411C644.841 284.026 646.886 282.691 648.98 281.204C650.05 278.06 651.106 274.931 652.18 271.868L652.167 271.881ZM660.737 266.607C658.512 267.98 656.247 269.456 654.024 270.818C652.979 273.767 651.956 276.808 650.937 279.831C652.997 278.331 655.087 276.722 657.147 275.223C658.345 272.306 659.54 269.429 660.749 266.594L660.737 266.607ZM669.361 261.193C667.178 262.563 664.986 263.948 662.804 265.319C661.637 268.023 660.495 270.821 659.349 273.588C661.371 272.099 663.391 270.602 665.408 269.097C666.737 266.41 668.053 263.765 669.38 261.168L669.361 261.193ZM678.014 255.752C675.885 257.114 673.778 258.423 671.667 259.743C670.404 262.189 669.161 264.731 667.912 267.227C669.862 265.792 671.807 264.37 673.768 262.884C675.201 260.464 676.609 258.078 678.033 255.727L678.014 255.752ZM686.708 250.27C684.662 251.613 682.647 252.826 680.635 254.074C679.306 256.224 678.017 258.477 676.703 260.677C678.128 259.637 679.551 258.607 681.001 257.491C681.428 257.155 681.855 256.878 682.282 256.555C683.767 254.448 685.235 252.339 686.708 250.27ZM702.573 236.109C700.367 237.242 698.159 238.391 695.947 239.555C694.54 241.417 693.177 243.583 691.775 245.497C693.858 244.202 695.941 242.906 698.022 241.639C699.547 239.842 701.049 237.853 702.573 236.109ZM711.972 231.228C709.905 232.277 707.831 233.371 705.759 234.454C704.399 235.985 703.078 237.789 701.723 239.352C703.73 238.113 705.709 236.857 707.689 235.668C709.123 234.231 710.54 232.628 711.973 231.225L711.972 231.228ZM721.502 226.275C719.68 227.174 717.858 228.155 716.018 229.125C714.844 230.247 713.695 231.545 712.519 232.685C714.446 231.468 716.372 230.224 718.286 229.122C719.358 228.21 720.43 227.166 721.503 226.272L721.502 226.275ZM730.518 221.777C729.471 222.274 728.432 222.69 727.38 223.222C726.261 224.129 725.136 224.992 724.018 225.917C725.221 225.263 726.418 224.631 727.623 223.967C728.585 223.26 729.554 222.462 730.52 221.774L730.518 221.777ZM1146.67 187.809C1148.25 188.335 1149.79 188.974 1151.36 189.513C1150.52 189.06 1149.67 188.641 1148.83 188.193C1147.58 187.719 1146.31 187.331 1145.05 186.862C1145.6 187.167 1146.13 187.495 1146.67 187.806L1146.67 187.809ZM1135.39 184.348C1137.19 184.908 1139 185.413 1140.8 185.992C1139.88 185.464 1138.99 184.946 1138.09 184.41C1136.18 183.732 1134.28 183.051 1132.37 182.395C1133.38 183.011 1134.39 183.726 1135.39 184.345L1135.39 184.348ZM1122.36 180.388C1125.08 181.161 1127.77 182.035 1130.47 182.852C1128.83 181.84 1127.18 180.931 1125.54 179.992C1123.05 179.171 1120.55 178.386 1118.05 177.605C1119.49 178.528 1120.91 179.434 1122.37 180.385L1122.36 180.388ZM1109.78 176.978C1112.34 177.641 1114.93 178.201 1117.49 178.903C1116.12 178.026 1114.76 177.149 1113.39 176.26C1110.79 175.482 1108.19 174.741 1105.58 174.001C1106.98 174.954 1108.38 176.012 1109.78 176.975L1109.78 176.978ZM1096.77 173.808C1099.91 174.539 1103.03 175.31 1106.16 176.094C1104.41 174.907 1102.68 173.779 1100.94 172.66C1097.76 171.785 1094.63 170.826 1091.44 170.032C1093.22 171.281 1094.99 172.521 1096.77 173.805L1096.77 173.808ZM1083.51 170.773C1086.71 171.432 1089.88 172.187 1093.06 172.906L1087.89 169.232C1084.9 168.5 1081.89 167.881 1078.89 167.207C1080.43 168.362 1081.98 169.613 1083.51 170.77L1083.51 170.773ZM1070.45 168.386C1073.82 168.993 1077.19 169.56 1080.54 170.23C1078.8 168.933 1077.06 167.665 1075.34 166.41C1071.83 165.649 1068.36 164.733 1064.84 164.053C1066.71 165.481 1068.58 166.911 1070.45 168.383L1070.45 168.386ZM1056.88 165.911C1060.42 166.446 1063.9 167.223 1067.42 167.833C1065.56 166.387 1063.71 164.956 1061.85 163.521C1058.64 162.924 1055.39 162.503 1052.17 161.975C1053.73 163.248 1055.31 164.625 1056.88 165.911ZM1043.75 164.28C1047.26 164.708 1050.79 165.045 1054.27 165.554C1052.58 164.179 1050.89 162.823 1049.2 161.501C1045.59 160.919 1041.98 160.264 1038.35 159.754C1040.14 161.255 1041.94 162.747 1043.75 164.276L1043.75 164.28ZM1030.29 162.641C1033.91 163.016 1037.51 163.523 1041.12 163.961C1039.27 162.406 1037.42 160.859 1035.58 159.32C1032.2 158.886 1028.78 158.626 1025.38 158.293C1027.02 159.709 1028.66 161.217 1030.29 162.645L1030.29 162.641ZM637.83 269.331C635.28 270.565 632.733 271.787 630.188 272.997C629.544 276.449 629.039 280.319 628.435 283.867C630.807 282.514 633.181 281.151 635.558 279.777C636.345 276.367 637.035 272.666 637.836 269.335L637.83 269.331ZM646.97 264.935C644.448 266.165 641.953 267.351 639.447 268.549C638.665 271.822 637.978 275.492 637.228 278.834C639.565 277.502 641.896 276.186 644.26 274.817C645.173 271.579 646.014 268.096 646.985 264.944L646.97 264.935ZM656.062 260.558C653.56 261.822 651.124 262.94 648.665 264.114C647.725 267.194 646.895 270.648 645.984 273.808C648.273 272.507 650.547 271.256 652.869 269.856C653.959 266.807 654.968 263.526 656.068 260.561L656.062 260.558ZM665.282 255.744C662.819 257.019 660.327 258.408 657.858 259.672C656.784 262.541 655.802 265.764 654.755 268.712C657.057 267.288 659.38 265.785 661.686 264.355C662.901 261.54 664.057 258.49 665.288 255.748L665.282 255.744ZM674.554 250.834C672.106 252.118 669.676 253.426 667.244 254.704C666.05 257.346 664.933 260.333 663.747 263.042C666.018 261.62 668.294 260.189 670.573 258.749C671.923 256.17 673.211 253.355 674.56 250.837L674.554 250.834ZM683.869 245.901C681.463 247.203 679.089 248.442 676.705 249.696C675.406 252.1 674.175 254.835 672.889 257.304C675.118 255.913 677.343 254.541 679.595 253.085C681.038 250.75 682.432 248.186 683.875 245.904L683.869 245.901ZM692.474 241.347C690.366 242.523 688.322 243.554 686.26 244.635C684.89 246.779 683.573 249.238 682.209 251.44C683.602 250.578 684.985 249.731 686.402 248.804C687.182 248.291 687.958 247.853 688.74 247.357C690.236 245.19 691.723 242.978 693.238 240.947C692.989 241.095 692.736 241.211 692.483 241.352L692.474 241.347ZM710.677 227.131C708.217 228.18 705.752 229.256 703.283 230.334C701.508 232.571 699.708 234.62 697.946 236.923C700.246 235.725 702.543 234.517 704.842 233.334C706.782 231.165 708.747 229.256 710.686 227.136L710.677 227.131ZM721.103 222.649C718.738 223.645 716.368 224.681 713.996 225.723C712.202 227.648 710.398 229.429 708.613 231.408C710.809 230.257 713.004 229.102 715.194 227.988C717.14 226.104 719.121 224.465 721.103 222.649ZM731.889 217.98C729.655 218.884 727.393 219.9 725.124 220.894C723.459 222.41 721.789 223.849 720.126 225.408C722.285 224.263 724.463 223.076 726.604 222.04C728.36 220.617 730.117 219.36 731.874 217.97L731.889 217.98ZM741.788 214.089C740.136 214.721 738.488 215.293 736.827 215.945C735.313 217.117 733.796 218.253 732.286 219.452C733.728 218.806 735.176 218.156 736.625 217.485C738.332 216.288 740.048 215.237 741.773 214.08L741.788 214.089ZM750.546 210.8C749.605 211.154 748.662 211.507 747.717 211.857C746.75 212.499 745.805 213.105 744.849 213.741C745.584 213.415 746.318 213.071 747.05 212.742C748.22 212.06 749.383 211.465 750.546 210.8ZM1167.72 197.171C1168.66 197.489 1169.61 197.761 1170.54 198.088L1170.13 197.867C1169.06 197.46 1167.99 197.1 1166.91 196.705L1167.72 197.171ZM1156.69 193.662C1158.36 194.199 1160.05 194.714 1161.71 195.265C1161.04 194.883 1160.36 194.456 1159.69 194.076C1157.66 193.343 1155.62 192.563 1153.58 191.846C1154.62 192.441 1155.66 193.013 1156.7 193.65L1156.69 193.662ZM1143.04 189.302C1145.56 190.035 1148.03 190.919 1150.54 191.697C1149.09 190.824 1147.63 189.992 1146.18 189.142C1144.05 188.432 1141.89 187.864 1139.76 187.182C1140.85 187.887 1141.95 188.587 1143.04 189.302ZM1131.02 185.982C1133.44 186.647 1135.9 187.197 1138.31 187.889C1137.18 187.193 1136.07 186.444 1134.95 185.714C1132.22 184.854 1129.48 184.019 1126.73 183.211C1128.18 184.115 1129.61 185.007 1131.04 185.978L1131.02 185.982ZM1117.44 182.422C1120.52 183.187 1123.59 184.024 1126.66 184.837C1125.05 183.759 1123.43 182.747 1121.83 181.715C1118.87 180.875 1115.91 180.02 1112.94 179.228L1117.44 182.422ZM1104.52 179.315C1107.57 179.996 1110.61 180.7 1113.64 181.426C1112.2 180.414 1110.76 179.388 1109.3 178.334C1106.19 177.529 1103.06 176.796 1099.93 176.044C1101.47 177.114 1103 178.174 1104.54 179.312L1104.52 179.315ZM1090.94 176.529C1094.32 177.201 1097.71 177.87 1101.07 178.6C1099.44 177.406 1097.82 176.275 1096.18 175.133C1092.77 174.338 1089.38 173.412 1085.95 172.677L1090.94 176.529ZM1077.44 173.799C1080.93 174.409 1084.36 175.219 1087.83 175.891C1086.22 174.654 1084.6 173.395 1082.98 172.135C1079.64 171.444 1076.26 170.912 1072.89 170.284C1074.43 171.446 1075.94 172.582 1077.47 173.803L1077.44 173.799ZM1063.92 171.807C1067.46 172.338 1071.03 172.777 1074.54 173.368C1072.97 172.111 1071.4 170.924 1069.84 169.724C1066.24 169.079 1062.68 168.325 1059.06 167.748C1060.7 169.106 1062.33 170.46 1063.95 171.811L1063.92 171.807ZM1050.34 169.805C1054 170.271 1057.61 170.888 1061.25 171.412C1059.59 170.04 1057.93 168.635 1056.27 167.244C1052.79 166.714 1049.24 166.405 1045.74 165.963C1047.3 167.236 1048.83 168.481 1050.37 169.809L1050.34 169.805ZM1036.64 168.337C1040.3 168.673 1043.97 168.962 1047.6 169.402C1046.1 168.116 1044.61 166.883 1043.11 165.641C1039.45 165.19 1035.8 164.704 1032.12 164.305C1033.66 165.654 1035.16 167.004 1036.66 168.341L1036.64 168.337ZM640.926 256.957C638.194 258.059 635.467 259.145 632.746 260.215C631.991 263.947 631.159 267.469 630.442 271.307C633.018 270.078 635.596 268.839 638.174 267.59C639.094 263.952 640.038 260.503 640.953 256.961L640.926 256.957ZM650.677 253.066C647.965 254.175 645.287 255.222 642.591 256.291C641.67 259.829 640.692 263.179 639.807 266.822C642.352 265.601 644.887 264.404 647.456 263.144C648.525 259.694 649.628 256.417 650.705 253.067L650.677 253.066ZM660.433 249.206C657.73 250.346 655.115 251.333 652.465 252.381C651.375 255.724 650.239 258.889 649.178 262.333C651.69 261.133 654.167 260.003 656.721 258.701C657.924 255.449 659.178 252.348 660.433 249.206ZM670.344 244.84C667.679 245.995 664.977 247.221 662.31 248.383C661.06 251.532 659.768 254.506 658.54 257.746C661.072 256.419 663.627 255.035 666.148 253.721C667.513 250.668 668.929 247.788 670.332 244.833L670.344 244.84ZM680.313 240.443C677.657 241.617 675.007 242.782 672.362 243.938C670.952 246.889 669.49 249.63 668.102 252.673C670.611 251.353 673.124 250.023 675.64 248.682C677.178 245.844 678.749 243.188 680.301 240.436L680.313 240.443ZM690.356 235.998C687.722 237.188 685.131 238.309 682.528 239.449C680.964 242.201 679.343 244.703 677.797 247.541C680.264 246.226 682.746 244.954 685.254 243.592C686.935 240.965 688.656 238.549 690.356 235.998ZM697.759 232.721C696.084 233.496 694.455 234.192 692.811 234.903C691.124 237.414 689.394 239.691 687.718 242.276C689.065 241.575 690.407 240.883 691.781 240.125C692.844 239.543 693.899 239.034 694.965 238.473C696.786 236.062 698.629 233.883 700.482 231.553C699.587 231.95 698.692 232.302 697.773 232.73L697.759 232.721ZM718.855 218.487C716.061 219.462 713.257 220.465 710.453 221.468C708.686 223.599 706.926 225.804 705.174 228.003C707.825 226.852 710.474 225.691 713.115 224.571C715.038 222.507 716.957 220.482 718.87 218.497L718.855 218.487ZM730.06 214.507C727.311 215.453 724.541 216.468 721.787 217.444C719.987 219.294 718.203 221.237 716.399 223.138C719.035 221.986 721.673 220.815 724.298 219.727C726.237 217.962 728.157 216.207 730.084 214.501L730.06 214.507ZM741.679 210.382C738.993 211.255 736.257 212.283 733.532 213.272C731.798 214.792 730.067 216.416 728.335 217.974C730.926 216.847 733.511 215.722 736.075 214.712C737.967 213.257 739.834 211.783 741.704 210.376L741.679 210.382ZM752.364 207.101C750.094 207.81 747.833 208.47 745.566 209.16C743.891 210.398 742.217 211.768 740.541 213.042C742.691 212.239 744.846 211.429 747.006 210.612C748.822 209.441 750.609 208.235 752.388 207.095L752.364 207.101ZM762.909 203.907C760.982 204.481 759.053 205.073 757.128 205.657C755.742 206.528 754.338 207.495 752.962 208.384C754.874 207.665 756.794 206.934 758.7 206.24C760.134 205.465 761.535 204.657 762.933 203.901L762.909 203.907ZM773.298 200.757C771.957 201.139 770.602 201.571 769.24 201.969C768.665 202.27 768.087 202.623 767.511 202.933C769.131 202.319 770.75 201.707 772.38 201.165C772.715 201.038 773.017 200.89 773.322 200.751L773.298 200.757ZM1188.69 206.45L1188.93 206.53L1188.64 206.422L1188.69 206.45ZM1176.76 202.469C1178.65 203.088 1180.54 203.717 1182.42 204.357C1181.83 204.027 1181.22 203.724 1180.62 203.4C1178.5 202.619 1176.4 201.764 1174.25 200.998C1175.1 201.496 1175.93 201.97 1176.76 202.469ZM1163.53 198.055C1165.84 198.764 1168.08 199.622 1170.39 200.349C1169.37 199.746 1168.35 199.156 1167.33 198.552C1165.35 197.874 1163.33 197.295 1161.34 196.639C1162.07 197.11 1162.8 197.594 1163.53 198.055ZM1151.31 194.634C1153.9 195.373 1156.52 196.038 1159.09 196.81C1158.13 196.214 1157.17 195.568 1156.2 194.988C1153.34 194.071 1150.5 193.114 1147.61 192.242C1148.85 193.04 1150.08 193.82 1151.31 194.637L1151.31 194.634ZM1137.99 190.907C1140.95 191.687 1143.86 192.554 1146.81 193.375C1145.39 192.453 1143.98 191.552 1142.57 190.635C1139.85 189.826 1137.09 189.092 1134.35 188.328C1135.56 189.203 1136.77 190.067 1137.99 190.91L1137.99 190.907ZM1124.78 187.606C1127.87 188.354 1131 189.027 1134.08 189.815C1132.9 189.003 1131.71 188.114 1130.53 187.32C1127.28 186.434 1124.02 185.585 1120.76 184.754C1122.09 185.702 1123.43 186.635 1124.78 187.609L1124.78 187.606ZM1111.35 184.572C1114.65 185.294 1117.95 186.029 1121.23 186.802C1119.8 185.772 1118.36 184.758 1116.94 183.739C1113.65 182.946 1110.41 182.038 1107.11 181.285C1108.53 182.403 1109.94 183.508 1111.35 184.595L1111.35 184.572ZM1097.49 181.57C1101.07 182.269 1104.6 183.077 1108.16 183.847C1106.76 182.799 1105.36 181.674 1103.97 180.645C1100.5 179.87 1096.99 179.224 1093.52 178.499C1094.86 179.53 1096.18 180.541 1097.5 181.586L1097.49 181.57ZM1084.03 179.25C1087.53 179.854 1091.05 180.396 1094.52 181.054C1093.15 179.976 1091.76 178.935 1090.39 177.858C1086.84 177.152 1083.32 176.313 1079.75 175.675C1081.2 176.885 1082.63 178.103 1084.05 179.27L1084.03 179.25ZM1069.98 176.846C1073.79 177.428 1077.54 178.161 1081.33 178.799C1079.85 177.598 1078.37 176.348 1076.89 175.165C1073.3 174.549 1069.66 174.112 1066.05 173.564C1067.36 174.653 1068.67 175.738 1069.98 176.846ZM1056.37 175.084C1059.97 175.531 1063.62 175.846 1067.19 176.367C1065.92 175.304 1064.64 174.242 1063.37 173.179C1059.72 172.645 1056.08 172.039 1052.41 171.56C1053.73 172.706 1055.06 173.934 1056.37 175.084ZM1042.33 173.434C1046.21 173.857 1050.08 174.333 1053.93 174.819C1052.52 173.591 1051.11 172.367 1049.7 171.176C1045.97 170.713 1042.2 170.33 1038.43 169.963C1039.74 171.095 1041.04 172.248 1042.34 173.422L1042.33 173.434ZM644.319 244.658C641.368 245.632 638.437 246.573 635.509 247.536C634.712 251.175 633.909 254.811 633.14 258.579C635.89 257.476 638.659 256.395 641.431 255.277C642.373 251.657 643.344 248.171 644.319 244.658ZM654.707 241.281C651.763 242.271 648.873 243.179 645.95 244.133C644.985 247.59 644.018 251.05 643.081 254.607C645.822 253.52 648.54 252.468 651.306 251.339C652.416 247.901 653.566 244.608 654.707 241.281ZM665.096 237.858C662.157 238.885 659.301 239.785 656.409 240.729C655.279 243.997 654.149 247.266 653.045 250.632C655.75 249.548 658.429 248.514 661.184 247.341C662.468 244.105 663.787 240.999 665.096 237.858ZM675.675 234.024C672.765 235.065 669.81 236.152 666.916 237.202C665.626 240.272 664.353 243.357 663.072 246.507C665.809 245.306 668.567 244.069 671.298 242.876C672.74 239.859 674.209 236.953 675.675 234.024ZM686.329 230.171C683.42 231.238 680.517 232.289 677.621 233.326C676.194 236.163 674.754 239.05 673.336 241.987C676.059 240.794 678.788 239.588 681.524 238.37C683.104 235.578 684.713 232.874 686.32 230.165L686.329 230.171ZM697.08 226.274C694.168 227.366 691.308 228.372 688.432 229.412C686.867 232.026 685.304 234.686 683.746 237.391C686.45 236.208 689.139 235.055 691.88 233.807C693.595 231.239 695.338 228.746 697.071 226.268L697.08 226.274ZM703.091 224.092C701.842 224.559 700.613 225.002 699.384 225.437C697.702 227.819 696.03 230.256 694.36 232.712C695.301 232.306 696.241 231.903 697.204 231.457C698.942 230.651 700.666 229.964 702.397 229.212C704.24 226.897 706.064 224.615 707.926 222.378C706.303 222.949 704.709 223.468 703.082 224.086L703.091 224.092ZM726.694 210.233C723.619 211.093 720.529 211.989 717.444 212.872C715.668 214.91 713.942 217.282 712.177 219.389C715.119 218.335 718.068 217.278 721.005 216.254C722.894 214.294 724.773 212.116 726.685 210.228L726.694 210.233ZM738.559 206.851C735.511 207.686 732.436 208.592 729.37 209.47C727.553 211.239 725.754 213.367 723.941 215.205C726.898 214.14 729.859 213.057 732.795 212.061C734.712 210.378 736.622 208.472 738.55 206.845L738.559 206.851ZM750.734 203.413C747.821 204.158 744.861 205.039 741.908 205.896C740.021 207.457 738.152 209.215 736.27 210.829C739.166 209.817 742.059 208.824 744.917 207.908C746.857 206.454 748.783 204.797 750.726 203.407L750.734 203.413ZM762.153 200.684C759.641 201.297 757.141 201.888 754.638 202.478C752.662 203.868 750.688 205.322 748.712 206.753C751.315 205.968 753.917 205.181 756.517 204.391C758.386 203.207 760.268 201.821 762.144 200.679L762.153 200.684ZM773.669 197.933C771.48 198.444 769.281 198.977 767.085 199.505C765.139 200.645 763.212 201.756 761.286 202.945C763.761 202.186 766.241 201.413 768.706 200.697C770.362 199.832 772.01 198.771 773.66 197.928L773.669 197.933ZM785.466 195.116C783.753 195.492 782.014 195.929 780.284 196.352C778.644 197.165 777.015 197.84 775.368 198.685C777.559 198.011 779.75 197.344 781.918 196.754C783.093 196.224 784.284 195.609 785.457 195.111L785.466 195.116ZM795.781 192.888C795.239 193.003 794.708 193.085 794.163 193.198C793.058 193.647 791.966 194.042 790.874 194.504C791.593 194.324 792.326 194.162 793.043 193.96C793.95 193.616 794.877 193.201 795.781 192.888ZM1196.57 211.1C1198.13 211.627 1199.67 212.191 1201.23 212.718C1200.82 212.489 1200.39 212.277 1199.99 212.055C1198.24 211.387 1196.51 210.664 1194.74 210.023C1195.34 210.38 1195.96 210.736 1196.57 211.1ZM1184.27 206.961C1186.16 207.556 1188.03 208.17 1189.91 208.791C1189.36 208.476 1188.81 208.147 1188.27 207.823C1186.43 207.176 1184.56 206.595 1182.7 205.966C1183.23 206.285 1183.75 206.634 1184.27 206.961ZM1171.37 203.12C1173.91 203.863 1176.45 204.604 1178.97 205.374C1178.07 204.819 1177.19 204.327 1176.3 203.803C1173.63 202.922 1170.99 201.983 1168.3 201.134L1171.37 203.12ZM1158.36 199.268C1161.17 200.041 1163.91 200.93 1166.7 201.737C1165.5 200.972 1164.3 200.195 1163.11 199.406C1160.56 198.624 1157.93 197.993 1155.35 197.235C1156.35 197.907 1157.36 198.596 1158.36 199.28L1158.36 199.268ZM1144.83 195.782C1147.86 196.553 1150.94 197.215 1153.95 198.023C1152.91 197.321 1151.86 196.661 1150.81 195.991C1147.69 195.098 1144.57 194.199 1141.42 193.361C1142.56 194.165 1143.7 194.963 1144.83 195.782ZM1131.6 192.534C1134.82 193.279 1138 194.091 1141.18 194.887C1139.95 194.02 1138.72 193.145 1137.5 192.262C1134.27 191.41 1131.05 190.57 1127.8 189.766C1129.07 190.664 1130.34 191.584 1131.61 192.525L1131.6 192.534ZM1117.4 189.262C1120.97 190.022 1124.5 190.845 1128.04 191.655C1126.77 190.726 1125.51 189.848 1124.25 188.965C1120.86 188.148 1117.44 187.415 1114.02 186.653L1117.4 189.262ZM1104.05 186.644C1107.49 187.304 1110.95 187.944 1114.37 188.656C1113.19 187.756 1112.01 186.844 1110.83 185.92C1107.19 185.123 1103.6 184.19 1099.94 183.463C1101.31 184.505 1102.67 185.53 1104.05 186.644ZM1089.47 183.792C1093.34 184.455 1097.12 185.313 1100.95 186.037C1099.62 184.97 1098.28 183.969 1096.95 182.935C1093.41 182.245 1089.8 181.721 1086.23 181.087C1087.32 181.998 1088.4 182.901 1089.48 183.796L1089.47 183.792ZM1075.85 181.744C1079.47 182.287 1083.15 182.732 1086.75 183.335C1085.67 182.444 1084.59 181.532 1083.51 180.624C1079.73 179.966 1075.96 179.267 1072.16 178.668C1073.39 179.677 1074.61 180.682 1075.84 181.742L1075.85 181.744ZM1061.49 179.655C1065.4 180.172 1069.26 180.787 1073.15 181.352C1071.89 180.273 1070.63 179.231 1069.37 178.187C1065.68 177.629 1061.94 177.223 1058.22 176.739C1059.31 177.715 1060.39 178.691 1061.48 179.653L1061.49 179.655ZM1047.36 177.91C1051.25 178.319 1055.11 178.8 1058.96 179.294C1057.91 178.366 1056.85 177.412 1055.8 176.457C1051.94 175.963 1048.06 175.525 1044.19 175.07C1045.26 176.02 1046.3 176.94 1047.36 177.908L1047.36 177.91ZM647.642 232.539C644.471 233.373 641.337 234.168 638.196 234.966C637.361 238.466 636.645 242.329 635.845 245.934C638.816 244.968 641.781 244.019 644.774 243.031C645.733 239.578 646.637 235.893 647.641 232.534L647.642 232.539ZM658.645 229.694C655.476 230.551 652.378 231.314 649.248 232.123C648.253 235.433 647.363 239.102 646.4 242.515C649.355 241.556 652.285 240.643 655.271 239.633C656.403 236.354 657.481 232.863 658.643 229.69L658.645 229.694ZM669.681 226.755C666.518 227.643 663.428 228.44 660.309 229.264C659.158 232.392 658.1 235.857 656.972 239.082C659.911 238.108 662.833 237.162 665.832 236.123C667.119 233.03 668.36 229.736 669.68 226.75L669.681 226.755ZM680.883 223.475C677.743 224.378 674.575 225.329 671.439 226.234C670.141 229.15 668.915 232.426 667.63 235.449C670.597 234.39 673.596 233.272 676.561 232.209C678.019 229.341 679.421 226.262 680.883 223.475ZM692.172 220.179C689.017 221.122 685.887 222.023 682.754 222.929C681.305 225.649 679.937 228.7 678.511 231.504C681.474 230.443 684.438 229.382 687.428 228.272C689.016 225.621 690.566 222.752 692.172 220.179ZM703.569 216.851C700.397 217.82 697.301 218.688 694.175 219.595C692.598 222.095 691.089 224.931 689.533 227.51C692.493 226.447 695.436 225.414 698.441 224.28C700.159 221.854 701.837 219.206 703.582 216.863L703.569 216.851ZM708.388 215.445C707.492 215.717 706.614 215.972 705.738 216.22C704.053 218.484 702.422 221.096 700.738 223.46C701.349 223.242 701.95 223.032 702.574 222.793C704.937 221.894 707.249 221.137 709.594 220.301C711.41 218.118 713.213 215.683 715.051 213.558C712.834 214.18 710.63 214.756 708.386 215.448L708.388 215.445ZM735.506 201.957C732.193 202.673 728.855 203.429 725.528 204.174C723.408 206.467 721.263 208.539 719.159 210.92C722.306 210.017 725.465 209.102 728.605 208.224C730.887 205.998 733.208 204.102 735.504 201.96L735.506 201.957ZM748.294 199.115C744.979 199.794 741.644 200.585 738.313 201.336C736.106 203.369 733.885 205.236 731.699 207.355C734.878 206.427 738.051 205.496 741.202 204.641C743.553 202.677 745.928 200.996 748.294 199.115ZM761.226 196.401C758.022 197.02 754.787 197.698 751.545 198.393C749.316 200.139 747.077 201.781 744.853 203.592C747.929 202.738 750.984 201.935 754.019 201.183C756.421 199.498 758.824 198.02 761.226 196.401ZM773.71 194.145C770.721 194.691 767.737 195.223 764.75 195.765C762.499 197.266 760.264 198.682 758.018 200.228L766.507 198.197C768.909 196.773 771.297 195.526 773.71 194.145ZM786.52 191.83C783.683 192.317 780.82 192.853 777.965 193.378C775.816 194.579 773.672 195.753 771.519 197.001C774.274 196.332 777.028 195.65 779.766 195.036C782.016 193.91 784.266 192.908 786.52 191.83ZM799.94 189.405C797.277 189.825 794.563 190.354 791.855 190.867C790.041 191.708 788.229 192.572 786.413 193.442C788.869 192.868 791.317 192.34 793.739 191.849C795.81 191.001 797.872 190.221 799.94 189.405ZM811.393 187.805C809.558 188.071 807.732 188.319 805.915 188.552C804.366 189.144 802.813 189.775 801.26 190.381C802.988 190.061 804.72 189.722 806.454 189.385C808.094 188.853 809.728 188.338 811.39 187.811L811.393 187.805ZM822.094 186.319L819.468 186.688C818.929 186.85 818.386 187.039 817.848 187.207C818.902 187.007 819.971 186.784 821.024 186.599L822.094 186.319ZM1216.12 219.534C1217.3 219.942 1218.45 220.383 1219.62 220.797L1219 220.463C1217.88 220.045 1216.74 219.645 1215.62 219.238L1216.12 219.534ZM1203.93 215.444C1205.73 216.033 1207.58 216.539 1209.36 217.144C1209.25 217.076 1209.13 217.004 1209.02 216.934C1206.96 216.196 1204.87 215.492 1202.79 214.769C1203.18 215.001 1203.55 215.214 1203.93 215.444ZM1191.2 211.467C1193.5 212.177 1195.8 212.886 1198.09 213.617L1196.1 212.444C1193.66 211.62 1191.27 210.696 1188.8 209.905C1189.6 210.435 1190.4 210.956 1191.2 211.467ZM1177.71 207.262C1180.62 208.106 1183.45 209.083 1186.35 209.96C1185.51 209.444 1184.68 208.851 1183.85 208.335C1181.12 207.474 1178.33 206.716 1175.58 205.883C1176.3 206.33 1177.01 206.781 1177.72 207.253L1177.71 207.262ZM1164.7 203.806C1167.58 204.587 1170.51 205.285 1173.36 206.095C1172.54 205.553 1171.71 205.027 1170.89 204.491C1167.9 203.605 1164.94 202.681 1161.92 201.845C1162.86 202.501 1163.79 203.151 1164.71 203.797L1164.7 203.806ZM1151.03 200.189C1154.36 201.029 1157.64 201.931 1160.94 202.809C1159.93 202.106 1158.91 201.334 1157.89 200.633C1154.61 199.73 1151.3 198.889 1147.99 198.024C1149.01 198.734 1150.03 199.443 1151.04 200.18L1151.03 200.189ZM1137.15 196.822C1140.51 197.609 1143.88 198.356 1147.21 199.179C1146.25 198.49 1145.29 197.815 1144.34 197.135C1141.04 196.295 1137.72 195.484 1134.38 194.702C1135.32 195.397 1136.25 196.12 1137.15 196.822ZM1123.27 193.802C1126.86 194.575 1130.48 195.329 1134.04 196.147C1133.07 195.416 1132.09 194.613 1131.12 193.88C1127.37 193.007 1123.68 192.031 1119.91 191.21C1121.04 192.059 1122.15 192.924 1123.28 193.79L1123.27 193.802ZM1108.87 190.685C1112.65 191.426 1116.34 192.327 1120.1 193.121C1119.02 192.281 1117.95 191.454 1116.87 190.621C1113.38 189.88 1109.83 189.246 1106.32 188.56C1107.18 189.257 1108.02 189.979 1108.88 190.667L1108.87 190.685ZM1094.82 188.283C1098.59 188.959 1102.44 189.505 1106.17 190.224C1105.27 189.491 1104.36 188.714 1103.45 187.998C1099.55 187.237 1095.68 186.399 1091.73 185.711C1092.77 186.543 1093.81 187.391 1094.83 188.266L1094.82 188.283ZM1080.57 185.822C1084.43 186.443 1088.27 187.124 1092.11 187.793L1088.92 185.126C1085.3 184.507 1081.6 184.037 1077.94 183.478C1078.79 184.239 1079.67 185.063 1080.57 185.822ZM1066.01 183.678C1070.01 184.242 1074.03 184.755 1077.99 185.381C1077.07 184.585 1076.16 183.839 1075.27 183.095C1071.33 182.513 1067.4 181.906 1063.44 181.372L1066.01 183.678ZM1051.84 181.91C1055.72 182.412 1059.66 182.831 1063.53 183.374L1060.86 180.992C1056.96 180.481 1053.07 179.935 1049.14 179.498C1050.06 180.306 1050.93 181.08 1051.84 181.91ZM651.378 220.461C648.02 221.142 644.694 221.785 641.355 222.449C640.404 226.104 639.423 229.667 638.514 233.448C641.699 232.623 644.866 231.824 648.064 230.978C649.144 227.39 650.263 223.933 651.378 220.461ZM663.018 218.151C659.649 218.858 656.367 219.47 653.044 220.127C651.918 223.596 650.759 226.979 649.677 230.558C652.845 229.742 655.977 228.971 659.187 228.1C660.437 224.712 661.727 221.439 663.015 218.157L663.018 218.151ZM674.734 215.693C671.38 216.434 668.06 217.122 664.739 217.809C663.439 221.092 662.113 224.268 660.848 227.668C664.007 226.827 667.159 225.99 670.365 225.086C671.8 221.879 673.27 218.804 674.73 215.699L674.734 215.693ZM686.631 212.979C683.272 213.73 679.906 214.525 676.564 215.274C675.09 218.383 673.58 221.355 672.132 224.576C675.32 223.653 678.539 222.696 681.728 221.766C683.342 218.752 684.99 215.903 686.628 212.985L686.631 212.979ZM698.633 210.239C695.244 211.037 691.916 211.778 688.573 212.535C686.917 215.457 685.224 218.196 683.611 221.235C686.802 220.315 689.99 219.393 693.208 218.423C694.992 215.596 696.822 212.975 698.629 210.245L698.633 210.239ZM710.773 207.469C707.373 208.285 704.065 209.005 700.718 209.763C698.89 212.501 697.015 214.999 695.208 217.837C698.402 216.918 701.577 216.025 704.829 215.026C706.785 212.396 708.792 210.017 710.769 207.475L710.773 207.469ZM713.698 206.797C713.478 206.852 713.264 206.897 713.044 206.947C711.059 209.489 709.008 211.75 707.028 214.385C707.344 214.296 707.657 214.204 707.977 214.108C710.878 213.215 713.724 212.466 716.588 211.653C718.722 209.211 720.894 207.075 723.036 204.725C719.924 205.418 716.84 206.045 713.693 206.806L713.698 206.797ZM731.121 196.153C727.534 196.737 723.955 197.294 720.334 197.932C718.364 200.297 716.412 202.74 714.459 205.198C717.913 204.382 721.33 203.658 724.748 202.912C726.866 200.623 728.988 198.373 731.116 196.162L731.121 196.153ZM744.28 193.983C740.686 194.551 737.07 195.168 733.463 195.765C731.382 197.9 729.311 200.141 727.242 202.358C730.688 201.595 734.154 200.799 737.594 200.057C739.817 198.013 742.04 195.962 744.275 193.992L744.28 193.983ZM757.752 191.755C754.169 192.292 750.51 192.945 746.884 193.551C744.719 195.436 742.565 197.468 740.407 199.428C743.905 198.639 747.422 197.808 750.878 197.101C753.165 195.316 755.453 193.487 757.746 191.764L757.752 191.755ZM771.196 189.778C767.704 190.256 764.215 190.741 760.694 191.271C758.495 192.895 756.309 194.693 754.115 196.382C757.484 195.696 760.819 195.079 764.161 194.442C766.516 192.894 768.86 191.276 771.196 189.778ZM784.462 188.084C781.099 188.513 777.735 188.93 774.378 189.368C772.146 190.766 769.919 192.348 767.687 193.803C770.937 193.214 774.18 192.628 777.417 192.048C779.776 190.741 782.125 189.35 784.471 188.089L784.462 188.084ZM798.086 186.346C794.817 186.731 791.512 187.172 788.21 187.602C786.039 188.74 783.855 190.084 781.678 191.272C784.913 190.676 788.16 190.059 791.363 189.522C793.615 188.488 795.86 187.351 798.095 186.352L798.086 186.346ZM811.948 184.665C808.855 184.985 805.725 185.364 802.61 185.766C800.648 186.619 798.668 187.668 796.706 188.559C799.656 188.064 802.573 187.64 805.494 187.205C807.655 186.392 809.824 185.451 811.96 184.672L811.948 184.665ZM824.652 183.519C822.069 183.763 819.494 183.994 816.927 184.213C815.101 184.865 813.254 185.699 811.428 186.376C813.977 186.023 816.525 185.67 819.074 185.316C820.952 184.754 822.821 184.086 824.688 183.542L824.652 183.519ZM837.348 182.386C835.278 182.562 833.193 182.757 831.112 182.946C829.803 183.323 828.482 183.8 827.164 184.2C829.433 183.875 831.715 183.529 833.978 183.254C835.115 182.994 836.247 182.661 837.363 182.395L837.348 182.386ZM849.993 181.255C849.076 181.32 848.128 181.42 847.2 181.504C846.716 181.618 846.228 181.684 845.743 181.793C846.736 181.679 847.708 181.619 848.702 181.51C849.148 181.443 849.581 181.339 850.008 181.264L849.993 181.255ZM1223.03 223.631C1223.95 223.938 1224.88 224.228 1225.78 224.531L1222.62 223.403L1223.03 223.631ZM1210.83 219.625C1212.87 220.274 1214.89 220.956 1216.93 221.621L1215.66 220.869C1213.51 220.127 1211.4 219.312 1209.24 218.583C1209.77 218.921 1210.29 219.292 1210.83 219.625ZM1197.01 215.217C1199.72 216.032 1202.4 216.891 1205.09 217.727C1204.55 217.394 1204 217.086 1203.46 216.762C1200.87 215.913 1198.23 215.136 1195.63 214.314L1197.01 215.217ZM1184.41 211.657C1187.12 212.428 1189.85 213.161 1192.53 213.954L1190.77 212.799C1187.89 211.912 1185.06 210.971 1182.17 210.114C1182.91 210.632 1183.66 211.166 1184.41 211.679L1184.41 211.657ZM1170.13 207.62C1173.49 208.512 1176.77 209.512 1180.11 210.44C1179.15 209.795 1178.18 209.185 1177.22 208.566C1174.19 207.687 1171.07 206.962 1168.02 206.122L1170.13 207.62ZM1156.77 204.231C1159.9 205.01 1163.09 205.696 1166.19 206.509L1164.25 205.122C1160.96 204.231 1157.66 203.358 1154.35 202.502C1155.15 203.09 1155.96 203.654 1156.77 204.253L1156.77 204.231ZM1142.35 200.797C1145.97 201.63 1149.58 202.488 1153.17 203.371C1152.28 202.726 1151.41 202.113 1150.52 201.493C1146.95 200.588 1143.38 199.665 1139.79 198.821L1142.35 200.797ZM1128.08 197.475C1131.79 198.271 1135.42 199.185 1139.1 200.019C1138.29 199.402 1137.48 198.775 1136.67 198.141C1133.12 197.311 1129.49 196.596 1125.91 195.799C1126.62 196.367 1127.34 196.913 1128.07 197.493L1128.08 197.475ZM1113.72 194.673C1117.48 195.412 1121.28 196.094 1125.02 196.876C1124.25 196.273 1123.49 195.691 1122.73 195.109C1118.89 194.285 1115.11 193.384 1111.23 192.606L1113.72 194.673ZM1099.14 191.832C1103.1 192.544 1106.98 193.372 1110.91 194.126C1110.06 193.431 1109.21 192.717 1108.36 191.999C1104.63 191.269 1100.78 190.735 1097.01 190.059C1097.71 190.665 1098.42 191.245 1099.13 191.85L1099.14 191.832ZM1084.54 189.36C1088.45 189.989 1092.39 190.586 1096.27 191.269C1095.6 190.696 1094.92 190.14 1094.25 189.58C1090.36 188.896 1086.46 188.218 1082.53 187.578C1083.2 188.202 1083.87 188.801 1084.54 189.386L1084.54 189.36ZM1069.88 187.129C1073.95 187.715 1078 188.331 1082.02 188.978C1081.34 188.381 1080.65 187.758 1079.97 187.136C1075.94 186.494 1071.9 185.901 1067.85 185.319C1068.52 185.943 1069.2 186.542 1069.88 187.154L1069.88 187.129ZM1055.06 184.933C1059.2 185.467 1063.22 186.178 1067.32 186.763L1065.38 185.029C1061.49 184.483 1057.53 184.062 1053.62 183.542C1054.09 184.016 1054.58 184.491 1055.06 184.933ZM655.475 208.502C651.9 209.025 648.36 209.519 644.801 210.03C643.782 213.635 642.752 217.21 641.781 220.944C645.157 220.274 648.517 219.623 651.909 218.938C653.064 215.355 654.279 211.957 655.475 208.502ZM667.754 206.744C664.15 207.302 660.654 207.765 657.111 208.27C655.925 211.669 654.727 215.061 653.561 218.608C656.925 217.943 660.246 217.322 663.656 216.603C664.997 213.221 666.374 210.023 667.754 206.744ZM680.136 204.78C676.556 205.366 672.972 205.944 669.431 206.495C668.069 209.715 666.7 212.922 665.371 216.258C668.731 215.552 672.113 214.825 675.52 214.079C677.048 210.896 678.606 207.859 680.15 204.785L680.136 204.78ZM692.695 202.624C689.11 203.231 685.498 203.862 681.926 204.461C680.393 207.484 678.861 210.512 677.359 213.646C680.759 212.883 684.188 212.081 687.6 211.297C689.281 208.357 690.994 205.511 692.699 202.644L692.695 202.624ZM705.361 200.468C701.739 201.102 698.16 201.7 694.572 202.305C692.886 205.114 691.202 207.953 689.538 210.866C692.954 210.085 696.357 209.329 699.797 208.529C701.644 205.787 703.504 203.139 705.366 200.488L705.361 200.468ZM718.178 198.282C714.512 198.954 710.964 199.514 707.363 200.127C705.525 202.713 703.7 205.353 701.886 208.047C705.313 207.273 708.695 206.54 712.186 205.698C714.175 203.2 716.182 200.722 718.183 198.301L718.178 198.282ZM738.94 187.844C735.138 188.26 731.335 188.678 727.508 189.135C725.528 191.374 723.605 193.958 721.642 196.291C725.345 195.653 729.019 195.064 732.696 194.469C734.789 192.345 736.835 189.932 738.944 187.864L738.94 187.844ZM752.863 186.271C749.057 186.68 745.219 187.134 741.399 187.567C739.265 189.628 737.16 191.93 735.037 194.081C738.725 193.467 742.474 192.829 746.17 192.242C748.413 190.314 750.623 188.156 752.868 186.291L752.863 186.271ZM767.179 184.652C763.377 185.021 759.486 185.513 755.621 185.951C753.326 187.838 751.053 189.843 748.769 191.807C752.534 191.175 756.33 190.488 760.045 189.945C762.433 188.21 764.802 186.356 767.184 184.671L767.179 184.652ZM781.355 183.379C777.679 183.698 774.035 183.967 770.34 184.316C767.898 186.013 765.454 187.705 763.014 189.478C766.643 188.96 770.22 188.526 773.831 188.039C776.339 186.469 778.845 184.877 781.355 183.379ZM795.534 182.257C791.949 182.537 788.359 182.823 784.763 183.113C782.178 184.619 779.597 186.044 777.01 187.627C780.578 187.163 784.142 186.708 787.701 186.263C790.318 184.893 792.928 183.568 795.534 182.257ZM810.202 181.098C806.685 181.334 803.115 181.649 799.548 181.952C796.846 183.279 794.153 184.404 791.451 185.804C795.029 185.329 798.623 184.835 802.159 184.434C804.851 183.25 807.521 182.21 810.202 181.098ZM824.831 180.143C821.583 180.326 818.345 180.491 815.065 180.719C812.459 181.77 809.863 182.67 807.253 183.776C810.383 183.429 813.458 183.172 816.571 182.861C819.336 181.867 822.073 181.079 824.831 180.143ZM838.813 179.519C835.94 179.653 833.068 179.782 830.198 179.906C827.703 180.724 825.22 181.441 822.719 182.309L830.809 181.581C833.496 180.808 836.136 180.249 838.813 179.519ZM853.221 178.869C850.713 178.972 848.185 179.092 845.663 179.211C843.604 179.745 841.559 180.237 839.496 180.797C841.972 180.566 844.462 180.312 846.906 180.132C849.034 179.666 851.12 179.323 853.221 178.869ZM867.573 178.342C865.892 178.386 864.231 178.396 862.534 178.464C861.095 178.744 859.66 179.026 858.219 179.322C859.619 179.232 860.987 179.194 862.383 179.11C864.127 178.824 865.842 178.62 867.582 178.348L867.573 178.342ZM878.419 178.255L877.968 178.262L877.314 178.357L877.49 178.346C877.818 178.297 878.123 178.279 878.419 178.255ZM1229.12 227.245C1231.24 227.945 1233.31 228.694 1235.43 229.404C1235.26 229.301 1235.09 229.197 1234.93 229.097C1232.86 228.364 1230.75 227.68 1228.67 226.964L1229.12 227.245ZM1216.1 223.066C1218.26 223.745 1220.49 224.342 1222.64 225.043L1222.53 224.977C1220.18 224.187 1217.8 223.424 1215.43 222.656L1216.1 223.066ZM1203.01 219.141C1205.8 219.972 1208.63 220.811 1211.42 221.669C1211.06 221.449 1210.72 221.198 1210.36 220.975C1207.3 219.997 1204.31 218.927 1201.22 217.979C1201.81 218.365 1202.41 218.746 1203.01 219.139L1203.01 219.141ZM1188.99 214.942C1192.13 215.822 1195.17 216.82 1198.29 217.728C1197.7 217.358 1197.11 216.964 1196.52 216.576C1193.66 215.717 1190.72 214.956 1187.85 214.108C1188.24 214.41 1188.61 214.675 1188.99 214.94L1188.99 214.942ZM1175.33 211.343C1178.59 212.207 1181.92 212.983 1185.14 213.879C1184.75 213.604 1184.35 213.301 1183.95 213.028C1180.49 212.046 1177.06 211.037 1173.57 210.093C1174.15 210.507 1174.74 210.916 1175.33 211.342L1175.33 211.343ZM1161.23 207.702C1164.71 208.568 1168.14 209.489 1171.58 210.375L1169.61 208.975C1166.25 208.082 1162.87 207.217 1159.49 206.362C1160.08 206.815 1160.65 207.264 1161.23 207.7L1161.23 207.702ZM1146.59 204.096C1150.38 204.978 1154.14 205.921 1157.89 206.841C1157.34 206.43 1156.79 205.987 1156.24 205.588C1152.54 204.666 1148.8 203.802 1145.07 202.919C1145.57 203.31 1146.08 203.695 1146.58 204.095L1146.59 204.096ZM1132.45 201.019C1136.12 201.818 1139.82 202.574 1143.45 203.41L1141.81 202.144C1138.06 201.277 1134.38 200.295 1130.59 199.471C1131.21 199.967 1131.83 200.516 1132.45 201.017L1132.45 201.019ZM1117.35 197.735C1121.45 198.562 1125.45 199.505 1129.5 200.376C1128.84 199.839 1128.17 199.335 1127.5 198.823C1123.7 198.016 1119.8 197.338 1115.96 196.576L1117.35 197.735ZM1102.91 195.007C1106.73 195.718 1110.63 196.342 1114.43 197.105L1113.14 196.033C1109.22 195.264 1105.33 194.46 1101.38 193.726C1101.89 194.152 1102.4 194.566 1102.91 195.005L1102.91 195.007ZM1087.82 192.324C1091.93 193.031 1096.03 193.761 1100.12 194.514C1099.58 194.052 1099.05 193.62 1098.52 193.179C1094.52 192.461 1090.51 191.77 1086.47 191.105L1087.82 192.324ZM1072.74 189.719C1076.94 190.381 1081.05 191.155 1085.21 191.862C1084.79 191.489 1084.37 191.109 1083.95 190.728C1079.92 190.079 1075.86 189.478 1071.8 188.878L1072.74 189.719ZM1057.92 187.658C1062.02 188.229 1066.16 188.74 1070.21 189.361L1069.23 188.482C1065.06 187.87 1060.99 187.142 1056.8 186.584L1057.92 187.658ZM659.509 196.724C655.724 197.087 651.971 197.437 648.203 197.778C647.15 201.202 646.215 205.012 645.21 208.56C648.804 208.045 652.376 207.546 655.987 207.017C657.165 203.618 658.289 199.999 659.509 196.724ZM672.414 195.522C668.588 195.922 664.878 196.236 661.125 196.574C659.904 199.807 658.802 203.431 657.611 206.798C661.194 206.289 664.725 205.823 668.368 205.256C669.724 202.036 671.019 198.602 672.414 195.522ZM685.461 194.081C681.67 194.506 677.841 194.958 674.079 195.357C672.697 198.403 671.424 201.83 670.076 204.989C673.661 204.428 677.3 203.821 680.921 203.228C682.443 200.231 683.906 196.987 685.456 194.09L685.461 194.081ZM698.643 192.529C694.829 192.977 690.998 193.44 687.2 193.878C685.66 196.724 684.217 199.964 682.702 202.924C686.328 202.318 689.995 201.679 693.631 201.062C695.307 198.276 696.932 195.231 698.638 192.538L698.643 192.529ZM711.94 190.965C708.083 191.437 704.282 191.872 700.463 192.314C698.773 194.956 697.173 197.995 695.508 200.743C699.166 200.111 702.793 199.522 706.478 198.874C708.305 196.3 710.084 193.454 711.935 190.974L711.94 190.965ZM724.309 189.518C720.761 189.978 717.34 190.339 713.862 190.747C712.033 193.179 710.281 196.013 708.475 198.542C711.893 197.964 715.258 197.432 718.746 196.794C719 196.744 719.246 196.715 719.503 196.667C721.46 194.249 723.392 191.665 725.377 189.397C725.019 189.44 724.671 189.468 724.311 189.515L724.309 189.518ZM612.766 368.757C612.722 369.357 612.67 369.937 612.637 370.573L612.766 368.757ZM613.662 355.919C613.406 359.26 613.174 362.687 612.946 366.116C614.209 364.306 615.472 362.409 616.737 360.509C617.083 357.178 617.465 353.976 617.873 350.799C616.474 352.554 615.072 354.208 613.67 355.908L613.662 355.919ZM614.568 343.026C614.298 346.462 614.092 350.09 613.828 353.555C615.281 351.788 616.735 349.956 618.19 348.103C618.588 344.783 618.954 341.331 619.368 338.043C617.769 339.748 616.166 341.378 614.576 343.014L614.568 343.026ZM615.48 330.091C615.183 333.564 614.999 337.355 614.72 340.88C616.359 339.177 617.999 337.436 619.639 335.657C620.069 332.282 620.412 328.676 620.849 325.331C619.059 326.956 617.275 328.498 615.487 330.079L615.48 330.091ZM616.517 317.031C616.169 320.601 615.927 324.459 615.614 328.12C617.444 326.497 619.274 324.843 621.104 323.158C621.569 319.727 621.889 315.942 622.368 312.597C620.416 314.122 618.479 315.557 616.531 317.023L616.517 317.031ZM618.002 303.71C617.585 307.544 617.117 311.221 616.731 315.139C618.712 313.641 620.704 312.108 622.705 310.538C623.254 306.745 623.915 303.224 624.486 299.503C622.324 300.939 620.167 302.321 618.015 303.702L618.002 303.71ZM619.479 290.488C619.026 294.233 618.62 298.11 618.197 301.935C620.381 300.536 622.581 299.078 624.788 297.595C625.374 293.895 625.959 290.183 626.569 286.565C624.197 287.914 621.838 289.219 619.492 290.48L619.479 290.488ZM620.944 277.346C620.455 280.989 620.118 285.07 619.655 288.804C622.038 287.512 624.442 286.151 626.852 284.781C627.468 281.174 627.987 277.268 628.632 273.754C626.075 274.98 623.497 276.18 620.958 277.337L620.944 277.346ZM622.921 264.106C622.337 268.022 621.678 271.726 621.131 275.759C623.703 274.588 626.311 273.34 628.921 272.094C629.64 268.254 630.418 264.624 631.165 260.891C628.411 261.954 625.649 263.057 622.926 264.076L622.921 264.106ZM625.053 250.9C624.419 254.731 623.788 258.564 623.192 262.501C625.94 261.468 628.75 260.328 631.538 259.217C632.309 255.413 633.124 251.743 633.932 248.045C630.95 249.003 627.956 250.005 625.053 250.9ZM627.129 237.834C626.462 241.512 625.918 245.572 625.283 249.365C628.229 248.466 631.261 247.435 634.258 246.453C635.055 242.814 635.793 238.923 636.63 235.379C633.46 236.205 630.246 237.082 627.129 237.834ZM629.687 224.758C628.909 228.6 628.107 232.356 627.373 236.328C630.516 235.567 633.765 234.687 636.958 233.85C637.862 230.07 638.805 226.422 639.749 222.766C636.384 223.439 632.984 224.155 629.687 224.758ZM632.515 211.793C631.673 215.586 630.812 219.343 630.011 223.269C633.342 222.658 636.775 221.936 640.167 221.26C641.149 217.488 642.189 213.903 643.212 210.259C639.64 210.779 636.027 211.331 632.515 211.793ZM635.314 198.983C634.436 202.572 633.674 206.597 632.846 210.34C636.388 209.877 640.033 209.319 643.633 208.796C644.647 205.213 645.588 201.394 646.627 197.925C642.853 198.282 639.028 198.675 635.314 198.983ZM858.423 53.0321C755.741 8.33837 674.573 40.5756 635.618 197.559C639.363 197.25 643.213 196.856 647.028 196.499C689.768 57.803 765.293 22.079 858.423 53.0321ZM879.192 62.8786C878.374 62.4556 877.537 61.9425 876.72 61.5244C775.962 19.8749 693.92 50.4938 648.599 196.333C652.4 195.98 656.18 195.646 660.007 195.276C708.867 65.7206 786.408 32.7256 879.192 62.8786ZM895.182 71.6308C893.237 70.5075 891.334 69.5379 889.4 68.4709C792.892 32.8642 712.01 62.7372 661.619 195.131C665.415 194.779 669.148 194.474 673.027 194.074C726.835 75.6038 804.687 44.6893 895.182 71.6308ZM907.575 79.1354C905.438 77.8147 903.273 76.3779 901.144 75.0832C808.838 45.2214 729.362 74.4718 674.676 193.903C678.478 193.493 682.364 193.022 686.192 192.59C743.764 86.1887 820.598 56.6486 907.575 79.1354ZM920.623 87.3593C917.927 85.5776 915.276 83.9641 912.607 82.3112C824.327 57.602 746.232 85.5818 687.936 192.391C691.783 191.95 695.663 191.481 699.531 191.032C760.458 95.8636 836.603 68.3686 920.623 87.3593ZM931.724 94.9869C929.299 93.3023 926.834 91.4863 924.418 89.8278C839.653 69.3236 762.817 95.7677 701.412 190.806C705.264 190.356 709.097 189.923 713.007 189.447C776.29 105.361 851.082 79.6331 931.724 94.9869ZM943.486 103.292C940.664 101.238 937.87 99.3055 935.074 97.3505C853.97 80.8102 778.735 105.587 715.107 189.195C718.11 188.84 721.067 188.527 724.129 188.13C725.023 188.021 725.875 187.94 726.757 187.832C792.026 114.055 865.709 90.6584 943.486 103.292ZM953.869 110.989C951.358 109.094 948.837 107.143 946.342 105.304C868.362 91.7606 794.469 114.433 729.021 187.583C732.931 187.123 736.829 186.682 740.714 186.259C807.074 122.255 879.183 100.885 953.869 110.989ZM964.464 119.188C961.773 117.084 959.09 115.005 956.414 112.949C881.717 102.145 809.586 122.77 743.205 185.968C747.148 185.512 751.094 185.058 755.016 184.635C821.996 129.757 892.571 110.975 964.458 119.197L964.464 119.188ZM974.186 126.724C971.677 124.698 969.215 122.851 966.737 120.952C895.03 112.177 824.623 130.339 757.788 184.319C761.796 183.858 765.839 183.34 769.787 182.974C836.587 136.57 905.275 120.065 974.18 126.733L974.186 126.724ZM983.518 134.556C981.111 132.56 978.69 130.499 976.281 128.494C907.709 121.374 839.376 137.244 772.879 182.65C776.705 182.316 780.468 182.07 784.283 181.747C850.548 142.949 917.326 128.999 983.518 134.556ZM991.932 141.61C989.759 139.772 987.612 137.978 985.457 136.184C919.748 130.288 853.472 143.673 787.693 181.477C791.507 181.169 795.322 180.858 799.117 180.575C864.126 148.669 928.638 136.927 991.932 141.61ZM1000.51 148.817C998.296 146.889 996.11 145.105 993.917 143.279C931.287 138.29 867.456 149.426 803.131 180.25C806.991 179.928 810.874 179.576 814.673 179.337C877.992 153.796 940.083 144.581 1000.51 148.817ZM1007.62 155.186C1005.83 153.609 1004.04 151.975 1002.25 150.375C942.799 145.941 881.731 154.586 819.484 178.983C822.982 178.79 826.398 178.711 829.892 178.519C890.894 158.475 950.231 151.318 1007.61 155.201L1007.62 155.186ZM1014.54 161.395L1009.39 156.777C953.135 152.757 894.992 159.326 835.249 178.271C838.626 178.115 842.013 177.956 845.379 177.817C903.77 162.667 960.196 157.645 1014.55 161.404L1014.54 161.395ZM1020.66 166.887C1019.18 165.541 1017.71 164.24 1016.24 162.92C963.495 159.08 908.778 163.518 852.236 177.497C855.593 177.327 858.965 177.138 862.261 177.051C917.098 166.3 969.93 163.18 1020.69 166.909L1020.66 166.887ZM1026.25 171.899C1024.97 170.716 1023.7 169.605 1022.44 168.478C973.59 164.74 922.838 167.26 870.241 176.904C872.761 176.875 875.267 176.87 877.793 176.831C929.269 169.598 978.768 168.096 1026.28 171.921L1026.25 171.899ZM1030.93 176.316C1029.92 175.378 1028.91 174.391 1027.9 173.433C983.093 169.711 936.529 170.609 888.205 176.737C890.228 176.723 892.264 176.688 894.284 176.679C941.649 172.435 987.207 172.319 1030.96 176.33L1030.93 176.316ZM1034.67 179.861C1033.98 179.215 1033.29 178.558 1032.6 177.897C992.155 174.203 951.479 173.769 910.968 176.597C911.552 176.602 912.111 176.634 912.691 176.646C954.88 174.897 995.546 175.974 1034.69 179.879L1034.67 179.861ZM1038.02 183.043L1036.3 181.411C1007.73 178.57 979.037 177.191 950.331 177.278C980.405 177.932 1009.64 179.859 1038.04 183.06L1038.02 183.043ZM1040.28 185.201L1039.7 184.649C1027.05 183.208 1014.23 182.016 1001.24 181.072C1014.45 182.229 1027.47 183.611 1040.31 185.219L1040.28 185.201ZM1042.05 184.908L1042.72 185.538C1047.02 186.084 1051.28 186.697 1055.53 187.315C1055.16 186.977 1054.79 186.625 1054.43 186.271C1050.35 185.793 1046.18 185.403 1042.07 184.925L1042.05 184.908ZM1038.64 181.671L1040.36 183.302C1044.47 183.777 1048.63 184.182 1052.75 184.674C1052.23 184.184 1051.69 183.715 1051.15 183.244C1047.02 182.708 1042.88 182.13 1038.67 181.689L1038.64 181.671ZM1034.9 178.118C1035.58 178.763 1036.25 179.407 1036.93 180.039C1041.1 180.467 1045.19 181.037 1049.29 181.579C1048.43 180.782 1047.57 180.019 1046.7 179.254C1042.8 178.872 1038.86 178.511 1034.92 178.135L1034.9 178.118ZM1030.11 173.576C1031.15 174.567 1032.19 175.564 1033.24 176.544C1037.15 176.906 1041.05 177.281 1044.93 177.668C1043.85 176.681 1042.77 175.728 1041.7 174.764C1037.86 174.338 1034.01 173.93 1030.13 173.594L1030.11 173.576ZM1024.88 168.694C1026.08 169.786 1027.29 170.919 1028.5 172.035C1032.3 172.353 1036.08 172.699 1039.84 173.099L1036.04 169.696C1032.35 169.367 1028.63 169.019 1024.9 168.718L1024.88 168.694ZM1018.59 163.059C1020.09 164.4 1021.59 165.714 1023.12 167.101C1026.86 167.388 1030.58 167.757 1034.28 168.102C1032.76 166.745 1031.22 165.357 1029.69 163.985C1026.02 163.644 1022.3 163.369 1018.61 163.083L1018.59 163.059ZM1011.81 156.991C1013.49 158.495 1015.18 159.994 1016.87 161.522C1020.52 161.788 1024.19 161.991 1027.82 162.323C1026.13 160.868 1024.47 159.427 1022.8 158.026C1019.15 157.683 1015.5 157.299 1011.83 157.015L1011.81 156.991ZM1004.55 150.499C1006.37 152.123 1008.2 153.772 1010.02 155.388C1013.64 155.653 1017.24 156.04 1020.85 156.402C1018.82 154.658 1016.8 152.991 1014.77 151.306C1011.39 150.988 1007.98 150.796 1004.57 150.523L1004.55 150.499ZM996.569 143.545C998.642 145.31 1000.73 147.119 1002.81 148.938C1006.11 149.19 1009.42 149.305 1012.72 149.585C1010.76 147.959 1008.81 146.299 1006.85 144.669C1003.44 144.294 1000.02 143.869 996.587 143.569L996.569 143.545ZM987.99 136.369C990.176 138.186 992.369 139.992 994.576 141.876C998.006 142.157 1001.43 142.59 1004.85 142.99C1002.53 141.094 1000.19 139.148 997.889 137.304C994.612 136.932 991.306 136.712 988.008 136.393L987.99 136.369ZM978.991 128.841C981.338 130.792 983.694 132.777 986.043 134.74C989.209 135.044 992.394 135.173 995.573 135.51C993.264 133.67 990.98 131.932 988.69 130.174C985.476 129.725 982.241 129.23 979.014 128.856L978.991 128.841ZM969.614 121.255C972.024 123.157 974.443 125.096 976.87 127.072C980.028 127.404 983.187 127.902 986.338 128.378C983.811 126.403 981.271 124.421 978.73 122.482C975.725 122.01 972.687 121.691 969.645 121.286L969.614 121.255ZM959.582 113.498C962.158 115.474 964.732 117.441 967.328 119.486C970.277 119.854 973.214 120.049 976.165 120.468C973.688 118.619 971.239 116.879 968.792 115.148C965.738 114.595 962.678 114.01 959.613 113.529L959.582 113.498ZM949.645 105.829C952.108 107.706 954.594 109.676 957.055 111.556C960.002 111.989 962.959 112.572 965.917 113.128C963.231 111.195 960.56 109.326 957.887 107.451C955.131 106.831 952.387 106.338 949.645 105.829ZM939.111 98.2953C941.718 100.101 944.339 101.885 946.985 103.834C949.493 104.281 951.984 104.56 954.502 105.058C952.179 103.461 949.825 101.788 947.514 100.261C944.707 99.5881 941.923 98.9129 939.108 98.2934L939.111 98.2953ZM928.261 90.6572L935.734 95.9151C938.302 96.4445 940.896 97.0929 943.487 97.7064C940.906 96.0203 938.351 94.4503 935.791 92.8434C933.267 92.0608 930.751 91.2994 928.258 90.6553L928.261 90.6572ZM918.386 84.0388C920.532 85.3982 922.687 86.8042 924.87 88.2726C926.825 88.7496 928.763 89.1082 930.729 89.6414C928.834 88.4705 926.899 87.1381 925.007 86.0228C922.786 85.3323 920.591 84.7074 918.383 84.037L918.386 84.0388ZM907.657 77.3021C909.536 78.4921 911.405 79.6384 913.288 80.8351C914.987 81.3188 916.698 81.8558 918.406 82.3452C916.545 81.2736 914.714 80.328 912.852 79.2848C911.114 78.6365 909.361 77.8921 907.642 77.2929L907.657 77.3021ZM899.782 72.3535C900.327 72.6902 900.904 73.0755 901.465 73.3931C901.957 73.5529 902.437 73.6469 902.927 73.8048C902.382 73.5219 901.825 73.1778 901.281 72.8997C900.755 72.6942 900.271 72.5525 899.767 72.3442L899.782 72.3535ZM621.655 263.047C622.254 259.066 622.898 255.212 623.517 251.331C261.656 361.036 69.8133 214.387 -31.8903 27.5827C71.5038 231.306 264.001 396.738 621.64 263.038L621.655 263.047ZM619.658 276.381C620.2 272.345 620.825 268.554 621.406 264.629C270.764 395.446 78.5989 239.297 -26.4672 41.2053C81.221 256.308 275.07 432.057 619.652 276.378L619.658 276.381ZM618.185 289.59C618.642 285.798 618.987 281.685 619.477 277.993C281.997 430.132 88.9263 265.106 -20.3331 56.2546C92.4711 282.291 288.194 467.693 618.17 289.58L618.185 289.59ZM616.705 302.876C617.119 299 617.547 295.075 617.994 291.277C292.415 466.566 97.3047 288.954 -16.4501 67.215C101.68 306.086 300.391 504.916 616.692 302.864L616.705 302.876ZM615.214 316.255C615.609 312.268 616.086 308.551 616.503 304.656C300.154 506.15 101.253 307.843 -17.1043 69.1038C106.502 324.725 310.148 545.371 615.199 316.246L615.214 316.255ZM614.134 329.383C614.446 325.705 614.652 321.729 614.994 318.144C302.688 551.942 96.5193 315.892 -26.381 52.9349C102.778 332.199 315.436 592.509 614.13 329.377L614.134 329.383ZM609.574 418.159C609.475 419.337 609.425 420.603 609.335 421.759C609.543 420.974 609.741 420.138 609.946 419.339C610.134 418.03 610.319 416.726 610.501 415.401C610.19 416.345 609.883 417.238 609.568 418.155L609.574 418.159ZM610.339 406.211C610.191 408.277 610.082 410.469 609.932 412.513C610.476 410.903 610.994 409.161 611.529 407.492C611.758 405.675 611.935 403.64 612.155 401.792C611.546 403.3 610.949 404.754 610.339 406.211ZM611.133 393.926C610.965 396.582 610.797 399.243 610.617 401.871C611.336 400.118 612.051 398.212 612.771 396.377C613.048 393.974 613.318 391.475 613.587 389.031C612.763 390.707 611.945 392.304 611.133 393.926ZM611.939 381.422C611.76 384.497 611.563 387.387 611.345 390.417C612.254 388.591 613.152 386.576 614.054 384.654C614.363 381.858 614.681 379.1 614.984 376.267C613.974 378.056 612.956 379.716 611.939 381.422ZM612.639 370.57C612.497 373.296 612.287 375.724 612.135 378.428L612.639 370.57ZM-64.3084 57.1325C159.698 492.237 531.28 1096.27 602.565 476.47C502.051 1045.27 151.369 475.257 -62.1634 53.661L-61.3227 52.3006C154.131 477.902 509.513 1055.28 604.772 455.72C604.842 455.011 604.905 454.253 604.976 453.536C481.6 1005.47 145.941 461.28 -59.3236 49.0652L-58.4718 47.6868C147.453 461.471 484.965 1008.79 605.944 443.053C606.111 441.243 606.283 439.465 606.445 437.636C458.945 961.182 139.516 445.543 -56.651 44.7132L-55.7974 43.3317C140.67 445.041 461.137 962.569 607.131 430.267C607.334 427.79 607.597 425.543 607.8 423.033C436.496 916.264 132.855 429.445 -54.1226 40.648L-53.2598 39.2517C133.798 428.462 437.912 916.383 608.183 417.799C608.374 415.281 608.504 412.514 608.685 409.965C414.215 870.558 125.939 412.904 -51.7789 36.8819L-50.9124 35.4795C126.784 411.67 415.268 870.06 608.962 405.815C609.165 402.916 609.341 399.913 609.531 396.974C392.809 825.05 118.985 396.27 -49.6477 33.406L-48.7756 31.9947C119.766 394.939 393.661 824.266 609.753 393.483C609.947 390.297 610.177 387.179 610.364 383.944C372.397 779.961 112.039 379.583 -47.6948 30.2455L-46.8116 28.8162C112.804 378.163 373.125 778.957 610.576 380.931C610.771 377.489 611.042 374.352 611.224 370.857C353.101 735.249 105.156 362.873 -45.9728 27.4587L-45.0933 26.0354C105.89 361.417 353.753 734.147 611.4 368.223C611.617 364.638 611.875 361.141 612.141 357.686C335.082 691.048 98.3705 346.14 -44.4855 25.0516L-43.5986 23.6163C99.0862 344.64 335.65 689.854 612.307 355.322C612.572 351.767 612.79 348.047 613.065 344.515C318.387 647.347 91.8155 329.301 -43.1903 22.9555L-42.3145 21.5382C92.474 327.787 318.883 646.109 613.211 342.365C613.491 338.758 613.685 334.903 613.985 331.345C303.179 604.193 85.4598 312.388 -42.1501 21.2721L-37.531 13.7968C62.1513 206.323 254.106 362.077 623.766 249.791C624.399 245.955 624.951 241.888 625.626 238.165C253.684 327.374 61.6072 189.41 -37.3888 13.5666L-36.5038 12.1343C62.2334 187.921 254.031 326.014 625.855 236.683C626.581 232.723 627.353 228.903 628.114 225.068C256.212 292.936 63.4074 170.644 -35.8331 11.0489L-34.961 9.63756C64.0283 169.197 256.591 291.579 628.437 223.581C629.235 219.612 630.11 215.852 630.96 212.014C261.229 260.168 67.0312 151.518 -33.5827 7.40694L-32.7236 6.01653C67.6436 150.078 261.599 258.806 631.282 210.548C632.123 206.77 632.886 202.758 633.773 199.113C268.262 229.179 72.5198 131.924 -30.3679 2.20414L-29.566 0.90644C73.0975 130.554 268.662 227.802 634.079 197.687C675.465 29.2361 764.762 2.43461 877.066 59.846C885.007 63.1414 893.046 66.8276 901.228 71.0573C909.286 74.3507 917.487 78.2568 925.747 82.4888C933.512 85.7693 941.355 89.4378 949.275 93.4943C956.912 96.7258 964.632 100.385 972.384 104.295C980.001 107.538 987.675 111.132 995.382 115.006C1002.99 118.246 1010.63 121.791 1018.3 125.641C1025.86 128.865 1033.44 132.369 1041.05 136.154C1048.59 139.379 1056.13 142.854 1063.69 146.579C1071.19 149.784 1078.69 153.223 1086.19 156.898C1093.64 160.1 1101.08 163.441 1108.52 167.087C1115.93 170.273 1123.34 173.579 1130.72 177.177C1137.36 180.039 1143.96 183.142 1150.55 186.316C1157.72 189.389 1164.84 192.734 1171.94 196.132C1179.04 199.187 1186.09 202.438 1193.1 205.782C1200.14 208.82 1207.13 211.985 1214.07 215.279C1221.04 218.289 1227.98 221.372 1234.86 224.628C1241.71 227.597 1248.58 230.572 1255.34 233.761C1259.9 235.753 1264.41 237.819 1268.9 239.878C1275.33 242.614 1281.64 245.514 1287.97 248.412C1294.25 251.102 1300.47 253.849 1306.65 256.654C1472.87 328.236 1598.65 440.095 1693.07 560.211L1692.28 561.488C1608.55 454.863 1500.13 354.709 1360.59 283.518C1495.86 357.061 1602.63 461.201 1686.01 571.639L1685.15 573.03C1597.49 456.837 1483.96 347.596 1338.53 273.65C1479.25 350.272 1591.17 463.639 1678.64 583.558L1677.8 584.913C1585.98 458.923 1467.17 340.129 1316.29 263.646C1462.11 343.131 1579.35 466.133 1671.13 595.707L1670.31 597.043C1574.08 461.07 1449.82 332.307 1293.91 253.52C1444.42 335.721 1567.17 468.733 1663.48 608.098L1662.68 609.393C1562.81 464.797 1434.54 326.967 1276.25 245.738L1274.75 245.158C1428.12 330.108 1555.4 472.49 1655.75 620.603L1654.96 621.879C1552.63 470.735 1422.25 325.523 1264.73 241.291C1263.65 240.888 1262.6 240.454 1261.52 240.055C1414.84 328.27 1544.81 478.338 1648.01 633.131L1647.19 634.456C1542.28 477.012 1409.66 324.426 1252.97 236.911C1251.24 236.292 1249.46 235.726 1247.72 235.116C1401.03 326.778 1533.95 484.518 1640.19 645.788L1639.39 647.077C1531.88 483.749 1397.01 324 1241.32 232.928C1239.23 232.205 1237.14 231.484 1235.04 230.778C1387.86 326.212 1523.4 491.211 1632.46 658.327L1631.63 659.667C1521.24 490.444 1383.69 323.366 1228.59 228.564C1225.82 227.652 1223.09 226.696 1220.3 225.807C1373.35 325.046 1512.28 497.718 1624.64 670.953L1623.85 672.236C1510.56 497.432 1370.2 323.149 1215.61 224.402C1212.84 223.52 1210.02 222.734 1207.23 221.892C1359.93 325.3 1501.69 504.916 1616.95 683.401L1616.13 684.723C1499.9 504.647 1356.67 323.363 1202.5 220.483C1199.19 219.497 1195.92 218.463 1192.58 217.507C1345.53 325.103 1490.74 511.962 1609.25 695.858L1608.46 697.138C1489.11 511.806 1342.64 323.416 1188.51 216.275C1185.23 215.358 1181.87 214.528 1178.55 213.637C1331.63 325.667 1480.06 519.346 1601.65 708.165L1600.84 709.475C1478.48 519.367 1328.88 324.268 1174.83 212.669C1171.28 211.728 1167.7 210.804 1164.1 209.897C1317.51 326.445 1469.37 526.883 1594.09 720.395L1593.31 721.656C1467.92 526.942 1314.98 325.197 1160.73 209.033C1156.87 208.074 1153.08 207.026 1149.19 206.107C1303.24 327.267 1458.71 534.367 1586.61 732.505L1585.8 733.811C1457.25 534.56 1300.81 326.217 1146.05 205.424C1142.34 204.558 1138.54 203.802 1134.8 202.974C1289.45 328.92 1448.31 542.239 1579.2 744.486L1578.42 745.754C1446.92 542.468 1287.16 327.938 1131.92 202.35C1127.84 201.465 1123.81 200.533 1119.7 199.689C1275.27 330.409 1437.83 550.017 1571.85 756.39L1571.05 757.681C1436.41 550.266 1272.92 329.432 1116.77 199.053C1112.88 198.271 1108.93 197.549 1105 196.809C1261.55 332.431 1427.64 557.983 1564.6 768.12L1563.8 769.418C1426.25 558.315 1259.34 331.633 1102.29 196.329C1098.16 195.562 1093.99 194.838 1089.83 194.113C1247.62 334.642 1417.39 566.04 1557.36 779.829L1556.57 781.112C1416.03 566.387 1245.44 333.857 1087.22 193.649C1083.01 192.927 1078.89 192.09 1074.64 191.415C1233.82 336.875 1407.31 574.017 1550.26 791.344L1549.45 792.65C1405.95 574.46 1231.69 336.218 1072.1 191.053C1068.01 190.422 1063.83 189.903 1059.69 189.329C1220.34 339.781 1397.41 582.297 1543.18 802.79L1542.38 804.073C1396.11 582.714 1218.29 339.163 1057.3 188.998C1053.04 188.397 1048.79 187.777 1044.49 187.224C1206.81 342.635 1387.55 590.5 1536.17 814.135L1535.36 815.435C1386.22 590.939 1204.69 342.002 1042.06 186.886C1003.86 182.104 965.436 179.286 926.951 178.445C917.916 178.453 908.836 178.527 899.654 178.766C887.105 179.461 874.416 180.434 861.585 181.687C853.575 182.728 845.521 183.879 837.397 185.198C826.557 187.345 815.597 189.845 804.597 192.485C797.612 194.511 790.559 196.801 783.498 199.144C776.827 201.666 770.173 204.094 763.453 206.909C754.816 211.033 746.128 215.594 737.434 220.232C731.803 223.681 726.161 227.303 720.507 231.097C714.252 235.777 707.998 240.523 701.743 245.653C696.117 250.808 690.511 256.513 684.903 262.128C680.613 266.989 676.348 272.13 672.073 277.235C668.252 282.415 664.417 287.49 660.645 293.052C660.551 293.204 660.439 293.338 660.347 293.475C658.684 296.166 656.977 298.788 655.328 301.657C653.292 305.2 651.257 308.406 649.224 311.81C646.106 318.254 642.971 324.213 639.831 330.358C637.068 337.047 634.304 343.681 631.523 350.077C629.248 356.63 626.993 363.359 624.684 369.593C622.965 375.608 621.22 381.418 619.459 387.147C617.746 394.604 615.923 401.39 614.155 408.449C612.678 416.544 611.127 424.254 609.584 431.994C608.474 440.15 607.396 448.408 606.165 456.064C540.525 1113.71 161.989 499.574 -65.1602 58.511L-64.3084 57.1325Z" fill="white" fill-opacity="0.12"/>
</svg>
