<svg width="1440" height="816" viewBox="0 0 1440 816" fill="none" xmlns="http://www.w3.org/2000/svg">
<path d="M482.389 372.713C482.718 369.61 483.086 366.752 483.395 363.6L482.389 372.713ZM792.345 84.4185C792.85 84.5779 793.346 84.6986 793.848 84.8641C793.355 84.6047 792.857 84.3591 792.36 84.1058C791.918 83.9237 791.489 83.7821 791.05 83.6019C791.476 83.8489 791.919 84.1637 792.345 84.4185ZM815.25 96.7459C813.032 95.9988 810.832 95.3749 808.617 94.6677C810.794 96.0124 812.959 97.3214 815.166 98.7968M815.908 95.293C816.327 95.432 816.732 95.5334 817.147 95.6783C816.623 95.4083 816.114 95.2011 815.591 94.936C815.215 94.7819 814.843 94.6472 814.467 94.4932C814.944 94.7843 815.427 95.0079 815.908 95.293ZM803.478 91.4176C805.139 91.9153 806.811 92.4566 808.479 92.9707C806.712 91.974 804.966 91.044 803.201 90.0443C801.52 89.4185 799.794 88.6293 798.111 88.0396C799.895 89.2035 801.679 90.3059 803.478 91.4176ZM482.474 393.354C482.035 394.487 481.595 395.608 481.156 396.746C481.007 398.046 480.869 399.394 480.72 400.686C481.107 399.463 481.486 398.267 481.885 397.019C482.073 395.845 482.257 394.529 482.457 393.356L482.474 393.354ZM485.257 386.173L484.895 387.107L484.765 387.907C484.886 387.51 485.012 387.146 485.132 386.749C485.173 386.576 485.206 386.369 485.248 386.181L485.257 386.173ZM838.304 107.355C836.125 106.623 833.95 105.915 831.778 105.231C833.852 106.513 835.909 107.784 837.989 109.156M838.956 105.952C839.296 106.071 839.614 106.152 839.946 106.271C839.556 106.071 839.173 105.908 838.783 105.709C838.456 105.569 838.16 105.465 837.848 105.334C838.203 105.549 838.566 105.732 838.926 105.946L838.956 105.952ZM826.574 101.937C828.184 102.424 829.807 102.997 831.421 103.511C829.776 102.586 828.129 101.671 826.481 100.748C824.834 100.114 823.165 99.3474 821.516 98.7419C823.192 99.8187 824.876 100.896 826.547 101.954L826.574 101.937ZM815.184 98.7953C817.078 99.2509 818.947 99.5796 820.848 100.105L815.184 98.7953ZM484.516 380.658C483.824 382.14 483.133 383.605 482.438 385.085C482.214 387.169 481.986 389.231 481.752 391.296C482.349 389.769 482.946 388.253 483.541 386.7C483.86 384.745 484.177 382.68 484.503 380.679L484.516 380.658ZM488.127 372.973C487.644 374.009 487.163 375.022 486.686 376.041C486.449 377.523 486.209 378.99 485.971 380.459C486.369 379.44 486.77 378.436 487.166 377.387C487.476 375.968 487.787 374.453 488.112 372.997L488.127 372.973ZM491.054 366.729C490.966 366.919 490.881 367.097 490.793 367.287L490.418 369.018C490.614 368.292 490.824 367.504 491.039 366.753L491.054 366.729ZM861.841 116.519L862.526 116.748C862.28 116.625 862.034 116.514 861.789 116.388L861.11 116.108C861.358 116.249 861.597 116.377 861.841 116.519ZM849.55 112.383C851.102 112.858 852.663 113.451 854.215 113.951C852.695 113.111 851.157 112.206 849.648 111.381C848.156 110.811 846.649 110.144 845.162 109.597C846.618 110.488 848.093 111.482 849.55 112.383ZM837.972 109.158C840.028 109.693 842.072 110.1 844.131 110.691L837.972 109.158ZM825.554 106.071C828.101 106.636 830.679 107.35 833.242 107.983C830.788 106.397 828.345 104.875 825.894 103.319C823.492 102.607 821.082 101.862 818.69 101.235C820.988 102.844 823.285 104.483 825.554 106.071ZM486.527 368.225C485.61 369.862 484.689 371.509 483.764 373.166C483.497 375.76 483.203 378.19 482.923 380.765C483.729 379.06 484.531 377.367 485.326 375.639C485.719 373.155 486.126 370.716 486.506 368.233L486.527 368.225ZM490.82 360.548C490.053 361.937 489.286 363.298 488.516 364.665C488.184 366.836 487.827 368.88 487.482 371.025C488.141 369.644 488.795 368.271 489.434 366.861C489.903 364.729 490.36 362.652 490.815 360.529L490.82 360.548ZM494.707 353.588C494.193 354.534 493.68 355.432 493.164 356.353C492.818 357.99 492.464 359.535 492.119 361.157C492.515 360.323 492.914 359.516 493.305 358.629C493.772 356.935 494.239 355.269 494.706 353.57L494.707 353.588ZM497.706 348.226L497.588 348.418L497.413 349.041L497.706 348.226ZM884.616 127.022L884.932 127.134L884.68 127.012L884.33 126.862L884.616 127.022ZM872.423 122.769C873.896 123.237 875.38 123.827 876.847 124.312C875.468 123.551 874.074 122.694 872.697 121.958C871.425 121.466 870.156 120.996 868.886 120.521C870.055 121.173 871.261 122.026 872.431 122.736L872.423 122.769ZM860.654 119.463C862.726 120.033 864.795 120.493 866.871 121.11C864.969 119.985 863.088 118.979 861.202 117.921C859.072 117.184 856.945 116.456 854.822 115.76C856.773 116.961 858.71 118.158 860.662 119.431L860.654 119.463ZM848.261 116.177C850.787 116.775 853.327 117.53 855.86 118.191C853.535 116.712 851.212 115.244 848.889 113.755C846.601 113.052 844.33 112.43 842.039 111.787C844.108 113.152 846.205 114.724 848.269 116.144L848.261 116.177ZM836.462 113.79C839.065 114.263 841.681 114.602 844.293 115.175C841.961 113.593 839.623 112.075 837.303 110.595C834.514 109.864 831.731 109.166 828.954 108.502C831.465 110.215 833.953 111.926 836.469 113.758L836.462 113.79ZM483.405 363.585C482.197 365.372 480.984 367.047 479.789 368.767L483.405 363.585ZM488.517 355.874C487.382 357.589 486.25 359.315 485.114 361.026C485.076 361.342 485.034 361.638 485.003 361.962C484.748 364.605 484.416 366.97 484.159 369.567C485.168 367.774 486.175 365.991 487.18 364.17C487.607 361.343 488.084 358.737 488.508 355.868L488.517 355.874ZM493.456 348.41C492.437 349.966 491.418 351.493 490.399 353.029C490.382 353.138 490.363 353.234 490.349 353.345C489.977 355.867 489.55 358.111 489.174 360.601C490.066 359.024 490.957 357.455 491.846 355.828C492.365 353.301 492.925 350.962 493.453 348.408L493.456 348.41ZM498.109 341.369C497.268 342.675 496.426 343.924 495.587 345.182C495.135 347.427 494.644 349.425 494.185 351.641C494.882 350.419 495.603 349.179 496.305 347.856C496.893 345.646 497.51 343.589 498.102 341.36L498.109 341.369ZM502.26 335.071C501.719 335.947 501.165 336.758 500.615 337.579C500.205 339.14 499.776 340.531 499.367 342.076C499.863 341.114 500.361 340.087 500.856 339.125C501.315 337.739 501.789 336.45 502.253 335.063L502.26 335.071ZM505.912 328.994L505.74 329.272C505.673 329.482 505.599 329.668 505.533 329.875L505.568 329.819C505.674 329.533 505.793 329.267 505.905 328.986L505.912 328.994ZM895.217 133.015C896.599 133.456 897.982 134.05 899.364 134.511C898.159 133.857 896.941 133.076 895.739 132.445C894.458 131.947 893.184 131.585 891.904 131.1C893.007 131.732 894.106 132.349 895.217 133.015ZM883.234 129.614C885.241 130.181 887.25 130.699 889.257 131.307C887.508 130.275 885.766 129.332 884.015 128.336C881.949 127.609 879.878 126.85 877.819 126.16C879.628 127.316 881.428 128.453 883.234 129.614ZM870.909 126.13C873.392 126.743 875.893 127.557 878.373 128.23C876.184 126.878 874.001 125.417 871.819 124.048C869.5 123.322 867.191 122.754 864.879 122.086C866.873 123.397 868.885 124.772 870.902 126.142L870.909 126.13ZM858.835 123.578C861.531 124.116 864.227 124.559 866.925 125.18C864.608 123.629 862.32 122.223 860.025 120.789C857.263 120.037 854.504 119.261 851.751 118.569C854.11 120.253 856.471 121.902 858.84 123.598L858.835 123.578ZM846.413 121.116C849.351 121.61 852.3 122.3 855.26 122.865L847.641 117.475C844.894 116.84 842.145 116.327 839.412 115.803C841.728 117.532 844.08 119.369 846.417 121.136L846.413 121.116ZM490.582 343.481L486.558 348.655C486.182 351.687 485.823 354.812 485.479 357.905C486.677 356.1 487.876 354.3 489.072 352.473C489.541 349.383 490.044 346.454 490.582 343.481ZM496.126 336.35C494.88 337.965 493.638 339.553 492.393 341.146C491.903 343.914 491.442 346.756 490.974 349.595C492.078 347.942 493.176 346.299 494.27 344.608L494.309 344.438C494.876 341.619 495.5 339.009 496.118 336.362L496.126 336.35ZM501.456 329.492C500.351 330.958 499.247 332.35 498.143 333.755C497.564 336.231 497.004 338.777 496.446 341.321C497.407 339.894 498.369 338.484 499.332 336.96C499.441 336.535 499.559 336.162 499.671 335.74C500.231 333.569 500.847 331.554 501.448 329.504L501.456 329.492ZM506.527 322.825C505.602 324.08 504.678 325.335 503.757 326.53C503.146 328.603 502.546 330.74 501.949 332.85C502.797 331.478 503.631 330.022 504.468 328.66C504.653 328.1 504.845 327.608 505.03 327.048C505.494 325.575 506.017 324.233 506.519 322.837L506.527 322.825ZM511.455 315.88C510.801 316.785 510.146 317.711 509.488 318.647C509.006 319.977 508.537 321.365 508.047 322.715L509.727 319.915C509.944 319.375 510.167 318.901 510.384 318.362C510.725 317.503 511.092 316.721 511.451 315.886L511.455 315.88ZM515.469 310.22L515.351 310.412L515.131 310.921C515.229 310.696 515.345 310.474 515.462 310.232L515.469 310.22ZM917.037 144.589C914.732 143.834 912.427 143.24 910.12 142.529C911.873 143.641 913.624 144.731 915.383 145.893M917.615 143.239C918.988 143.695 920.351 144.166 921.717 144.633C920.596 144.031 919.48 143.495 918.362 142.92C917.158 142.445 915.958 142.071 914.753 141.611C915.7 142.167 916.657 142.668 917.615 143.239ZM905.692 139.706C907.621 140.274 909.554 140.82 911.475 141.42C909.882 140.498 908.296 139.617 906.701 138.697C904.709 137.983 902.716 137.206 900.721 136.531C902.382 137.607 904.035 138.653 905.694 139.703L905.692 139.706ZM893.335 136.041C895.805 136.683 898.266 137.539 900.73 138.231C898.704 136.979 896.667 135.575 894.652 134.364C892.279 133.6 889.914 133.055 887.539 132.353C889.471 133.558 891.396 134.74 893.335 136.041ZM881.109 133.354C883.773 133.942 886.436 134.439 889.096 135.095C886.933 133.668 884.784 132.327 882.626 130.965C879.906 130.193 877.178 129.359 874.453 128.655C876.671 130.221 878.889 131.787 881.109 133.354ZM868.69 130.638C871.606 131.201 874.538 131.925 877.461 132.55C875.072 130.88 872.668 129.134 870.267 127.456C867.454 126.768 864.641 126.286 861.839 125.699C864.111 127.317 866.389 128.94 868.684 130.647L868.69 130.638ZM856.338 128.791C859.341 129.213 862.347 129.496 865.354 130.019C862.959 128.258 860.593 126.631 858.224 124.977C855.158 124.355 852.092 123.688 849.02 123.136C851.459 125.013 853.897 126.9 856.333 128.8L856.338 128.791ZM492.644 331.174C491.095 332.87 489.549 334.576 488.003 336.269C487.602 339.434 487.26 342.78 486.865 345.969C488.266 344.179 489.666 342.38 491.065 340.57C491.6 337.475 492.098 334.246 492.644 331.174ZM498.793 324.43C497.321 326.061 495.857 327.661 494.388 329.261C493.866 332.194 493.395 335.287 492.876 338.243C494.196 336.555 495.512 334.88 496.846 333.156C497.498 330.274 498.125 327.277 498.793 324.43ZM504.78 317.866C503.409 319.415 502.056 320.868 500.698 322.343C500.067 325.019 499.481 327.854 498.857 330.551C500.064 329.02 501.272 327.519 502.486 325.89C503.257 323.242 504 320.487 504.78 317.866ZM510.634 311.224C509.387 312.672 508.142 314.146 506.905 315.531C506.2 317.904 505.536 320.424 504.822 322.805C505.959 321.247 507.1 319.56 508.236 317.997C509.04 315.771 509.822 313.441 510.637 311.226L510.634 311.224ZM516.472 304.225C515.389 305.51 514.3 306.817 513.228 308.137C512.54 309.993 511.886 311.969 511.206 313.833C512.174 312.461 513.138 311.102 514.106 309.742C514.896 307.928 515.674 306.025 516.472 304.225ZM521.95 297.657C521.179 298.589 520.396 299.502 519.631 300.438C519.079 301.687 518.54 303.015 517.982 304.266C518.662 303.306 519.342 302.366 520.021 301.394C520.67 300.163 521.307 298.879 521.95 297.657ZM526.477 292.232L526.091 292.695C525.986 292.866 525.904 293.059 525.81 293.237C525.927 293.048 526.061 292.892 526.183 292.707L526.477 292.232ZM939.811 153.368C940.817 153.7 941.821 153.957 942.82 154.302C942.128 153.936 941.438 153.613 940.75 153.254C939.662 152.825 938.578 152.457 937.496 152.04C938.266 152.487 939.038 152.911 939.811 153.368ZM928.018 149.692C929.849 150.25 931.682 150.821 933.517 151.404C932.1 150.591 930.682 149.793 929.264 148.962C927.357 148.271 925.453 147.491 923.548 146.831C925.045 147.768 926.542 148.768 928.03 149.699L928.018 149.692ZM915.371 145.885C917.898 146.563 920.418 147.384 922.942 148.113L915.371 145.885ZM903.255 143.014C905.87 143.63 908.488 144.206 911.099 144.873C909.099 143.572 907.102 142.312 905.104 141.033C902.421 140.247 899.74 139.371 897.068 138.641C899.14 140.108 901.208 141.588 903.267 143.021L903.255 143.014ZM890.526 140.004C893.526 140.618 896.536 141.465 899.547 142.14C897.264 140.568 894.969 138.898 892.684 137.382C889.85 136.652 887.011 136.166 884.177 135.518C886.298 136.999 888.407 138.446 890.538 140.011L890.526 140.004ZM878.203 138.004C881.193 138.48 884.188 138.88 887.175 139.436C884.942 137.821 882.728 136.276 880.507 134.717C877.458 134.048 874.408 133.308 871.358 132.713C873.641 134.474 875.925 136.254 878.203 138.004ZM865.637 135.995C868.833 136.404 872.019 137.046 875.214 137.525C872.841 135.715 870.444 133.784 868.073 131.992C864.939 131.42 861.809 131.064 858.679 130.613C860.991 132.38 863.298 134.116 865.637 135.995ZM494.711 318.925C492.963 320.563 491.212 322.212 489.466 323.839C489.036 327.078 488.702 330.598 488.299 333.861C489.896 332.115 491.494 330.365 493.092 328.608C493.636 325.445 494.133 322.063 494.711 318.925ZM501.45 312.618C499.763 314.217 498.083 315.777 496.401 317.349C495.844 320.364 495.368 323.652 494.829 326.707C496.358 325.036 497.887 323.378 499.424 321.667C500.105 318.704 500.74 315.547 501.441 312.613L501.45 312.618ZM508.061 306.432C506.455 307.985 504.873 309.42 503.274 310.911C502.6 313.709 502 316.735 501.329 319.576C502.77 318.02 504.207 316.491 505.666 314.819C506.463 312.076 507.231 309.146 508.052 306.426L508.061 306.432ZM514.61 300.05C513.086 301.559 511.551 303.118 510.052 304.568C509.274 307.119 508.556 309.887 507.79 312.466C509.177 310.844 510.597 309.061 511.993 307.424C512.865 305.009 513.71 302.436 514.592 300.059L514.61 300.05ZM521.18 293.334C519.766 294.758 518.353 296.215 516.938 297.667C516.134 299.818 515.375 302.159 514.577 304.327C515.862 302.782 517.15 301.237 518.439 299.689C519.343 297.624 520.243 295.391 521.171 293.328L521.18 293.334ZM527.574 286.794C526.349 288.054 525.129 289.292 523.907 290.54C523.124 292.275 522.375 294.171 521.592 295.919C522.704 294.59 523.813 293.275 524.925 291.917C525.809 290.24 526.675 288.45 527.565 286.789L527.574 286.794ZM533.6 280.63C532.7 281.578 531.806 282.468 530.913 283.379C530.291 284.532 529.687 285.798 529.066 286.956C529.892 285.975 530.716 285.017 531.548 283.978C532.227 282.885 532.903 281.712 533.591 280.625L533.6 280.63ZM538.281 275.859C538.181 275.962 538.087 276.053 537.991 276.155C537.817 276.436 537.633 276.735 537.455 277.022L537.996 276.381C538.205 276.097 538.429 275.781 538.643 275.487C538.52 275.593 538.398 275.704 538.281 275.859ZM551.548 260.414L551.075 260.817C550.777 261.198 550.471 261.534 550.175 261.913C550.398 261.691 550.623 261.462 550.846 261.241C551.07 261.02 551.32 260.662 551.557 260.399L551.548 260.414ZM961.864 163.379C962.709 163.666 963.559 163.91 964.4 164.203C963.928 163.956 963.454 163.725 962.976 163.475C962.03 163.098 961.085 162.753 960.139 162.383C960.72 162.722 961.294 163.044 961.864 163.379ZM950.227 159.593C951.958 160.138 953.671 160.713 955.393 161.273C954.166 160.581 952.93 159.838 951.7 159.144C949.879 158.469 948.052 157.683 946.242 157.044C947.568 157.838 948.904 158.776 950.23 159.595L950.227 159.593ZM937.347 155.667C939.771 156.338 942.18 157.038 944.592 157.76C942.818 156.688 941.049 155.715 939.275 154.71C937.048 153.962 934.818 153.328 932.58 152.639C934.185 153.643 935.767 154.637 937.353 155.671L937.347 155.667ZM925.308 152.599C927.858 153.238 930.416 153.864 932.966 154.551C931.136 153.383 929.305 152.215 927.472 151.024C924.831 150.218 922.192 149.294 919.546 148.548C921.459 149.858 923.394 151.285 925.314 152.603L925.308 152.599ZM912.231 149.362C915.333 150.039 918.419 150.888 921.514 151.635C919.272 150.11 917.041 148.673 914.813 147.251C912.019 146.504 909.219 145.935 906.421 145.255C908.363 146.617 910.298 147.965 912.237 149.365L912.231 149.362ZM899.965 147.121C902.936 147.668 905.903 148.129 908.865 148.744C906.799 147.274 904.74 145.82 902.683 144.363C899.656 143.658 896.635 142.836 893.605 142.204C895.729 143.801 897.865 145.526 899.977 147.128L899.965 147.121ZM886.926 144.745C890.273 145.26 893.608 145.982 896.934 146.57C894.576 144.803 892.225 143.053 889.881 141.356C886.795 140.747 883.7 140.367 880.611 139.864C882.714 141.473 884.814 143.076 886.926 144.745ZM874.466 143.301C877.642 143.657 880.833 143.889 884.006 144.337C881.869 142.661 879.737 141.017 877.606 139.378C874.371 138.863 871.134 138.271 867.903 137.816C870.082 139.618 872.285 141.503 874.466 143.301ZM-160.261 51.0452C-160.663 50.1768 -161.054 49.3157 -161.45 48.4384C-161.053 49.3079 -160.663 50.1768 -160.261 51.0452ZM496.756 306.719C494.847 308.241 492.934 309.778 491.032 311.296C490.547 314.625 490.167 318.265 489.713 321.678C491.501 320.007 493.293 318.329 495.089 316.646C495.67 313.431 496.142 309.847 496.756 306.719ZM504.084 300.884C502.221 302.386 500.367 303.86 498.514 305.334C497.895 308.443 497.368 311.873 496.788 315.068C498.524 313.451 500.259 311.841 501.999 310.19C502.704 307.175 503.331 303.811 504.072 300.877L504.084 300.884ZM511.3 295.125C509.489 296.622 507.708 298.004 505.92 299.419C505.179 302.305 504.537 305.527 503.818 308.484C505.479 306.948 507.138 305.448 508.812 303.81C509.652 300.99 510.419 297.861 511.284 295.123L511.3 295.125ZM518.486 289.124C516.738 290.614 514.972 292.134 513.246 293.588C512.398 296.233 511.643 299.241 510.814 301.956C512.446 300.332 514.101 298.558 515.735 296.923C516.648 294.389 517.519 291.58 518.474 289.117L518.486 289.124ZM525.685 282.83C524.013 284.276 522.335 285.747 520.667 287.208C519.751 289.534 518.924 292.163 518.032 294.538C519.587 292.945 521.144 291.349 522.698 289.765C523.718 287.519 524.677 285.009 525.704 282.825L525.685 282.83ZM532.828 276.625C531.291 277.981 529.757 279.305 528.225 280.64C527.274 282.647 526.383 284.926 525.444 286.982C526.881 285.519 528.315 284.075 529.756 282.573C530.781 280.633 531.781 278.486 532.818 276.614L532.828 276.625ZM539.767 270.583C538.434 271.776 537.121 272.903 535.805 274.035C534.885 275.665 534 277.506 533.088 279.17C534.356 277.887 535.602 276.653 536.868 275.308C537.849 273.753 538.794 272.044 539.77 270.552L539.767 270.583ZM543.581 267.255L543.49 267.335C542.709 268.505 541.931 269.725 541.155 270.995C542.059 270.099 542.966 269.168 543.871 268.265C544.671 267.205 545.459 266.01 546.261 264.96C545.384 265.704 544.478 266.413 543.584 267.224L543.581 267.255ZM554.351 254.652C553.015 255.623 551.673 256.596 550.335 257.583C549.128 259.316 547.934 261.02 546.749 262.717C547.858 261.779 548.979 260.789 550.084 259.857C551.496 258.015 552.928 256.4 554.354 254.62L554.351 254.652ZM561.369 249.534C560.547 250.121 559.719 250.738 558.898 251.337C558 252.435 557.119 253.473 556.237 254.573C556.771 254.11 557.309 253.641 557.849 253.189C559.015 251.897 560.201 250.754 561.371 249.503L561.369 249.534ZM983.77 173.308C984.45 173.547 985.107 173.75 985.771 173.987L985.069 173.623C984.281 173.305 983.488 173.002 982.698 172.687L983.77 173.308ZM972.312 169.426C973.909 169.942 975.498 170.515 977.1 171.05C976.075 170.479 975.049 169.824 974.024 169.265C971.986 168.501 969.963 167.631 967.921 166.899C969.382 167.694 970.848 168.501 972.315 169.395L972.312 169.426ZM959.178 165.376C961.248 165.977 963.342 166.457 965.405 167.088C964.064 166.292 962.723 165.538 961.376 164.759C959.244 164.032 957.106 163.361 954.965 162.669C956.378 163.555 957.778 164.449 959.181 165.345L959.178 165.376ZM947.246 162.135C949.737 162.79 952.213 163.469 954.683 164.156C953.031 163.115 951.381 162.017 949.729 160.967C946.894 160.079 944.079 159.025 941.236 158.198C943.245 159.444 945.244 160.741 947.25 162.101L947.246 162.135ZM933.878 158.705C936.881 159.395 939.868 160.191 942.858 160.948C940.837 159.6 938.828 158.346 936.816 157.07C934.076 156.303 931.325 155.673 928.579 154.964C930.351 156.179 932.119 157.415 933.883 158.671L933.878 158.705ZM921.645 156.17C924.594 156.753 927.51 157.315 930.433 157.961C928.543 156.635 926.655 155.291 924.764 153.941C921.603 153.153 918.453 152.231 915.281 151.515C917.41 153.037 919.529 154.594 921.645 156.17ZM908.132 153.431C911.573 154.008 914.979 154.848 918.409 155.509C916.154 153.843 913.906 152.314 911.672 150.735C908.606 150.08 905.528 149.625 902.457 149.045C904.358 150.508 906.251 151.963 908.144 153.439L908.132 153.431ZM895.789 151.763C898.963 152.191 902.146 152.542 905.309 153.046C903.348 151.533 901.38 149.999 899.418 148.481C896.072 147.872 892.749 147.178 889.39 146.635C891.521 148.328 893.657 150.032 895.789 151.763ZM882.451 149.979C886.029 150.368 889.58 150.954 893.145 151.418C890.832 149.551 888.545 147.836 886.253 146.077C883.001 145.596 879.727 145.35 876.468 144.989C878.462 146.634 880.457 148.298 882.451 149.979ZM499.492 294.084C497.359 295.527 495.223 296.975 493.102 298.4C492.517 302.025 491.9 305.507 491.354 309.215C493.305 307.665 495.259 306.105 497.217 304.533C497.964 300.941 498.746 297.607 499.492 294.084ZM507.409 288.709C505.328 290.142 503.265 291.519 501.187 292.934C500.456 296.366 499.676 299.644 498.98 303.139C500.877 301.629 502.772 300.135 504.684 298.594C505.546 295.185 506.508 292.048 507.409 288.709ZM515.238 283.403C513.212 284.833 511.22 286.143 509.218 287.488C508.337 290.72 507.41 293.808 506.552 297.112C508.372 295.671 510.185 294.271 512.027 292.736C513.06 289.498 514.172 286.553 515.232 283.399L515.238 283.403ZM523.114 277.738C521.144 279.165 519.156 280.663 517.179 282.082C516.155 285.118 515.088 287.996 514.086 291.103C515.887 289.576 517.715 287.908 519.516 286.373C520.676 283.371 521.916 280.654 523.108 277.734L523.114 277.738ZM531.051 271.849C529.144 273.254 527.231 274.683 525.324 276.096C524.19 278.849 523.022 281.461 521.903 284.278C523.628 282.771 525.355 281.265 527.084 279.761C528.378 277.011 529.732 274.526 531.045 271.846L531.051 271.849ZM538.953 265.99C537.144 267.351 535.351 268.665 533.557 269.989C532.334 272.457 531.091 274.804 529.876 277.325C531.487 275.929 533.095 274.546 534.713 273.112C536.106 270.631 537.552 268.384 538.948 265.983L538.953 265.99ZM546.793 260.17C545.139 261.441 543.513 262.618 541.88 263.816C540.632 265.936 539.357 267.979 538.105 270.16C539.543 268.924 540.977 267.707 542.437 266.382C543.875 264.209 545.344 262.266 546.789 260.163L546.793 260.17ZM562.291 244.989C560.449 246.115 558.609 247.259 556.762 248.407C555.444 250.232 554.139 252.157 552.826 254.015C554.524 252.779 556.222 251.523 557.921 250.3C559.372 248.515 560.832 246.728 562.287 244.982L562.291 244.989ZM570.797 239.738C569.199 240.705 567.596 241.706 565.995 242.704C564.813 244.093 563.641 245.575 562.467 246.986C563.977 245.882 565.487 244.778 566.985 243.692C568.251 242.366 569.517 241.033 570.793 239.731L570.797 239.738ZM579.193 234.551C578.009 235.257 576.815 236.011 575.623 236.754C574.929 237.449 574.244 238.203 573.551 238.903C574.922 237.895 576.295 236.838 577.659 235.909C578.168 235.454 578.679 234.989 579.189 234.544L579.193 234.551ZM587.157 229.622C586.82 229.827 586.488 230.035 586.157 230.243C586.049 230.338 585.94 230.44 585.832 230.534C586.109 230.354 586.385 230.182 586.662 230.002L587.157 229.622ZM1005.52 183.047C1005.94 183.196 1006.36 183.339 1006.78 183.495C1006.23 183.272 1005.69 183.045 1005.13 182.821L1005.52 183.047ZM993.115 178.69C994.952 179.292 996.769 179.993 998.606 180.62C997.419 179.965 996.231 179.363 995.044 178.741C993.377 178.125 991.723 177.515 990.065 176.904C991.077 177.509 992.084 178.069 993.115 178.69ZM980.87 174.909C982.802 175.491 984.76 175.977 986.688 176.586C985.567 175.93 984.442 175.293 983.32 174.633C981.295 173.927 979.263 173.246 977.231 172.565C978.433 173.354 979.646 174.136 980.87 174.909ZM968.524 171.345C971.1 172.057 973.668 172.821 976.244 173.579C974.727 172.641 973.212 171.598 971.696 170.69C968.872 169.771 966.052 168.793 963.218 167.93C964.976 169.054 966.767 170.173 968.524 171.345ZM955.403 167.878C958.198 168.563 960.996 169.243 963.78 169.98C962.082 168.864 960.384 167.79 958.689 166.698C956.014 165.925 953.328 165.232 950.644 164.507C952.234 165.643 953.82 166.771 955.406 167.88L955.403 167.878ZM942.945 165.084C945.925 165.732 948.905 166.379 951.873 167.085C950.165 165.905 948.439 164.608 946.742 163.439C943.426 162.572 940.137 161.535 936.823 160.748C938.856 162.169 940.897 163.579 942.948 165.086L942.945 165.084ZM929.383 162.15C932.717 162.78 936.009 163.571 939.326 164.274C937.329 162.82 935.344 161.433 933.355 160.034C930.325 159.34 927.27 158.795 924.232 158.169C925.953 159.501 927.672 160.836 929.386 162.152L929.383 162.15ZM916.829 160.148C920.046 160.665 923.272 161.101 926.486 161.69C924.7 160.33 922.907 158.9 921.111 157.543C917.629 156.846 914.163 156.022 910.667 155.407C912.727 156.961 914.768 158.503 916.832 160.15L916.829 160.148ZM903.205 157.998C906.767 158.472 910.291 159.141 913.839 159.693C911.743 158.03 909.648 156.434 907.576 154.84C904.348 154.3 901.085 153.965 897.853 153.525C899.648 154.998 901.441 156.494 903.205 157.998ZM890.451 156.687C893.816 157.006 897.198 157.215 900.544 157.63C898.77 156.171 897 154.664 895.215 153.168C891.646 152.685 888.087 152.131 884.522 151.73C886.494 153.345 888.474 154.961 890.461 156.672L890.451 156.687ZM502.173 281.651C499.834 283 497.497 284.341 495.16 285.677C494.555 289.228 494.004 292.904 493.418 296.529C495.581 295.064 497.748 293.593 499.918 292.116C500.669 288.585 501.411 285.073 502.18 281.647L502.173 281.651ZM510.709 276.754C508.404 278.094 506.116 279.394 503.827 280.702C503.066 284.062 502.34 287.527 501.619 290.969C503.746 289.536 505.861 288.12 507.987 286.641C508.886 283.312 509.795 279.986 510.721 276.74L510.709 276.754ZM519.179 271.889C516.908 273.254 514.682 274.482 512.455 275.75C511.549 278.909 510.667 282.177 509.789 285.419C511.853 284.034 513.898 282.699 515.992 281.212C517.062 278.068 518.117 274.939 519.191 271.876L519.179 271.889ZM527.749 266.616C525.523 267.988 523.259 269.464 521.036 270.826C519.991 273.775 518.968 276.816 517.949 279.839C520.009 278.339 522.099 276.73 524.159 275.231C525.357 272.314 526.551 269.437 527.761 266.602L527.749 266.616ZM536.372 261.201C534.19 262.572 531.998 263.957 529.815 265.327C528.649 268.031 527.507 270.829 526.361 273.596C528.383 272.107 530.403 270.61 532.42 269.105C533.749 266.418 535.065 263.773 536.392 261.176L536.372 261.201ZM545.025 255.76C542.897 257.122 540.789 258.431 538.679 259.751C537.416 262.197 536.172 264.739 534.923 267.235C536.873 265.8 538.819 264.378 540.78 262.892C542.213 260.472 543.621 258.086 545.045 255.735L545.025 255.76ZM553.72 250.278C551.674 251.621 549.658 252.834 547.646 254.082C546.318 256.232 545.029 258.485 543.715 260.685C545.14 259.645 546.562 258.615 548.013 257.499C548.44 257.163 548.867 256.886 549.294 256.563C550.778 254.456 552.247 252.347 553.72 250.278ZM569.585 236.117C567.379 237.25 565.17 238.399 562.959 239.563C561.552 241.425 560.189 243.591 558.787 245.505C560.87 244.21 562.952 242.914 565.034 241.647C566.558 239.85 568.06 237.861 569.585 236.117ZM578.983 231.236C576.916 232.285 574.842 233.379 572.771 234.462C571.411 235.994 570.09 237.797 568.735 239.36C570.741 238.121 572.721 236.865 574.701 235.676C576.135 234.239 577.552 232.636 578.985 231.233L578.983 231.236ZM588.513 226.283C586.692 227.182 584.87 228.163 583.029 229.133C581.856 230.255 580.707 231.553 579.53 232.693C581.458 231.476 583.384 230.232 585.298 229.13C586.37 228.218 587.441 227.174 588.515 226.28L588.513 226.283ZM597.53 221.785C596.483 222.282 595.444 222.698 594.392 223.23C593.272 224.137 592.148 225 591.03 225.925C592.232 225.271 593.43 224.639 594.634 223.975C595.597 223.268 596.565 222.47 597.532 221.782L597.53 221.785ZM1013.68 187.817C1015.26 188.343 1016.8 188.982 1018.37 189.522C1017.53 189.068 1016.68 188.649 1015.84 188.202C1014.59 187.727 1013.32 187.339 1012.06 186.87C1012.61 187.175 1013.14 187.503 1013.69 187.814L1013.68 187.817ZM1002.4 184.356C1004.2 184.916 1006.01 185.421 1007.81 186C1006.89 185.472 1006 184.954 1005.1 184.418C1003.19 183.74 1001.29 183.059 999.379 182.403C1000.39 183.019 1001.41 183.734 1002.4 184.353L1002.4 184.356ZM989.376 180.396C992.092 181.169 994.778 182.044 997.483 182.86C995.846 181.848 994.194 180.939 992.554 180C990.062 179.179 987.561 178.394 985.061 177.613C986.501 178.536 987.926 179.442 989.378 180.393L989.376 180.396ZM976.79 176.986C979.355 177.649 981.946 178.209 984.499 178.911C983.133 178.034 981.768 177.157 980.403 176.268C977.806 175.49 975.203 174.749 972.595 174.009C973.996 174.962 975.394 176.02 976.792 176.983L976.79 176.986ZM963.783 173.816C966.918 174.547 970.045 175.318 973.167 176.102C971.419 174.915 969.688 173.787 967.951 172.668C964.769 171.793 961.638 170.834 958.448 170.04C960.228 171.289 962.002 172.529 963.785 173.813L963.783 173.816ZM950.519 170.781C953.719 171.44 956.893 172.195 960.076 172.914L954.9 169.24C951.916 168.508 948.902 167.889 945.906 167.215C947.447 168.37 948.99 169.621 950.521 170.778L950.519 170.781ZM937.463 168.394C940.831 169.001 944.204 169.568 947.554 170.238C945.816 168.941 944.072 167.673 942.349 166.418C938.844 165.657 935.369 164.741 931.847 164.061C933.723 165.489 935.59 166.919 937.465 168.391L937.463 168.394ZM923.894 165.919C927.435 166.454 930.914 167.231 934.434 167.841C932.576 166.395 930.722 164.964 928.866 163.529C925.653 162.932 922.405 162.511 919.183 161.983C920.741 163.256 922.322 164.633 923.894 165.919ZM910.764 164.288C914.272 164.716 917.799 165.053 921.285 165.562C919.595 164.188 917.901 162.831 916.216 161.509C912.6 160.927 908.993 160.272 905.366 159.762C907.152 161.263 908.952 162.755 910.758 164.284L910.764 164.288ZM897.299 162.649C900.922 163.024 904.518 163.531 908.127 163.969C906.28 162.414 904.435 160.867 902.59 159.328C899.213 158.894 895.796 158.634 892.395 158.301C894.031 159.717 895.676 161.225 897.305 162.653L897.299 162.649ZM504.842 269.339C502.292 270.574 499.745 271.795 497.2 273.005C496.555 276.457 496.051 280.327 495.447 283.875C497.818 282.522 500.192 281.159 502.569 279.785C503.357 276.375 504.047 272.674 504.848 269.343L504.842 269.339ZM513.982 264.943C511.46 266.173 508.965 267.359 506.458 268.557C505.677 271.83 504.989 275.5 504.24 278.842C506.577 277.51 508.908 276.194 511.272 274.825C512.185 271.588 513.026 268.104 513.997 264.952L513.982 264.943ZM523.074 260.566C520.572 261.83 518.135 262.948 515.676 264.122C514.737 267.203 513.906 270.656 512.996 273.816C515.284 272.515 517.559 271.264 519.88 269.864C520.97 266.815 521.98 263.534 523.08 260.57L523.074 260.566ZM532.294 255.752C529.831 257.027 527.338 258.417 524.87 259.68C523.796 262.549 522.814 265.773 521.766 268.72C524.069 267.296 526.391 265.793 528.698 264.363C529.912 261.548 531.069 258.499 532.3 255.756L532.294 255.752ZM541.566 250.842C539.118 252.126 536.688 253.434 534.256 254.712C533.062 257.354 531.944 260.341 530.759 263.05C533.03 261.628 535.306 260.197 537.585 258.757C538.935 256.178 540.223 253.363 541.572 250.846L541.566 250.842ZM550.881 245.909C548.475 247.211 546.101 248.45 543.717 249.704C542.418 252.108 541.187 254.843 539.901 257.312C542.13 255.921 544.355 254.549 546.607 253.093C548.05 250.758 549.444 248.194 550.887 245.912L550.881 245.909ZM559.486 241.355C557.377 242.531 555.334 243.562 553.272 244.643C551.902 246.787 550.585 249.246 549.22 251.448C550.613 250.586 551.997 249.739 553.413 248.812C554.194 248.299 554.969 247.861 555.751 247.365C557.247 245.198 558.735 242.986 560.25 240.955C560.001 241.103 559.747 241.219 559.495 241.36L559.486 241.355ZM577.689 227.139C575.228 228.188 572.764 229.264 570.295 230.342C568.519 232.579 566.72 234.628 564.958 236.931C567.258 235.733 569.555 234.525 571.854 233.342C573.794 231.173 575.759 229.264 577.698 227.144L577.689 227.139ZM588.115 222.657C585.749 223.653 583.38 224.689 581.007 225.731C579.214 227.656 577.41 229.437 575.625 231.416C577.821 230.265 580.016 229.11 582.206 227.996C584.151 226.112 586.132 224.473 588.115 222.657ZM598.9 217.988C596.666 218.892 594.405 219.908 592.136 220.902C590.471 222.418 588.8 223.857 587.138 225.416C589.297 224.271 591.474 223.084 593.616 222.048C595.372 220.625 597.129 219.368 598.885 217.978L598.9 217.988ZM608.8 214.097C607.148 214.729 605.499 215.301 603.839 215.953C602.325 217.125 600.808 218.261 599.298 219.46C600.739 218.814 602.188 218.164 603.636 217.493C605.344 216.296 607.06 215.245 608.785 214.088L608.8 214.097ZM617.558 210.808C616.616 211.162 615.673 211.515 614.729 211.865C613.762 212.507 612.816 213.113 611.861 213.749C612.596 213.423 613.33 213.079 614.062 212.75C615.232 212.068 616.394 211.473 617.558 210.808ZM1034.73 197.179C1035.67 197.497 1036.62 197.77 1037.55 198.096L1037.14 197.876C1036.08 197.468 1035 197.108 1033.92 196.713L1034.73 197.179ZM1023.7 193.67C1025.38 194.207 1027.06 194.722 1028.73 195.273C1028.05 194.891 1027.38 194.464 1026.7 194.084C1024.67 193.351 1022.63 192.571 1020.59 191.854C1021.63 192.449 1022.67 193.021 1023.71 193.658L1023.7 193.67ZM1010.05 189.31C1012.57 190.044 1015.05 190.927 1017.56 191.706C1016.1 190.832 1014.64 190 1013.19 189.15C1011.06 188.44 1008.9 187.872 1006.77 187.19C1007.87 187.895 1008.96 188.595 1010.05 189.31ZM998.035 185.99C1000.45 186.655 1002.91 187.205 1005.32 187.897C1004.19 187.201 1003.08 186.452 1001.96 185.722C999.233 184.862 996.489 184.027 993.745 183.219C995.189 184.124 996.619 185.016 998.05 185.987L998.035 185.99ZM984.45 182.43C987.535 183.195 990.6 184.032 993.668 184.845C992.058 183.767 990.446 182.755 988.837 181.724C985.878 180.883 982.923 180.028 979.95 179.236L984.45 182.43ZM971.532 179.323C974.578 180.004 977.618 180.708 980.652 181.434C979.209 180.422 977.775 179.396 976.317 178.342C973.203 177.537 970.069 176.804 966.94 176.052C968.479 177.122 970.012 178.182 971.547 179.32L971.532 179.323ZM957.949 176.537C961.331 177.209 964.719 177.878 968.082 178.608C966.45 177.414 964.827 176.283 963.192 175.141C959.779 174.346 956.396 173.42 952.966 172.685L957.949 176.537ZM944.451 173.807C947.946 174.417 951.375 175.227 954.844 175.899C953.23 174.662 951.613 173.403 949.996 172.143C946.651 171.452 943.269 170.92 939.905 170.292C941.446 171.454 942.957 172.591 944.477 173.811L944.451 173.807ZM930.936 171.815C934.471 172.346 938.042 172.785 941.553 173.376C939.98 172.119 938.414 170.932 936.847 169.733C933.254 169.087 929.687 168.333 926.072 167.756C927.712 169.114 929.342 170.468 930.962 171.819L930.936 171.815ZM917.352 169.813C921.014 170.279 924.62 170.896 928.263 171.42C926.605 170.048 924.941 168.644 923.277 167.252C919.799 166.722 916.255 166.413 912.752 165.971C914.31 167.244 915.837 168.489 917.378 169.817L917.352 169.813ZM903.649 168.345C907.309 168.681 910.985 168.97 914.614 169.41C913.113 168.124 911.62 166.891 910.125 165.649C906.466 165.198 902.812 164.713 899.137 164.313C900.67 165.662 902.173 167.012 903.675 168.349L903.649 168.345ZM507.938 256.965C505.205 258.067 502.478 259.153 499.757 260.223C499.003 263.955 498.17 267.477 497.454 271.315C500.03 270.086 502.608 268.847 505.186 267.598C506.106 263.96 507.05 260.511 507.964 256.969L507.938 256.965ZM517.689 253.074C514.977 254.183 512.298 255.23 509.602 256.299C508.682 259.837 507.704 263.187 506.818 266.83C509.364 265.609 511.899 264.412 514.468 263.152C515.537 259.702 516.64 256.425 517.717 253.075L517.689 253.074ZM527.444 249.214C524.742 250.354 522.126 251.341 519.477 252.389C518.387 255.732 517.251 258.897 516.19 262.341C518.702 261.141 521.179 260.011 523.733 258.709C524.936 255.457 526.19 252.356 527.444 249.214ZM537.356 244.848C534.691 246.003 531.988 247.229 529.322 248.391C528.072 251.54 526.78 254.514 525.551 257.754C528.084 256.427 530.639 255.043 533.159 253.729C534.524 250.676 535.94 247.796 537.344 244.841L537.356 244.848ZM547.324 240.451C544.669 241.625 542.018 242.79 539.374 243.947C537.964 246.897 536.502 249.638 535.114 252.681C537.623 251.361 540.135 250.031 542.651 248.69C544.19 245.852 545.761 243.196 547.312 240.444L547.324 240.451ZM557.368 236.006C554.734 237.196 552.142 238.317 549.54 239.457C547.976 242.209 546.355 244.711 544.809 247.549C547.275 246.234 549.757 244.962 552.266 243.6C553.947 240.974 555.667 238.558 557.368 236.006ZM564.77 232.729C563.096 233.504 561.466 234.2 559.823 234.911C558.135 237.422 556.405 239.699 554.73 242.284C556.077 241.583 557.418 240.891 558.793 240.133C559.856 239.551 560.911 239.042 561.977 238.481C563.798 236.07 565.641 233.891 567.494 231.561C566.599 231.958 565.703 232.31 564.785 232.738L564.77 232.729ZM585.867 218.495C583.072 219.471 580.269 220.473 577.465 221.476C575.697 223.607 573.938 225.812 572.186 228.011C574.837 226.86 577.486 225.699 580.126 224.579C582.05 222.515 583.969 220.49 585.882 218.505L585.867 218.495ZM597.071 214.515C594.323 215.461 591.553 216.476 588.799 217.452C586.998 219.302 585.215 221.245 583.411 223.146C586.046 221.994 588.685 220.823 591.31 219.735C593.249 217.97 595.169 216.215 597.095 214.509L597.071 214.515ZM608.691 210.39C606.005 211.263 603.268 212.291 600.543 213.28C598.81 214.8 597.079 216.424 595.347 217.982C597.937 216.855 600.523 215.73 603.087 214.72C604.979 213.265 606.845 211.791 608.715 210.384L608.691 210.39ZM619.376 207.109C617.106 207.818 614.845 208.478 612.578 209.168C610.903 210.406 609.229 211.776 607.552 213.05C609.703 212.247 611.858 211.437 614.018 210.62C615.833 209.449 617.62 208.243 619.4 207.104L619.376 207.109ZM629.92 203.915C627.994 204.489 626.064 205.082 624.14 205.665C622.754 206.536 621.35 207.503 619.974 208.392C621.886 207.673 623.806 206.942 625.712 206.248C627.146 205.473 628.547 204.665 629.945 203.909L629.92 203.915ZM640.309 200.765C638.969 201.147 637.614 201.579 636.252 201.977C635.676 202.278 635.098 202.632 634.522 202.941C636.143 202.327 637.762 201.715 639.391 201.173C639.727 201.046 640.029 200.898 640.333 200.76L640.309 200.765ZM1055.7 206.458L1055.94 206.538L1055.65 206.43L1055.7 206.458ZM1043.77 202.477C1045.66 203.096 1047.55 203.725 1049.43 204.365C1048.84 204.035 1048.23 203.733 1047.64 203.408C1045.51 202.627 1043.41 201.772 1041.26 201.006C1042.11 201.504 1042.94 201.978 1043.77 202.477ZM1030.55 198.063C1032.85 198.772 1035.09 199.63 1037.4 200.357C1036.38 199.755 1035.36 199.164 1034.35 198.56C1032.37 197.882 1030.35 197.303 1028.36 196.647C1029.08 197.118 1029.81 197.602 1030.55 198.063ZM1018.32 194.642C1020.91 195.381 1023.53 196.046 1026.1 196.818C1025.14 196.222 1024.18 195.576 1023.22 194.997C1020.35 194.079 1017.51 193.122 1014.63 192.25C1015.86 193.048 1017.09 193.828 1018.32 194.645L1018.32 194.642ZM1005 190.915C1007.96 191.695 1010.87 192.562 1013.82 193.383C1012.41 192.461 1010.99 191.56 1009.58 190.643C1006.86 189.834 1004.11 189.1 1001.36 188.336C1002.57 189.211 1003.78 190.075 1005 190.918L1005 190.915ZM991.791 187.614C994.886 188.362 998.015 189.035 1001.09 189.823C999.908 189.011 998.724 188.122 997.539 187.328C994.294 186.442 991.034 185.593 987.77 184.762C989.104 185.71 990.447 186.643 991.789 187.617L991.791 187.614ZM978.361 184.58C981.662 185.302 984.96 186.038 988.242 186.81C986.81 185.78 985.369 184.766 983.955 183.747C980.664 182.954 977.424 182.046 974.125 181.293C975.54 182.411 976.954 183.516 978.359 184.603L978.361 184.58ZM964.497 181.578C968.082 182.277 971.615 183.085 975.169 183.855C973.773 182.807 972.375 181.682 970.984 180.653C967.516 179.879 964.003 179.232 960.529 178.507C961.869 179.538 963.193 180.55 964.516 181.594L964.497 181.578ZM951.039 179.258C954.538 179.862 958.062 180.404 961.535 181.063C960.158 179.984 958.774 178.943 957.405 177.866C953.849 177.16 950.331 176.321 946.758 175.683C948.207 176.893 949.638 178.111 951.064 179.278L951.039 179.258ZM936.992 176.855C940.802 177.436 944.556 178.169 948.344 178.807C946.861 177.606 945.379 176.356 943.9 175.174C940.315 174.557 936.672 174.12 933.064 173.572C934.372 174.661 935.679 175.746 936.992 176.855ZM923.38 175.092C926.98 175.539 930.632 175.854 934.203 176.375C932.929 175.312 931.655 174.25 930.381 173.187C926.728 172.653 923.094 172.047 919.423 171.568C920.742 172.714 922.068 173.942 923.38 175.092ZM909.343 173.442C913.218 173.865 917.09 174.341 920.946 174.827C919.533 173.599 918.122 172.375 916.715 171.184C912.977 170.721 909.214 170.338 905.444 169.971C906.755 171.103 908.053 172.256 909.35 173.43L909.343 173.442ZM511.331 244.666C508.379 245.64 505.449 246.581 502.52 247.544C501.724 251.183 500.921 254.819 500.152 258.587C502.901 257.484 505.671 256.403 508.442 255.285C509.384 251.665 510.355 248.179 511.331 244.666ZM521.719 241.289C518.775 242.279 515.885 243.187 512.962 244.141C511.997 247.598 511.029 251.058 510.093 254.615C512.833 253.528 515.551 252.476 518.317 251.347C519.428 247.909 520.578 244.616 521.719 241.289ZM532.107 237.866C529.169 238.893 526.313 239.793 523.421 240.737C522.291 244.005 521.161 247.274 520.057 250.641C522.762 249.556 525.44 248.522 528.196 247.349C529.48 244.113 530.799 241.007 532.107 237.866ZM542.687 234.032C539.777 235.073 536.822 236.16 533.927 237.21C532.638 240.28 531.365 243.365 530.084 246.516C532.82 245.314 535.579 244.077 538.309 242.884C539.752 239.867 541.221 236.961 542.687 234.032ZM553.341 230.179C550.432 231.246 547.529 232.297 544.632 233.334C543.206 236.171 541.766 239.058 540.348 241.995C543.071 240.802 545.8 239.596 548.536 238.378C550.116 235.586 551.724 232.882 553.332 230.173L553.341 230.179ZM564.092 226.282C561.179 227.374 558.32 228.38 555.444 229.42C553.878 232.034 552.316 234.694 550.757 237.399C553.462 236.216 556.151 235.063 558.891 233.815C560.606 231.247 562.349 228.754 564.083 226.276L564.092 226.282ZM570.102 224.1C568.854 224.567 567.624 225.01 566.396 225.445C564.713 227.827 563.042 230.264 561.372 232.72C562.313 232.314 563.253 231.911 564.215 231.465C565.954 230.659 567.677 229.972 569.408 229.22C571.252 226.905 573.076 224.623 574.938 222.386C573.315 222.957 571.721 223.476 570.093 224.094L570.102 224.1ZM593.706 210.241C590.631 211.101 587.541 211.997 584.456 212.88C582.679 214.918 580.954 217.29 579.188 219.397C582.131 218.343 585.08 217.286 588.017 216.262C589.906 214.302 591.785 212.124 593.697 210.236L593.706 210.241ZM605.57 206.859C602.523 207.694 599.448 208.6 596.382 209.478C594.565 211.247 592.766 213.375 590.952 215.213C593.91 214.148 596.871 213.065 599.807 212.069C601.724 210.386 603.634 208.48 605.561 206.853L605.57 206.859ZM617.746 203.421C614.833 204.166 611.873 205.047 608.919 205.904C607.032 207.465 605.164 209.223 603.282 210.837C606.178 209.825 609.071 208.832 611.928 207.916C613.869 206.462 615.795 204.805 617.737 203.415L617.746 203.421ZM629.165 200.692C626.652 201.305 624.152 201.896 621.65 202.486C619.674 203.876 617.7 205.33 615.723 206.761C618.327 205.976 620.928 205.189 623.529 204.399C625.398 203.215 627.28 201.829 629.156 200.687L629.165 200.692ZM640.681 197.941C638.491 198.452 636.292 198.985 634.097 199.513C632.151 200.653 630.224 201.764 628.297 202.954C630.773 202.194 633.253 201.421 635.718 200.705C637.374 199.84 639.021 198.779 640.672 197.936L640.681 197.941ZM652.477 195.124C650.764 195.5 649.026 195.937 647.296 196.36C645.656 197.173 644.027 197.848 642.379 198.694C644.571 198.019 646.762 197.352 648.93 196.762C650.105 196.232 651.296 195.617 652.468 195.119L652.477 195.124ZM662.793 192.896C662.25 193.011 661.72 193.093 661.175 193.206C660.07 193.655 658.977 194.05 657.886 194.512C658.605 194.332 659.338 194.17 660.054 193.968C660.962 193.624 661.888 193.209 662.793 192.896ZM1063.58 211.108C1065.14 211.635 1066.68 212.199 1068.24 212.726C1067.83 212.497 1067.4 212.285 1067 212.063C1065.25 211.395 1063.52 210.672 1061.76 210.031C1062.35 210.388 1062.97 210.744 1063.58 211.108ZM1051.28 206.969C1053.17 207.564 1055.05 208.178 1056.92 208.799C1056.37 208.484 1055.83 208.155 1055.28 207.831C1053.44 207.184 1051.57 206.603 1049.72 205.974C1050.24 206.293 1050.76 206.642 1051.28 206.969ZM1038.38 203.128C1040.92 203.871 1043.46 204.612 1045.98 205.382C1045.08 204.827 1044.2 204.335 1043.31 203.811C1040.64 202.93 1038 201.991 1035.32 201.142L1038.38 203.128ZM1025.37 199.276C1028.18 200.049 1030.92 200.938 1033.71 201.745C1032.51 200.98 1031.32 200.203 1030.12 199.414C1027.57 198.632 1024.94 198.001 1022.37 197.243C1023.37 197.915 1024.37 198.604 1025.37 199.288L1025.37 199.276ZM1011.84 195.79C1014.87 196.562 1017.95 197.223 1020.97 198.031C1019.92 197.33 1018.87 196.669 1017.82 195.999C1014.7 195.107 1011.58 194.207 1008.43 193.369C1009.57 194.173 1010.71 194.971 1011.84 195.79ZM998.615 192.542C1001.83 193.287 1005.01 194.099 1008.19 194.895C1006.96 194.028 1005.74 193.153 1004.51 192.27C1001.28 191.418 998.059 190.578 994.812 189.774C996.082 190.672 997.352 191.592 998.621 192.533L998.615 192.542ZM984.414 189.27C987.977 190.03 991.51 190.854 995.047 191.663C993.784 190.734 992.523 189.856 991.261 188.973C987.874 188.156 984.447 187.423 981.033 186.661L984.414 189.27ZM971.062 186.652C974.505 187.312 977.961 187.952 981.38 188.664C980.204 187.764 979.025 186.852 977.842 185.928C974.198 185.131 970.609 184.198 966.951 183.471C968.317 184.513 969.682 185.538 971.062 186.652ZM956.485 183.801C960.352 184.463 964.128 185.321 967.967 186.045C966.628 184.978 965.29 183.977 963.964 182.943C960.419 182.253 956.809 181.729 953.243 181.095C954.329 182.006 955.411 182.909 956.491 183.804L956.485 183.801ZM942.859 181.752C946.486 182.295 950.162 182.74 953.765 183.343C952.685 182.452 951.603 181.54 950.521 180.632C946.742 179.974 942.975 179.275 939.171 178.676C940.397 179.686 941.621 180.69 942.856 181.75L942.859 181.752ZM928.498 179.663C932.41 180.18 936.274 180.795 940.165 181.36C938.9 180.281 937.641 179.239 936.379 178.195C932.695 177.637 928.949 177.231 925.236 176.747C926.321 177.723 927.406 178.699 928.495 179.661L928.498 179.663ZM914.374 177.918C918.258 178.327 922.126 178.808 925.974 179.302C924.922 178.374 923.865 177.42 922.809 176.466C918.953 175.971 915.074 175.533 911.202 175.079C912.27 176.028 913.311 176.948 914.371 177.917L914.374 177.918ZM514.653 232.547C511.483 233.381 508.348 234.176 505.208 234.974C504.373 238.474 503.657 242.337 502.857 245.942C505.828 244.976 508.792 244.027 511.786 243.039C512.745 239.586 513.648 235.901 514.652 232.543L514.653 232.547ZM525.656 229.703C522.488 230.559 519.39 231.322 516.259 232.131C515.264 235.441 514.375 239.11 513.412 242.523C516.366 241.564 519.296 240.651 522.282 239.641C523.415 236.362 524.492 232.871 525.655 229.698L525.656 229.703ZM536.693 226.763C533.53 227.651 530.44 228.448 527.32 229.272C526.17 232.4 525.112 235.865 523.984 239.09C526.923 238.116 529.844 237.17 532.844 236.131C534.131 233.038 535.372 229.744 536.692 226.758L536.693 226.763ZM547.894 223.483C544.755 224.386 541.586 225.337 538.45 226.242C537.153 229.158 535.927 232.434 534.642 235.457C537.609 234.398 540.608 233.281 543.573 232.217C545.031 229.349 546.433 226.27 547.894 223.483ZM559.184 220.187C556.029 221.13 552.899 222.031 549.766 222.937C548.317 225.657 546.949 228.708 545.522 231.512C548.486 230.451 551.45 229.39 554.44 228.28C556.028 225.629 557.577 222.76 559.184 220.187ZM570.581 216.859C567.409 217.828 564.312 218.696 561.187 219.603C559.609 222.103 558.101 224.939 556.544 227.518C559.505 226.455 562.447 225.422 565.452 224.288C567.17 221.862 568.848 219.214 570.594 216.871L570.581 216.859ZM575.4 215.453C574.503 215.725 573.626 215.98 572.749 216.228C571.065 218.492 569.434 221.104 567.75 223.468C568.36 223.25 568.962 223.04 569.585 222.801C571.949 221.902 574.261 221.145 576.606 220.309C578.422 218.126 580.225 215.691 582.063 213.566C579.846 214.188 577.642 214.764 575.398 215.456L575.4 215.453ZM602.518 201.965C599.204 202.681 595.867 203.437 592.54 204.182C590.42 206.475 588.275 208.547 586.171 210.928C589.318 210.025 592.477 209.11 595.617 208.232C597.899 206.006 600.22 204.11 602.516 201.968L602.518 201.965ZM615.305 199.124C611.991 199.802 608.656 200.593 605.325 201.344C603.118 203.377 600.897 205.244 598.711 207.363C601.89 206.435 605.063 205.504 608.214 204.649C610.565 202.685 612.94 201.004 615.305 199.124ZM628.238 196.409C625.034 197.028 621.798 197.706 618.556 198.401C616.327 200.147 614.089 201.789 611.865 203.6C614.941 202.746 617.996 201.943 621.031 201.191C623.433 199.506 625.836 198.028 628.238 196.409ZM640.722 194.153C637.733 194.699 634.749 195.231 631.762 195.773C629.511 197.274 627.275 198.69 625.029 200.236L633.519 198.206C635.921 196.781 638.309 195.534 640.722 194.153ZM653.532 191.838C650.695 192.325 647.832 192.861 644.977 193.386C642.828 194.587 640.683 195.762 638.531 197.01C641.286 196.34 644.04 195.658 646.777 195.044C649.028 193.918 651.277 192.916 653.532 191.838ZM666.952 189.413C664.289 189.833 661.575 190.362 658.867 190.875C657.053 191.716 655.241 192.58 653.425 193.45C655.881 192.876 658.329 192.348 660.75 191.857C662.822 191.009 664.883 190.229 666.952 189.413ZM678.405 187.813C676.57 188.079 674.744 188.327 672.927 188.56C671.377 189.152 669.825 189.783 668.272 190.389C670 190.069 671.732 189.73 673.466 189.393C675.106 188.861 676.74 188.346 678.402 187.819L678.405 187.813ZM689.106 186.327L686.479 186.696C685.94 186.858 685.397 187.047 684.86 187.215C685.914 187.015 686.983 186.792 688.035 186.607L689.106 186.327ZM1083.13 219.542C1084.31 219.95 1085.46 220.391 1086.64 220.805L1086.01 220.471C1084.89 220.053 1083.75 219.653 1082.63 219.246L1083.13 219.542ZM1070.94 215.452C1072.74 216.041 1074.59 216.548 1076.37 217.152C1076.26 217.084 1076.14 217.012 1076.03 216.942C1073.97 216.204 1071.88 215.5 1069.81 214.777C1070.19 215.009 1070.57 215.222 1070.94 215.452ZM1058.22 211.475C1060.52 212.185 1062.81 212.894 1065.1 213.625L1063.11 212.452C1060.67 211.628 1058.28 210.704 1055.82 209.913C1056.61 210.443 1057.42 210.964 1058.22 211.475ZM1044.72 207.27C1047.64 208.114 1050.47 209.091 1053.36 209.968C1052.52 209.452 1051.7 208.859 1050.86 208.343C1048.13 207.482 1045.34 206.724 1042.59 205.891C1043.31 206.338 1044.02 206.789 1044.73 207.261L1044.72 207.27ZM1031.72 203.814C1034.59 204.596 1037.52 205.293 1040.37 206.103C1039.55 205.561 1038.73 205.035 1037.9 204.499C1034.91 203.613 1031.95 202.689 1028.94 201.853C1029.87 202.509 1030.8 203.159 1031.72 203.805L1031.72 203.814ZM1018.05 200.198C1021.37 201.037 1024.66 201.939 1027.96 202.817C1026.94 202.114 1025.92 201.342 1024.9 200.641C1021.62 199.738 1018.31 198.897 1015 198.032C1016.03 198.742 1017.04 199.451 1018.05 200.189L1018.05 200.198ZM1004.16 196.83C1007.52 197.617 1010.89 198.364 1014.22 199.187C1013.26 198.498 1012.3 197.823 1011.35 197.143C1008.05 196.303 1004.73 195.492 1001.4 194.71C1002.33 195.405 1003.26 196.128 1004.16 196.83ZM990.283 193.81C993.875 194.583 997.488 195.337 1001.05 196.155C1000.08 195.424 999.105 194.621 998.127 193.889C994.385 193.015 990.694 192.04 986.925 191.218C988.051 192.067 989.163 192.932 990.29 193.798L990.283 193.81ZM975.878 190.693C979.664 191.434 983.356 192.335 987.109 193.129C986.036 192.289 984.958 191.462 983.885 190.629C980.392 189.888 976.846 189.254 973.328 188.568C974.188 189.265 975.036 189.987 975.889 190.675L975.878 190.693ZM961.834 188.292C965.602 188.967 969.447 189.513 973.185 190.232C972.281 189.499 971.371 188.722 970.465 188.006C966.559 187.245 962.688 186.407 958.741 185.719C959.786 186.551 960.817 187.399 961.845 188.274L961.834 188.292ZM947.579 185.83C951.447 186.451 955.283 187.132 959.121 187.801L955.934 185.134C952.312 184.515 948.615 184.045 944.956 183.486C945.806 184.247 946.686 185.072 947.579 185.83ZM933.023 183.686C937.018 184.25 941.044 184.763 945.001 185.389C944.086 184.593 943.174 183.847 942.277 183.103C938.339 182.521 934.408 181.914 930.448 181.38L933.023 183.686ZM918.848 181.918C922.736 182.42 926.671 182.84 930.539 183.382L927.874 181C923.971 180.489 920.085 179.943 916.148 179.506C917.068 180.314 917.946 181.088 918.848 181.918ZM518.39 220.469C515.032 221.15 511.706 221.793 508.367 222.457C507.416 226.112 506.434 229.675 505.525 233.456C508.711 232.631 511.877 231.832 515.076 230.986C516.156 227.398 517.274 223.941 518.39 220.469ZM530.03 218.159C526.661 218.866 523.379 219.478 520.056 220.135C518.93 223.604 517.771 226.987 516.689 230.566C519.856 229.75 522.988 228.979 526.199 228.108C527.449 224.72 528.739 221.447 530.026 218.165L530.03 218.159ZM541.745 215.701C538.392 216.442 535.071 217.13 531.751 217.817C530.45 221.1 529.125 224.276 527.86 227.676C531.019 226.835 534.171 225.998 537.376 225.094C538.812 221.887 540.282 218.812 541.742 215.707L541.745 215.701ZM553.643 212.987C550.284 213.738 546.918 214.533 543.576 215.282C542.101 218.391 540.592 221.363 539.144 224.584C542.332 223.661 545.55 222.704 548.739 221.774C550.354 218.76 552.002 215.911 553.64 212.993L553.643 212.987ZM565.644 210.247C562.256 211.045 558.927 211.786 555.585 212.543C553.928 215.465 552.236 218.204 550.622 221.243C553.814 220.323 557.002 219.401 560.22 218.431C562.004 215.604 563.834 212.983 565.641 210.253L565.644 210.247ZM577.784 207.477C574.384 208.293 571.077 209.013 567.73 209.771C565.901 212.509 564.027 215.007 562.22 217.845C565.414 216.926 568.589 216.033 571.841 215.034C573.796 212.404 575.804 210.025 577.781 207.483L577.784 207.477ZM580.71 206.805C580.49 206.86 580.276 206.905 580.055 206.955C578.071 209.497 576.02 211.758 574.04 214.393C574.356 214.304 574.669 214.212 574.989 214.116C577.89 213.223 580.736 212.474 583.6 211.661C585.733 209.219 587.906 207.083 590.048 204.733C586.936 205.426 583.851 206.053 580.704 206.814L580.71 206.805ZM598.133 196.161C594.546 196.745 590.967 197.302 587.346 197.94C585.376 200.305 583.424 202.748 581.471 205.206C584.925 204.39 588.341 203.667 591.76 202.92C593.878 200.631 596 198.381 598.128 196.17L598.133 196.161ZM611.292 193.991C607.698 194.559 604.082 195.176 600.474 195.773C598.394 197.908 596.323 200.149 594.254 202.366C597.699 201.603 601.165 200.807 604.606 200.065C606.828 198.021 609.051 195.97 611.286 194L611.292 193.991ZM624.764 191.763C621.18 192.3 617.522 192.953 613.896 193.559C611.73 195.444 609.577 197.476 607.419 199.436C610.917 198.647 614.434 197.816 617.89 197.109C620.176 195.324 622.465 193.495 624.758 191.772L624.764 191.763ZM638.208 189.786C634.715 190.264 631.227 190.749 627.706 191.279C625.507 192.904 623.32 194.701 621.126 196.391C624.496 195.704 627.83 195.087 631.173 194.451C633.528 192.902 635.872 191.284 638.208 189.786ZM651.474 188.092C648.111 188.521 644.746 188.938 641.39 189.377C639.158 190.774 636.931 192.356 634.699 193.812C637.948 193.222 641.191 192.636 644.429 192.056C646.788 190.749 649.137 189.358 651.483 188.097L651.474 188.092ZM665.098 186.354C661.828 186.739 658.524 187.18 655.222 187.61C653.05 188.748 650.867 190.092 648.69 191.28C651.924 190.684 655.172 190.067 658.375 189.53C660.627 188.496 662.872 187.359 665.107 186.36L665.098 186.354ZM678.96 184.673C675.867 184.993 672.737 185.372 669.622 185.774C667.659 186.627 665.679 187.676 663.718 188.567C666.667 188.072 669.585 187.648 672.505 187.213C674.667 186.4 676.836 185.459 678.972 184.68L678.96 184.673ZM691.663 183.528C689.08 183.772 686.505 184.003 683.938 184.221C682.112 184.873 680.265 185.707 678.44 186.384C680.989 186.031 683.537 185.678 686.086 185.324C687.964 184.762 689.832 184.094 691.699 183.55L691.663 183.528ZM704.359 182.394C702.29 182.57 700.205 182.765 698.123 182.954C696.815 183.331 695.494 183.808 694.176 184.208C696.445 183.883 698.727 183.537 700.99 183.262C702.127 183.002 703.259 182.669 704.374 182.403L704.359 182.394ZM717.005 181.263C716.087 181.328 715.14 181.428 714.212 181.512C713.728 181.626 713.24 181.692 712.755 181.801C713.747 181.688 714.72 181.627 715.713 181.518C716.16 181.451 716.593 181.347 717.02 181.272L717.005 181.263ZM1090.04 223.639C1090.96 223.946 1091.89 224.236 1092.79 224.539L1089.63 223.411L1090.04 223.639ZM1077.85 219.633C1079.89 220.282 1081.9 220.964 1083.94 221.629L1082.67 220.877C1080.52 220.135 1078.42 219.32 1076.25 218.591C1076.78 218.929 1077.31 219.3 1077.85 219.633ZM1064.02 215.225C1066.73 216.04 1069.41 216.899 1072.1 217.735C1071.56 217.402 1071.01 217.094 1070.47 216.77C1067.88 215.921 1065.24 215.144 1062.64 214.322L1064.02 215.225ZM1051.42 211.665C1054.13 212.436 1056.86 213.169 1059.55 213.962L1057.78 212.807C1054.91 211.921 1052.07 210.979 1049.18 210.122C1049.92 210.64 1050.67 211.174 1051.42 211.687L1051.42 211.665ZM1037.14 207.628C1040.5 208.52 1043.78 209.52 1047.12 210.449C1046.16 209.803 1045.19 209.193 1044.23 208.574C1041.21 207.695 1038.08 206.97 1035.03 206.13L1037.14 207.628ZM1023.78 204.239C1026.91 205.018 1030.1 205.704 1033.2 206.517L1031.26 205.13C1027.97 204.239 1024.67 203.366 1021.36 202.51C1022.16 203.098 1022.97 203.662 1023.78 204.261L1023.78 204.239ZM1009.36 200.805C1012.98 201.638 1016.59 202.496 1020.18 203.379C1019.3 202.734 1018.42 202.121 1017.53 201.501C1013.96 200.596 1010.39 199.673 1006.8 198.829L1009.36 200.805ZM995.091 197.483C998.806 198.279 1002.43 199.193 1006.11 200.027C1005.3 199.41 1004.5 198.783 1003.68 198.149C1000.13 197.319 996.503 196.604 992.92 195.807C993.633 196.375 994.354 196.921 995.08 197.501L995.091 197.483ZM980.727 194.681C984.49 195.42 988.296 196.102 992.028 196.884C991.267 196.281 990.505 195.699 989.744 195.117C985.902 194.293 982.124 193.392 978.244 192.614L980.727 194.681ZM966.152 191.84C970.113 192.552 973.994 193.38 977.922 194.134C977.072 193.439 976.223 192.725 975.376 192.007C971.641 191.278 967.794 190.743 964.025 190.067C964.726 190.674 965.43 191.254 966.141 191.858L966.152 191.84ZM951.547 189.368C955.46 189.997 959.402 190.594 963.282 191.277C962.609 190.705 961.936 190.148 961.264 189.588C957.368 188.904 953.469 188.226 949.546 187.586C950.215 188.21 950.883 188.809 951.548 189.394L951.547 189.368ZM936.889 187.137C940.958 187.723 945.007 188.339 949.036 188.986C948.351 188.389 947.664 187.766 946.977 187.144C942.956 186.502 938.913 185.909 934.863 185.327C935.532 185.951 936.213 186.55 936.89 187.162L936.889 187.137ZM922.068 184.941C926.209 185.475 930.229 186.186 934.331 186.771L932.395 185.037C928.501 184.491 924.538 184.07 920.627 183.551C921.1 184.024 921.588 184.499 922.068 184.941ZM522.486 208.51C518.912 209.033 515.372 209.527 511.813 210.039C510.793 213.644 509.764 217.218 508.793 220.952C512.168 220.282 515.528 219.631 518.921 218.946C520.076 215.363 521.291 211.965 522.486 208.51ZM534.766 206.752C531.162 207.31 527.666 207.773 524.123 208.278C522.937 211.677 521.739 215.069 520.573 218.616C523.937 217.951 527.258 217.33 530.668 216.611C532.009 213.229 533.386 210.031 534.766 206.752ZM547.148 204.788C543.568 205.374 539.984 205.952 536.442 206.503C535.081 209.723 533.712 212.93 532.383 216.266C535.742 215.56 539.125 214.833 542.531 214.087C544.06 210.904 545.618 207.867 547.162 204.793L547.148 204.788ZM559.707 202.632C556.122 203.239 552.509 203.87 548.938 204.469C547.405 207.492 545.873 210.52 544.371 213.654C547.771 212.891 551.2 212.089 554.612 211.305C556.293 208.365 558.006 205.519 559.711 202.652L559.707 202.632ZM572.373 200.476C568.751 201.11 565.171 201.708 561.583 202.313C559.897 205.122 558.213 207.961 556.55 210.875C559.965 210.093 563.369 209.337 566.809 208.537C568.656 205.795 570.516 203.147 572.377 200.496L572.373 200.476ZM585.19 198.29C581.523 198.962 577.976 199.522 574.375 200.135C572.537 202.721 570.711 205.361 568.897 208.055C572.325 207.281 575.707 206.548 579.197 205.706C581.187 203.208 583.194 200.73 585.195 198.309L585.19 198.29ZM605.951 187.853C602.15 188.268 598.347 188.686 594.519 189.143C592.54 191.382 590.616 193.966 588.654 196.299C592.357 195.661 596.03 195.072 599.707 194.477C601.801 192.353 603.847 189.94 605.956 187.872L605.951 187.853ZM619.875 186.279C616.069 186.688 612.231 187.142 608.411 187.575C606.277 189.636 604.172 191.938 602.048 194.089C605.737 193.475 609.485 192.838 613.182 192.25C615.424 190.322 617.635 188.164 619.879 186.299L619.875 186.279ZM634.191 184.66C630.389 185.029 626.498 185.521 622.633 185.959C620.338 187.846 618.065 189.851 615.78 191.815C619.546 191.183 623.342 190.496 627.057 189.953C629.444 188.218 631.814 186.364 634.195 184.679L634.191 184.66ZM648.367 183.387C644.691 183.706 641.046 183.975 637.352 184.324C634.909 186.021 632.466 187.713 630.026 189.486C633.655 188.968 637.232 188.534 640.843 188.047C643.351 186.477 645.857 184.885 648.367 183.387ZM662.545 182.265C658.961 182.545 655.37 182.831 651.774 183.121C649.189 184.627 646.608 186.052 644.021 187.635C647.59 187.171 651.154 186.716 654.713 186.271C657.33 184.901 659.94 183.576 662.545 182.265ZM677.213 181.106C673.697 181.342 670.127 181.657 666.56 181.96C663.858 183.287 661.165 184.412 658.463 185.812C662.041 185.337 665.635 184.843 669.171 184.442C671.863 183.258 674.533 182.218 677.213 181.106ZM691.843 180.151C688.594 180.334 685.357 180.499 682.076 180.727C679.47 181.778 676.875 182.678 674.264 183.784C677.395 183.437 680.47 183.18 683.583 182.869C686.347 181.875 689.084 181.087 691.843 180.151ZM705.825 179.527C702.951 179.661 700.08 179.79 697.209 179.914C694.715 180.732 692.232 181.449 689.731 182.317L697.821 181.589C700.508 180.816 703.148 180.257 705.825 179.527ZM720.232 178.877C717.724 178.98 715.197 179.1 712.675 179.219C710.616 179.753 708.571 180.245 706.508 180.805C708.983 180.574 711.474 180.32 713.918 180.14C716.046 179.674 718.132 179.331 720.232 178.877ZM734.585 178.35C732.903 178.394 731.242 178.404 729.546 178.472C728.107 178.752 726.671 179.034 725.231 179.33C726.631 179.24 727.999 179.202 729.395 179.118C731.139 178.832 732.854 178.628 734.594 178.356L734.585 178.35ZM745.431 178.263L744.98 178.27L744.325 178.365L744.502 178.354C744.83 178.305 745.135 178.287 745.431 178.263ZM1096.13 227.253C1098.25 227.953 1100.32 228.702 1102.44 229.412C1102.27 229.309 1102.1 229.205 1101.94 229.105C1099.87 228.372 1097.76 227.688 1095.68 226.972L1096.13 227.253ZM1083.11 223.075C1085.27 223.753 1087.51 224.35 1089.65 225.051L1089.54 224.985C1087.19 224.195 1084.81 223.432 1082.44 222.664L1083.11 223.075ZM1070.02 219.149C1072.82 219.98 1075.64 220.819 1078.43 221.677C1078.08 221.457 1077.73 221.206 1077.38 220.983C1074.31 220.005 1071.32 218.935 1068.23 217.987C1068.82 218.373 1069.42 218.754 1070.02 219.147L1070.02 219.149ZM1056 214.95C1059.15 215.83 1062.19 216.828 1065.31 217.736C1064.71 217.366 1064.12 216.972 1063.54 216.584C1060.67 215.725 1057.73 214.964 1054.86 214.116C1055.25 214.418 1055.62 214.683 1056 214.948L1056 214.95ZM1042.34 211.352C1045.6 212.215 1048.93 212.991 1052.16 213.887C1051.76 213.612 1051.36 213.31 1050.96 213.036C1047.51 212.054 1044.07 211.045 1040.58 210.101C1041.16 210.515 1041.75 210.924 1042.34 211.35L1042.34 211.352ZM1028.25 207.71C1031.72 208.576 1035.15 209.497 1038.59 210.383L1036.62 208.983C1033.26 208.09 1029.88 207.225 1026.5 206.37C1027.09 206.823 1027.66 207.273 1028.24 207.708L1028.25 207.71ZM1013.6 204.105C1017.39 204.986 1021.16 205.929 1024.91 206.849C1024.35 206.438 1023.8 205.995 1023.25 205.596C1019.55 204.674 1015.81 203.81 1012.08 202.927C1012.59 203.318 1013.09 203.703 1013.59 204.103L1013.6 204.105ZM999.462 201.027C1003.13 201.826 1006.83 202.582 1010.46 203.418L1008.83 202.152C1005.07 201.285 1001.39 200.303 997.605 199.479C998.221 199.975 998.842 200.524 999.459 201.025L999.462 201.027ZM984.365 197.743C988.458 198.57 992.459 199.513 996.516 200.384C995.847 199.847 995.178 199.343 994.51 198.831C990.711 198.024 986.811 197.346 982.976 196.584L984.365 197.743ZM969.919 195.015C973.745 195.726 977.644 196.35 981.446 197.113L980.152 196.041C976.234 195.272 972.338 194.468 968.394 193.734C968.904 194.16 969.414 194.574 969.924 195.014L969.919 195.015ZM954.832 192.332C958.946 193.039 963.045 193.769 967.129 194.522C966.588 194.06 966.064 193.628 965.53 193.187C961.534 192.469 957.517 191.778 953.481 191.113L954.832 192.332ZM939.751 189.728C943.951 190.389 948.059 191.163 952.226 191.871C951.803 191.497 951.381 191.117 950.958 190.736C946.933 190.087 942.871 189.486 938.811 188.886L939.751 189.728ZM924.934 187.666C929.028 188.237 933.171 188.748 937.226 189.369L936.243 188.49C932.071 187.878 928.004 187.15 923.811 186.592L924.934 187.666ZM526.521 196.732C522.735 197.095 518.982 197.446 515.214 197.786C514.162 201.21 513.227 205.02 512.221 208.568C515.815 208.053 519.387 207.554 522.999 207.026C524.177 203.626 525.3 200.007 526.521 196.732ZM539.426 195.53C535.6 195.93 531.89 196.244 528.136 196.582C526.916 199.815 525.814 203.439 524.623 206.806C528.206 206.297 531.737 205.831 535.38 205.264C536.736 202.044 538.031 198.61 539.426 195.53ZM552.473 194.089C548.682 194.514 544.853 194.966 541.091 195.365C539.709 198.411 538.435 201.838 537.088 204.997C540.673 204.436 544.312 203.829 547.933 203.237C549.454 200.239 550.917 196.995 552.467 194.098L552.473 194.089ZM565.655 192.537C561.841 192.985 558.01 193.449 554.211 193.886C552.672 196.732 551.229 199.972 549.714 202.932C553.34 202.326 557.006 201.687 560.643 201.07C562.319 198.284 563.944 195.239 565.65 192.546L565.655 192.537ZM578.952 190.973C575.095 191.445 571.293 191.88 567.475 192.323C565.785 194.964 564.184 198.003 562.52 200.751C566.178 200.119 569.805 199.53 573.49 198.882C575.316 196.308 577.096 193.462 578.947 190.982L578.952 190.973ZM591.321 189.526C587.773 189.986 584.352 190.347 580.874 190.756C579.044 193.187 577.293 196.021 575.487 198.55C578.905 197.972 582.27 197.44 585.758 196.802C586.012 196.752 586.258 196.723 586.515 196.675C588.472 194.257 590.403 191.674 592.388 189.405C592.031 189.448 591.682 189.477 591.323 189.523L591.321 189.526ZM479.778 368.765C479.734 369.366 479.682 369.945 479.648 370.581L479.778 368.765ZM480.674 355.928C480.417 359.269 480.186 362.695 479.958 366.124C481.221 364.314 482.484 362.417 483.749 360.517C484.095 357.186 484.477 353.984 484.885 350.807C483.486 352.562 482.083 354.216 480.682 355.916L480.674 355.928ZM481.58 343.034C481.31 346.47 481.103 350.098 480.84 353.564C482.292 351.796 483.747 349.964 485.202 348.111C485.599 344.791 485.965 341.34 486.38 338.051C484.78 339.756 483.178 341.386 481.587 343.022L481.58 343.034ZM482.491 330.099C482.194 333.572 482.011 337.363 481.731 340.888C483.371 339.185 485.011 337.444 486.651 335.665C487.081 332.29 487.423 328.684 487.861 325.339C486.07 326.964 484.286 328.506 482.499 330.087L482.491 330.099ZM483.529 317.039C483.181 320.609 482.939 324.467 482.625 328.128C484.456 326.505 486.286 324.851 488.115 323.166C488.581 319.735 488.901 315.95 489.379 312.605C487.428 314.131 485.49 315.565 483.542 317.031L483.529 317.039ZM485.013 303.718C484.597 307.552 484.129 311.229 483.743 315.147C485.724 313.65 487.716 312.116 489.717 310.546C490.265 306.753 490.927 303.232 491.497 299.511C489.336 300.948 487.179 302.329 485.027 303.71L485.013 303.718ZM486.491 290.496C486.038 294.241 485.632 298.118 485.209 301.943C487.392 300.544 489.592 299.086 491.799 297.603C492.385 293.903 492.971 290.191 493.581 286.573C491.208 287.922 488.85 289.227 486.504 290.488L486.491 290.496ZM487.956 277.354C487.467 280.997 487.129 285.078 486.667 288.812C489.049 287.52 491.454 286.159 493.864 284.789C494.479 281.182 494.999 277.276 495.644 273.762C493.087 274.988 490.509 276.188 487.969 277.346L487.956 277.354ZM489.932 264.114C489.349 268.03 488.69 271.734 488.142 275.767C490.715 274.596 493.322 273.348 495.933 272.102C496.652 268.262 497.43 264.632 498.177 260.899C495.423 261.962 492.661 263.065 489.938 264.084L489.932 264.114ZM492.065 250.909C491.431 254.739 490.8 258.572 490.204 262.509C492.952 261.476 495.762 260.336 498.55 259.225C499.32 255.421 500.136 251.751 500.944 248.053C497.961 249.011 494.968 250.013 492.065 250.909ZM494.141 237.842C493.474 241.52 492.93 245.58 492.294 249.373C495.24 248.474 498.272 247.443 501.27 246.461C502.067 242.822 502.804 238.931 503.642 235.387C500.472 236.213 497.257 237.09 494.141 237.842ZM496.698 224.766C495.921 228.608 495.119 232.364 494.385 236.336C497.527 235.575 500.777 234.695 503.97 233.858C504.874 230.079 505.817 226.43 506.761 222.774C503.396 223.447 499.995 224.164 496.698 224.766ZM499.527 211.801C498.685 215.594 497.823 219.351 497.023 223.277C500.354 222.666 503.786 221.945 507.178 221.268C508.161 217.496 509.201 213.911 510.224 210.267C506.652 210.787 503.039 211.339 499.527 211.801ZM502.326 198.991C501.448 202.58 500.686 206.605 499.858 210.349C503.4 209.885 507.045 209.327 510.644 208.804C511.659 205.221 512.6 201.402 513.639 197.933C509.865 198.29 506.04 198.683 502.326 198.991ZM725.434 53.0402C622.752 8.34642 541.584 40.5836 502.63 197.567C506.375 197.258 510.225 196.864 514.04 196.507C556.78 57.811 632.305 22.0871 725.434 53.0402ZM746.204 62.8866C745.386 62.4636 744.549 61.9506 743.732 61.5324C642.974 19.883 560.932 50.5019 515.611 196.341C519.411 195.988 523.191 195.654 527.019 195.284C575.879 65.7286 653.42 32.7336 746.204 62.8866ZM762.194 71.6389C760.249 70.5156 758.346 69.546 756.411 68.4789C659.903 32.8722 579.021 62.7452 528.631 195.14C532.426 194.787 536.159 194.482 540.039 194.082C593.846 75.6119 671.699 44.6973 762.194 71.6389ZM774.587 79.1435C772.449 77.8228 770.284 76.386 768.156 75.0913C675.85 45.2295 596.374 74.4799 541.687 193.911C545.49 193.501 549.375 193.03 553.204 192.598C610.776 86.1968 687.61 56.6567 774.587 79.1435ZM787.635 87.3674C784.939 85.5856 782.288 83.9722 779.619 82.3192C691.339 57.61 613.244 85.5899 554.948 192.399C558.794 191.958 562.675 191.489 566.543 191.04C627.47 95.8716 703.615 68.3767 787.635 87.3674ZM798.736 94.995C796.31 93.3104 793.846 91.4944 791.429 89.8358C706.665 69.3316 629.829 95.7758 568.424 190.814C572.276 190.364 576.109 189.931 580.019 189.455C643.301 105.369 718.094 79.6411 798.736 94.995ZM810.498 103.3C807.675 101.246 804.882 99.3135 802.086 97.3585C720.982 80.8183 645.747 105.595 582.118 189.203C585.122 188.848 588.078 188.535 591.14 188.138C592.035 188.029 592.887 187.949 593.769 187.84C659.037 114.063 732.72 90.6665 810.498 103.3ZM820.881 110.997C818.37 109.102 815.848 107.152 813.353 105.312C735.373 91.7686 661.48 114.441 596.033 187.591C599.943 187.131 603.84 186.69 607.725 186.267C674.086 122.263 746.194 100.893 820.881 110.997ZM831.475 119.196C828.785 117.092 826.101 115.013 823.425 112.957C748.729 102.153 676.597 122.778 610.217 185.976C614.16 185.52 618.105 185.066 622.028 184.643C689.008 129.765 759.583 110.983 831.47 119.205L831.475 119.196ZM841.197 126.732C838.689 124.706 836.227 122.859 833.748 120.96C762.042 112.185 691.635 130.347 624.8 184.327C628.807 183.866 632.85 183.348 636.799 182.982C703.598 136.578 772.287 120.073 841.192 126.741L841.197 126.732ZM850.529 134.564C848.122 132.568 845.702 130.507 843.293 128.502C774.72 121.382 706.388 137.252 639.891 182.658C643.717 182.324 647.479 182.079 651.295 181.755C717.559 142.957 784.338 129.007 850.529 134.564ZM858.944 141.618C856.771 139.78 854.623 137.986 852.468 136.192C786.759 130.296 720.483 143.681 654.704 181.485C658.518 181.177 662.334 180.866 666.129 180.583C731.137 148.678 795.65 136.935 858.944 141.618ZM867.524 148.825C865.307 146.897 863.121 145.113 860.928 143.287C798.299 138.298 734.467 149.434 670.143 180.258C674.003 179.936 677.885 179.584 681.685 179.345C745.004 153.804 807.094 144.589 867.524 148.825ZM874.629 155.194C872.845 153.617 871.05 151.983 869.263 150.383C809.811 145.949 748.743 154.594 686.495 178.991C689.994 178.798 693.41 178.719 696.904 178.527C757.905 158.483 817.243 151.326 874.62 155.209L874.629 155.194ZM881.548 161.403L876.401 156.785C820.147 152.766 762.004 159.334 702.261 178.28C705.638 178.123 709.025 177.964 712.391 177.825C770.781 162.675 827.208 157.653 881.563 161.412L881.548 161.403ZM887.668 166.895C886.191 165.549 884.721 164.248 883.253 162.928C830.507 159.088 775.79 163.526 719.248 177.505C722.604 177.335 725.976 177.146 729.273 177.059C784.11 166.308 836.941 163.188 887.704 166.917L887.668 166.895ZM893.258 171.907C891.978 170.724 890.716 169.613 889.448 168.487C840.602 164.748 789.85 167.268 737.252 176.912C739.773 176.883 742.279 176.878 744.805 176.839C796.281 169.606 845.779 168.104 893.294 171.929L893.258 171.907ZM897.945 176.324C896.936 175.386 895.92 174.399 894.911 173.441C850.105 169.719 803.541 170.617 755.217 176.745C757.24 176.731 759.276 176.696 761.296 176.687C808.661 172.443 854.219 172.327 897.969 176.338L897.945 176.324ZM901.677 179.869C900.993 179.223 900.303 178.566 899.615 177.905C859.167 174.211 818.491 173.777 777.979 176.605C778.563 176.611 779.123 176.642 779.703 176.654C821.892 174.905 862.557 175.983 901.7 179.887L901.677 179.869ZM905.027 183.051L903.309 181.419C874.742 178.578 846.049 177.199 817.343 177.286C847.416 177.94 876.652 179.867 905.049 183.068L905.027 183.051ZM907.296 185.209L906.711 184.657C894.059 183.216 881.239 182.024 868.251 181.08C881.463 182.237 894.485 183.619 907.319 185.227L907.296 185.209ZM909.062 184.916L909.727 185.546C914.035 186.092 918.289 186.705 922.54 187.323C922.174 186.985 921.804 186.633 921.439 186.279C917.363 185.801 913.194 185.411 909.084 184.934L909.062 184.916ZM905.656 181.679L907.373 183.31C911.485 183.785 915.644 184.19 919.763 184.682C919.238 184.192 918.7 183.723 918.164 183.252C914.028 182.716 909.889 182.138 905.678 181.697L905.656 181.679ZM901.911 178.126C902.588 178.771 903.262 179.415 903.938 180.047C908.108 180.475 912.198 181.045 916.306 181.587C915.437 180.79 914.577 180.027 913.714 179.262C909.813 178.881 905.871 178.519 901.933 178.143L901.911 178.126ZM897.123 173.584C898.165 174.575 899.203 175.572 900.253 176.552C904.165 176.914 908.062 177.289 911.943 177.676C910.861 176.689 909.787 175.737 908.707 174.772C904.875 174.346 901.024 173.938 897.145 173.602L897.123 173.584ZM891.896 168.702C893.095 169.794 894.306 170.927 895.511 172.043C899.31 172.362 903.092 172.707 906.849 173.107L903.053 169.704C899.364 169.375 895.645 169.027 891.914 168.726L891.896 168.702ZM885.599 163.067C887.099 164.408 888.604 165.722 890.133 167.109C893.869 167.396 897.587 167.765 901.295 168.11C899.768 166.753 898.231 165.365 896.7 163.993C893.031 163.652 889.316 163.377 885.617 163.091L885.599 163.067ZM878.821 156.999C880.506 158.503 882.19 160.002 883.88 161.53C887.534 161.796 891.198 161.999 894.831 162.331C893.145 160.876 891.483 159.435 889.809 158.034C886.166 157.691 882.515 157.307 878.839 157.023L878.821 156.999ZM871.564 150.507C873.382 152.131 875.209 153.78 877.028 155.396C880.653 155.661 884.256 156.048 887.863 156.41C885.83 154.666 883.808 152.999 881.783 151.314C878.406 150.996 874.993 150.804 871.583 150.531L871.564 150.507ZM863.58 143.554C865.654 145.318 867.738 147.127 869.82 148.946C873.122 149.198 876.431 149.313 879.733 149.593C877.771 147.967 875.819 146.307 873.864 144.677C870.456 144.302 867.033 143.877 863.599 143.577L863.58 143.554ZM855.001 136.377C857.187 138.194 859.381 140 861.588 141.884C865.017 142.165 868.44 142.598 871.862 142.998C869.542 141.102 867.203 139.156 864.901 137.313C861.623 136.94 858.318 136.72 855.02 136.401L855.001 136.377ZM846.002 128.85C848.35 130.8 850.706 132.785 853.054 134.748C856.221 135.052 859.405 135.181 862.585 135.518C860.276 133.678 857.991 131.94 855.702 130.182C852.488 129.733 849.253 129.239 846.026 128.864L846.002 128.85ZM836.626 121.263C839.036 123.165 841.454 125.104 843.881 127.08C847.039 127.412 850.198 127.91 853.35 128.386C850.822 126.411 848.283 124.429 845.741 122.491C842.736 122.018 839.699 121.699 836.657 121.294L836.626 121.263ZM826.594 113.506C829.17 115.482 831.744 117.449 834.339 119.494C837.289 119.862 840.225 120.057 843.176 120.476C840.699 118.627 838.25 116.887 835.804 115.156C832.749 114.603 829.69 114.019 826.624 113.537L826.594 113.506ZM816.657 105.837C819.12 107.715 821.605 109.684 824.067 111.564C827.014 111.997 829.97 112.58 832.928 113.136C830.242 111.203 827.571 109.334 824.899 107.459C822.143 106.839 819.399 106.346 816.657 105.837ZM806.123 98.3033C808.73 100.109 811.35 101.893 813.997 103.842C816.505 104.289 818.996 104.568 821.514 105.066C819.191 103.47 816.837 101.796 814.526 100.269C811.719 99.5962 808.934 98.921 806.12 98.3015L806.123 98.3033ZM795.273 90.6652L802.745 95.9232C805.314 96.4525 807.908 97.101 810.499 97.7144C807.917 96.0283 805.363 94.4584 802.803 92.8515C800.279 92.0689 797.763 91.3075 795.27 90.6634L795.273 90.6652ZM785.397 84.0468C787.544 85.4063 789.699 86.8122 791.882 88.2807C793.837 88.7577 795.775 89.1162 797.741 89.6495C795.846 88.4786 793.91 87.1462 792.018 86.0308C789.798 85.3404 787.603 84.7154 785.394 84.0451L785.397 84.0468ZM774.669 77.3102C776.548 78.5001 778.416 79.6465 780.3 80.8432C781.999 81.3269 783.71 81.8639 785.418 82.3532C783.557 81.2817 781.726 80.336 779.863 79.2928C778.126 78.6445 776.373 77.9001 774.654 77.3009L774.669 77.3102ZM766.794 72.3616C767.339 72.6982 767.916 73.0836 768.476 73.4011C768.969 73.561 769.449 73.6549 769.938 73.8129C769.394 73.53 768.837 73.1859 768.293 72.9078C767.766 72.7022 767.283 72.5606 766.779 72.3523L766.794 72.3616ZM488.667 263.055C489.265 259.074 489.909 255.221 490.529 251.339C128.668 361.044 -63.1749 214.395 -164.879 27.5908C-61.4845 231.314 131.013 396.746 488.652 263.046L488.667 263.055ZM486.67 276.39C487.211 272.353 487.837 268.562 488.418 264.637C137.776 395.454 -54.3894 239.305 -159.455 41.2134C-51.7673 256.316 142.082 432.066 486.664 276.386L486.67 276.39ZM485.197 289.598C485.653 285.806 485.998 281.693 486.489 278.001C149.009 430.14 -44.062 265.114 -153.321 56.2627C-40.5172 282.299 155.206 467.701 485.182 289.589L485.197 289.598ZM483.717 302.884C484.131 299.008 484.558 295.083 485.006 291.285C159.427 466.574 -35.6836 288.963 -149.438 67.223C-31.3079 306.094 167.403 504.924 483.704 302.872L483.717 302.884ZM482.226 316.263C482.621 312.276 483.098 308.559 483.515 304.664C167.166 506.158 -31.7354 307.851 -150.093 69.1119C-26.4859 324.733 177.16 545.379 482.211 316.254L482.226 316.263ZM481.146 329.391C481.458 325.713 481.664 321.737 482.006 318.152C169.7 551.95 -36.469 315.9 -159.369 52.9429C-30.2107 332.207 182.448 592.518 481.141 329.385L481.146 329.391ZM476.586 418.167C476.487 419.345 476.436 420.611 476.347 421.767C476.555 420.982 476.753 420.146 476.957 419.347C477.146 418.038 477.33 416.734 477.512 415.409C477.202 416.353 476.894 417.246 476.58 418.163L476.586 418.167ZM477.35 406.219C477.203 408.285 477.093 410.477 476.944 412.521C477.487 410.911 478.005 409.169 478.54 407.5C478.769 405.683 478.947 403.648 479.166 401.8C478.557 403.308 477.961 404.762 477.35 406.219ZM478.145 393.935C477.976 396.59 477.809 399.251 477.629 401.879C478.348 400.126 479.062 398.22 479.783 396.385C480.06 393.982 480.33 391.483 480.599 389.039C479.774 390.715 478.957 392.313 478.145 393.935ZM478.951 381.43C478.772 384.505 478.574 387.395 478.357 390.425C479.266 388.599 480.164 386.584 481.066 384.662C481.375 381.866 481.693 379.108 481.996 376.275C480.986 378.064 479.968 379.724 478.951 381.43ZM479.65 370.578C479.509 373.305 479.299 375.732 479.147 378.436L479.65 370.578ZM-197.297 57.1406C26.7094 492.245 398.292 1096.28 469.577 476.478C369.063 1045.28 18.3805 475.265 -195.152 53.6691L-194.311 52.3086C21.1432 477.91 376.525 1055.29 471.784 455.728C471.854 455.019 471.917 454.261 471.988 453.544C348.612 1005.47 12.9527 461.288 -192.312 49.0733L-191.46 47.6948C14.4647 461.479 351.977 1008.8 472.956 443.061C473.122 441.251 473.294 439.473 473.457 437.644C325.957 961.19 6.52805 445.551 -189.639 44.7212L-188.786 43.3398C7.68191 445.049 328.149 962.577 474.142 430.275C474.345 427.798 474.608 425.551 474.811 423.041C303.508 916.272 -0.132847 429.453 -187.111 40.6561L-186.248 39.2597C0.809823 428.47 304.924 916.391 475.195 417.807C475.386 415.289 475.515 412.522 475.696 409.973C281.227 870.566 -7.04946 412.912 -184.767 36.89L-183.901 35.4876C-6.20436 411.678 282.28 870.068 475.974 405.823C476.177 402.924 476.352 399.921 476.543 396.982C259.821 825.058 -14.0035 396.278 -182.636 33.414L-181.764 32.0027C-13.2223 394.947 260.673 824.275 476.764 393.491C476.958 390.305 477.189 387.187 477.376 383.952C239.409 779.969 -20.9496 379.591 -180.683 30.2535L-179.8 28.8242C-20.1842 378.171 240.137 778.965 477.588 380.939C477.782 377.497 478.054 374.36 478.236 370.865C220.113 735.257 -27.8321 362.881 -178.961 27.4667L-178.082 26.0434C-27.0982 361.425 220.765 734.155 478.412 368.231C478.629 364.646 478.887 361.149 479.153 357.694C202.094 691.056 -34.6178 346.148 -177.474 25.0597L-176.587 23.6244C-33.9021 344.648 202.662 689.862 479.319 355.33C479.584 351.775 479.802 348.055 480.077 344.523C185.399 647.355 -41.1728 329.31 -176.179 22.9636L-175.303 21.5463C-40.5142 327.795 185.895 646.117 480.222 342.373C480.503 338.766 480.697 334.911 480.997 331.353C170.19 604.201 -47.5284 312.396 -175.138 21.2801L-170.519 13.8049C-70.837 206.331 121.117 362.085 490.778 249.799C491.41 245.963 491.963 241.896 492.638 238.173C120.695 327.382 -71.3811 189.418 -170.377 13.5746L-169.492 12.1424C-70.7548 187.929 121.043 326.022 492.867 236.691C493.593 232.731 494.365 228.911 495.126 225.076C123.224 292.944 -69.5809 170.652 -168.821 11.057L-167.949 9.64562C-68.96 169.205 123.603 291.587 495.448 223.589C496.247 219.62 497.122 215.86 497.972 212.022C128.241 260.176 -65.9571 151.526 -166.571 7.415L-165.712 6.02459C-65.3447 150.086 128.611 258.814 498.294 210.556C499.135 206.778 499.897 202.766 500.785 199.121C135.274 229.187 -60.4684 131.932 -163.356 2.2122L-162.554 0.914497C-59.8908 130.562 135.673 227.81 501.091 197.695C542.477 29.2442 631.774 2.44267 744.078 59.8541C752.019 63.1494 760.058 66.8357 768.24 71.0654C776.298 74.3587 784.499 78.2649 792.759 82.4968C800.524 85.7774 808.367 89.4458 816.287 93.5023C823.924 96.7339 831.644 100.393 839.396 104.303C847.013 107.547 854.687 111.14 862.394 115.014C870 118.254 877.64 121.799 885.316 125.649C892.873 128.873 900.455 132.377 908.06 136.162C915.598 139.387 923.145 142.862 930.702 146.587C938.203 149.792 945.704 153.231 953.207 156.906C960.655 160.108 968.096 163.449 975.527 167.095C982.944 170.281 990.353 173.587 997.734 177.185C1004.37 180.047 1010.97 183.15 1017.56 186.324C1024.73 189.397 1031.85 192.743 1038.96 196.14C1046.05 199.195 1053.1 202.446 1060.12 205.79C1067.15 208.828 1074.14 211.993 1081.08 215.287C1088.05 218.297 1095 221.38 1101.87 224.636C1108.72 227.605 1115.59 230.58 1122.35 233.769C1126.91 235.761 1131.42 237.827 1135.91 239.886C1142.35 242.622 1148.66 245.522 1154.98 248.42C1161.26 251.11 1167.49 253.857 1173.67 256.662C1339.88 328.244 1465.66 440.103 1560.08 560.219L1559.29 561.496C1475.56 454.871 1367.15 354.717 1227.6 283.526C1362.88 357.069 1469.64 461.209 1553.02 571.647L1552.16 573.038C1464.5 456.845 1350.97 347.604 1205.55 273.658C1346.26 350.28 1458.19 463.647 1545.65 583.566L1544.82 584.921C1452.99 458.931 1334.18 340.137 1183.3 263.654C1329.12 343.139 1446.36 466.141 1538.15 595.715L1537.32 597.051C1441.09 461.078 1316.84 332.315 1160.92 253.528C1311.43 335.729 1434.19 468.741 1530.49 608.106L1529.69 609.401C1429.82 464.805 1301.55 326.975 1143.26 245.746L1141.76 245.166C1295.13 330.116 1422.41 472.498 1522.76 620.611L1521.97 621.887C1419.65 470.743 1289.26 325.531 1131.74 241.299C1130.66 240.896 1129.62 240.463 1128.53 240.063C1281.85 328.278 1411.82 478.346 1515.02 633.139L1514.2 634.464C1409.29 477.02 1276.67 324.434 1119.98 236.919C1118.25 236.3 1116.47 235.734 1114.73 235.124C1268.04 326.786 1400.96 484.526 1507.2 645.796L1506.4 647.085C1398.89 483.757 1264.02 324.008 1108.33 232.936C1106.24 232.213 1104.15 231.492 1102.05 230.786C1254.87 326.22 1390.41 491.219 1499.47 658.335L1498.64 659.675C1388.25 490.452 1250.7 323.374 1095.6 228.572C1092.83 227.66 1090.1 226.704 1087.31 225.815C1240.36 325.054 1379.3 497.726 1491.65 670.961L1490.86 672.244C1377.57 497.44 1237.21 323.157 1082.62 224.41C1079.86 223.529 1077.03 222.743 1074.24 221.9C1226.94 325.308 1368.71 504.924 1483.96 683.409L1483.14 684.731C1366.91 504.656 1223.68 323.371 1069.51 220.491C1066.2 219.506 1062.93 218.471 1059.59 217.515C1212.54 325.111 1357.75 511.97 1476.26 695.866L1475.47 697.146C1356.12 511.814 1209.65 323.424 1055.52 216.283C1052.24 215.366 1048.88 214.536 1045.57 213.645C1198.64 325.675 1347.07 519.354 1468.66 708.173L1467.85 709.483C1345.49 519.375 1195.89 324.276 1041.85 212.677C1038.29 211.736 1034.71 210.812 1031.11 209.905C1184.52 326.454 1336.39 526.891 1461.1 720.403L1460.32 721.665C1334.93 526.95 1181.99 325.205 1027.74 209.041C1023.88 208.082 1020.1 207.034 1016.2 206.115C1170.25 327.276 1325.72 534.375 1453.62 732.513L1452.81 733.819C1324.26 534.568 1167.82 326.225 1013.06 205.432C1009.35 204.566 1005.55 203.81 1001.81 202.982C1156.46 328.928 1315.32 542.247 1446.21 744.494L1445.43 745.762C1313.93 542.476 1154.17 327.946 998.928 202.358C994.855 201.473 990.819 200.541 986.711 199.697C1142.28 330.417 1304.85 550.026 1438.86 756.398L1438.06 757.689C1303.42 550.274 1139.93 329.44 983.783 199.061C979.89 198.279 975.939 197.557 972.007 196.817C1128.56 332.439 1294.65 557.991 1431.61 768.128L1430.81 769.426C1293.27 558.323 1126.35 331.641 969.305 196.337C965.175 195.57 961.006 194.846 956.838 194.121C1114.63 334.65 1284.4 566.048 1424.38 779.837L1423.58 781.12C1283.05 566.395 1112.45 333.865 954.229 193.657C950.017 192.935 945.902 192.098 941.653 191.423C1100.83 336.883 1274.32 574.025 1417.27 791.352L1416.47 792.658C1272.96 574.468 1098.7 336.226 939.114 191.061C935.024 190.43 930.84 189.911 926.702 189.337C1087.35 339.789 1264.42 582.305 1410.19 802.798L1409.4 804.081C1263.12 582.722 1085.3 339.171 924.313 189.006C920.052 188.405 915.806 187.785 911.506 187.232C1073.82 342.643 1254.56 590.508 1403.18 814.143L1402.37 815.443C1253.23 590.947 1071.7 342.01 909.068 186.894C870.867 182.112 832.448 179.294 793.962 178.453C784.928 178.461 775.848 178.535 766.666 178.774C754.117 179.469 741.427 180.442 728.597 181.695C720.586 182.736 712.533 183.887 704.409 185.206C693.568 187.353 682.609 189.853 671.609 192.493C664.624 194.519 657.571 196.809 650.51 199.152C643.839 201.674 637.184 204.102 630.465 206.917C621.828 211.041 613.14 215.602 604.445 220.24C598.815 223.689 593.173 227.311 587.519 231.105C581.264 235.785 575.01 240.531 568.755 245.661C563.129 250.816 557.523 256.521 551.914 262.137C547.625 266.997 543.36 272.138 539.085 277.243C535.264 282.423 531.428 287.499 527.657 293.06C527.563 293.212 527.451 293.346 527.358 293.483C525.696 296.174 523.988 298.796 522.339 301.665C520.303 305.208 518.269 308.414 516.236 311.818C513.118 318.262 509.983 324.221 506.843 330.366C504.079 337.055 501.316 343.689 498.534 350.085C496.26 356.638 494.005 363.367 491.696 369.601C489.977 375.616 488.232 381.426 486.47 387.155C484.758 394.612 482.935 401.398 481.167 408.457C479.689 416.552 478.139 424.262 476.596 432.002C475.486 440.158 474.407 448.416 473.176 456.072C407.537 1113.72 29.0011 499.582 -198.148 58.5191L-197.297 57.1406Z" fill="white" fill-opacity="0.04"/>
</svg>
