<svg width="1501" height="396" viewBox="0 0 1501 396" fill="none" xmlns="http://www.w3.org/2000/svg">
<path d="M681.389 268.713C681.718 265.61 682.086 262.752 682.395 259.6L681.389 268.713ZM991.345 -19.5815C991.85 -19.4221 992.346 -19.3014 992.848 -19.1359C992.355 -19.3953 991.857 -19.6409 991.36 -19.8942C990.918 -20.0763 990.489 -20.2179 990.05 -20.3981C990.476 -20.1511 990.919 -19.8363 991.345 -19.5815ZM1014.25 -7.25412C1012.03 -8.00121 1009.83 -8.62506 1007.62 -9.33231C1009.79 -7.98757 1011.96 -6.67855 1014.17 -5.20316M1014.91 -8.70696C1015.33 -8.568 1015.73 -8.46662 1016.15 -8.32168C1015.62 -8.59174 1015.11 -8.79886 1014.59 -9.06404C1014.21 -9.21811 1013.84 -9.35278 1013.47 -9.50685C1013.94 -9.21573 1014.43 -8.9921 1014.91 -8.70696ZM1002.48 -12.5824C1004.14 -12.0847 1005.81 -11.5434 1007.48 -11.0293C1005.71 -12.026 1003.97 -12.956 1002.2 -13.9557C1000.52 -14.5815 998.794 -15.3707 997.111 -15.9604C998.895 -14.7965 1000.68 -13.6941 1002.48 -12.5824ZM681.474 289.354C681.035 290.487 680.595 291.608 680.156 292.746C680.007 294.046 679.869 295.394 679.72 296.686C680.107 295.463 680.486 294.267 680.885 293.019C681.073 291.845 681.257 290.529 681.457 289.356L681.474 289.354ZM684.257 282.173L683.895 283.107L683.765 283.907C683.886 283.51 684.012 283.146 684.132 282.749C684.173 282.576 684.206 282.369 684.248 282.181L684.257 282.173ZM1037.3 3.35483C1035.13 2.62293 1032.95 1.915 1030.78 1.23104C1032.85 2.51286 1034.91 3.78365 1036.99 5.15605M1037.96 1.95196C1038.3 2.07114 1038.61 2.15204 1038.95 2.27051C1038.56 2.07105 1038.17 1.90847 1037.78 1.70901C1037.46 1.56887 1037.16 1.46475 1036.85 1.33388C1037.2 1.54916 1037.57 1.732 1037.93 1.94611L1037.96 1.95196ZM1025.57 -2.06278C1027.18 -1.576 1028.81 -1.00279 1030.42 -0.488824C1028.78 -1.41448 1027.13 -2.32933 1025.48 -3.25203C1023.83 -3.88585 1022.16 -4.65262 1020.52 -5.25813C1022.19 -4.18129 1023.88 -3.10371 1025.55 -2.04621L1025.57 -2.06278ZM1014.18 -5.20472C1016.08 -4.74905 1017.95 -4.42035 1019.85 -3.89464L1014.18 -5.20472ZM683.516 276.658C682.824 278.14 682.133 279.605 681.438 281.085C681.214 283.169 680.986 285.231 680.752 287.296C681.349 285.769 681.946 284.253 682.541 282.7C682.86 280.745 683.177 278.68 683.503 276.679L683.516 276.658ZM687.127 268.973C686.644 270.009 686.163 271.022 685.686 272.041C685.449 273.523 685.209 274.99 684.971 276.459C685.369 275.44 685.77 274.436 686.166 273.387C686.476 271.968 686.787 270.453 687.112 268.997L687.127 268.973ZM690.054 262.729C689.966 262.919 689.881 263.097 689.793 263.287L689.418 265.018C689.614 264.292 689.824 263.504 690.039 262.753L690.054 262.729ZM1060.84 12.5188L1061.53 12.7482C1061.28 12.6249 1061.03 12.5142 1060.79 12.3879L1060.11 12.1085C1060.36 12.2493 1060.6 12.3768 1060.84 12.5188ZM1048.55 8.38291C1050.1 8.85805 1051.66 9.45086 1053.22 9.95132C1051.69 9.11119 1050.16 8.20631 1048.65 7.3814C1047.16 6.81057 1045.65 6.14368 1044.16 5.59707C1045.62 6.4882 1047.09 7.4821 1048.55 8.38291ZM1036.97 5.15761C1039.03 5.69265 1041.07 6.10026 1043.13 6.69082L1036.97 5.15761ZM1024.55 2.07111C1027.1 2.6363 1029.68 3.3497 1032.24 3.98265C1029.79 2.39657 1027.35 0.874552 1024.89 -0.681358C1022.49 -1.39296 1020.08 -2.13846 1017.69 -2.76549C1019.99 -1.15559 1022.28 0.482671 1024.55 2.07111ZM685.527 264.225C684.61 265.862 683.689 267.509 682.764 269.166C682.497 271.76 682.203 274.19 681.923 276.765C682.729 275.06 683.531 273.367 684.326 271.639C684.719 269.155 685.126 266.716 685.506 264.233L685.527 264.225ZM689.82 256.548C689.053 257.937 688.286 259.298 687.516 260.665C687.184 262.836 686.827 264.88 686.482 267.025C687.141 265.644 687.795 264.271 688.434 262.861C688.903 260.729 689.36 258.652 689.815 256.529L689.82 256.548ZM693.707 249.588C693.193 250.534 692.68 251.432 692.164 252.353C691.818 253.99 691.464 255.535 691.119 257.157C691.515 256.323 691.914 255.516 692.305 254.629C692.772 252.935 693.239 251.269 693.706 249.57L693.707 249.588ZM696.706 244.226L696.588 244.418L696.413 245.041L696.706 244.226ZM1083.62 23.022L1083.93 23.1343L1083.68 23.0121L1083.33 22.862L1083.62 23.022ZM1071.42 18.7687C1072.9 19.2367 1074.38 19.8273 1075.85 20.3122C1074.47 19.5511 1073.07 18.694 1071.7 17.9583C1070.42 17.4658 1069.16 16.9957 1067.89 16.5208C1069.05 17.1729 1070.26 18.0256 1071.43 18.7362L1071.42 18.7687ZM1059.65 15.463C1061.73 16.0326 1063.8 16.4931 1065.87 17.1104C1063.97 15.9846 1062.09 14.9792 1060.2 13.9212C1058.07 13.1838 1055.94 12.456 1053.82 11.7603C1055.77 12.9614 1057.71 14.1582 1059.66 15.4305L1059.65 15.463ZM1047.26 12.1766C1049.79 12.7747 1052.33 13.5304 1054.86 14.1907C1052.53 12.7125 1050.21 11.2439 1047.89 9.75487C1045.6 9.05206 1043.33 8.42969 1041.04 7.78652C1043.11 9.15151 1045.21 10.7243 1047.27 12.1442L1047.26 12.1766ZM1035.46 9.79016C1038.07 10.2627 1040.68 10.6021 1043.29 11.1748C1040.96 9.59336 1038.62 8.07459 1036.3 6.59522C1033.51 5.8639 1030.73 5.16623 1027.95 4.50219C1030.47 6.2151 1032.95 7.92589 1035.47 9.75769L1035.46 9.79016ZM682.405 259.585C681.197 261.372 679.984 263.047 678.789 264.767L682.405 259.585ZM687.517 251.874C686.382 253.589 685.25 255.315 684.114 257.026C684.076 257.342 684.034 257.638 684.003 257.962C683.748 260.605 683.416 262.97 683.159 265.567C684.168 263.774 685.175 261.991 686.18 260.17C686.607 257.343 687.084 254.737 687.508 251.868L687.517 251.874ZM692.456 244.41C691.437 245.966 690.418 247.493 689.399 249.029C689.382 249.138 689.363 249.234 689.349 249.345C688.977 251.867 688.55 254.111 688.174 256.601C689.066 255.024 689.957 253.455 690.846 251.828C691.365 249.301 691.925 246.962 692.453 244.408L692.456 244.41ZM697.109 237.369C696.268 238.675 695.426 239.924 694.587 241.182C694.135 243.427 693.644 245.425 693.185 247.641C693.882 246.419 694.603 245.179 695.305 243.856C695.893 241.646 696.51 239.589 697.102 237.36L697.109 237.369ZM701.26 231.071C700.719 231.947 700.165 232.758 699.615 233.579C699.205 235.14 698.776 236.531 698.367 238.076C698.863 237.114 699.361 236.087 699.856 235.125C700.315 233.739 700.789 232.45 701.253 231.063L701.26 231.071ZM704.912 224.994L704.74 225.272C704.673 225.482 704.599 225.668 704.533 225.875L704.568 225.819C704.674 225.533 704.793 225.267 704.905 224.986L704.912 224.994ZM1094.22 29.0147C1095.6 29.4555 1096.98 30.0496 1098.36 30.511C1097.16 29.8572 1095.94 29.076 1094.74 28.4446C1093.46 27.9466 1092.18 27.585 1090.9 27.0997C1092.01 27.7316 1093.11 28.3489 1094.22 29.0147ZM1082.23 25.6138C1084.24 26.1808 1086.25 26.6989 1088.26 27.3068C1086.51 26.2754 1084.77 25.3316 1083.01 24.3363C1080.95 23.6094 1078.88 22.8504 1076.82 22.1603C1078.63 23.3156 1080.43 24.4526 1082.23 25.6138ZM1069.91 22.13C1072.39 22.7432 1074.89 23.5568 1077.37 24.2296C1075.18 22.8775 1073 21.4169 1070.82 20.048C1068.5 19.3218 1066.19 18.7544 1063.88 18.0856C1065.87 19.3965 1067.89 20.7722 1069.9 22.1419L1069.91 22.13ZM1057.84 19.5781C1060.53 20.1159 1063.23 20.5589 1065.92 21.1804C1063.61 19.6287 1061.32 18.2233 1059.03 16.789C1056.26 16.0369 1053.5 15.2614 1050.75 14.5686C1053.11 16.2535 1055.47 17.9022 1057.84 19.5975L1057.84 19.5781ZM1045.41 17.1163C1048.35 17.6097 1051.3 18.2997 1054.26 18.8645L1046.64 13.475C1043.89 12.8395 1041.15 12.327 1038.41 11.8033C1040.73 13.5316 1043.08 15.369 1045.42 17.1357L1045.41 17.1163ZM689.582 239.481L685.558 244.655C685.182 247.687 684.823 250.812 684.479 253.905C685.677 252.1 686.876 250.3 688.072 248.473C688.541 245.383 689.044 242.454 689.582 239.481ZM695.126 232.35C693.88 233.965 692.638 235.553 691.393 237.146C690.903 239.914 690.442 242.756 689.974 245.595C691.078 243.942 692.176 242.299 693.27 240.608L693.309 240.438C693.876 237.619 694.5 235.009 695.118 232.362L695.126 232.35ZM700.456 225.492C699.351 226.958 698.247 228.35 697.143 229.755C696.564 232.231 696.004 234.777 695.446 237.321C696.407 235.894 697.369 234.484 698.332 232.96C698.441 232.535 698.559 232.162 698.671 231.74C699.231 229.569 699.847 227.554 700.448 225.504L700.456 225.492ZM705.527 218.825C704.602 220.08 703.678 221.335 702.757 222.53C702.146 224.603 701.546 226.74 700.949 228.85C701.797 227.478 702.631 226.022 703.468 224.66C703.653 224.1 703.845 223.608 704.03 223.048C704.494 221.575 705.017 220.233 705.519 218.837L705.527 218.825ZM710.455 211.88C709.801 212.785 709.146 213.711 708.488 214.647C708.006 215.977 707.537 217.365 707.047 218.715L708.727 215.915C708.944 215.375 709.167 214.901 709.384 214.362C709.725 213.503 710.092 212.721 710.451 211.886L710.455 211.88ZM714.469 206.22L714.351 206.412L714.131 206.921C714.229 206.696 714.345 206.474 714.462 206.232L714.469 206.22ZM1116.04 40.5886C1113.73 39.8337 1111.43 39.2398 1109.12 38.5289C1110.87 39.6411 1112.62 40.731 1114.38 41.8929M1116.61 39.239C1117.99 39.6948 1119.35 40.1656 1120.72 40.6334C1119.6 40.0314 1118.48 39.4947 1117.36 38.9199C1116.16 38.4447 1114.96 38.0708 1113.75 37.6112C1114.7 38.1674 1115.66 38.6676 1116.61 39.239ZM1104.69 35.7063C1106.62 36.274 1108.55 36.82 1110.47 37.4202C1108.88 36.4976 1107.3 35.6168 1105.7 34.6973C1103.71 33.9834 1101.72 33.2062 1099.72 32.5315C1101.38 33.6069 1103.03 34.6533 1104.69 35.7033L1104.69 35.7063ZM1092.33 32.0411C1094.8 32.6831 1097.27 33.539 1099.73 34.2309C1097.7 32.9787 1095.67 31.5755 1093.65 30.3638C1091.28 29.5995 1088.91 29.0555 1086.54 28.3527C1088.47 29.5584 1090.4 30.74 1092.33 32.0411ZM1080.11 29.354C1082.77 29.9425 1085.44 30.4393 1088.1 31.0953C1085.93 29.6682 1083.78 28.3274 1081.63 26.9654C1078.91 26.1934 1076.18 25.3592 1073.45 24.6547C1075.67 26.2205 1077.89 27.7869 1080.11 29.354ZM1067.69 26.6383C1070.61 27.2007 1073.54 27.9255 1076.46 28.5501C1074.07 26.8798 1071.67 25.134 1069.27 23.4563C1066.45 22.7675 1063.64 22.2855 1060.84 21.6987C1063.11 23.3174 1065.39 24.9397 1067.68 26.6473L1067.69 26.6383ZM1055.34 24.7907C1058.34 25.2125 1061.35 25.4957 1064.35 26.019C1061.96 24.2582 1059.59 22.6311 1057.22 20.9768C1054.16 20.3551 1051.09 19.6875 1048.02 19.1363C1050.46 21.0127 1052.9 22.9004 1055.33 24.7997L1055.34 24.7907ZM691.644 227.174C690.095 228.87 688.549 230.576 687.003 232.269C686.602 235.434 686.26 238.78 685.865 241.969C687.266 240.179 688.666 238.38 690.065 236.57C690.6 233.475 691.098 230.246 691.644 227.174ZM697.793 220.43C696.321 222.061 694.857 223.661 693.388 225.261C692.866 228.194 692.395 231.287 691.876 234.243C693.196 232.555 694.512 230.88 695.846 229.156C696.498 226.274 697.125 223.277 697.793 220.43ZM703.78 213.866C702.409 215.415 701.056 216.868 699.698 218.343C699.067 221.019 698.481 223.854 697.857 226.551C699.064 225.02 700.272 223.519 701.486 221.89C702.257 219.242 703 216.487 703.78 213.866ZM709.634 207.224C708.387 208.672 707.142 210.146 705.905 211.531C705.2 213.904 704.536 216.424 703.822 218.805C704.959 217.247 706.1 215.56 707.236 213.997C708.04 211.771 708.822 209.441 709.637 207.226L709.634 207.224ZM715.472 200.225C714.389 201.51 713.3 202.817 712.228 204.137C711.54 205.993 710.886 207.969 710.206 209.833C711.174 208.461 712.138 207.102 713.106 205.742C713.896 203.928 714.674 202.025 715.472 200.225ZM720.95 193.657C720.179 194.589 719.396 195.502 718.631 196.438C718.079 197.687 717.54 199.015 716.982 200.266C717.662 199.306 718.342 198.366 719.021 197.394C719.67 196.163 720.307 194.879 720.95 193.657ZM725.477 188.232L725.091 188.695C724.986 188.866 724.904 189.059 724.81 189.237C724.927 189.048 725.061 188.892 725.183 188.707L725.477 188.232ZM1138.81 49.3677C1139.82 49.7004 1140.82 49.957 1141.82 50.3016C1141.13 49.9359 1140.44 49.613 1139.75 49.2539C1138.66 48.8254 1137.58 48.4573 1136.5 48.0404C1137.27 48.4875 1138.04 48.911 1138.81 49.3677ZM1127.02 45.6921C1128.85 46.2504 1130.68 46.821 1132.52 47.4039C1131.1 46.5905 1129.68 45.7927 1128.26 44.9618C1126.36 44.2714 1124.45 43.4912 1122.55 42.8309C1124.05 43.7685 1125.54 44.7675 1127.03 45.6995L1127.02 45.6921ZM1114.37 41.8855C1116.9 42.5626 1119.42 43.3843 1121.94 44.1133L1114.37 41.8855ZM1102.26 39.0141C1104.87 39.6296 1107.49 40.2061 1110.1 40.8735C1108.1 39.5715 1106.1 38.3124 1104.1 37.0328C1101.42 36.2469 1098.74 35.3711 1096.07 34.6414C1098.14 36.1077 1100.21 37.5879 1102.27 39.0215L1102.26 39.0141ZM1089.53 36.0036C1092.53 36.6178 1095.54 37.4648 1098.55 38.14C1096.26 36.5677 1093.97 34.8981 1091.68 33.3825C1088.85 32.6523 1086.01 32.1664 1083.18 31.5183C1085.3 32.9986 1087.41 34.4461 1089.54 36.0109L1089.53 36.0036ZM1077.2 34.0038C1080.19 34.4797 1083.19 34.8803 1086.17 35.4364C1083.94 33.8214 1081.73 32.2759 1079.51 30.7171C1076.46 30.048 1073.41 29.3077 1070.36 28.7127C1072.64 30.4744 1074.93 32.2536 1077.2 34.0038ZM1064.64 31.9946C1067.83 32.4041 1071.02 33.0461 1074.21 33.5248C1071.84 31.7155 1069.44 29.784 1067.07 27.9922C1063.94 27.4196 1060.81 27.0636 1057.68 26.6129C1059.99 28.3804 1062.3 30.1158 1064.64 31.9946ZM693.711 214.925C691.963 216.563 690.212 218.212 688.466 219.839C688.036 223.078 687.702 226.598 687.299 229.861C688.896 228.115 690.494 226.365 692.092 224.608C692.636 221.445 693.133 218.063 693.711 214.925ZM700.45 208.618C698.763 210.217 697.083 211.777 695.401 213.349C694.844 216.364 694.368 219.652 693.829 222.707C695.358 221.036 696.887 219.378 698.424 217.667C699.105 214.704 699.74 211.547 700.441 208.613L700.45 208.618ZM707.061 202.432C705.455 203.985 703.873 205.42 702.274 206.911C701.6 209.709 701 212.735 700.329 215.576C701.77 214.02 703.207 212.491 704.666 210.819C705.463 208.076 706.231 205.146 707.052 202.426L707.061 202.432ZM713.61 196.05C712.086 197.559 710.551 199.118 709.052 200.568C708.274 203.119 707.556 205.887 706.79 208.466C708.177 206.844 709.597 205.061 710.993 203.424C711.865 201.009 712.71 198.436 713.592 196.059L713.61 196.05ZM720.18 189.334C718.766 190.758 717.353 192.215 715.938 193.667C715.134 195.818 714.375 198.159 713.577 200.327C714.862 198.782 716.15 197.237 717.439 195.689C718.343 193.624 719.243 191.391 720.171 189.328L720.18 189.334ZM726.574 182.794C725.349 184.054 724.129 185.292 722.907 186.54C722.124 188.275 721.375 190.171 720.592 191.919C721.704 190.59 722.813 189.275 723.925 187.917C724.809 186.24 725.675 184.45 726.565 182.789L726.574 182.794ZM732.6 176.63C731.7 177.578 730.806 178.468 729.913 179.379C729.291 180.532 728.687 181.798 728.066 182.956C728.892 181.975 729.716 181.017 730.548 179.978C731.227 178.885 731.903 177.712 732.591 176.625L732.6 176.63ZM737.281 171.859C737.181 171.962 737.087 172.053 736.991 172.155C736.817 172.436 736.633 172.735 736.455 173.022L736.996 172.381C737.205 172.097 737.429 171.781 737.643 171.487C737.52 171.593 737.398 171.704 737.281 171.859ZM750.548 156.414L750.075 156.817C749.777 157.198 749.471 157.534 749.175 157.913C749.398 157.691 749.623 157.462 749.846 157.241C750.07 157.02 750.32 156.662 750.557 156.399L750.548 156.414ZM1160.86 59.3794C1161.71 59.6658 1162.56 59.9101 1163.4 60.2025C1162.93 59.9562 1162.45 59.7254 1161.98 59.4753C1161.03 59.0976 1160.08 58.7531 1159.14 58.3833C1159.72 58.7216 1160.29 59.0436 1160.86 59.3794ZM1149.23 55.593C1150.96 56.1381 1152.67 56.7132 1154.39 57.2732C1153.17 56.5812 1151.93 55.8378 1150.7 55.1439C1148.88 54.4691 1147.05 53.6833 1145.24 53.0442C1146.57 53.8383 1147.9 54.7755 1149.23 55.5949L1149.23 55.593ZM1136.35 51.6675C1138.77 52.3383 1141.18 53.038 1143.59 53.76C1141.82 52.6885 1140.05 51.7152 1138.28 50.7101C1136.05 49.9622 1133.82 49.3277 1131.58 48.6389C1133.18 49.643 1134.77 50.6372 1136.35 51.6712L1136.35 51.6675ZM1124.31 48.5993C1126.86 49.2376 1129.42 49.8638 1131.97 50.5509C1130.14 49.3827 1128.31 48.2145 1126.47 47.024C1123.83 46.2181 1121.19 45.2941 1118.55 44.5478C1120.46 45.8576 1122.39 47.2847 1124.31 48.603L1124.31 48.5993ZM1111.23 45.3616C1114.33 46.0387 1117.42 46.8879 1120.51 47.6355C1118.27 46.1095 1116.04 44.673 1113.81 43.251C1111.02 42.5039 1108.22 41.9346 1105.42 41.2551C1107.36 42.6165 1109.3 43.9647 1111.24 45.3653L1111.23 45.3616ZM1098.97 43.1208C1101.94 43.6676 1104.9 44.1287 1107.86 44.7442C1105.8 43.2737 1103.74 41.8196 1101.68 40.3625C1098.66 39.6575 1095.64 38.8363 1092.61 38.2036C1094.73 39.8009 1096.86 41.5256 1098.98 43.1282L1098.97 43.1208ZM1085.93 40.7452C1089.27 41.2598 1092.61 41.9816 1095.93 42.5701C1093.58 40.8031 1091.22 39.0526 1088.88 37.3565C1085.8 36.7471 1082.7 36.3674 1079.61 35.8636C1081.71 37.4733 1083.81 39.0763 1085.93 40.7452ZM1073.47 39.3014C1076.64 39.6568 1079.83 39.8889 1083.01 40.3371C1080.87 38.6613 1078.74 37.0174 1076.61 35.3784C1073.37 34.8629 1070.13 34.2715 1066.9 33.8164C1069.08 35.6177 1071.28 37.5031 1073.47 39.3014ZM38.7392 -52.9548C38.3368 -53.8232 37.9465 -54.6843 37.5496 -55.5616C37.9472 -54.6921 38.3368 -53.8232 38.7392 -52.9548ZM695.756 202.719C693.847 204.241 691.934 205.778 690.032 207.296C689.547 210.625 689.167 214.265 688.713 217.678C690.501 216.007 692.293 214.329 694.089 212.646C694.67 209.431 695.142 205.847 695.756 202.719ZM703.084 196.884C701.221 198.386 699.367 199.86 697.514 201.334C696.895 204.443 696.368 207.873 695.788 211.068C697.524 209.451 699.259 207.841 700.999 206.19C701.704 203.175 702.331 199.811 703.072 196.877L703.084 196.884ZM710.3 191.125C708.489 192.622 706.708 194.004 704.92 195.419C704.179 198.305 703.537 201.527 702.818 204.484C704.479 202.948 706.138 201.448 707.812 199.81C708.652 196.99 709.419 193.861 710.284 191.123L710.3 191.125ZM717.486 185.124C715.738 186.614 713.972 188.134 712.246 189.588C711.398 192.233 710.643 195.241 709.814 197.956C711.446 196.332 713.101 194.558 714.735 192.923C715.648 190.389 716.519 187.58 717.474 185.117L717.486 185.124ZM724.685 178.83C723.013 180.276 721.335 181.747 719.667 183.208C718.751 185.534 717.924 188.163 717.032 190.538C718.587 188.945 720.144 187.349 721.698 185.765C722.718 183.519 723.677 181.009 724.704 178.825L724.685 178.83ZM731.828 172.625C730.291 173.981 728.757 175.305 727.225 176.64C726.274 178.647 725.383 180.926 724.444 182.982C725.881 181.519 727.315 180.075 728.756 178.573C729.781 176.633 730.781 174.486 731.818 172.614L731.828 172.625ZM738.767 166.583C737.434 167.776 736.121 168.903 734.805 170.035C733.885 171.665 733 173.506 732.088 175.17C733.356 173.887 734.602 172.653 735.868 171.308C736.849 169.753 737.794 168.044 738.77 166.552L738.767 166.583ZM742.581 163.255L742.49 163.335C741.709 164.505 740.931 165.725 740.155 166.995C741.059 166.099 741.966 165.168 742.871 164.265C743.671 163.205 744.459 162.01 745.261 160.96C744.384 161.704 743.478 162.413 742.584 163.224L742.581 163.255ZM753.351 150.652C752.015 151.623 750.673 152.596 749.335 153.583C748.128 155.316 746.934 157.02 745.749 158.717C746.858 157.779 747.979 156.789 749.084 155.857C750.496 154.015 751.928 152.4 753.354 150.62L753.351 150.652ZM760.369 145.534C759.547 146.121 758.719 146.738 757.898 147.337C757 148.435 756.119 149.473 755.237 150.573C755.771 150.11 756.309 149.641 756.849 149.189C758.015 147.897 759.201 146.754 760.371 145.503L760.369 145.534ZM1182.77 69.3082C1183.45 69.5465 1184.11 69.7496 1184.77 69.9866L1184.07 69.6231C1183.28 69.3054 1182.49 69.0017 1181.7 68.687L1182.77 69.3082ZM1171.31 65.426C1172.91 65.9415 1174.5 66.5149 1176.1 67.0498C1175.08 66.4787 1174.05 65.8237 1173.02 65.2653C1170.99 64.5013 1168.96 63.6315 1166.92 62.8988C1168.38 63.6942 1169.85 64.501 1171.31 65.3947L1171.31 65.426ZM1158.18 61.3763C1160.25 61.9773 1162.34 62.4574 1164.41 63.0879C1163.06 62.2923 1161.72 61.5378 1160.38 60.7591C1158.24 60.0325 1156.11 59.3606 1153.96 58.6695C1155.38 59.5552 1156.78 60.4492 1158.18 61.345L1158.18 61.3763ZM1146.25 58.1348C1148.74 58.7897 1151.21 59.4686 1153.68 60.1563C1152.03 59.1149 1150.38 58.0166 1148.73 56.9673C1145.89 56.0791 1143.08 55.0254 1140.24 54.1981C1142.25 55.4441 1144.24 56.7412 1146.25 58.1005L1146.25 58.1348ZM1132.88 54.7049C1135.88 55.3951 1138.87 56.1913 1141.86 56.9482C1139.84 55.6001 1137.83 54.3463 1135.82 53.0701C1133.08 52.3027 1130.33 51.6732 1127.58 50.9636C1129.35 52.1786 1131.12 53.4153 1132.88 54.6707L1132.88 54.7049ZM1120.65 52.1703C1123.59 52.753 1126.51 53.3154 1129.43 53.9605C1127.54 52.6353 1125.66 51.2915 1123.76 49.941C1120.6 49.1527 1117.45 48.2314 1114.28 47.5148C1116.41 49.0367 1118.53 50.5942 1120.65 52.1703ZM1107.13 49.4313C1110.57 50.0081 1113.98 50.8485 1117.41 51.5095C1115.15 49.8435 1112.91 48.3138 1110.67 46.7349C1107.61 46.0801 1104.53 45.6246 1101.46 45.0451C1103.36 46.5085 1105.25 47.9634 1107.14 49.4387L1107.13 49.4313ZM1094.79 47.7629C1097.96 48.1907 1101.15 48.5421 1104.31 49.0463C1102.35 47.5332 1100.38 45.9989 1098.42 44.481C1095.07 43.8718 1091.75 43.1779 1088.39 42.6354C1090.52 44.3281 1092.66 46.0323 1094.79 47.7629ZM1081.45 45.9792C1085.03 46.3678 1088.58 46.9545 1092.14 47.4177C1089.83 45.5507 1087.54 43.836 1085.25 42.0766C1082 41.5959 1078.73 41.3501 1075.47 40.9887C1077.46 42.6343 1079.46 44.2978 1081.45 45.9792ZM698.492 190.084C696.359 191.527 694.223 192.975 692.102 194.4C691.517 198.025 690.9 201.507 690.354 205.215C692.305 203.665 694.259 202.105 696.217 200.533C696.964 196.941 697.746 193.607 698.492 190.084ZM706.409 184.709C704.328 186.142 702.265 187.519 700.187 188.934C699.456 192.366 698.676 195.644 697.98 199.139C699.877 197.629 701.772 196.135 703.684 194.594C704.546 191.185 705.508 188.048 706.409 184.709ZM714.238 179.403C712.212 180.833 710.22 182.143 708.218 183.488C707.337 186.72 706.41 189.808 705.552 193.112C707.372 191.671 709.185 190.271 711.027 188.736C712.06 185.498 713.172 182.553 714.232 179.399L714.238 179.403ZM722.114 173.738C720.144 175.165 718.156 176.663 716.179 178.082C715.155 181.118 714.088 183.996 713.086 187.103C714.887 185.576 716.715 183.908 718.516 182.373C719.676 179.371 720.916 176.654 722.108 173.734L722.114 173.738ZM730.051 167.849C728.144 169.254 726.231 170.683 724.324 172.096C723.19 174.849 722.022 177.461 720.903 180.278C722.628 178.771 724.355 177.265 726.084 175.761C727.378 173.011 728.732 170.526 730.045 167.846L730.051 167.849ZM737.953 161.99C736.144 163.351 734.351 164.665 732.557 165.989C731.334 168.457 730.091 170.804 728.876 173.325C730.487 171.929 732.095 170.546 733.713 169.112C735.106 166.631 736.552 164.384 737.948 161.983L737.953 161.99ZM745.793 156.17C744.139 157.441 742.513 158.618 740.88 159.816C739.632 161.936 738.357 163.979 737.105 166.16C738.543 164.924 739.977 163.707 741.437 162.382C742.875 160.209 744.344 158.266 745.789 156.163L745.793 156.17ZM761.291 140.989C759.449 142.115 757.609 143.259 755.762 144.407C754.444 146.232 753.139 148.157 751.826 150.015C753.524 148.779 755.222 147.523 756.921 146.3C758.372 144.515 759.832 142.728 761.287 140.982L761.291 140.989ZM769.797 135.738C768.199 136.705 766.596 137.706 764.995 138.704C763.813 140.093 762.641 141.575 761.467 142.986C762.977 141.882 764.487 140.778 765.985 139.692C767.251 138.366 768.517 137.033 769.793 135.731L769.797 135.738ZM778.193 130.551C777.009 131.257 775.815 132.011 774.623 132.754C773.929 133.449 773.244 134.203 772.551 134.903C773.922 133.895 775.295 132.838 776.659 131.909C777.168 131.454 777.679 130.989 778.189 130.544L778.193 130.551ZM786.157 125.622C785.82 125.827 785.488 126.035 785.157 126.243C785.049 126.338 784.94 126.44 784.832 126.534C785.109 126.354 785.385 126.182 785.662 126.002L786.157 125.622ZM1204.52 79.0473C1204.94 79.1959 1205.36 79.3386 1205.78 79.495C1205.23 79.2717 1204.69 79.0453 1204.13 78.8214L1204.52 79.0473ZM1192.11 74.6898C1193.95 75.2918 1195.77 75.9931 1197.61 76.6204C1196.42 75.9651 1195.23 75.3634 1194.04 74.7413C1192.38 74.1247 1190.72 73.5155 1189.07 72.9044C1190.08 73.5091 1191.08 74.0691 1192.11 74.6898ZM1179.87 70.9085C1181.8 71.4907 1183.76 71.9774 1185.69 72.5861C1184.57 71.9304 1183.44 71.2934 1182.32 70.6329C1180.29 69.9271 1178.26 69.2459 1176.23 68.5646C1177.43 69.3544 1178.65 70.1357 1179.87 70.9085ZM1167.52 67.3453C1170.1 68.0569 1172.67 68.8214 1175.24 69.5788C1173.73 68.641 1172.21 67.5977 1170.7 66.69C1167.87 65.7713 1165.05 64.7929 1162.22 63.9301C1163.98 65.054 1165.77 66.1727 1167.52 67.3453ZM1154.4 63.8778C1157.2 64.5634 1160 65.243 1162.78 65.9796C1161.08 64.8645 1159.38 63.7904 1157.69 62.6976C1155.01 61.925 1152.33 61.2319 1149.64 60.5075C1151.23 61.6428 1152.82 62.7715 1154.41 63.8797L1154.4 63.8778ZM1141.95 61.0844C1144.93 61.7315 1147.9 62.3785 1150.87 63.0846C1149.16 61.9054 1147.44 60.6078 1145.74 59.439C1142.43 58.5721 1139.14 57.5355 1135.82 56.7476C1137.86 58.1694 1139.9 59.5792 1141.95 61.0863L1141.95 61.0844ZM1128.38 58.15C1131.72 58.7802 1135.01 59.5708 1138.33 60.2737C1136.33 58.8204 1134.34 57.4331 1132.35 56.0342C1129.33 55.34 1126.27 54.795 1123.23 54.1695C1124.95 55.5014 1126.67 56.8363 1128.39 58.1518L1128.38 58.15ZM1115.83 56.1483C1119.05 56.6653 1122.27 57.1011 1125.49 57.6904C1123.7 56.3304 1121.91 54.9005 1120.11 53.5428C1116.63 52.8455 1113.16 52.0218 1109.67 51.4069C1111.73 52.9605 1113.77 54.503 1115.83 56.1502L1115.83 56.1483ZM1102.2 53.9976C1105.77 54.4717 1109.29 55.1412 1112.84 55.6928C1110.74 54.0302 1108.65 52.4339 1106.58 50.8397C1103.35 50.2996 1100.08 49.9647 1096.85 49.5253C1098.65 50.9981 1100.44 52.4944 1102.2 53.9976ZM1089.45 52.6867C1092.82 53.0055 1096.2 53.2154 1099.54 53.6305C1097.77 52.1706 1096 50.6637 1094.21 49.1681C1090.65 48.6855 1087.09 48.1313 1083.52 47.7295C1085.49 49.3447 1087.47 50.9605 1089.46 52.6718L1089.45 52.6867ZM701.173 177.651C698.834 179 696.497 180.341 694.16 181.677C693.555 185.228 693.004 188.904 692.418 192.529C694.581 191.064 696.748 189.593 698.918 188.116C699.669 184.585 700.411 181.073 701.18 177.647L701.173 177.651ZM709.709 172.754C707.404 174.094 705.116 175.394 702.827 176.702C702.066 180.062 701.34 183.527 700.619 186.969C702.746 185.536 704.861 184.12 706.987 182.641C707.886 179.312 708.795 175.986 709.721 172.74L709.709 172.754ZM718.179 167.889C715.908 169.254 713.682 170.482 711.455 171.75C710.549 174.909 709.667 178.177 708.789 181.419C710.853 180.034 712.898 178.699 714.992 177.212C716.062 174.068 717.117 170.939 718.191 167.876L718.179 167.889ZM726.749 162.616C724.523 163.988 722.259 165.464 720.036 166.826C718.991 169.775 717.968 172.816 716.949 175.839C719.009 174.339 721.099 172.73 723.159 171.231C724.357 168.314 725.551 165.437 726.761 162.602L726.749 162.616ZM735.372 157.201C733.19 158.572 730.998 159.957 728.815 161.327C727.649 164.031 726.507 166.829 725.361 169.596C727.383 168.107 729.403 166.61 731.42 165.105C732.749 162.418 734.065 159.773 735.392 157.176L735.372 157.201ZM744.025 151.76C741.897 153.122 739.789 154.431 737.679 155.751C736.416 158.197 735.172 160.739 733.923 163.235C735.873 161.8 737.819 160.378 739.78 158.892C741.213 156.472 742.621 154.086 744.045 151.735L744.025 151.76ZM752.72 146.278C750.674 147.621 748.658 148.834 746.646 150.082C745.318 152.232 744.029 154.485 742.715 156.685C744.14 155.645 745.562 154.615 747.013 153.499C747.44 153.163 747.867 152.886 748.294 152.563C749.778 150.456 751.247 148.347 752.72 146.278ZM768.585 132.117C766.379 133.25 764.17 134.399 761.959 135.563C760.552 137.425 759.189 139.591 757.787 141.505C759.87 140.21 761.952 138.914 764.034 137.647C765.558 135.85 767.06 133.861 768.585 132.117ZM777.983 127.236C775.916 128.285 773.842 129.379 771.771 130.462C770.411 131.994 769.09 133.797 767.735 135.36C769.741 134.121 771.721 132.865 773.701 131.676C775.135 130.239 776.552 128.636 777.985 127.233L777.983 127.236ZM787.513 122.283C785.692 123.182 783.87 124.163 782.029 125.133C780.856 126.255 779.707 127.553 778.53 128.693C780.458 127.476 782.384 126.232 784.298 125.13C785.37 124.218 786.441 123.174 787.515 122.28L787.513 122.283ZM796.53 117.785C795.483 118.282 794.444 118.698 793.392 119.23C792.272 120.137 791.148 121 790.03 121.925C791.232 121.271 792.43 120.639 793.634 119.975C794.597 119.268 795.565 118.47 796.532 117.782L796.53 117.785ZM1212.68 83.8171C1214.26 84.3432 1215.8 84.9816 1217.37 85.5215C1216.53 85.0681 1215.68 84.649 1214.84 84.2015C1213.59 83.7269 1212.32 83.3388 1211.06 82.8701C1211.61 83.1754 1212.14 83.5028 1212.69 83.8141L1212.68 83.8171ZM1201.4 80.3564C1203.2 80.9158 1205.01 81.421 1206.81 82.0001C1205.89 81.4721 1205 80.954 1204.1 80.4178C1202.19 79.74 1200.29 79.0593 1198.38 78.4032C1199.39 79.0188 1200.41 79.7345 1201.4 80.3535L1201.4 80.3564ZM1188.38 76.3957C1191.09 77.1689 1193.78 78.0435 1196.48 78.8599C1194.85 77.8481 1193.19 76.9393 1191.55 75.9998C1189.06 75.179 1186.56 74.3938 1184.06 73.6133C1185.5 74.5361 1186.93 75.4419 1188.38 76.3927L1188.38 76.3957ZM1175.79 72.9861C1178.35 73.6492 1180.95 74.209 1183.5 74.9106C1182.13 74.034 1180.77 73.1573 1179.4 72.2681C1176.81 71.4899 1174.2 70.749 1171.59 70.0093C1173 70.9618 1174.39 72.0197 1175.79 72.9831L1175.79 72.9861ZM1162.78 69.8162C1165.92 70.5468 1169.04 71.3177 1172.17 72.1024C1170.42 70.9148 1168.69 69.7872 1166.95 68.6685C1163.77 67.7931 1160.64 66.834 1157.45 66.04C1159.23 67.2889 1161 68.5293 1162.79 69.8132L1162.78 69.8162ZM1149.52 66.7809C1152.72 67.44 1155.89 68.1946 1159.08 68.9138L1153.9 65.2404C1150.92 64.5077 1147.9 63.8891 1144.91 63.2153C1146.45 64.3699 1147.99 65.621 1149.52 66.7779L1149.52 66.7809ZM1136.46 64.3943C1139.83 65.0008 1143.2 65.5682 1146.55 66.2377C1144.82 64.9406 1143.07 63.6729 1141.35 62.4181C1137.84 61.6572 1134.37 60.741 1130.85 60.0607C1132.72 61.4888 1134.59 62.9192 1136.46 64.3913L1136.46 64.3943ZM1122.89 61.9187C1126.44 62.454 1129.91 63.2314 1133.43 63.8406C1131.58 62.3953 1129.72 60.9644 1127.87 59.5288C1124.65 58.9316 1121.41 58.5113 1118.18 57.9827C1119.74 59.2558 1121.32 60.6334 1122.89 61.9187ZM1109.76 60.2879C1113.27 60.716 1116.8 61.0527 1120.29 61.5625C1118.59 60.1875 1116.9 58.8313 1115.22 57.5089C1111.6 56.9274 1107.99 56.2724 1104.37 55.7625C1106.15 57.2629 1107.95 58.7551 1109.76 60.2842L1109.76 60.2879ZM1096.3 58.6489C1099.92 59.0243 1103.52 59.5314 1107.13 59.9687C1105.28 58.4143 1103.43 56.8674 1101.59 55.328C1098.21 54.8944 1094.8 54.634 1091.39 54.3008C1093.03 55.7167 1094.68 57.2248 1096.3 58.6526L1096.3 58.6489ZM703.842 165.339C701.292 166.574 698.745 167.795 696.2 169.005C695.555 172.457 695.051 176.327 694.447 179.875C696.818 178.522 699.192 177.159 701.569 175.785C702.357 172.375 703.047 168.674 703.848 165.343L703.842 165.339ZM712.982 160.943C710.46 162.173 707.965 163.359 705.458 164.557C704.677 167.83 703.989 171.5 703.24 174.842C705.577 173.51 707.908 172.194 710.272 170.825C711.185 167.588 712.026 164.104 712.997 160.952L712.982 160.943ZM722.074 156.566C719.572 157.83 717.135 158.948 714.676 160.122C713.737 163.203 712.906 166.656 711.996 169.816C714.284 168.515 716.559 167.264 718.88 165.864C719.97 162.815 720.98 159.534 722.08 156.57L722.074 156.566ZM731.294 151.752C728.831 153.027 726.338 154.417 723.87 155.68C722.796 158.549 721.814 161.773 720.766 164.72C723.069 163.296 725.391 161.793 727.698 160.363C728.912 157.548 730.069 154.499 731.3 151.756L731.294 151.752ZM740.566 146.842C738.118 148.126 735.688 149.434 733.256 150.712C732.062 153.354 730.944 156.341 729.759 159.05C732.03 157.628 734.306 156.197 736.585 154.757C737.935 152.178 739.223 149.363 740.572 146.846L740.566 146.842ZM749.881 141.909C747.475 143.211 745.101 144.45 742.717 145.704C741.418 148.108 740.187 150.843 738.901 153.312C741.13 151.921 743.355 150.549 745.607 149.093C747.05 146.758 748.444 144.194 749.887 141.912L749.881 141.909ZM758.486 137.355C756.377 138.531 754.334 139.562 752.272 140.643C750.902 142.787 749.585 145.246 748.22 147.448C749.613 146.586 750.997 145.739 752.413 144.812C753.194 144.299 753.969 143.861 754.751 143.365C756.247 141.198 757.735 138.986 759.25 136.955C759.001 137.103 758.747 137.219 758.495 137.36L758.486 137.355ZM776.689 123.139C774.228 124.188 771.764 125.264 769.295 126.342C767.519 128.579 765.72 130.628 763.958 132.931C766.258 131.733 768.555 130.525 770.854 129.342C772.794 127.173 774.759 125.264 776.698 123.144L776.689 123.139ZM787.115 118.657C784.749 119.653 782.38 120.689 780.007 121.731C778.214 123.656 776.41 125.437 774.625 127.416C776.821 126.265 779.016 125.11 781.206 123.996C783.151 122.112 785.132 120.473 787.115 118.657ZM797.9 113.988C795.666 114.892 793.405 115.908 791.136 116.902C789.471 118.418 787.8 119.857 786.138 121.416C788.297 120.271 790.474 119.084 792.616 118.048C794.372 116.625 796.129 115.368 797.885 113.978L797.9 113.988ZM807.8 110.097C806.148 110.729 804.499 111.301 802.839 111.953C801.325 113.125 799.808 114.261 798.298 115.46C799.739 114.814 801.188 114.164 802.636 113.493C804.344 112.296 806.06 111.245 807.785 110.088L807.8 110.097ZM816.558 106.808C815.616 107.162 814.673 107.515 813.729 107.865C812.762 108.507 811.816 109.113 810.861 109.749C811.596 109.423 812.33 109.079 813.062 108.75C814.232 108.068 815.394 107.473 816.558 106.808ZM1233.73 93.1789C1234.67 93.4973 1235.62 93.7695 1236.55 94.0959L1236.14 93.8756C1235.08 93.4679 1234 93.1084 1232.92 92.7127L1233.73 93.1789ZM1222.7 89.6704C1224.38 90.2069 1226.06 90.7224 1227.73 91.2726C1227.05 90.8908 1226.38 90.4638 1225.7 90.0838C1223.67 89.3507 1221.63 88.571 1219.59 87.854C1220.63 88.4489 1221.67 89.0215 1222.71 89.6585L1222.7 89.6704ZM1209.05 85.3098C1211.57 86.0435 1214.05 86.9274 1216.56 87.7055C1215.1 86.8319 1213.64 86.0005 1212.19 85.1504C1210.06 84.4401 1207.9 83.8716 1205.77 83.1897C1206.87 83.895 1207.96 84.5955 1209.05 85.3098ZM1197.04 81.9899C1199.45 82.6553 1201.91 83.2048 1204.32 83.8966C1203.19 83.2012 1202.08 82.4516 1200.96 81.7218C1198.23 80.8622 1195.49 80.0266 1192.75 79.2193C1194.19 80.1235 1195.62 81.0155 1197.05 81.9865L1197.04 81.9899ZM1183.45 78.4299C1186.53 79.1953 1189.6 80.0317 1192.67 80.8446C1191.06 79.7675 1189.45 78.7548 1187.84 77.7235C1184.88 76.8826 1181.92 76.0277 1178.95 75.236L1183.45 78.4299ZM1170.53 75.3233C1173.58 76.0042 1176.62 76.7078 1179.65 77.434C1178.21 76.4224 1176.77 75.3959 1175.32 74.3419C1172.2 73.5374 1169.07 72.8039 1165.94 72.0517C1167.48 73.1224 1169.01 74.1816 1170.55 75.3199L1170.53 75.3233ZM1156.95 72.537C1160.33 73.2094 1163.72 73.8777 1167.08 74.6083C1165.45 73.4139 1163.83 72.2835 1162.19 71.1409C1158.78 70.3456 1155.4 69.4205 1151.97 68.6853L1156.95 72.537ZM1143.45 69.8072C1146.95 70.4173 1150.38 71.2266 1153.84 71.8991C1152.23 70.662 1150.61 69.4026 1149 68.1433C1145.65 67.4521 1142.27 66.9201 1138.91 66.292C1140.45 67.4544 1141.96 68.5905 1143.48 69.8112L1143.45 69.8072ZM1129.94 67.8148C1133.47 68.3464 1137.04 68.785 1140.55 69.376C1138.98 68.119 1137.41 66.9321 1135.85 65.7325C1132.25 65.0868 1128.69 64.3328 1125.07 63.7561C1126.71 65.1139 1128.34 66.4681 1129.96 67.8188L1129.94 67.8148ZM1116.35 65.813C1120.01 66.2788 1123.62 66.8958 1127.26 67.4198C1125.6 66.0477 1123.94 64.6435 1122.28 63.2521C1118.8 62.7225 1115.26 62.4127 1111.75 61.9708C1113.31 63.2438 1114.84 64.4887 1116.38 65.817L1116.35 65.813ZM1102.65 64.3451C1106.31 64.6812 1109.99 64.9699 1113.61 65.4104C1112.11 64.1237 1110.62 62.8914 1109.13 61.6493C1105.47 61.1981 1101.81 60.7125 1098.14 60.3135C1099.67 61.6616 1101.17 63.0116 1102.68 64.3491L1102.65 64.3451ZM706.938 152.965C704.205 154.067 701.478 155.153 698.757 156.223C698.003 159.955 697.17 163.477 696.454 167.315C699.03 166.086 701.608 164.847 704.186 163.598C705.106 159.96 706.05 156.511 706.964 152.969L706.938 152.965ZM716.689 149.074C713.977 150.183 711.298 151.23 708.602 152.299C707.682 155.837 706.704 159.187 705.818 162.83C708.364 161.609 710.899 160.412 713.468 159.152C714.537 155.702 715.64 152.425 716.717 149.075L716.689 149.074ZM726.444 145.214C723.742 146.354 721.126 147.341 718.477 148.389C717.387 151.732 716.251 154.897 715.19 158.341C717.702 157.141 720.179 156.011 722.733 154.709C723.936 151.457 725.19 148.356 726.444 145.214ZM736.356 140.848C733.691 142.003 730.988 143.229 728.322 144.391C727.072 147.54 725.78 150.514 724.551 153.754C727.084 152.427 729.639 151.043 732.159 149.729C733.524 146.676 734.94 143.796 736.344 140.841L736.356 140.848ZM746.324 136.451C743.669 137.625 741.018 138.79 738.374 139.947C736.964 142.897 735.502 145.638 734.114 148.681C736.623 147.361 739.135 146.031 741.651 144.69C743.19 141.852 744.761 139.196 746.312 136.444L746.324 136.451ZM756.368 132.006C753.734 133.196 751.142 134.317 748.54 135.457C746.976 138.209 745.355 140.711 743.809 143.549C746.275 142.234 748.757 140.962 751.266 139.6C752.947 136.974 754.667 134.558 756.368 132.006ZM763.77 128.729C762.096 129.504 760.466 130.2 758.823 130.911C757.135 133.422 755.405 135.699 753.73 138.284C755.077 137.583 756.418 136.891 757.793 136.133C758.856 135.551 759.911 135.042 760.977 134.481C762.798 132.07 764.641 129.891 766.494 127.561C765.599 127.958 764.703 128.31 763.785 128.738L763.77 128.729ZM784.867 114.495C782.072 115.471 779.269 116.473 776.465 117.476C774.697 119.607 772.938 121.812 771.186 124.011C773.837 122.86 776.486 121.699 779.126 120.579C781.05 118.515 782.969 116.49 784.882 114.505L784.867 114.495ZM796.071 110.515C793.323 111.461 790.553 112.476 787.799 113.452C785.998 115.302 784.215 117.245 782.411 119.146C785.046 117.994 787.685 116.823 790.31 115.735C792.249 113.97 794.169 112.215 796.095 110.509L796.071 110.515ZM807.691 106.39C805.005 107.263 802.268 108.291 799.543 109.28C797.81 110.8 796.079 112.424 794.347 113.982C796.937 112.855 799.523 111.73 802.087 110.72C803.979 109.265 805.845 107.791 807.715 106.384L807.691 106.39ZM818.376 103.109C816.106 103.818 813.845 104.478 811.578 105.168C809.903 106.406 808.229 107.776 806.552 109.05C808.703 108.247 810.858 107.437 813.018 106.62C814.833 105.449 816.62 104.243 818.4 103.104L818.376 103.109ZM828.92 99.9151C826.994 100.489 825.064 101.082 823.14 101.665C821.754 102.536 820.35 103.503 818.974 104.392C820.886 103.673 822.806 102.942 824.712 102.248C826.146 101.473 827.547 100.665 828.945 99.9094L828.92 99.9151ZM839.309 96.7652C837.969 97.1474 836.614 97.579 835.252 97.9766C834.676 98.2781 834.098 98.6315 833.522 98.9409C835.143 98.3267 836.762 97.7155 838.391 97.1731C838.727 97.0456 839.029 96.8977 839.333 96.7595L839.309 96.7652ZM1254.7 102.458L1254.94 102.538L1254.65 102.43L1254.7 102.458ZM1242.77 98.4773C1244.66 99.096 1246.55 99.7252 1248.43 100.365C1247.84 100.035 1247.23 99.7325 1246.64 99.4084C1244.51 98.6269 1242.41 97.7724 1240.26 97.0062C1241.11 97.5044 1241.94 97.9776 1242.77 98.4773ZM1229.55 94.0629C1231.85 94.7719 1234.09 95.6297 1236.4 96.3569C1235.38 95.7545 1234.36 95.1636 1233.35 94.5601C1231.37 93.8819 1229.35 93.3027 1227.36 92.6474C1228.08 93.1185 1228.81 93.6019 1229.55 94.0629ZM1217.32 90.6419C1219.91 91.3813 1222.53 92.0465 1225.1 92.8176C1224.14 92.222 1223.18 91.5765 1222.22 90.9965C1219.35 90.0791 1216.51 89.1221 1213.63 88.2501C1214.86 89.0484 1216.09 89.828 1217.32 90.6449L1217.32 90.6419ZM1204 86.9148C1206.96 87.6954 1209.87 88.5622 1212.82 89.3831C1211.41 88.4612 1209.99 87.5599 1208.58 86.6428C1205.86 85.8339 1203.11 85.1001 1200.36 84.3357C1201.57 85.2108 1202.78 86.0751 1204 86.9178L1204 86.9148ZM1190.79 83.6143C1193.89 84.3618 1197.02 85.035 1200.09 85.8233C1198.91 85.0107 1197.72 84.122 1196.54 83.328C1193.29 82.4421 1190.03 81.5929 1186.77 80.7622C1188.1 81.7102 1189.45 82.6432 1190.79 83.6173L1190.79 83.6143ZM1177.36 80.5797C1180.66 81.3017 1183.96 82.0375 1187.24 82.8099C1185.81 81.7804 1184.37 80.7659 1182.95 79.7474C1179.66 78.9539 1176.42 78.0463 1173.12 77.293C1174.54 78.4109 1175.95 79.5162 1177.36 80.6032L1177.36 80.5797ZM1163.5 77.5785C1167.08 78.2772 1170.62 79.085 1174.17 79.855C1172.77 78.8067 1171.37 77.6824 1169.98 76.6534C1166.52 75.8785 1163 75.232 1159.53 74.5071C1160.87 75.5378 1162.19 76.5495 1163.52 77.5944L1163.5 77.5785ZM1150.04 75.2582C1153.54 75.8623 1157.06 76.4039 1160.54 77.0626C1159.16 75.9844 1157.77 74.9434 1156.41 73.8659C1152.85 73.1604 1149.33 72.3209 1145.76 71.6832C1147.21 72.8927 1148.64 74.1115 1150.06 75.2778L1150.04 75.2582ZM1135.99 72.8545C1139.8 73.4363 1143.56 74.1692 1147.34 74.8074C1145.86 73.6059 1144.38 72.3556 1142.9 71.1735C1139.31 70.5568 1135.67 70.1196 1132.06 69.572C1133.37 70.6613 1134.68 71.7458 1135.99 72.8545ZM1122.38 71.0917C1125.98 71.5392 1129.63 71.854 1133.2 72.3747C1131.93 71.3121 1130.66 70.2496 1129.38 69.187C1125.73 68.6527 1122.09 68.0473 1118.42 67.5682C1119.74 68.7137 1121.07 69.942 1122.38 71.0917ZM1108.34 69.442C1112.22 69.8654 1116.09 70.3407 1119.95 70.8271C1118.53 69.5989 1117.12 68.3755 1115.72 67.1841C1111.98 66.7209 1108.21 66.3376 1104.44 65.9711C1105.75 67.1033 1107.05 68.2564 1108.35 69.43L1108.34 69.442ZM710.331 140.666C707.379 141.64 704.449 142.581 701.52 143.544C700.724 147.183 699.921 150.819 699.152 154.587C701.901 153.484 704.671 152.403 707.442 151.285C708.384 147.665 709.355 144.179 710.331 140.666ZM720.719 137.289C717.775 138.279 714.885 139.187 711.962 140.141C710.997 143.598 710.029 147.058 709.093 150.615C711.833 149.528 714.551 148.476 717.317 147.347C718.428 143.909 719.578 140.616 720.719 137.289ZM731.107 133.866C728.169 134.893 725.313 135.793 722.421 136.737C721.291 140.005 720.161 143.274 719.057 146.641C721.762 145.556 724.44 144.522 727.196 143.349C728.48 140.113 729.799 137.007 731.107 133.866ZM741.687 130.032C738.777 131.073 735.822 132.16 732.927 133.21C731.638 136.28 730.365 139.365 729.084 142.516C731.82 141.314 734.579 140.077 737.309 138.884C738.752 135.867 740.221 132.961 741.687 130.032ZM752.341 126.179C749.432 127.246 746.529 128.297 743.632 129.334C742.206 132.171 740.766 135.058 739.348 137.995C742.071 136.802 744.8 135.596 747.536 134.378C749.116 131.586 750.724 128.882 752.332 126.173L752.341 126.179ZM763.092 122.282C760.179 123.374 757.32 124.38 754.444 125.42C752.878 128.034 751.316 130.694 749.757 133.399C752.462 132.216 755.151 131.063 757.891 129.815C759.606 127.247 761.349 124.754 763.083 122.276L763.092 122.282ZM769.102 120.1C767.854 120.567 766.624 121.01 765.396 121.445C763.713 123.827 762.042 126.264 760.372 128.72C761.313 128.314 762.253 127.911 763.215 127.465C764.954 126.659 766.677 125.972 768.408 125.22C770.252 122.905 772.076 120.623 773.938 118.386C772.315 118.957 770.721 119.476 769.093 120.094L769.102 120.1ZM792.706 106.241C789.631 107.101 786.541 107.997 783.456 108.88C781.679 110.918 779.954 113.29 778.188 115.397C781.131 114.343 784.08 113.286 787.017 112.262C788.906 110.302 790.785 108.124 792.697 106.236L792.706 106.241ZM804.57 102.859C801.523 103.694 798.448 104.6 795.382 105.478C793.565 107.247 791.766 109.375 789.952 111.213C792.91 110.148 795.871 109.065 798.807 108.069C800.724 106.386 802.634 104.48 804.561 102.853L804.57 102.859ZM816.746 99.4207C813.833 100.166 810.873 101.047 807.919 101.904C806.032 103.465 804.164 105.223 802.282 106.837C805.178 105.825 808.071 104.832 810.928 103.916C812.869 102.462 814.795 100.805 816.737 99.4152L816.746 99.4207ZM828.165 96.6925C825.652 97.3048 823.152 97.8963 820.65 98.4859C818.674 99.8762 816.7 101.33 814.723 102.761C817.327 101.976 819.928 101.189 822.529 100.399C824.398 99.2151 826.28 97.8289 828.156 96.6869L828.165 96.6925ZM839.681 93.9414C837.491 94.452 835.292 94.9855 833.097 95.5129C831.151 96.6534 829.224 97.7639 827.297 98.9535C829.773 98.1941 832.253 97.4209 834.718 96.7048C836.374 95.8396 838.021 94.7795 839.672 93.9359L839.681 93.9414ZM851.477 91.1242C849.764 91.4996 848.026 91.9374 846.296 92.3602C844.656 93.1731 843.027 93.8481 841.379 94.6935C843.571 94.0189 845.762 93.3522 847.93 92.7622C849.105 92.2324 850.296 91.6172 851.468 91.1187L851.477 91.1242ZM861.793 88.8961C861.25 89.0112 860.72 89.0926 860.175 89.2058C859.07 89.6551 857.977 90.0504 856.886 90.5119C857.605 90.3323 858.338 90.1698 859.054 89.9679C859.962 89.6238 860.888 89.2089 861.793 88.8961ZM1262.58 107.108C1264.14 107.635 1265.68 108.199 1267.24 108.726C1266.83 108.497 1266.4 108.285 1266 108.063C1264.25 107.395 1262.52 106.672 1260.76 106.031C1261.35 106.388 1261.97 106.744 1262.58 107.108ZM1250.28 102.969C1252.17 103.564 1254.05 104.178 1255.92 104.799C1255.37 104.484 1254.83 104.155 1254.28 103.831C1252.44 103.184 1250.57 102.603 1248.72 101.974C1249.24 102.293 1249.76 102.642 1250.28 102.969ZM1237.38 99.128C1239.92 99.871 1242.46 100.612 1244.98 101.382C1244.08 100.827 1243.2 100.335 1242.31 99.8111C1239.64 98.93 1237 97.9915 1234.32 97.1421L1237.38 99.128ZM1224.37 95.276C1227.18 96.0491 1229.92 96.9384 1232.71 97.7451C1231.51 96.9799 1230.32 96.2028 1229.12 95.414C1226.57 94.6316 1223.94 94.0007 1221.37 93.2434C1222.37 93.9149 1223.37 94.6038 1224.37 95.2879L1224.37 95.276ZM1210.84 91.7902C1213.87 92.5615 1216.95 93.2227 1219.97 94.0306C1218.92 93.3295 1217.87 92.6695 1216.82 91.9986C1213.7 91.1066 1210.58 90.2067 1207.43 89.3692C1208.57 90.1735 1209.71 90.971 1210.84 91.7902ZM1197.62 88.5419C1200.83 89.2874 1204.01 90.0994 1207.19 90.8947C1205.96 90.0277 1204.74 89.1529 1203.51 88.2703C1200.28 87.4179 1197.06 86.5782 1193.81 85.7743C1195.08 86.6724 1196.35 87.5919 1197.62 88.533L1197.62 88.5419ZM1183.41 85.2702C1186.98 86.0301 1190.51 86.8535 1194.05 87.6631C1192.78 86.7342 1191.52 85.856 1190.26 84.973C1186.87 84.1563 1183.45 83.423 1180.03 82.6609L1183.41 85.2702ZM1170.06 82.6516C1173.5 83.3123 1176.96 83.9519 1180.38 84.664C1179.2 83.764 1178.02 82.8521 1176.84 81.9283C1173.2 81.1311 1169.61 80.1984 1165.95 79.471C1167.32 80.5134 1168.68 81.5384 1170.06 82.6516ZM1155.48 79.8005C1159.35 80.4633 1163.13 81.3214 1166.97 82.0447C1165.63 80.9778 1164.29 79.9773 1162.96 78.9432C1159.42 78.2529 1155.81 77.7287 1152.24 77.0948C1153.33 78.0057 1154.41 78.9088 1155.49 79.8043L1155.48 79.8005ZM1141.86 77.7523C1145.49 78.2954 1149.16 78.7403 1152.76 79.3427C1151.68 78.4525 1150.6 77.5399 1149.52 76.6321C1145.74 75.9742 1141.98 75.2748 1138.17 74.6763C1139.4 75.6855 1140.62 76.6899 1141.86 77.7505L1141.86 77.7523ZM1127.5 75.6628C1131.41 76.1796 1135.27 76.7946 1139.16 77.36C1137.9 76.2809 1136.64 75.2387 1135.38 74.1946C1131.69 73.6368 1127.95 73.2314 1124.24 72.7469C1125.32 73.7229 1126.41 74.6988 1127.49 75.6609L1127.5 75.6628ZM1113.37 73.9184C1117.26 74.3269 1121.13 74.8081 1124.97 75.3017C1123.92 74.3745 1122.87 73.42 1121.81 72.4655C1117.95 71.9712 1114.07 71.5333 1110.2 71.0785C1111.27 72.0277 1112.31 72.9476 1113.37 73.9166L1113.37 73.9184ZM713.653 128.547C710.483 129.381 707.348 130.176 704.208 130.974C703.373 134.474 702.657 138.337 701.857 141.942C704.828 140.976 707.792 140.027 710.786 139.039C711.745 135.586 712.648 131.901 713.652 128.543L713.653 128.547ZM724.656 125.703C721.488 126.559 718.39 127.322 715.259 128.131C714.264 131.441 713.375 135.11 712.412 138.523C715.366 137.564 718.296 136.651 721.282 135.641C722.415 132.362 723.492 128.871 724.655 125.698L724.656 125.703ZM735.693 122.763C732.53 123.651 729.44 124.448 726.32 125.272C725.17 128.4 724.112 131.865 722.984 135.09C725.923 134.116 728.844 133.17 731.844 132.131C733.131 129.038 734.372 125.744 735.692 122.758L735.693 122.763ZM746.894 119.483C743.755 120.386 740.586 121.337 737.45 122.242C736.153 125.158 734.927 128.434 733.642 131.457C736.609 130.398 739.608 129.281 742.573 128.217C744.031 125.349 745.433 122.27 746.894 119.483ZM758.184 116.187C755.029 117.13 751.899 118.031 748.766 118.937C747.317 121.657 745.949 124.708 744.522 127.512C747.486 126.451 750.45 125.39 753.44 124.28C755.028 121.629 756.577 118.76 758.184 116.187ZM769.581 112.859C766.409 113.828 763.312 114.696 760.187 115.603C758.609 118.103 757.101 120.939 755.544 123.518C758.505 122.455 761.447 121.422 764.452 120.288C766.17 117.862 767.848 115.214 769.594 112.871L769.581 112.859ZM774.4 111.453C773.503 111.725 772.626 111.98 771.749 112.228C770.065 114.492 768.434 117.104 766.75 119.468C767.36 119.25 767.962 119.04 768.585 118.801C770.949 117.902 773.261 117.145 775.606 116.309C777.422 114.126 779.225 111.691 781.063 109.566C778.846 110.188 776.642 110.764 774.398 111.456L774.4 111.453ZM801.518 97.9647C798.204 98.6813 794.867 99.4369 791.54 100.182C789.42 102.475 787.275 104.547 785.171 106.928C788.318 106.025 791.477 105.11 794.617 104.232C796.899 102.006 799.22 100.11 801.516 97.9676L801.518 97.9647ZM814.305 95.1235C810.991 95.8022 807.656 96.5928 804.325 97.3442C802.118 99.3767 799.897 101.244 797.711 103.363C800.89 102.435 804.063 101.504 807.214 100.649C809.565 98.6853 811.94 97.0043 814.305 95.1235ZM827.238 92.4092C824.034 93.0285 820.798 93.7064 817.556 94.4012C815.327 96.1475 813.089 97.7887 810.865 99.6002C813.941 98.7462 816.996 97.943 820.031 97.1906C822.433 95.5057 824.836 94.0277 827.238 92.4092ZM839.722 90.1531C836.733 90.6987 833.749 91.2306 830.762 91.7732C828.511 93.2743 826.275 94.6901 824.029 96.236L832.519 94.2055C834.921 92.7812 837.309 91.5339 839.722 90.1531ZM852.532 87.8382C849.695 88.3249 846.832 88.8614 843.977 89.3859C841.828 90.587 839.683 91.7615 837.531 93.0095C840.286 92.3402 843.04 91.6581 845.777 91.044C848.028 89.9185 850.277 88.916 852.532 87.8382ZM865.952 85.4126C863.289 85.833 860.575 86.3625 857.867 86.8751C856.053 87.7165 854.241 88.5802 852.425 89.4498C854.881 88.8765 857.329 88.3483 859.75 87.8571C861.822 87.009 863.883 86.2294 865.952 85.4126ZM877.405 83.8132C875.57 84.0786 873.744 84.3274 871.927 84.5596C870.377 85.1519 868.825 85.7833 867.272 86.3894C869 86.0691 870.732 85.7302 872.466 85.3931C874.106 84.8611 875.74 84.346 877.402 83.8192L877.405 83.8132ZM888.106 82.3271L885.479 82.6956C884.94 82.8583 884.397 83.0475 883.86 83.2151C884.914 83.0153 885.983 82.7916 887.035 82.6075L888.106 82.3271ZM1282.13 115.542C1283.31 115.95 1284.46 116.391 1285.64 116.805L1285.01 116.471C1283.89 116.053 1282.75 115.653 1281.63 115.246L1282.13 115.542ZM1269.94 111.452C1271.74 112.041 1273.59 112.548 1275.37 113.152C1275.26 113.084 1275.14 113.012 1275.03 112.942C1272.97 112.204 1270.88 111.5 1268.81 110.777C1269.19 111.009 1269.57 111.222 1269.94 111.452ZM1257.22 107.475C1259.52 108.185 1261.81 108.894 1264.1 109.625L1262.11 108.452C1259.67 107.628 1257.28 106.704 1254.82 105.913C1255.61 106.443 1256.42 106.964 1257.22 107.475ZM1243.72 103.27C1246.64 104.114 1249.47 105.091 1252.36 105.968C1251.52 105.452 1250.7 104.859 1249.86 104.343C1247.13 103.482 1244.34 102.724 1241.59 101.891C1242.31 102.338 1243.02 102.789 1243.73 103.261L1243.72 103.27ZM1230.72 99.8142C1233.59 100.596 1236.52 101.293 1239.37 102.103C1238.55 101.561 1237.73 101.035 1236.9 100.499C1233.91 99.6127 1230.95 98.6891 1227.94 97.8528C1228.87 98.5087 1229.8 99.1595 1230.72 99.8052L1230.72 99.8142ZM1217.05 96.1975C1220.37 97.0368 1223.66 97.9389 1226.96 98.817C1225.94 98.114 1224.92 97.3416 1223.9 96.6415C1220.62 95.7383 1217.31 94.8967 1214 94.0324C1215.03 94.7421 1216.04 95.4512 1217.05 96.1885L1217.05 96.1975ZM1203.16 92.83C1206.52 93.6166 1209.89 94.3643 1213.22 95.1869C1212.26 94.4985 1211.3 93.8227 1210.35 93.1428C1207.05 92.3028 1203.73 91.4919 1200.4 90.7102C1201.33 91.4055 1202.26 92.1279 1203.16 92.83ZM1189.28 89.8098C1192.88 90.5834 1196.49 91.3368 1200.05 92.1552C1199.08 91.4244 1198.11 90.6212 1197.13 89.8885C1193.39 89.0146 1189.69 88.0395 1185.92 87.2183C1187.05 88.067 1188.16 88.9317 1189.29 89.7979L1189.28 89.8098ZM1174.88 86.6933C1178.66 87.434 1182.36 88.335 1186.11 89.1294C1185.04 88.2887 1183.96 87.4618 1182.88 86.6289C1179.39 85.888 1175.85 85.2544 1172.33 84.5681C1173.19 85.2648 1174.04 85.9873 1174.89 86.6754L1174.88 86.6933ZM1160.83 84.2915C1164.6 84.9674 1168.45 85.5128 1172.18 86.2317C1171.28 85.4994 1170.37 84.7225 1169.47 84.0058C1165.56 83.2448 1161.69 82.4066 1157.74 81.7192C1158.79 82.5512 1159.82 83.3991 1160.84 84.2736L1160.83 84.2915ZM1146.58 81.8296C1150.45 82.4513 1154.28 83.1317 1158.12 83.8013L1154.93 81.1336C1151.31 80.5152 1147.62 80.0447 1143.96 79.4862C1144.81 80.2467 1145.69 81.0715 1146.58 81.8296ZM1132.02 79.6861C1136.02 80.2499 1140.04 80.7629 1144 81.3894C1143.09 80.5931 1142.17 79.8474 1141.28 79.1031C1137.34 78.5208 1133.41 77.9139 1129.45 77.3802L1132.02 79.6861ZM1117.85 77.9181C1121.74 78.4201 1125.67 78.8395 1129.54 79.3823L1126.87 77.0003C1122.97 76.4891 1119.08 75.9431 1115.15 75.5062C1116.07 76.314 1116.95 77.0882 1117.85 77.9181ZM717.39 116.469C714.032 117.15 710.706 117.793 707.367 118.457C706.416 122.112 705.434 125.675 704.525 129.456C707.711 128.631 710.877 127.832 714.076 126.986C715.156 123.398 716.274 119.941 717.39 116.469ZM729.03 114.159C725.661 114.866 722.379 115.478 719.056 116.135C717.93 119.604 716.771 122.987 715.689 126.566C718.856 125.75 721.988 124.979 725.199 124.108C726.449 120.72 727.739 117.447 729.026 114.165L729.03 114.159ZM740.745 111.701C737.392 112.442 734.071 113.13 730.751 113.817C729.45 117.1 728.125 120.276 726.86 123.676C730.019 122.835 733.171 121.998 736.376 121.094C737.812 117.887 739.282 114.812 740.742 111.707L740.745 111.701ZM752.643 108.987C749.284 109.738 745.918 110.533 742.576 111.282C741.101 114.391 739.592 117.363 738.144 120.584C741.332 119.661 744.55 118.704 747.739 117.774C749.354 114.76 751.002 111.911 752.64 108.993L752.643 108.987ZM764.644 106.247C761.256 107.045 757.927 107.786 754.585 108.543C752.928 111.465 751.236 114.204 749.622 117.243C752.814 116.323 756.002 115.401 759.22 114.431C761.004 111.604 762.834 108.983 764.641 106.253L764.644 106.247ZM776.784 103.477C773.384 104.293 770.077 105.013 766.73 105.771C764.901 108.509 763.027 111.007 761.22 113.845C764.414 112.926 767.589 112.033 770.841 111.034C772.796 108.404 774.804 106.025 776.781 103.483L776.784 103.477ZM779.71 102.805C779.49 102.86 779.276 102.905 779.055 102.955C777.071 105.497 775.02 107.758 773.04 110.393C773.356 110.304 773.669 110.212 773.989 110.116C776.89 109.223 779.736 108.474 782.6 107.661C784.733 105.219 786.906 103.083 789.048 100.733C785.936 101.426 782.851 102.053 779.704 102.814L779.71 102.805ZM797.133 92.1606C793.546 92.7452 789.967 93.3021 786.346 93.9404C784.376 96.3053 782.424 98.7477 780.471 101.206C783.925 100.39 787.341 99.6665 790.76 98.9199C792.878 96.6309 795 94.3808 797.128 92.1696L797.133 92.1606ZM810.292 89.9909C806.698 90.5591 803.082 91.1758 799.474 91.7727C797.394 93.9081 795.323 96.1487 793.254 98.3657C796.699 97.6026 800.165 96.8066 803.606 96.0651C805.828 94.0214 808.051 91.9699 810.286 89.9999L810.292 89.9909ZM823.764 87.7627C820.18 88.3003 816.522 88.9526 812.896 89.5589C810.73 91.4436 808.577 93.4761 806.419 95.4356C809.917 94.6473 813.434 93.8164 816.89 93.1095C819.176 91.3242 821.465 89.4948 823.758 87.7717L823.764 87.7627ZM837.208 85.7862C833.715 86.2641 830.227 86.7487 826.706 87.2792C824.507 88.9035 822.32 90.7011 820.126 92.3906C823.496 91.7042 826.83 91.0872 830.173 90.4505C832.528 88.9019 834.872 87.2845 837.208 85.7862ZM850.474 84.0919C847.111 84.5215 843.746 84.9384 840.39 85.3765C838.158 86.7736 835.931 88.3559 833.699 89.8115C836.948 89.2216 840.191 88.6364 843.429 88.056C845.788 86.7492 848.137 85.358 850.483 84.0975L850.474 84.0919ZM864.098 82.3542C860.828 82.7387 857.524 83.1799 854.222 83.6103C852.05 84.7477 849.867 86.0924 847.69 87.2798C850.924 86.6839 854.172 86.067 857.375 85.5297C859.627 84.4959 861.872 83.3588 864.107 82.3598L864.098 82.3542ZM877.96 80.6728C874.867 80.9927 871.737 81.3724 868.622 81.774C866.659 82.6272 864.679 83.6762 862.718 84.5674C865.667 84.0719 868.585 83.6477 871.505 83.2128C873.667 82.3996 875.836 81.4594 877.972 80.6803L877.96 80.6728ZM890.663 79.5275C888.08 79.7715 885.505 80.0025 882.938 80.2206C881.112 80.873 879.265 81.7067 877.44 82.3845C879.989 82.0311 882.537 81.6777 885.086 81.3244C886.964 80.7619 888.832 80.0943 890.699 79.5498L890.663 79.5275ZM903.359 78.3942C901.29 78.5699 899.205 78.7648 897.123 78.9536C895.815 79.3309 894.494 79.808 893.176 80.2081C895.445 79.8831 897.727 79.5371 899.99 79.2621C901.127 79.0019 902.259 78.6687 903.374 78.4034L903.359 78.3942ZM916.005 77.2626C915.087 77.3279 914.14 77.4284 913.212 77.5117C912.728 77.6257 912.24 77.6921 911.755 77.8013C912.747 77.6875 913.72 77.6272 914.713 77.5182C915.16 77.4513 915.593 77.3468 916.02 77.2718L916.005 77.2626ZM1289.04 119.639C1289.96 119.946 1290.89 120.236 1291.79 120.539L1288.63 119.411L1289.04 119.639ZM1276.85 115.633C1278.89 116.282 1280.9 116.964 1282.94 117.629L1281.67 116.877C1279.52 116.135 1277.42 115.32 1275.25 114.591C1275.78 114.929 1276.31 115.3 1276.85 115.633ZM1263.02 111.225C1265.73 112.04 1268.41 112.899 1271.1 113.735C1270.56 113.402 1270.01 113.094 1269.47 112.77C1266.88 111.921 1264.24 111.144 1261.64 110.322L1263.02 111.225ZM1250.42 107.665C1253.13 108.436 1255.86 109.169 1258.55 109.962L1256.78 108.807C1253.91 107.921 1251.07 106.979 1248.18 106.122C1248.92 106.64 1249.67 107.174 1250.42 107.687L1250.42 107.665ZM1236.14 103.628C1239.5 104.52 1242.78 105.52 1246.12 106.449C1245.16 105.803 1244.19 105.193 1243.23 104.574C1240.21 103.695 1237.08 102.97 1234.03 102.13L1236.14 103.628ZM1222.78 100.239C1225.91 101.018 1229.1 101.704 1232.2 102.517L1230.26 101.13C1226.97 100.239 1223.67 99.3659 1220.36 98.5105C1221.16 99.0979 1221.97 99.6618 1222.78 100.261L1222.78 100.239ZM1208.36 96.8051C1211.98 97.6382 1215.59 98.4962 1219.18 99.3791C1218.3 98.7339 1217.42 98.1208 1216.53 97.501C1212.96 96.5961 1209.39 95.6734 1205.8 94.8294L1208.36 96.8051ZM1194.09 93.483C1197.81 94.2788 1201.43 95.1927 1205.11 96.0266C1204.3 95.4102 1203.5 94.7829 1202.68 94.149C1199.13 93.3186 1195.5 92.6037 1191.92 91.8073C1192.63 92.3754 1193.35 92.9207 1194.08 93.501L1194.09 93.483ZM1179.73 90.6813C1183.49 91.4198 1187.3 92.1022 1191.03 92.8837C1190.27 92.2812 1189.51 91.6992 1188.74 91.1172C1184.9 90.2926 1181.12 89.3916 1177.24 88.6142L1179.73 90.6813ZM1165.15 87.8399C1169.11 88.5521 1172.99 89.3803 1176.92 90.1337C1176.07 89.4395 1175.22 88.7248 1174.38 88.0072C1170.64 87.2775 1166.79 86.7429 1163.03 86.0671C1163.73 86.6736 1164.43 87.2536 1165.14 87.8578L1165.15 87.8399ZM1150.55 85.3683C1154.46 85.9973 1158.4 86.5942 1162.28 87.2769C1161.61 86.7046 1160.94 86.1479 1160.26 85.5882C1156.37 84.9039 1152.47 84.2257 1148.55 83.5864C1149.21 84.2105 1149.88 84.8093 1150.55 85.3937L1150.55 85.3683ZM1135.89 83.1367C1139.96 83.723 1144.01 84.3395 1148.04 84.9863C1147.35 84.3891 1146.66 83.7665 1145.98 83.1439C1141.96 82.502 1137.91 81.9086 1133.86 81.3273C1134.53 81.9514 1135.21 82.5498 1135.89 83.162L1135.89 83.1367ZM1121.07 80.9408C1125.21 81.4752 1129.23 82.1864 1133.33 82.7709L1131.39 81.0375C1127.5 80.4908 1123.54 80.0703 1119.63 79.5505C1120.1 80.0243 1120.59 80.4995 1121.07 80.9408ZM721.486 104.51C717.912 105.033 714.372 105.527 710.813 106.039C709.793 109.644 708.764 113.218 707.793 116.952C711.168 116.282 714.528 115.631 717.921 114.946C719.076 111.363 720.291 107.965 721.486 104.51ZM733.766 102.752C730.162 103.31 726.666 103.773 723.123 104.278C721.937 107.677 720.739 111.069 719.573 114.616C722.937 113.951 726.258 113.33 729.668 112.611C731.009 109.229 732.386 106.031 733.766 102.752ZM746.148 100.788C742.568 101.374 738.984 101.952 735.442 102.503C734.081 105.723 732.712 108.93 731.383 112.266C734.742 111.56 738.125 110.833 741.531 110.087C743.06 106.904 744.618 103.867 746.162 100.793L746.148 100.788ZM758.707 98.6322C755.122 99.2391 751.509 99.8703 747.938 100.469C746.405 103.492 744.873 106.52 743.371 109.654C746.771 108.891 750.2 108.089 753.612 107.305C755.293 104.365 757.006 101.519 758.711 98.6516L758.707 98.6322ZM771.373 96.4763C767.751 97.1098 764.171 97.7077 760.583 98.3127C758.897 101.122 757.213 103.961 755.55 106.875C758.965 106.093 762.369 105.337 765.809 104.537C767.656 101.795 769.516 99.1467 771.377 96.4957L771.373 96.4763ZM784.19 94.2899C780.523 94.962 776.976 95.5217 773.375 96.135C771.537 98.7208 769.711 101.361 767.897 104.055C771.325 103.281 774.707 102.548 778.197 101.706C780.187 99.2082 782.194 96.7298 784.195 94.3093L784.19 94.2899ZM804.951 83.8525C801.15 84.2677 797.347 84.6859 793.519 85.143C791.54 87.3823 789.616 89.9662 787.654 92.2986C791.357 91.6614 795.03 91.072 798.707 90.4766C800.801 88.3534 802.847 85.9401 804.956 83.8719L804.951 83.8525ZM818.875 82.2793C815.069 82.6878 811.231 83.1423 807.411 83.5747C805.277 85.6359 803.172 87.9381 801.048 90.0887C804.737 89.4754 808.485 88.8375 812.182 88.2503C814.424 86.322 816.635 84.1636 818.879 82.2987L818.875 82.2793ZM833.191 80.6596C829.389 81.0289 825.498 81.5213 821.633 81.9591C819.338 83.8463 817.065 85.8507 814.78 87.8146C818.546 87.183 822.342 86.4958 826.057 85.9528C828.444 84.2177 830.814 82.3641 833.195 80.6789L833.191 80.6596ZM847.367 79.3871C843.691 79.7063 840.046 79.9747 836.352 80.3238C833.909 82.0208 831.466 83.7129 829.026 85.4859C832.655 84.9682 836.232 84.5344 839.843 84.0466C842.351 82.4772 844.857 80.8854 847.367 79.3871ZM861.545 78.2648C857.961 78.5455 854.37 78.8309 850.774 79.121C848.189 80.6267 845.608 82.0522 843.021 83.6351C846.59 83.1709 850.154 82.7163 853.713 82.2713C856.33 80.9011 858.94 79.5761 861.545 78.2648ZM876.213 77.1064C872.697 77.3421 869.127 77.6567 865.56 77.9605C862.858 79.2867 860.165 80.4116 857.463 81.812C861.041 81.3371 864.635 80.8431 868.171 80.4418C870.863 79.2584 873.533 78.2182 876.213 77.1064ZM890.843 76.1512C887.594 76.3339 884.357 76.4986 881.076 76.7273C878.47 77.778 875.875 78.6781 873.264 79.7836C876.395 79.4371 879.47 79.1803 882.583 78.8686C885.347 77.8749 888.084 77.0871 890.843 76.1512ZM904.825 75.5273C901.951 75.6608 899.08 75.7897 896.209 75.914C893.715 76.7316 891.232 77.4493 888.731 78.317L896.821 77.5891C899.508 76.8157 902.148 76.2575 904.825 75.5273ZM919.232 74.8773C916.724 74.9802 914.197 75.1003 911.675 75.2192C909.616 75.7527 907.571 76.2448 905.508 76.8048C907.983 76.5742 910.474 76.3198 912.918 76.1401C915.046 75.6744 917.132 75.3312 919.232 74.8773ZM933.585 74.3501C931.903 74.3937 930.242 74.4043 928.546 74.4717C927.107 74.7519 925.671 75.034 924.231 75.3299C925.631 75.2403 926.999 75.2016 928.395 75.118C930.139 74.8323 931.854 74.6276 933.594 74.3557L933.585 74.3501ZM944.431 74.2633L943.98 74.2698L943.325 74.3653L943.502 74.3544C943.83 74.3052 944.135 74.287 944.431 74.2633ZM1295.13 123.253C1297.25 123.953 1299.32 124.702 1301.44 125.412C1301.27 125.309 1301.1 125.205 1300.94 125.105C1298.87 124.372 1296.76 123.688 1294.68 122.972L1295.13 123.253ZM1282.11 119.075C1284.27 119.753 1286.51 120.35 1288.65 121.051L1288.54 120.985C1286.19 120.195 1283.81 119.432 1281.44 118.664L1282.11 119.075ZM1269.02 115.149C1271.82 115.98 1274.64 116.819 1277.43 117.677C1277.08 117.457 1276.73 117.206 1276.38 116.983C1273.31 116.005 1270.32 114.935 1267.23 113.987C1267.82 114.373 1268.42 114.754 1269.02 115.147L1269.02 115.149ZM1255 110.95C1258.15 111.83 1261.19 112.828 1264.31 113.736C1263.71 113.366 1263.12 112.972 1262.54 112.584C1259.67 111.725 1256.73 110.964 1253.86 110.116C1254.25 110.418 1254.62 110.683 1255 110.948L1255 110.95ZM1241.34 107.352C1244.6 108.215 1247.93 108.991 1251.16 109.887C1250.76 109.612 1250.36 109.31 1249.96 109.036C1246.51 108.054 1243.07 107.045 1239.58 106.101C1240.16 106.515 1240.75 106.924 1241.34 107.35L1241.34 107.352ZM1227.25 103.71C1230.72 104.576 1234.15 105.497 1237.59 106.383L1235.62 104.983C1232.26 104.09 1228.88 103.225 1225.5 102.37C1226.09 102.823 1226.66 103.273 1227.24 103.708L1227.25 103.71ZM1212.6 100.105C1216.39 100.986 1220.16 101.929 1223.91 102.849C1223.35 102.438 1222.8 101.995 1222.25 101.596C1218.55 100.674 1214.81 99.8096 1211.08 98.9267C1211.59 99.3183 1212.09 99.7032 1212.59 100.103L1212.6 100.105ZM1198.46 97.0267C1202.13 97.8259 1205.83 98.5823 1209.46 99.418L1207.83 98.1523C1204.07 97.2848 1200.39 96.3033 1196.61 95.4788C1197.22 95.9751 1197.84 96.5238 1198.46 97.0249L1198.46 97.0267ZM1183.37 93.7434C1187.46 94.5702 1191.46 95.5134 1195.52 96.3843C1194.85 95.8469 1194.18 95.3428 1193.51 94.8308C1189.71 94.0242 1185.81 93.346 1181.98 92.5836L1183.37 93.7434ZM1168.92 91.0147C1172.74 91.7257 1176.64 92.3503 1180.45 93.1128L1179.15 92.0406C1175.23 91.2722 1171.34 90.468 1167.39 89.7337C1167.9 90.1603 1168.41 90.5743 1168.92 91.0136L1168.92 91.0147ZM1153.83 88.3322C1157.95 89.0393 1162.04 89.7692 1166.13 90.5222C1165.59 90.0596 1165.06 89.6285 1164.53 89.1871C1160.53 88.4695 1156.52 87.778 1152.48 87.1126L1153.83 88.3322ZM1138.75 85.7276C1142.95 86.3888 1147.06 87.1633 1151.23 87.8705C1150.8 87.4975 1150.38 87.1167 1149.96 86.7359C1145.93 86.0873 1141.87 85.4859 1137.81 84.8862L1138.75 85.7276ZM1123.93 83.6662C1128.03 84.2373 1132.17 84.7482 1136.23 85.3695L1135.24 84.4896C1131.07 83.8782 1127 83.15 1122.81 82.592L1123.93 83.6662ZM725.521 92.7325C721.735 93.0954 717.982 93.4455 714.214 93.7864C713.162 97.21 712.227 101.02 711.221 104.568C714.815 104.053 718.387 103.554 721.999 103.026C723.177 99.6259 724.3 96.0067 725.521 92.7325ZM738.426 91.5296C734.6 91.93 730.89 92.2445 727.136 92.5819C725.916 95.8151 724.814 99.4395 723.623 102.806C727.206 102.297 730.737 101.831 734.38 101.264C735.736 98.0444 737.031 94.6097 738.426 91.5296ZM751.473 90.0886C747.682 90.5142 743.853 90.9664 740.091 91.3646C738.709 94.4111 737.435 97.8384 736.088 100.997C739.673 100.436 743.312 99.8291 746.933 99.2366C748.454 96.239 749.917 92.9946 751.467 90.0976L751.473 90.0886ZM764.655 88.5367C760.841 88.9855 757.01 89.4485 753.211 89.8861C751.672 92.732 750.229 95.9718 748.714 98.9321C752.34 98.3258 756.006 97.6868 759.643 97.0704C761.319 94.2842 762.944 91.2392 764.65 88.5456L764.655 88.5367ZM777.952 86.9731C774.095 87.4448 770.293 87.8805 766.475 88.3226C764.785 90.9638 763.184 94.0031 761.52 96.7509C765.178 96.1191 768.805 95.5303 772.49 94.8819C774.316 92.3082 776.096 89.4619 777.947 86.9821L777.952 86.9731ZM790.321 85.5259C786.773 85.9862 783.352 86.3474 779.874 86.7555C778.044 89.1869 776.293 92.0215 774.487 94.5496C777.905 93.9719 781.27 93.4398 784.758 92.802C785.012 92.7524 785.258 92.7226 785.515 92.6748C787.472 90.2567 789.403 87.6735 791.388 85.4047C791.031 85.4481 790.682 85.4765 790.323 85.5229L790.321 85.5259ZM678.778 264.765C678.734 265.366 678.682 265.945 678.648 266.581L678.778 264.765ZM679.674 251.928C679.417 255.269 679.186 258.695 678.958 262.124C680.221 260.314 681.484 258.417 682.749 256.517C683.095 253.186 683.477 249.984 683.885 246.807C682.486 248.562 681.083 250.216 679.682 251.916L679.674 251.928ZM680.58 239.034C680.31 242.47 680.103 246.098 679.84 249.564C681.292 247.796 682.747 245.964 684.202 244.111C684.599 240.791 684.965 237.34 685.38 234.051C683.78 235.756 682.178 237.386 680.587 239.022L680.58 239.034ZM681.491 226.099C681.194 229.572 681.011 233.363 680.731 236.888C682.371 235.185 684.011 233.444 685.651 231.665C686.081 228.29 686.423 224.684 686.861 221.339C685.07 222.964 683.286 224.506 681.499 226.087L681.491 226.099ZM682.529 213.039C682.181 216.609 681.939 220.467 681.625 224.128C683.456 222.505 685.286 220.851 687.115 219.166C687.581 215.735 687.901 211.95 688.379 208.605C686.428 210.131 684.49 211.565 682.542 213.031L682.529 213.039ZM684.013 199.718C683.597 203.552 683.129 207.229 682.743 211.147C684.724 209.65 686.716 208.116 688.717 206.546C689.265 202.753 689.927 199.232 690.497 195.511C688.336 196.948 686.179 198.329 684.027 199.71L684.013 199.718ZM685.491 186.496C685.038 190.241 684.632 194.118 684.209 197.943C686.392 196.544 688.592 195.086 690.799 193.603C691.385 189.903 691.971 186.191 692.581 182.573C690.208 183.922 687.85 185.227 685.504 186.488L685.491 186.496ZM686.956 173.354C686.467 176.997 686.129 181.078 685.667 184.812C688.049 183.52 690.454 182.159 692.864 180.789C693.479 177.182 693.999 173.276 694.644 169.762C692.087 170.988 689.509 172.188 686.969 173.346L686.956 173.354ZM688.932 160.114C688.349 164.03 687.69 167.734 687.142 171.767C689.715 170.596 692.322 169.348 694.933 168.102C695.652 164.262 696.43 160.632 697.177 156.899C694.423 157.962 691.661 159.065 688.938 160.084L688.932 160.114ZM691.065 146.909C690.431 150.739 689.8 154.572 689.204 158.509C691.952 157.476 694.762 156.336 697.55 155.225C698.32 151.421 699.136 147.751 699.944 144.053C696.961 145.011 693.968 146.013 691.065 146.909ZM693.141 133.842C692.474 137.52 691.93 141.58 691.294 145.373C694.24 144.474 697.272 143.443 700.27 142.461C701.067 138.822 701.804 134.931 702.642 131.387C699.472 132.213 696.257 133.09 693.141 133.842ZM695.698 120.766C694.921 124.608 694.119 128.364 693.385 132.336C696.527 131.575 699.777 130.695 702.97 129.858C703.874 126.079 704.817 122.43 705.761 118.774C702.396 119.447 698.995 120.164 695.698 120.766ZM698.527 107.801C697.685 111.594 696.823 115.351 696.023 119.277C699.354 118.666 702.786 117.945 706.178 117.268C707.161 113.496 708.201 109.911 709.224 106.267C705.652 106.787 702.039 107.339 698.527 107.801ZM701.326 94.9907C700.448 98.5801 699.686 102.605 698.858 106.349C702.4 105.885 706.045 105.327 709.644 104.804C710.659 101.221 711.6 97.4017 712.639 93.9326C708.865 94.2903 705.04 94.6829 701.326 94.9907ZM924.434 -50.9598C821.752 -95.6536 740.584 -63.4164 701.63 93.5674C705.375 93.2576 709.225 92.8642 713.04 92.5071C755.78 -46.189 831.305 -81.9129 924.434 -50.9598ZM945.204 -41.1134C944.386 -41.5364 943.549 -42.0494 942.732 -42.4676C841.974 -84.117 759.932 -53.4981 714.611 92.3415C718.411 91.9878 722.191 91.6543 726.019 91.2841C774.879 -38.2714 852.42 -71.2664 945.204 -41.1134ZM961.194 -32.3611C959.249 -33.4844 957.346 -34.454 955.411 -35.5211C858.903 -71.1278 778.021 -41.2548 727.631 91.1395C731.426 90.787 735.159 90.4824 739.039 90.0822C792.846 -28.3881 870.699 -59.3027 961.194 -32.3611ZM973.587 -24.8565C971.449 -26.1772 969.284 -27.614 967.156 -28.9087C874.85 -58.7705 795.374 -29.5201 740.687 89.9109C744.49 89.5006 748.375 89.0299 752.204 88.5981C809.776 -17.8032 886.61 -47.3433 973.587 -24.8565ZM986.635 -16.6326C983.939 -18.4144 981.288 -20.0278 978.619 -21.6808C890.339 -46.39 812.244 -18.4101 753.948 88.3993C757.794 87.9582 761.675 87.4886 765.543 87.04C826.47 -8.12839 902.615 -35.6233 986.635 -16.6326ZM997.736 -9.00502C995.31 -10.6896 992.846 -12.5056 990.429 -14.1642C905.665 -34.6684 828.829 -8.22421 767.424 86.814C771.276 86.3639 775.109 85.9311 779.019 85.4546C842.301 1.36888 917.094 -24.3589 997.736 -9.00502ZM1009.5 -0.700274C1006.68 -2.75389 1003.88 -4.68649 1001.09 -6.64148C919.982 -23.1817 844.747 1.59502 781.118 85.2027C784.122 84.8479 787.078 84.5346 790.14 84.1377C791.035 84.0292 791.887 83.9485 792.769 83.8405C858.037 10.0634 931.72 -13.3335 1009.5 -0.700274ZM1019.88 6.99658C1017.37 5.10218 1014.85 3.15152 1012.35 1.31221C934.373 -12.2314 860.48 10.4409 795.033 83.5908C798.943 83.1312 802.84 82.69 806.725 82.2671C873.086 18.2632 945.194 -3.10723 1019.88 6.99658ZM1030.48 15.1957C1027.78 13.0923 1025.1 11.0129 1022.43 8.95721C947.729 -1.84689 875.597 18.7778 809.217 81.9765C813.16 81.5204 817.105 81.0662 821.028 80.643C888.008 25.7647 958.583 6.98345 1030.47 15.2046L1030.48 15.1957ZM1040.2 22.7316C1037.69 20.7063 1035.23 18.859 1032.75 16.9596C961.042 8.18487 890.635 26.3467 823.8 80.3272C827.807 79.8659 831.85 79.3479 835.799 78.9823C902.598 32.5779 971.287 16.0729 1040.19 22.7406L1040.2 22.7316ZM1049.53 30.5638C1047.12 28.5682 1044.7 26.5068 1042.29 24.5016C973.72 17.3825 905.388 33.2519 838.891 78.6576C842.717 78.3236 846.479 78.0785 850.295 77.7546C916.559 38.9568 983.338 25.0069 1049.53 30.5638ZM1057.94 37.6182C1055.77 35.7796 1053.62 33.986 1051.47 32.1917C985.759 26.2964 919.483 39.6809 853.704 77.4855C857.518 77.1772 861.334 76.8659 865.129 76.5827C930.137 44.6775 994.65 32.9346 1057.94 37.6182ZM1066.52 44.8251C1064.31 42.8973 1062.12 41.1128 1059.93 39.2866C997.299 34.2984 933.467 45.4336 869.143 76.2579C873.003 75.9363 876.885 75.5837 880.685 75.3452C944.004 49.8039 1006.09 40.5886 1066.52 44.8251ZM1073.63 51.1942C1071.84 49.6166 1070.05 47.9828 1068.26 46.3828C1008.81 41.9491 947.743 50.5939 885.495 74.9914C888.994 74.7982 892.41 74.7192 895.904 74.5271C956.905 54.4829 1016.24 47.3265 1073.62 51.2092L1073.63 51.1942ZM1080.55 57.4029L1075.4 52.785C1019.15 48.7655 961.004 55.3339 901.261 74.2795C904.638 74.1227 908.025 73.9636 911.391 73.8248C969.781 58.675 1026.21 53.653 1080.56 57.4121L1080.55 57.4029ZM1086.67 62.8951C1085.19 61.549 1083.72 60.2476 1082.25 58.9276C1029.51 55.0884 974.79 59.5263 918.248 73.5047C921.604 73.335 924.976 73.1461 928.273 73.0593C983.11 62.3081 1035.94 59.1882 1086.7 62.9173L1086.67 62.8951ZM1092.26 67.9068C1090.98 66.7237 1089.72 65.6134 1088.45 64.4865C1039.6 60.7479 988.85 63.2682 936.252 72.9119C938.773 72.8828 941.279 72.8776 943.805 72.8395C995.281 65.606 1044.78 64.1041 1092.29 67.929L1092.26 67.9068ZM1096.95 72.3237C1095.94 71.3862 1094.92 70.399 1093.91 69.441C1049.11 65.7192 1002.54 66.6168 954.217 72.7449C956.24 72.7307 958.276 72.6957 960.296 72.6875C1007.66 68.4433 1053.22 68.327 1096.97 72.3384L1096.95 72.3237ZM1100.68 75.8695C1099.99 75.2234 1099.3 74.5658 1098.62 73.9052C1058.17 70.2114 1017.49 69.7766 976.979 72.605C977.563 72.6105 978.123 72.6422 978.703 72.6537C1020.89 70.9047 1061.56 71.9825 1100.7 75.8873L1100.68 75.8695ZM1104.03 79.0507L1102.31 77.4191C1073.74 74.5784 1045.05 73.199 1016.34 73.2861C1046.42 73.9396 1075.65 75.8671 1104.05 79.0685L1104.03 79.0507ZM1106.3 81.209L1105.71 80.6571C1093.06 79.2159 1080.24 78.0237 1067.25 77.0804C1080.46 78.2366 1093.49 79.6187 1106.32 81.2268L1106.3 81.209ZM1108.06 80.9157L1108.73 81.5459C1113.04 82.0922 1117.29 82.7047 1121.54 83.3232C1121.17 82.9853 1120.8 82.6329 1120.44 82.2794C1116.36 81.8014 1112.19 81.4114 1108.08 80.9336L1108.06 80.9157ZM1104.66 77.6789L1106.37 79.3105C1110.49 79.7854 1114.64 80.1903 1118.76 80.6816C1118.24 80.192 1117.7 79.7234 1117.16 79.2518C1113.03 78.7163 1108.89 78.1379 1104.68 77.6967L1104.66 77.6789ZM1100.91 74.1257C1101.59 74.7711 1102.26 75.4146 1102.94 76.0473C1107.11 76.4754 1111.2 77.0446 1115.31 77.587C1114.44 76.79 1113.58 76.027 1112.71 75.2621C1108.81 74.8805 1104.87 74.5189 1100.93 74.1434L1100.91 74.1257ZM1096.12 69.5844C1097.16 70.5754 1098.2 71.5725 1099.25 72.5516C1103.17 72.9142 1107.06 73.289 1110.94 73.6762C1109.86 72.6894 1108.79 71.7365 1107.71 70.7721C1103.88 70.3462 1100.02 69.9376 1096.14 69.6022L1096.12 69.5844ZM1090.9 64.7019C1092.09 65.794 1093.31 66.9266 1094.51 68.0429C1098.31 68.3615 1102.09 68.7071 1105.85 69.1072L1102.05 65.7041C1098.36 65.3748 1094.65 65.0271 1090.91 64.7256L1090.9 64.7019ZM1084.6 59.0673C1086.1 60.4077 1087.6 61.7216 1089.13 63.1088C1092.87 63.3965 1096.59 63.7648 1100.3 64.1099C1098.77 62.7529 1097.23 61.3649 1095.7 59.9934C1092.03 59.6517 1088.32 59.377 1084.62 59.0911L1084.6 59.0673ZM1077.82 52.9993C1079.51 54.5032 1081.19 56.0023 1082.88 57.5304C1086.53 57.7964 1090.2 57.9987 1093.83 58.3308C1092.15 56.8757 1090.48 55.4355 1088.81 54.0336C1085.17 53.6911 1081.51 53.3069 1077.84 53.0231L1077.82 52.9993ZM1070.56 46.5075C1072.38 48.1308 1074.21 49.7802 1076.03 51.3956C1079.65 51.6607 1083.26 52.0484 1086.86 52.4097C1084.83 50.6659 1082.81 48.9989 1080.78 47.3142C1077.41 46.9959 1073.99 46.8037 1070.58 46.5313L1070.56 46.5075ZM1062.58 39.5535C1064.65 41.3184 1066.74 43.1268 1068.82 44.9461C1072.12 45.1977 1075.43 45.3126 1078.73 45.5926C1076.77 43.9673 1074.82 42.3066 1072.86 40.6772C1069.46 40.3023 1066.03 39.8772 1062.6 39.5773L1062.58 39.5535ZM1054 32.3769C1056.19 34.1945 1058.38 36.0002 1060.59 37.8844C1064.02 38.1649 1067.44 38.5979 1070.86 38.9977C1068.54 37.1017 1066.2 35.1565 1063.9 33.3125C1060.62 32.94 1057.32 32.7197 1054.02 32.4006L1054 32.3769ZM1045 24.8495C1047.35 26.8002 1049.71 28.7848 1052.05 30.7481C1055.22 31.0522 1058.41 31.1811 1061.58 31.5179C1059.28 29.6781 1056.99 27.9398 1054.7 26.1823C1051.49 25.7335 1048.25 25.2385 1045.03 24.8643L1045 24.8495ZM1035.63 17.2628C1038.04 19.1649 1040.45 21.1041 1042.88 23.0804C1046.04 23.4121 1049.2 23.9096 1052.35 24.3859C1049.82 22.4111 1047.28 20.4288 1044.74 18.4905C1041.74 18.018 1038.7 17.6988 1035.66 17.2939L1035.63 17.2628ZM1025.59 9.50613C1028.17 11.4823 1030.74 13.4487 1033.34 15.4944C1036.29 15.8624 1039.23 16.0573 1042.18 16.476C1039.7 14.6273 1037.25 12.8869 1034.8 11.1561C1031.75 10.6033 1028.69 10.0185 1025.62 9.53734L1025.59 9.50613ZM1015.66 1.83703C1018.12 3.71451 1020.61 5.68397 1023.07 7.56444C1026.01 7.997 1028.97 8.58044 1031.93 9.13558C1029.24 7.20319 1026.57 5.33375 1023.9 3.45946C1021.14 2.83893 1018.4 2.34581 1015.66 1.83703ZM1005.12 -5.69667C1007.73 -3.89136 1010.35 -2.10703 1013 -0.15771C1015.5 0.288791 1018 0.568023 1020.51 1.0659C1018.19 -0.530491 1015.84 -2.20387 1013.53 -3.73135C1010.72 -4.40382 1007.93 -5.079 1005.12 -5.6985L1005.12 -5.69667ZM994.273 -13.3348L1001.75 -8.07681C1004.31 -7.54749 1006.91 -6.89902 1009.5 -6.28557C1006.92 -7.97169 1004.36 -9.54164 1001.8 -11.1485C999.279 -11.9311 996.763 -12.6925 994.27 -13.3366L994.273 -13.3348ZM984.397 -19.9532C986.544 -18.5937 988.699 -17.1878 990.882 -15.7193C992.837 -15.2423 994.775 -14.8838 996.741 -14.3505C994.846 -15.5214 992.91 -16.8538 991.018 -17.9692C988.798 -18.6596 986.603 -19.2846 984.394 -19.9549L984.397 -19.9532ZM973.669 -26.6898C975.548 -25.4999 977.416 -24.3535 979.3 -23.1568C980.999 -22.6731 982.71 -22.1361 984.418 -21.6468C982.557 -22.7183 980.726 -23.664 978.863 -24.7072C977.126 -25.3555 975.373 -26.0999 973.654 -26.6991L973.669 -26.6898ZM965.794 -31.6384C966.339 -31.3018 966.916 -30.9164 967.476 -30.5989C967.969 -30.439 968.449 -30.3451 968.938 -30.1871C968.394 -30.47 967.837 -30.8141 967.293 -31.0922C966.766 -31.2978 966.283 -31.4394 965.779 -31.6477L965.794 -31.6384ZM687.667 159.055C688.265 155.074 688.909 151.221 689.529 147.339C327.668 257.044 135.825 110.395 34.1214 -76.4092C137.516 127.314 330.013 292.746 687.652 159.046L687.667 159.055ZM685.67 172.39C686.211 168.353 686.837 164.562 687.418 160.637C336.776 291.454 144.611 135.305 39.5445 -62.7866C147.233 152.316 341.082 328.066 685.664 172.386L685.67 172.39ZM684.197 185.598C684.653 181.806 684.998 177.693 685.489 174.001C348.009 326.14 154.938 161.114 45.6786 -47.7373C158.483 178.299 354.206 363.701 684.182 185.589L684.197 185.598ZM682.717 198.884C683.131 195.008 683.558 191.083 684.006 187.285C358.427 362.574 163.316 184.963 49.5617 -36.777C167.692 202.094 366.403 400.924 682.704 198.872L682.717 198.884ZM681.226 212.263C681.621 208.276 682.098 204.559 682.515 200.664C366.166 402.158 167.265 203.851 48.9074 -34.8881C172.514 220.733 376.16 441.379 681.211 212.254L681.226 212.263ZM680.146 225.391C680.458 221.713 680.664 217.737 681.006 214.152C368.7 447.95 162.531 211.9 39.6307 -51.0571C168.789 228.207 381.448 488.518 680.141 225.385L680.146 225.391ZM675.586 314.167C675.487 315.345 675.436 316.611 675.347 317.767C675.555 316.982 675.753 316.146 675.957 315.347C676.146 314.038 676.33 312.734 676.512 311.409C676.202 312.353 675.894 313.246 675.58 314.163L675.586 314.167ZM676.35 302.219C676.203 304.285 676.093 306.477 675.944 308.521C676.487 306.911 677.005 305.169 677.54 303.5C677.769 301.683 677.947 299.648 678.166 297.8C677.557 299.308 676.961 300.762 676.35 302.219ZM677.145 289.935C676.976 292.59 676.809 295.251 676.629 297.879C677.348 296.126 678.062 294.22 678.783 292.385C679.06 289.982 679.33 287.483 679.599 285.039C678.774 286.715 677.957 288.313 677.145 289.935ZM677.951 277.43C677.772 280.505 677.574 283.395 677.357 286.425C678.266 284.599 679.164 282.584 680.066 280.662C680.375 277.866 680.693 275.108 680.996 272.275C679.986 274.064 678.968 275.724 677.951 277.43ZM678.65 266.578C678.509 269.305 678.299 271.732 678.147 274.436L678.65 266.578ZM1.70329 -46.8594C225.709 388.245 597.292 992.281 668.577 372.478C568.063 941.277 217.38 371.265 3.84835 -50.3309L4.68899 -51.6914C220.143 373.91 575.525 951.292 670.784 351.728C670.854 351.019 670.917 350.261 670.988 349.544C547.612 901.474 211.953 357.288 6.68813 -54.9267L7.53988 -56.3052C213.465 357.479 550.977 904.797 671.956 339.061C672.122 337.251 672.294 335.473 672.457 333.644C524.957 857.19 205.528 341.551 9.36072 -59.2788L10.2143 -60.6602C206.682 341.049 527.149 858.577 673.142 326.275C673.345 323.798 673.608 321.551 673.811 319.041C502.508 812.272 198.867 325.453 11.8891 -63.3439L12.752 -64.7403C199.81 324.47 503.924 812.391 674.195 313.807C674.386 311.289 674.515 308.522 674.696 305.973C480.227 766.566 191.951 308.912 14.2328 -67.11L15.0993 -68.5124C192.796 307.678 481.28 766.068 674.974 301.823C675.177 298.924 675.352 295.921 675.543 292.982C458.821 721.058 184.997 292.278 16.3641 -70.586L17.2361 -71.9973C185.778 290.947 459.673 720.275 675.764 289.491C675.958 286.305 676.189 283.187 676.376 279.952C438.409 675.969 178.05 275.591 18.317 -73.7465L19.2001 -75.1758C178.816 274.171 439.137 674.965 676.588 276.939C676.782 273.497 677.054 270.36 677.236 266.865C419.113 631.257 171.168 258.881 20.0389 -76.5333L20.9184 -77.9566C171.902 257.425 419.765 630.155 677.412 264.231C677.629 260.646 677.887 257.149 678.153 253.694C401.094 587.056 164.382 242.148 21.5263 -78.9403L22.4131 -80.3756C165.098 240.648 401.662 585.862 678.319 251.33C678.584 247.775 678.802 244.055 679.077 240.523C384.399 543.355 157.827 225.31 22.8215 -81.0364L23.6972 -82.4537C158.486 223.795 384.895 542.117 679.222 238.373C679.503 234.766 679.697 230.911 679.997 227.353C369.19 500.201 151.472 208.396 23.8617 -82.7199L28.4807 -90.1951C128.163 102.331 320.117 258.085 689.778 145.799C690.41 141.963 690.963 137.896 691.638 134.173C319.695 223.382 127.619 85.4178 28.6229 -90.4254L29.5079 -91.8576C128.245 83.9289 320.043 222.022 691.867 132.691C692.593 128.731 693.365 124.911 694.126 121.076C322.224 188.944 129.419 66.6522 30.1786 -92.943L31.0507 -94.3544C130.04 65.2055 322.603 187.587 694.448 119.589C695.247 115.62 696.122 111.86 696.972 108.022C327.241 156.176 133.043 47.526 32.429 -96.585L33.2882 -97.9754C133.655 46.0864 327.611 154.814 697.294 106.556C698.135 102.778 698.897 98.7665 699.785 95.1211C334.274 125.187 138.532 27.9325 35.6439 -101.788L36.4457 -103.086C139.109 26.5624 334.673 123.81 700.091 93.6949C741.477 -74.7558 830.774 -101.557 943.078 -44.1459C951.019 -40.8506 959.058 -37.1643 967.24 -32.9346C975.298 -29.6413 983.499 -25.7351 991.759 -21.5032C999.524 -18.2226 1007.37 -14.5542 1015.29 -10.4977C1022.92 -7.26613 1030.64 -3.60714 1038.4 0.302582C1046.01 3.54651 1053.69 7.13977 1061.39 11.0139C1069 14.2537 1076.64 17.7986 1084.32 21.6488C1091.87 24.8726 1099.45 28.3769 1107.06 32.1618C1114.6 35.387 1122.15 38.862 1129.7 42.5867C1137.2 45.7916 1144.7 49.2314 1152.21 52.906C1159.66 56.1078 1167.1 59.4494 1174.53 63.0949C1181.94 66.2812 1189.35 69.5868 1196.73 73.1852C1203.37 76.0468 1209.97 79.1496 1216.56 82.3241C1223.73 85.3968 1230.85 88.7425 1237.96 92.1405C1245.05 95.1953 1252.1 98.4459 1259.12 101.79C1266.15 104.828 1273.14 107.993 1280.08 111.287C1287.05 114.297 1294 117.38 1300.87 120.636C1307.72 123.605 1314.59 126.58 1321.35 129.769C1325.91 131.761 1330.42 133.827 1334.91 135.886C1341.35 138.622 1347.66 141.522 1353.98 144.42C1360.26 147.11 1366.49 149.857 1372.67 152.662C1538.88 224.244 1664.66 336.103 1759.08 456.219L1758.29 457.496C1674.56 350.871 1566.15 250.717 1426.6 179.526C1561.88 253.069 1668.64 357.209 1752.02 467.647L1751.16 469.038C1663.5 352.845 1549.97 243.604 1404.55 169.658C1545.26 246.28 1657.19 359.647 1744.65 479.566L1743.82 480.921C1651.99 354.931 1533.18 236.137 1382.3 159.654C1528.12 239.139 1645.36 362.141 1737.15 491.715L1736.32 493.051C1640.09 357.078 1515.84 228.315 1359.92 149.528C1510.43 231.729 1633.19 364.741 1729.49 504.106L1728.69 505.401C1628.82 360.805 1500.55 222.975 1342.26 141.746L1340.76 141.166C1494.13 226.116 1621.41 368.498 1721.76 516.611L1720.97 517.887C1618.65 366.743 1488.26 221.531 1330.74 137.299C1329.66 136.896 1328.62 136.463 1327.53 136.063C1480.85 224.278 1610.82 374.346 1714.02 529.139L1713.2 530.464C1608.29 373.02 1475.67 220.434 1318.98 132.919C1317.25 132.3 1315.47 131.734 1313.73 131.124C1467.04 222.786 1599.96 380.526 1706.2 541.796L1705.4 543.085C1597.89 379.757 1463.02 220.008 1307.33 128.936C1305.24 128.213 1303.15 127.492 1301.05 126.786C1453.87 222.22 1589.41 387.219 1698.47 554.335L1697.64 555.675C1587.25 386.452 1449.7 219.374 1294.6 124.572C1291.83 123.66 1289.1 122.704 1286.31 121.815C1439.36 221.054 1578.3 393.726 1690.65 566.961L1689.86 568.244C1576.57 393.44 1436.21 219.157 1281.62 120.41C1278.86 119.529 1276.03 118.743 1273.24 117.9C1425.94 221.308 1567.71 400.924 1682.96 579.409L1682.14 580.731C1565.91 400.656 1422.68 219.371 1268.51 116.491C1265.2 115.506 1261.93 114.471 1258.59 113.515C1411.54 221.111 1556.75 407.97 1675.26 591.866L1674.47 593.146C1555.12 407.814 1408.65 219.424 1254.52 112.283C1251.24 111.366 1247.88 110.536 1244.57 109.645C1397.64 221.675 1546.07 415.354 1667.66 604.173L1666.85 605.483C1544.49 415.375 1394.89 220.276 1240.85 108.677C1237.29 107.736 1233.71 106.812 1230.11 105.905C1383.52 222.454 1535.39 422.891 1660.1 616.403L1659.32 617.665C1533.93 422.95 1380.99 221.205 1226.74 105.041C1222.88 104.082 1219.1 103.034 1215.2 102.115C1369.25 223.276 1524.72 430.375 1652.62 628.513L1651.81 629.819C1523.26 430.568 1366.82 222.225 1212.06 101.432C1208.35 100.566 1204.55 99.8103 1200.81 98.9822C1355.46 224.928 1514.32 438.247 1645.21 640.494L1644.43 641.762C1512.93 438.476 1353.17 223.946 1197.93 98.3582C1193.85 97.4732 1189.82 96.541 1185.71 95.6971C1341.28 226.417 1503.85 446.026 1637.86 652.398L1637.06 653.689C1502.42 446.274 1338.93 225.44 1182.78 95.061C1178.89 94.2791 1174.94 93.5567 1171.01 92.8171C1327.56 228.439 1493.65 453.991 1630.61 664.128L1629.81 665.426C1492.27 454.323 1325.35 227.641 1168.3 92.3373C1164.17 91.5703 1160.01 90.8456 1155.84 90.1208C1313.63 230.65 1483.4 462.048 1623.38 675.837L1622.58 677.12C1482.05 462.395 1311.45 229.865 1153.23 89.6573C1149.02 88.9351 1144.9 88.0983 1140.65 87.4231C1299.83 232.883 1473.32 470.025 1616.27 687.352L1615.47 688.658C1471.96 470.468 1297.7 232.226 1138.11 87.0606C1134.02 86.4299 1129.84 85.9106 1125.7 85.3371C1286.35 235.789 1463.42 478.305 1609.19 698.798L1608.4 700.081C1462.12 478.722 1284.3 235.171 1123.31 85.0056C1119.05 84.405 1114.81 83.7854 1110.51 83.232C1272.82 238.643 1453.56 486.508 1602.18 710.143L1601.37 711.443C1452.23 486.947 1270.7 238.01 1108.07 82.8944C1069.87 78.1118 1031.45 75.2943 992.962 74.453C983.928 74.4608 974.848 74.5354 965.666 74.7745C953.117 75.4686 940.427 76.442 927.597 77.6948C919.586 78.7361 911.533 79.8872 903.409 81.2056C892.568 83.3531 881.609 85.853 870.609 88.4928C863.624 90.5189 856.571 92.8089 849.51 95.1518C842.839 97.6737 836.184 100.102 829.465 102.917C820.828 107.041 812.14 111.602 803.445 116.24C797.815 119.689 792.173 123.311 786.519 127.105C780.264 131.785 774.01 136.531 767.755 141.661C762.129 146.816 756.523 152.521 750.914 158.137C746.625 162.997 742.36 168.138 738.085 173.243C734.264 178.423 730.428 183.499 726.657 189.06C726.563 189.212 726.451 189.346 726.358 189.483C724.696 192.174 722.988 194.796 721.339 197.665C719.303 201.208 717.269 204.414 715.236 207.818C712.118 214.262 708.983 220.221 705.843 226.366C703.079 233.055 700.316 239.689 697.534 246.085C695.26 252.638 693.005 259.367 690.696 265.601C688.977 271.616 687.232 277.426 685.47 283.155C683.758 290.612 681.935 297.398 680.167 304.457C678.689 312.552 677.139 320.262 675.596 328.002C674.486 336.158 673.407 344.416 672.176 352.072C606.537 1009.72 228.001 395.582 0.851512 -45.4809L1.70329 -46.8594Z" fill="#FF424D" fill-opacity="0.07"/>
</svg>
